<svg xmlns="http://www.w3.org/2000/svg" width="100%" height="100%" viewBox="0 0 1492 492" fill="none">
<g filter="url(#filter0_d_174_15)">
<path d="M7 357H1485" stroke="#010EFF" stroke-width="5" stroke-linecap="round"/>
</g>
<g filter="url(#filter1_d_174_15)">
<path d="M7 406H1485" stroke="#FBFF00" stroke-width="5" stroke-linecap="round"/>
</g>
<g filter="url(#filter2_d_174_15)">
<path d="M7 470H1485" stroke="#00F9E8" stroke-width="5" stroke-linecap="round"/>
</g>
<g filter="url(#filter3_d_174_15)">
<path d="M293.5 77C293.5 75.6193 292.381 74.5 291 74.5C289.619 74.5 288.5 75.6193 288.5 77H293.5ZM291 343.667C283.636 343.667 277.667 349.636 277.667 357C277.667 364.364 283.636 370.333 291 370.333C298.364 370.333 304.333 364.364 304.333 357C304.333 349.636 298.364 343.667 291 343.667ZM288.5 77V357H293.5V77H288.5Z" fill="#010EFF"/>
</g>
<g filter="url(#filter4_d_174_15)">
<path d="M749 76.999C749 75.6183 747.881 74.499 746.5 74.499C745.119 74.499 744 75.6183 744 76.999H749ZM746.5 392.667C739.136 392.667 733.167 398.637 733.167 406.001C733.167 413.364 739.136 419.334 746.5 419.334C753.864 419.334 759.833 413.364 759.833 406.001C759.833 398.637 753.864 392.667 746.5 392.667ZM744 76.999V406.001H749V76.999H744Z" fill="#FBFF00"/>
</g>
<g filter="url(#filter5_d_174_15)">
<path d="M1193.5 69.0062C1193.5 67.6255 1192.39 66.5035 1191.01 66.5C1189.63 66.4966 1188.5 67.6131 1188.5 68.9938L1193.5 69.0062ZM1190.03 456.667C1182.67 456.648 1176.69 462.603 1176.67 469.967C1176.65 477.331 1182.6 483.315 1189.97 483.333C1197.33 483.352 1203.31 477.397 1203.33 470.033C1203.35 462.669 1197.4 456.685 1190.03 456.667ZM1188.5 68.9938L1187.5 469.994L1192.5 470.006L1193.5 69.0062L1188.5 68.9938Z" fill="#00F9E8"/>
</g>
<rect x="207" width="168" height="77" rx="20" fill="#D9D9D9"/>
<rect x="663" width="168" height="77" rx="20" fill="#D9D9D9"/>
<rect x="1106" width="169" height="77" rx="20" fill="#D9D9D9"/>
<path d="M235.543 26.152C238.529 26.152 240.705 26.7387 242.071 27.912C243.436 29.0853 244.119 30.7387 244.119 32.872C244.119 33.8107 243.959 34.7173 243.639 35.592C243.34 36.4453 242.839 37.2133 242.135 37.896C241.431 38.5787 240.492 39.1227 239.319 39.528C238.145 39.912 236.705 40.104 234.999 40.104H232.375V49H229.495V26.152H235.543ZM235.287 28.616H232.375V37.64H234.679C236.129 37.64 237.335 37.4907 238.295 37.192C239.255 36.872 239.969 36.3707 240.439 35.688C240.908 35.0053 241.143 34.1093 241.143 33C241.143 31.528 240.673 30.4293 239.735 29.704C238.796 28.9787 237.313 28.616 235.287 28.616ZM266.342 49H263.462V38.344H251.75V49H248.87V26.152H251.75V35.816H263.462V26.152H266.342V49ZM286.924 49L284.172 41.928H275.116L272.396 49H269.484L278.412 26.056H281.004L289.9 49H286.924ZM280.748 32.456C280.684 32.2853 280.578 31.976 280.428 31.528C280.279 31.08 280.13 30.6213 279.98 30.152C279.852 29.6613 279.746 29.288 279.66 29.032C279.554 29.4587 279.436 29.896 279.308 30.344C279.202 30.7707 279.084 31.1653 278.956 31.528C278.85 31.8907 278.754 32.2 278.668 32.456L276.076 39.368H283.308L280.748 32.456ZM305.986 42.888C305.986 44.2533 305.655 45.416 304.994 46.376C304.333 47.3147 303.383 48.04 302.146 48.552C300.93 49.064 299.49 49.32 297.826 49.32C296.973 49.32 296.151 49.2773 295.362 49.192C294.594 49.1067 293.89 48.9893 293.25 48.84C292.61 48.6693 292.045 48.4667 291.554 48.232V45.48C292.322 45.8213 293.271 46.1307 294.402 46.408C295.554 46.6853 296.738 46.824 297.954 46.824C299.085 46.824 300.034 46.6747 300.802 46.376C301.57 46.0773 302.146 45.6507 302.53 45.096C302.914 44.5413 303.106 43.8907 303.106 43.144C303.106 42.3973 302.946 41.768 302.626 41.256C302.306 40.744 301.751 40.2747 300.962 39.848C300.194 39.4 299.117 38.9307 297.73 38.44C296.749 38.0773 295.885 37.6933 295.138 37.288C294.413 36.8613 293.805 36.3813 293.314 35.848C292.823 35.3147 292.45 34.7067 292.194 34.024C291.959 33.3413 291.842 32.552 291.842 31.656C291.842 30.44 292.151 29.4053 292.77 28.552C293.389 27.6773 294.242 27.0053 295.33 26.536C296.439 26.0667 297.709 25.832 299.138 25.832C300.397 25.832 301.549 25.9493 302.594 26.184C303.639 26.4187 304.589 26.728 305.442 27.112L304.546 29.576C303.757 29.2347 302.893 28.9467 301.954 28.712C301.037 28.4773 300.077 28.36 299.074 28.36C298.114 28.36 297.314 28.4987 296.674 28.776C296.034 29.0533 295.554 29.448 295.234 29.96C294.914 30.4507 294.754 31.0267 294.754 31.688C294.754 32.456 294.914 33.096 295.234 33.608C295.554 34.12 296.077 34.5787 296.802 34.984C297.527 35.3893 298.509 35.8267 299.746 36.296C301.09 36.7867 302.221 37.32 303.138 37.896C304.077 38.4507 304.781 39.1227 305.25 39.912C305.741 40.7013 305.986 41.6933 305.986 42.888ZM323.356 49H310.588V26.152H323.356V28.68H313.468V35.816H322.78V38.312H313.468V46.472H323.356V49ZM351.612 49L348.86 41.928H339.804L337.084 49H334.172L343.1 26.056H345.692L354.588 49H351.612ZM345.436 32.456C345.372 32.2853 345.265 31.976 345.116 31.528C344.967 31.08 344.817 30.6213 344.668 30.152C344.54 29.6613 344.433 29.288 344.348 29.032C344.241 29.4587 344.124 29.896 343.996 30.344C343.889 30.7707 343.772 31.1653 343.644 31.528C343.537 31.8907 343.441 32.2 343.356 32.456L340.764 39.368H347.996L345.436 32.456Z" fill="#0F225B"/>
<path d="M691.355 26.152C694.342 26.152 696.518 26.7387 697.883 27.912C699.248 29.0853 699.931 30.7387 699.931 32.872C699.931 33.8107 699.771 34.7173 699.451 35.592C699.152 36.4453 698.651 37.2133 697.947 37.896C697.243 38.5787 696.304 39.1227 695.131 39.528C693.958 39.912 692.518 40.104 690.811 40.104H688.187V49H685.307V26.152H691.355ZM691.099 28.616H688.187V37.64H690.491C691.942 37.64 693.147 37.4907 694.107 37.192C695.067 36.872 695.782 36.3707 696.251 35.688C696.72 35.0053 696.955 34.1093 696.955 33C696.955 31.528 696.486 30.4293 695.547 29.704C694.608 28.9787 693.126 28.616 691.099 28.616ZM722.154 49H719.274V38.344H707.562V49H704.682V26.152H707.562V35.816H719.274V26.152H722.154V49ZM742.737 49L739.985 41.928H730.929L728.209 49H725.297L734.225 26.056H736.817L745.713 49H742.737ZM736.561 32.456C736.497 32.2853 736.39 31.976 736.241 31.528C736.092 31.08 735.942 30.6213 735.793 30.152C735.665 29.6613 735.558 29.288 735.473 29.032C735.366 29.4587 735.249 29.896 735.121 30.344C735.014 30.7707 734.897 31.1653 734.769 31.528C734.662 31.8907 734.566 32.2 734.481 32.456L731.889 39.368H739.121L736.561 32.456ZM761.798 42.888C761.798 44.2533 761.468 45.416 760.806 46.376C760.145 47.3147 759.196 48.04 757.958 48.552C756.742 49.064 755.302 49.32 753.638 49.32C752.785 49.32 751.964 49.2773 751.174 49.192C750.406 49.1067 749.702 48.9893 749.062 48.84C748.422 48.6693 747.857 48.4667 747.366 48.232V45.48C748.134 45.8213 749.084 46.1307 750.214 46.408C751.366 46.6853 752.55 46.824 753.766 46.824C754.897 46.824 755.846 46.6747 756.614 46.376C757.382 46.0773 757.958 45.6507 758.342 45.096C758.726 44.5413 758.918 43.8907 758.918 43.144C758.918 42.3973 758.758 41.768 758.438 41.256C758.118 40.744 757.564 40.2747 756.774 39.848C756.006 39.4 754.929 38.9307 753.542 38.44C752.561 38.0773 751.697 37.6933 750.95 37.288C750.225 36.8613 749.617 36.3813 749.126 35.848C748.636 35.3147 748.262 34.7067 748.006 34.024C747.772 33.3413 747.654 32.552 747.654 31.656C747.654 30.44 747.964 29.4053 748.582 28.552C749.201 27.6773 750.054 27.0053 751.142 26.536C752.252 26.0667 753.521 25.832 754.95 25.832C756.209 25.832 757.361 25.9493 758.406 26.184C759.452 26.4187 760.401 26.728 761.254 27.112L760.358 29.576C759.569 29.2347 758.705 28.9467 757.766 28.712C756.849 28.4773 755.889 28.36 754.886 28.36C753.926 28.36 753.126 28.4987 752.486 28.776C751.846 29.0533 751.366 29.448 751.046 29.96C750.726 30.4507 750.566 31.0267 750.566 31.688C750.566 32.456 750.726 33.096 751.046 33.608C751.366 34.12 751.889 34.5787 752.614 34.984C753.34 35.3893 754.321 35.8267 755.558 36.296C756.902 36.7867 758.033 37.32 758.95 37.896C759.889 38.4507 760.593 39.1227 761.062 39.912C761.553 40.7013 761.798 41.6933 761.798 42.888ZM779.169 49H766.401V26.152H779.169V28.68H769.281V35.816H778.593V38.312H769.281V46.472H779.169V49ZM799.616 26.152C801.515 26.152 803.104 26.3333 804.384 26.696C805.686 27.0587 806.656 27.656 807.296 28.488C807.958 29.32 808.288 30.4293 808.288 31.816C808.288 32.712 808.118 33.512 807.776 34.216C807.456 34.8987 806.966 35.4747 806.304 35.944C805.664 36.392 804.875 36.7013 803.936 36.872V37.032C804.896 37.1813 805.76 37.4587 806.528 37.864C807.318 38.2693 807.936 38.8453 808.384 39.592C808.832 40.3387 809.056 41.3093 809.056 42.504C809.056 43.8907 808.736 45.0747 808.096 46.056C807.456 47.016 806.539 47.752 805.344 48.264C804.171 48.7547 802.763 49 801.12 49H793.088V26.152H799.616ZM800.192 35.88C802.155 35.88 803.499 35.5707 804.224 34.952C804.95 34.312 805.312 33.3733 805.312 32.136C805.312 30.8773 804.864 29.9813 803.968 29.448C803.094 28.8933 801.686 28.616 799.744 28.616H795.968V35.88H800.192ZM795.968 38.28V46.568H800.576C802.603 46.568 804.011 46.1733 804.8 45.384C805.59 44.5947 805.984 43.56 805.984 42.28C805.984 41.4693 805.803 40.7653 805.44 40.168C805.099 39.5707 804.512 39.112 803.68 38.792C802.87 38.4507 801.76 38.28 800.352 38.28H795.968Z" fill="#0F225B"/>
<path d="M1135.15 26.152C1138.14 26.152 1140.31 26.7387 1141.68 27.912C1143.05 29.0853 1143.73 30.7387 1143.73 32.872C1143.73 33.8107 1143.57 34.7173 1143.25 35.592C1142.95 36.4453 1142.45 37.2133 1141.74 37.896C1141.04 38.5787 1140.1 39.1227 1138.93 39.528C1137.75 39.912 1136.31 40.104 1134.61 40.104H1131.98V49H1129.1V26.152H1135.15ZM1134.9 28.616H1131.98V37.64H1134.29C1135.74 37.64 1136.94 37.4907 1137.9 37.192C1138.86 36.872 1139.58 36.3707 1140.05 35.688C1140.52 35.0053 1140.75 34.1093 1140.75 33C1140.75 31.528 1140.28 30.4293 1139.34 29.704C1138.41 28.9787 1136.92 28.616 1134.9 28.616ZM1165.95 49H1163.07V38.344H1151.36V49H1148.48V26.152H1151.36V35.816H1163.07V26.152H1165.95V49ZM1186.53 49L1183.78 41.928H1174.73L1172.01 49H1169.09L1178.02 26.056H1180.61L1189.51 49H1186.53ZM1180.36 32.456C1180.29 32.2853 1180.19 31.976 1180.04 31.528C1179.89 31.08 1179.74 30.6213 1179.59 30.152C1179.46 29.6613 1179.36 29.288 1179.27 29.032C1179.16 29.4587 1179.05 29.896 1178.92 30.344C1178.81 30.7707 1178.69 31.1653 1178.57 31.528C1178.46 31.8907 1178.36 32.2 1178.28 32.456L1175.69 39.368H1182.92L1180.36 32.456ZM1205.6 42.888C1205.6 44.2533 1205.26 45.416 1204.6 46.376C1203.94 47.3147 1202.99 48.04 1201.76 48.552C1200.54 49.064 1199.1 49.32 1197.44 49.32C1196.58 49.32 1195.76 49.2773 1194.97 49.192C1194.2 49.1067 1193.5 48.9893 1192.86 48.84C1192.22 48.6693 1191.65 48.4667 1191.16 48.232V45.48C1191.93 45.8213 1192.88 46.1307 1194.01 46.408C1195.16 46.6853 1196.35 46.824 1197.56 46.824C1198.69 46.824 1199.64 46.6747 1200.41 46.376C1201.18 46.0773 1201.76 45.6507 1202.14 45.096C1202.52 44.5413 1202.72 43.8907 1202.72 43.144C1202.72 42.3973 1202.56 41.768 1202.24 41.256C1201.92 40.744 1201.36 40.2747 1200.57 39.848C1199.8 39.4 1198.73 38.9307 1197.34 38.44C1196.36 38.0773 1195.49 37.6933 1194.75 37.288C1194.02 36.8613 1193.41 36.3813 1192.92 35.848C1192.43 35.3147 1192.06 34.7067 1191.8 34.024C1191.57 33.3413 1191.45 32.552 1191.45 31.656C1191.45 30.44 1191.76 29.4053 1192.38 28.552C1193 27.6773 1193.85 27.0053 1194.94 26.536C1196.05 26.0667 1197.32 25.832 1198.75 25.832C1200.01 25.832 1201.16 25.9493 1202.2 26.184C1203.25 26.4187 1204.2 26.728 1205.05 27.112L1204.16 29.576C1203.37 29.2347 1202.5 28.9467 1201.56 28.712C1200.65 28.4773 1199.69 28.36 1198.68 28.36C1197.72 28.36 1196.92 28.4987 1196.28 28.776C1195.64 29.0533 1195.16 29.448 1194.84 29.96C1194.52 30.4507 1194.36 31.0267 1194.36 31.688C1194.36 32.456 1194.52 33.096 1194.84 33.608C1195.16 34.12 1195.69 34.5787 1196.41 34.984C1197.14 35.3893 1198.12 35.8267 1199.36 36.296C1200.7 36.7867 1201.83 37.32 1202.75 37.896C1203.69 38.4507 1204.39 39.1227 1204.86 39.912C1205.35 40.7013 1205.6 41.6933 1205.6 42.888ZM1222.97 49H1210.2V26.152H1222.97V28.68H1213.08V35.816H1222.39V38.312H1213.08V46.472H1222.97V49ZM1246.68 28.36C1245.46 28.36 1244.36 28.5733 1243.38 29C1242.4 29.4053 1241.57 30.0133 1240.89 30.824C1240.2 31.6133 1239.68 32.584 1239.32 33.736C1238.95 34.8667 1238.77 36.1467 1238.77 37.576C1238.77 39.4533 1239.06 41.0853 1239.64 42.472C1240.23 43.8587 1241.11 44.9253 1242.26 45.672C1243.43 46.4187 1244.9 46.792 1246.65 46.792C1247.65 46.792 1248.6 46.7067 1249.49 46.536C1250.39 46.3653 1251.26 46.152 1252.12 45.896V48.392C1251.26 48.712 1250.38 48.9467 1249.46 49.096C1248.57 49.2453 1247.49 49.32 1246.23 49.32C1243.9 49.32 1241.96 48.84 1240.41 47.88C1238.85 46.92 1237.67 45.5547 1236.89 43.784C1236.12 42.0133 1235.73 39.9333 1235.73 37.544C1235.73 35.816 1235.97 34.2373 1236.44 32.808C1236.93 31.3787 1237.63 30.1413 1238.55 29.096C1239.49 28.0507 1240.64 27.2507 1242.01 26.696C1243.37 26.12 1244.94 25.832 1246.71 25.832C1247.88 25.832 1249.01 25.9493 1250.1 26.184C1251.19 26.4187 1252.16 26.7493 1253.01 27.176L1251.86 29.608C1251.16 29.288 1250.37 29 1249.49 28.744C1248.64 28.488 1247.7 28.36 1246.68 28.36Z" fill="#0F225B"/>
<defs>
<filter id="filter0_d_174_15" x="0.5" y="354.5" width="1491" height="13" filterUnits="userSpaceOnUse" color-interpolation-filters="sRGB">
<feFlood flood-opacity="0" result="BackgroundImageFix"/>
<feColorMatrix in="SourceAlpha" type="matrix" values="0 0 0 0 0 0 0 0 0 0 0 0 0 0 0 0 0 0 127 0" result="hardAlpha"/>
<feOffset dy="4"/>
<feGaussianBlur stdDeviation="2"/>
<feComposite in2="hardAlpha" operator="out"/>
<feColorMatrix type="matrix" values="0 0 0 0 0 0 0 0 0 0 0 0 0 0 0 0 0 0 0.25 0"/>
<feBlend mode="normal" in2="BackgroundImageFix" result="effect1_dropShadow_174_15"/>
<feBlend mode="normal" in="SourceGraphic" in2="effect1_dropShadow_174_15" result="shape"/>
</filter>
<filter id="filter1_d_174_15" x="0.5" y="403.5" width="1491" height="13" filterUnits="userSpaceOnUse" color-interpolation-filters="sRGB">
<feFlood flood-opacity="0" result="BackgroundImageFix"/>
<feColorMatrix in="SourceAlpha" type="matrix" values="0 0 0 0 0 0 0 0 0 0 0 0 0 0 0 0 0 0 127 0" result="hardAlpha"/>
<feOffset dy="4"/>
<feGaussianBlur stdDeviation="2"/>
<feComposite in2="hardAlpha" operator="out"/>
<feColorMatrix type="matrix" values="0 0 0 0 0 0 0 0 0 0 0 0 0 0 0 0 0 0 0.25 0"/>
<feBlend mode="normal" in2="BackgroundImageFix" result="effect1_dropShadow_174_15"/>
<feBlend mode="normal" in="SourceGraphic" in2="effect1_dropShadow_174_15" result="shape"/>
</filter>
<filter id="filter2_d_174_15" x="0.5" y="467.5" width="1491" height="13" filterUnits="userSpaceOnUse" color-interpolation-filters="sRGB">
<feFlood flood-opacity="0" result="BackgroundImageFix"/>
<feColorMatrix in="SourceAlpha" type="matrix" values="0 0 0 0 0 0 0 0 0 0 0 0 0 0 0 0 0 0 127 0" result="hardAlpha"/>
<feOffset dy="4"/>
<feGaussianBlur stdDeviation="2"/>
<feComposite in2="hardAlpha" operator="out"/>
<feColorMatrix type="matrix" values="0 0 0 0 0 0 0 0 0 0 0 0 0 0 0 0 0 0 0.25 0"/>
<feBlend mode="normal" in2="BackgroundImageFix" result="effect1_dropShadow_174_15"/>
<feBlend mode="normal" in="SourceGraphic" in2="effect1_dropShadow_174_15" result="shape"/>
</filter>
<filter id="filter3_d_174_15" x="273.667" y="74.5" width="34.6666" height="303.833" filterUnits="userSpaceOnUse" color-interpolation-filters="sRGB">
<feFlood flood-opacity="0" result="BackgroundImageFix"/>
<feColorMatrix in="SourceAlpha" type="matrix" values="0 0 0 0 0 0 0 0 0 0 0 0 0 0 0 0 0 0 127 0" result="hardAlpha"/>
<feOffset dy="4"/>
<feGaussianBlur stdDeviation="2"/>
<feComposite in2="hardAlpha" operator="out"/>
<feColorMatrix type="matrix" values="0 0 0 0 0 0 0 0 0 0 0 0 0 0 0 0 0 0 0.25 0"/>
<feBlend mode="normal" in2="BackgroundImageFix" result="effect1_dropShadow_174_15"/>
<feBlend mode="normal" in="SourceGraphic" in2="effect1_dropShadow_174_15" result="shape"/>
</filter>
<filter id="filter4_d_174_15" x="729.167" y="74.499" width="34.6667" height="352.835" filterUnits="userSpaceOnUse" color-interpolation-filters="sRGB">
<feFlood flood-opacity="0" result="BackgroundImageFix"/>
<feColorMatrix in="SourceAlpha" type="matrix" values="0 0 0 0 0 0 0 0 0 0 0 0 0 0 0 0 0 0 127 0" result="hardAlpha"/>
<feOffset dy="4"/>
<feGaussianBlur stdDeviation="2"/>
<feComposite in2="hardAlpha" operator="out"/>
<feColorMatrix type="matrix" values="0 0 0 0 0 0 0 0 0 0 0 0 0 0 0 0 0 0 0.25 0"/>
<feBlend mode="normal" in2="BackgroundImageFix" result="effect1_dropShadow_174_15"/>
<feBlend mode="normal" in="SourceGraphic" in2="effect1_dropShadow_174_15" result="shape"/>
</filter>
<filter id="filter5_d_174_15" x="1172.67" y="66.5" width="34.6667" height="424.833" filterUnits="userSpaceOnUse" color-interpolation-filters="sRGB">
<feFlood flood-opacity="0" result="BackgroundImageFix"/>
<feColorMatrix in="SourceAlpha" type="matrix" values="0 0 0 0 0 0 0 0 0 0 0 0 0 0 0 0 0 0 127 0" result="hardAlpha"/>
<feOffset dy="4"/>
<feGaussianBlur stdDeviation="2"/>
<feComposite in2="hardAlpha" operator="out"/>
<feColorMatrix type="matrix" values="0 0 0 0 0 0 0 0 0 0 0 0 0 0 0 0 0 0 0.25 0"/>
<feBlend mode="normal" in2="BackgroundImageFix" result="effect1_dropShadow_174_15"/>
<feBlend mode="normal" in="SourceGraphic" in2="effect1_dropShadow_174_15" result="shape"/>
</filter>
</defs>
</svg>
