<svg xmlns="http://www.w3.org/2000/svg" width="100%" height="100%" viewBox="0 0 1704 493" fill="none">
<g filter="url(#filter0_d_173_13)">
<path d="M219 357H1697" stroke="#010EFF" stroke-width="5" stroke-linecap="round"/>
</g>
<g filter="url(#filter1_d_173_13)">
<path d="M219 406H1697" stroke="#FBFF00" stroke-width="5" stroke-linecap="round"/>
</g>
<g filter="url(#filter2_d_173_13)">
<path d="M219 470H1697" stroke="#00F9E8" stroke-width="5" stroke-linecap="round"/>
</g>
<g filter="url(#filter3_d_173_13)">
<path d="M505.5 77C505.5 75.6193 504.381 74.5 503 74.5C501.619 74.5 500.5 75.6193 500.5 77H505.5ZM503 343.667C495.636 343.667 489.667 349.636 489.667 357C489.667 364.364 495.636 370.333 503 370.333C510.364 370.333 516.333 364.364 516.333 357C516.333 349.636 510.364 343.667 503 343.667ZM500.5 77V357H505.5V77H500.5Z" fill="#010EFF"/>
</g>
<g filter="url(#filter4_d_173_13)">
<path d="M961 76.999C961 75.6183 959.881 74.499 958.5 74.499C957.119 74.499 956 75.6183 956 76.999H961ZM958.5 392.667C951.136 392.667 945.167 398.637 945.167 406.001C945.167 413.364 951.136 419.334 958.5 419.334C965.864 419.334 971.833 413.364 971.833 406.001C971.833 398.637 965.864 392.667 958.5 392.667ZM956 76.999V406.001H961V76.999H956Z" fill="#FBFF00"/>
</g>
<g filter="url(#filter5_d_173_13)">
<path d="M1405.5 69.0062C1405.5 67.6255 1404.39 66.5035 1403.01 66.5C1401.63 66.4966 1400.5 67.6131 1400.5 68.9938L1405.5 69.0062ZM1402.03 456.667C1394.67 456.648 1388.69 462.603 1388.67 469.967C1388.65 477.331 1394.6 483.315 1401.97 483.333C1409.33 483.352 1415.31 477.397 1415.33 470.033C1415.35 462.669 1409.4 456.685 1402.03 456.667ZM1400.5 68.9938L1399.5 469.994L1404.5 470.006L1405.5 69.0062L1400.5 68.9938Z" fill="#00F9E8"/>
</g>
<rect x="419" width="168" height="77" rx="20" fill="#D9D9D9"/>
<rect x="875" width="168" height="77" rx="20" fill="#D9D9D9"/>
<rect x="1318" width="169" height="77" rx="20" fill="#D9D9D9"/>
<path d="M447.543 26.152C450.529 26.152 452.705 26.7387 454.071 27.912C455.436 29.0853 456.119 30.7387 456.119 32.872C456.119 33.8107 455.959 34.7173 455.639 35.592C455.34 36.4453 454.839 37.2133 454.135 37.896C453.431 38.5787 452.492 39.1227 451.319 39.528C450.145 39.912 448.705 40.104 446.999 40.104H444.375V49H441.495V26.152H447.543ZM447.287 28.616H444.375V37.64H446.679C448.129 37.64 449.335 37.4907 450.295 37.192C451.255 36.872 451.969 36.3707 452.439 35.688C452.908 35.0053 453.143 34.1093 453.143 33C453.143 31.528 452.673 30.4293 451.735 29.704C450.796 28.9787 449.313 28.616 447.287 28.616ZM478.342 49H475.462V38.344H463.75V49H460.87V26.152H463.75V35.816H475.462V26.152H478.342V49ZM498.924 49L496.172 41.928H487.116L484.396 49H481.484L490.412 26.056H493.004L501.9 49H498.924ZM492.748 32.456C492.684 32.2853 492.578 31.976 492.428 31.528C492.279 31.08 492.13 30.6213 491.98 30.152C491.852 29.6613 491.746 29.288 491.66 29.032C491.554 29.4587 491.436 29.896 491.308 30.344C491.202 30.7707 491.084 31.1653 490.956 31.528C490.85 31.8907 490.754 32.2 490.668 32.456L488.076 39.368H495.308L492.748 32.456ZM517.986 42.888C517.986 44.2533 517.655 45.416 516.994 46.376C516.333 47.3147 515.383 48.04 514.146 48.552C512.93 49.064 511.49 49.32 509.826 49.32C508.973 49.32 508.151 49.2773 507.362 49.192C506.594 49.1067 505.89 48.9893 505.25 48.84C504.61 48.6693 504.045 48.4667 503.554 48.232V45.48C504.322 45.8213 505.271 46.1307 506.402 46.408C507.554 46.6853 508.738 46.824 509.954 46.824C511.085 46.824 512.034 46.6747 512.802 46.376C513.57 46.0773 514.146 45.6507 514.53 45.096C514.914 44.5413 515.106 43.8907 515.106 43.144C515.106 42.3973 514.946 41.768 514.626 41.256C514.306 40.744 513.751 40.2747 512.962 39.848C512.194 39.4 511.117 38.9307 509.73 38.44C508.749 38.0773 507.885 37.6933 507.138 37.288C506.413 36.8613 505.805 36.3813 505.314 35.848C504.823 35.3147 504.45 34.7067 504.194 34.024C503.959 33.3413 503.842 32.552 503.842 31.656C503.842 30.44 504.151 29.4053 504.77 28.552C505.389 27.6773 506.242 27.0053 507.33 26.536C508.439 26.0667 509.709 25.832 511.138 25.832C512.397 25.832 513.549 25.9493 514.594 26.184C515.639 26.4187 516.589 26.728 517.442 27.112L516.546 29.576C515.757 29.2347 514.893 28.9467 513.954 28.712C513.037 28.4773 512.077 28.36 511.074 28.36C510.114 28.36 509.314 28.4987 508.674 28.776C508.034 29.0533 507.554 29.448 507.234 29.96C506.914 30.4507 506.754 31.0267 506.754 31.688C506.754 32.456 506.914 33.096 507.234 33.608C507.554 34.12 508.077 34.5787 508.802 34.984C509.527 35.3893 510.509 35.8267 511.746 36.296C513.09 36.7867 514.221 37.32 515.138 37.896C516.077 38.4507 516.781 39.1227 517.25 39.912C517.741 40.7013 517.986 41.6933 517.986 42.888ZM535.356 49H522.588V26.152H535.356V28.68H525.468V35.816H534.78V38.312H525.468V46.472H535.356V49ZM563.612 49L560.86 41.928H551.804L549.084 49H546.172L555.1 26.056H557.692L566.588 49H563.612ZM557.436 32.456C557.372 32.2853 557.265 31.976 557.116 31.528C556.967 31.08 556.817 30.6213 556.668 30.152C556.54 29.6613 556.433 29.288 556.348 29.032C556.241 29.4587 556.124 29.896 555.996 30.344C555.889 30.7707 555.772 31.1653 555.644 31.528C555.537 31.8907 555.441 32.2 555.356 32.456L552.764 39.368H559.996L557.436 32.456Z" fill="#0F225B"/>
<path d="M69.5079 295H66.6279V274.68H59.4919V272.152H76.6119V274.68H69.5079V295ZM92.3351 286.392C92.3351 287.821 92.1431 289.091 91.7591 290.2C91.3965 291.288 90.8631 292.216 90.1591 292.984C89.4765 293.752 88.6338 294.339 87.6311 294.744C86.6498 295.128 85.5511 295.32 84.3351 295.32C83.2045 295.32 82.1591 295.128 81.1991 294.744C80.2391 294.339 79.4071 293.752 78.7031 292.984C77.9991 292.216 77.4445 291.288 77.0391 290.2C76.6551 289.091 76.4631 287.821 76.4631 286.392C76.4631 284.493 76.7831 282.893 77.4231 281.592C78.0631 280.269 78.9805 279.267 80.1751 278.584C81.3698 277.88 82.7885 277.528 84.4311 277.528C85.9885 277.528 87.3538 277.88 88.5271 278.584C89.7218 279.267 90.6498 280.269 91.3111 281.592C91.9938 282.893 92.3351 284.493 92.3351 286.392ZM79.3751 286.392C79.3751 287.736 79.5458 288.909 79.8871 289.912C80.2498 290.893 80.8045 291.651 81.5511 292.184C82.2978 292.717 83.2471 292.984 84.3991 292.984C85.5511 292.984 86.5005 292.717 87.2471 292.184C87.9938 291.651 88.5378 290.893 88.8791 289.912C89.2418 288.909 89.4231 287.736 89.4231 286.392C89.4231 285.027 89.2418 283.864 88.8791 282.904C88.5165 281.944 87.9618 281.208 87.2151 280.696C86.4898 280.163 85.5405 279.896 84.3671 279.896C82.6178 279.896 81.3485 280.472 80.5591 281.624C79.7698 282.776 79.3751 284.365 79.3751 286.392ZM102.526 293.016C102.953 293.016 103.39 292.984 103.838 292.92C104.286 292.835 104.649 292.749 104.926 292.664V294.808C104.627 294.957 104.201 295.075 103.646 295.16C103.091 295.267 102.558 295.32 102.046 295.32C101.15 295.32 100.318 295.171 99.5501 294.872C98.8035 294.552 98.1955 294.008 97.7261 293.24C97.2568 292.472 97.0221 291.395 97.0221 290.008V280.024H94.5901V278.68L97.0541 277.56L98.1741 273.912H99.8381V277.848H104.798V280.024H99.8381V289.944C99.8381 290.989 100.083 291.768 100.574 292.28C101.086 292.771 101.737 293.016 102.526 293.016ZM114.857 277.56C116.947 277.56 118.494 278.019 119.497 278.936C120.499 279.853 121.001 281.315 121.001 283.32V295H118.953L118.409 292.568H118.281C117.79 293.187 117.278 293.709 116.745 294.136C116.233 294.541 115.635 294.84 114.953 295.032C114.291 295.224 113.481 295.32 112.521 295.32C111.497 295.32 110.569 295.139 109.737 294.776C108.926 294.413 108.286 293.859 107.817 293.112C107.347 292.344 107.113 291.384 107.113 290.232C107.113 288.525 107.785 287.213 109.129 286.296C110.473 285.357 112.542 284.845 115.337 284.76L118.249 284.664V283.64C118.249 282.211 117.939 281.219 117.321 280.664C116.702 280.109 115.827 279.832 114.697 279.832C113.801 279.832 112.947 279.971 112.137 280.248C111.326 280.504 110.569 280.803 109.865 281.144L109.001 279.032C109.747 278.627 110.633 278.285 111.657 278.008C112.681 277.709 113.747 277.56 114.857 277.56ZM115.689 286.712C113.555 286.797 112.073 287.139 111.241 287.736C110.43 288.333 110.025 289.176 110.025 290.264C110.025 291.224 110.313 291.928 110.889 292.376C111.486 292.824 112.243 293.048 113.161 293.048C114.611 293.048 115.817 292.653 116.777 291.864C117.737 291.053 118.217 289.816 118.217 288.152V286.616L115.689 286.712ZM129.114 295H126.298V270.68H129.114V295Z" fill="white"/>
<path d="M903.355 26.152C906.342 26.152 908.518 26.7387 909.883 27.912C911.248 29.0853 911.931 30.7387 911.931 32.872C911.931 33.8107 911.771 34.7173 911.451 35.592C911.152 36.4453 910.651 37.2133 909.947 37.896C909.243 38.5787 908.304 39.1227 907.131 39.528C905.958 39.912 904.518 40.104 902.811 40.104H900.187V49H897.307V26.152H903.355ZM903.099 28.616H900.187V37.64H902.491C903.942 37.64 905.147 37.4907 906.107 37.192C907.067 36.872 907.782 36.3707 908.251 35.688C908.72 35.0053 908.955 34.1093 908.955 33C908.955 31.528 908.486 30.4293 907.547 29.704C906.608 28.9787 905.126 28.616 903.099 28.616ZM934.154 49H931.274V38.344H919.562V49H916.682V26.152H919.562V35.816H931.274V26.152H934.154V49ZM954.737 49L951.985 41.928H942.929L940.209 49H937.297L946.225 26.056H948.817L957.713 49H954.737ZM948.561 32.456C948.497 32.2853 948.39 31.976 948.241 31.528C948.092 31.08 947.942 30.6213 947.793 30.152C947.665 29.6613 947.558 29.288 947.473 29.032C947.366 29.4587 947.249 29.896 947.121 30.344C947.014 30.7707 946.897 31.1653 946.769 31.528C946.662 31.8907 946.566 32.2 946.481 32.456L943.889 39.368H951.121L948.561 32.456ZM973.798 42.888C973.798 44.2533 973.468 45.416 972.806 46.376C972.145 47.3147 971.196 48.04 969.958 48.552C968.742 49.064 967.302 49.32 965.638 49.32C964.785 49.32 963.964 49.2773 963.174 49.192C962.406 49.1067 961.702 48.9893 961.062 48.84C960.422 48.6693 959.857 48.4667 959.366 48.232V45.48C960.134 45.8213 961.084 46.1307 962.214 46.408C963.366 46.6853 964.55 46.824 965.766 46.824C966.897 46.824 967.846 46.6747 968.614 46.376C969.382 46.0773 969.958 45.6507 970.342 45.096C970.726 44.5413 970.918 43.8907 970.918 43.144C970.918 42.3973 970.758 41.768 970.438 41.256C970.118 40.744 969.564 40.2747 968.774 39.848C968.006 39.4 966.929 38.9307 965.542 38.44C964.561 38.0773 963.697 37.6933 962.95 37.288C962.225 36.8613 961.617 36.3813 961.126 35.848C960.636 35.3147 960.262 34.7067 960.006 34.024C959.772 33.3413 959.654 32.552 959.654 31.656C959.654 30.44 959.964 29.4053 960.582 28.552C961.201 27.6773 962.054 27.0053 963.142 26.536C964.252 26.0667 965.521 25.832 966.95 25.832C968.209 25.832 969.361 25.9493 970.406 26.184C971.452 26.4187 972.401 26.728 973.254 27.112L972.358 29.576C971.569 29.2347 970.705 28.9467 969.766 28.712C968.849 28.4773 967.889 28.36 966.886 28.36C965.926 28.36 965.126 28.4987 964.486 28.776C963.846 29.0533 963.366 29.448 963.046 29.96C962.726 30.4507 962.566 31.0267 962.566 31.688C962.566 32.456 962.726 33.096 963.046 33.608C963.366 34.12 963.889 34.5787 964.614 34.984C965.34 35.3893 966.321 35.8267 967.558 36.296C968.902 36.7867 970.033 37.32 970.95 37.896C971.889 38.4507 972.593 39.1227 973.062 39.912C973.553 40.7013 973.798 41.6933 973.798 42.888ZM991.169 49H978.401V26.152H991.169V28.68H981.281V35.816H990.593V38.312H981.281V46.472H991.169V49ZM1011.62 26.152C1013.52 26.152 1015.1 26.3333 1016.38 26.696C1017.69 27.0587 1018.66 27.656 1019.3 28.488C1019.96 29.32 1020.29 30.4293 1020.29 31.816C1020.29 32.712 1020.12 33.512 1019.78 34.216C1019.46 34.8987 1018.97 35.4747 1018.3 35.944C1017.66 36.392 1016.88 36.7013 1015.94 36.872V37.032C1016.9 37.1813 1017.76 37.4587 1018.53 37.864C1019.32 38.2693 1019.94 38.8453 1020.38 39.592C1020.83 40.3387 1021.06 41.3093 1021.06 42.504C1021.06 43.8907 1020.74 45.0747 1020.1 46.056C1019.46 47.016 1018.54 47.752 1017.34 48.264C1016.17 48.7547 1014.76 49 1013.12 49H1005.09V26.152H1011.62ZM1012.19 35.88C1014.16 35.88 1015.5 35.5707 1016.22 34.952C1016.95 34.312 1017.31 33.3733 1017.31 32.136C1017.31 30.8773 1016.86 29.9813 1015.97 29.448C1015.09 28.8933 1013.69 28.616 1011.74 28.616H1007.97V35.88H1012.19ZM1007.97 38.28V46.568H1012.58C1014.6 46.568 1016.01 46.1733 1016.8 45.384C1017.59 44.5947 1017.98 43.56 1017.98 42.28C1017.98 41.4693 1017.8 40.7653 1017.44 40.168C1017.1 39.5707 1016.51 39.112 1015.68 38.792C1014.87 38.4507 1013.76 38.28 1012.35 38.28H1007.97Z" fill="#0F225B"/>
<path d="M1347.15 26.152C1350.14 26.152 1352.31 26.7387 1353.68 27.912C1355.05 29.0853 1355.73 30.7387 1355.73 32.872C1355.73 33.8107 1355.57 34.7173 1355.25 35.592C1354.95 36.4453 1354.45 37.2133 1353.74 37.896C1353.04 38.5787 1352.1 39.1227 1350.93 39.528C1349.75 39.912 1348.31 40.104 1346.61 40.104H1343.98V49H1341.1V26.152H1347.15ZM1346.9 28.616H1343.98V37.64H1346.29C1347.74 37.64 1348.94 37.4907 1349.9 37.192C1350.86 36.872 1351.58 36.3707 1352.05 35.688C1352.52 35.0053 1352.75 34.1093 1352.75 33C1352.75 31.528 1352.28 30.4293 1351.34 29.704C1350.41 28.9787 1348.92 28.616 1346.9 28.616ZM1377.95 49H1375.07V38.344H1363.36V49H1360.48V26.152H1363.36V35.816H1375.07V26.152H1377.95V49ZM1398.53 49L1395.78 41.928H1386.73L1384.01 49H1381.09L1390.02 26.056H1392.61L1401.51 49H1398.53ZM1392.36 32.456C1392.29 32.2853 1392.19 31.976 1392.04 31.528C1391.89 31.08 1391.74 30.6213 1391.59 30.152C1391.46 29.6613 1391.36 29.288 1391.27 29.032C1391.16 29.4587 1391.05 29.896 1390.92 30.344C1390.81 30.7707 1390.69 31.1653 1390.57 31.528C1390.46 31.8907 1390.36 32.2 1390.28 32.456L1387.69 39.368H1394.92L1392.36 32.456ZM1417.6 42.888C1417.6 44.2533 1417.26 45.416 1416.6 46.376C1415.94 47.3147 1414.99 48.04 1413.76 48.552C1412.54 49.064 1411.1 49.32 1409.44 49.32C1408.58 49.32 1407.76 49.2773 1406.97 49.192C1406.2 49.1067 1405.5 48.9893 1404.86 48.84C1404.22 48.6693 1403.65 48.4667 1403.16 48.232V45.48C1403.93 45.8213 1404.88 46.1307 1406.01 46.408C1407.16 46.6853 1408.35 46.824 1409.56 46.824C1410.69 46.824 1411.64 46.6747 1412.41 46.376C1413.18 46.0773 1413.76 45.6507 1414.14 45.096C1414.52 44.5413 1414.72 43.8907 1414.72 43.144C1414.72 42.3973 1414.56 41.768 1414.24 41.256C1413.92 40.744 1413.36 40.2747 1412.57 39.848C1411.8 39.4 1410.73 38.9307 1409.34 38.44C1408.36 38.0773 1407.49 37.6933 1406.75 37.288C1406.02 36.8613 1405.41 36.3813 1404.92 35.848C1404.43 35.3147 1404.06 34.7067 1403.8 34.024C1403.57 33.3413 1403.45 32.552 1403.45 31.656C1403.45 30.44 1403.76 29.4053 1404.38 28.552C1405 27.6773 1405.85 27.0053 1406.94 26.536C1408.05 26.0667 1409.32 25.832 1410.75 25.832C1412.01 25.832 1413.16 25.9493 1414.2 26.184C1415.25 26.4187 1416.2 26.728 1417.05 27.112L1416.16 29.576C1415.37 29.2347 1414.5 28.9467 1413.56 28.712C1412.65 28.4773 1411.69 28.36 1410.68 28.36C1409.72 28.36 1408.92 28.4987 1408.28 28.776C1407.64 29.0533 1407.16 29.448 1406.84 29.96C1406.52 30.4507 1406.36 31.0267 1406.36 31.688C1406.36 32.456 1406.52 33.096 1406.84 33.608C1407.16 34.12 1407.69 34.5787 1408.41 34.984C1409.14 35.3893 1410.12 35.8267 1411.36 36.296C1412.7 36.7867 1413.83 37.32 1414.75 37.896C1415.69 38.4507 1416.39 39.1227 1416.86 39.912C1417.35 40.7013 1417.6 41.6933 1417.6 42.888ZM1434.97 49H1422.2V26.152H1434.97V28.68H1425.08V35.816H1434.39V38.312H1425.08V46.472H1434.97V49ZM1458.68 28.36C1457.46 28.36 1456.36 28.5733 1455.38 29C1454.4 29.4053 1453.57 30.0133 1452.89 30.824C1452.2 31.6133 1451.68 32.584 1451.32 33.736C1450.95 34.8667 1450.77 36.1467 1450.77 37.576C1450.77 39.4533 1451.06 41.0853 1451.64 42.472C1452.23 43.8587 1453.11 44.9253 1454.26 45.672C1455.43 46.4187 1456.9 46.792 1458.65 46.792C1459.65 46.792 1460.6 46.7067 1461.49 46.536C1462.39 46.3653 1463.26 46.152 1464.12 45.896V48.392C1463.26 48.712 1462.38 48.9467 1461.46 49.096C1460.57 49.2453 1459.49 49.32 1458.23 49.32C1455.9 49.32 1453.96 48.84 1452.41 47.88C1450.85 46.92 1449.67 45.5547 1448.89 43.784C1448.12 42.0133 1447.73 39.9333 1447.73 37.544C1447.73 35.816 1447.97 34.2373 1448.44 32.808C1448.93 31.3787 1449.63 30.1413 1450.55 29.096C1451.49 28.0507 1452.64 27.2507 1454.01 26.696C1455.37 26.12 1456.94 25.832 1458.71 25.832C1459.88 25.832 1461.01 25.9493 1462.1 26.184C1463.19 26.4187 1464.16 26.7493 1465.01 27.176L1463.86 29.608C1463.16 29.288 1462.37 29 1461.49 28.744C1460.64 28.488 1459.7 28.36 1458.68 28.36Z" fill="#0F225B"/>
<rect x="553.5" y="151.5" width="189" height="181" rx="19.5" stroke="#968F8F" stroke-opacity="0.43"/>
<rect x="0.5" y="318.5" width="189" height="174" rx="19.5" stroke="#968F8F" stroke-opacity="0.43"/>
<rect x="1009.5" y="151.5" width="188" height="181" rx="19.5" stroke="#968F8F" stroke-opacity="0.43"/>
<rect x="1452.5" y="151.5" width="189" height="181" rx="19.5" stroke="#968F8F" stroke-opacity="0.43"/>
<defs>
<filter id="filter0_d_173_13" x="212.5" y="354.5" width="1491" height="13" filterUnits="userSpaceOnUse" color-interpolation-filters="sRGB">
<feFlood flood-opacity="0" result="BackgroundImageFix"/>
<feColorMatrix in="SourceAlpha" type="matrix" values="0 0 0 0 0 0 0 0 0 0 0 0 0 0 0 0 0 0 127 0" result="hardAlpha"/>
<feOffset dy="4"/>
<feGaussianBlur stdDeviation="2"/>
<feComposite in2="hardAlpha" operator="out"/>
<feColorMatrix type="matrix" values="0 0 0 0 0 0 0 0 0 0 0 0 0 0 0 0 0 0 0.25 0"/>
<feBlend mode="normal" in2="BackgroundImageFix" result="effect1_dropShadow_173_13"/>
<feBlend mode="normal" in="SourceGraphic" in2="effect1_dropShadow_173_13" result="shape"/>
</filter>
<filter id="filter1_d_173_13" x="212.5" y="403.5" width="1491" height="13" filterUnits="userSpaceOnUse" color-interpolation-filters="sRGB">
<feFlood flood-opacity="0" result="BackgroundImageFix"/>
<feColorMatrix in="SourceAlpha" type="matrix" values="0 0 0 0 0 0 0 0 0 0 0 0 0 0 0 0 0 0 127 0" result="hardAlpha"/>
<feOffset dy="4"/>
<feGaussianBlur stdDeviation="2"/>
<feComposite in2="hardAlpha" operator="out"/>
<feColorMatrix type="matrix" values="0 0 0 0 0 0 0 0 0 0 0 0 0 0 0 0 0 0 0.25 0"/>
<feBlend mode="normal" in2="BackgroundImageFix" result="effect1_dropShadow_173_13"/>
<feBlend mode="normal" in="SourceGraphic" in2="effect1_dropShadow_173_13" result="shape"/>
</filter>
<filter id="filter2_d_173_13" x="212.5" y="467.5" width="1491" height="13" filterUnits="userSpaceOnUse" color-interpolation-filters="sRGB">
<feFlood flood-opacity="0" result="BackgroundImageFix"/>
<feColorMatrix in="SourceAlpha" type="matrix" values="0 0 0 0 0 0 0 0 0 0 0 0 0 0 0 0 0 0 127 0" result="hardAlpha"/>
<feOffset dy="4"/>
<feGaussianBlur stdDeviation="2"/>
<feComposite in2="hardAlpha" operator="out"/>
<feColorMatrix type="matrix" values="0 0 0 0 0 0 0 0 0 0 0 0 0 0 0 0 0 0 0.25 0"/>
<feBlend mode="normal" in2="BackgroundImageFix" result="effect1_dropShadow_173_13"/>
<feBlend mode="normal" in="SourceGraphic" in2="effect1_dropShadow_173_13" result="shape"/>
</filter>
<filter id="filter3_d_173_13" x="485.667" y="74.5" width="34.6666" height="303.833" filterUnits="userSpaceOnUse" color-interpolation-filters="sRGB">
<feFlood flood-opacity="0" result="BackgroundImageFix"/>
<feColorMatrix in="SourceAlpha" type="matrix" values="0 0 0 0 0 0 0 0 0 0 0 0 0 0 0 0 0 0 127 0" result="hardAlpha"/>
<feOffset dy="4"/>
<feGaussianBlur stdDeviation="2"/>
<feComposite in2="hardAlpha" operator="out"/>
<feColorMatrix type="matrix" values="0 0 0 0 0 0 0 0 0 0 0 0 0 0 0 0 0 0 0.25 0"/>
<feBlend mode="normal" in2="BackgroundImageFix" result="effect1_dropShadow_173_13"/>
<feBlend mode="normal" in="SourceGraphic" in2="effect1_dropShadow_173_13" result="shape"/>
</filter>
<filter id="filter4_d_173_13" x="941.167" y="74.499" width="34.6667" height="352.835" filterUnits="userSpaceOnUse" color-interpolation-filters="sRGB">
<feFlood flood-opacity="0" result="BackgroundImageFix"/>
<feColorMatrix in="SourceAlpha" type="matrix" values="0 0 0 0 0 0 0 0 0 0 0 0 0 0 0 0 0 0 127 0" result="hardAlpha"/>
<feOffset dy="4"/>
<feGaussianBlur stdDeviation="2"/>
<feComposite in2="hardAlpha" operator="out"/>
<feColorMatrix type="matrix" values="0 0 0 0 0 0 0 0 0 0 0 0 0 0 0 0 0 0 0.25 0"/>
<feBlend mode="normal" in2="BackgroundImageFix" result="effect1_dropShadow_173_13"/>
<feBlend mode="normal" in="SourceGraphic" in2="effect1_dropShadow_173_13" result="shape"/>
</filter>
<filter id="filter5_d_173_13" x="1384.67" y="66.5" width="34.6667" height="424.833" filterUnits="userSpaceOnUse" color-interpolation-filters="sRGB">
<feFlood flood-opacity="0" result="BackgroundImageFix"/>
<feColorMatrix in="SourceAlpha" type="matrix" values="0 0 0 0 0 0 0 0 0 0 0 0 0 0 0 0 0 0 127 0" result="hardAlpha"/>
<feOffset dy="4"/>
<feGaussianBlur stdDeviation="2"/>
<feComposite in2="hardAlpha" operator="out"/>
<feColorMatrix type="matrix" values="0 0 0 0 0 0 0 0 0 0 0 0 0 0 0 0 0 0 0.25 0"/>
<feBlend mode="normal" in2="BackgroundImageFix" result="effect1_dropShadow_173_13"/>
<feBlend mode="normal" in="SourceGraphic" in2="effect1_dropShadow_173_13" result="shape"/>
</filter>
</defs>
</svg>
