<svg xmlns="http://www.w3.org/2000/svg" width="1682" height="415" viewBox="0 0 1682 415" fill="none">
<g filter="url(#filter0_d_183_75)">
<path d="M198 303H1676" stroke="#010EFF" stroke-width="3" stroke-linecap="round"/>
</g>
<path d="M513 130H654" stroke="white" stroke-opacity="0.14" stroke-linecap="round"/>
<path d="M515 105H656" stroke="white" stroke-opacity="0.14" stroke-linecap="round"/>
<path d="M513 155H654" stroke="white" stroke-opacity="0.14" stroke-linecap="round"/>
<path d="M513 181H654" stroke="white" stroke-opacity="0.14" stroke-linecap="round"/>
<path d="M513 206H654" stroke="white" stroke-opacity="0.14" stroke-linecap="round"/>
<path d="M5 327H146" stroke="white" stroke-opacity="0.14" stroke-linecap="round"/>
<path d="M7 302H148" stroke="white" stroke-opacity="0.14" stroke-linecap="round"/>
<path d="M5 352H146" stroke="white" stroke-opacity="0.14" stroke-linecap="round"/>
<path d="M5 378H146" stroke="white" stroke-opacity="0.14" stroke-linecap="round"/>
<path d="M5 403H146" stroke="white" stroke-opacity="0.14" stroke-linecap="round"/>
<path d="M513 231H654" stroke="white" stroke-opacity="0.14" stroke-linecap="round"/>
<path d="M513 256H654" stroke="white" stroke-opacity="0.14" stroke-linecap="round"/>
<path d="M968 130H1109" stroke="white" stroke-opacity="0.14" stroke-linecap="round"/>
<path d="M970 105H1111" stroke="white" stroke-opacity="0.14" stroke-linecap="round"/>
<path d="M968 155H1109" stroke="white" stroke-opacity="0.14" stroke-linecap="round"/>
<path d="M968 181H1109" stroke="white" stroke-opacity="0.14" stroke-linecap="round"/>
<path d="M968 206H1109" stroke="white" stroke-opacity="0.14" stroke-linecap="round"/>
<path d="M968 231H1109" stroke="white" stroke-opacity="0.14" stroke-linecap="round"/>
<path d="M968 256H1109" stroke="white" stroke-opacity="0.14" stroke-linecap="round"/>
<path d="M1413 130H1554" stroke="white" stroke-opacity="0.14" stroke-linecap="round"/>
<path d="M1415 105H1556" stroke="white" stroke-opacity="0.14" stroke-linecap="round"/>
<path d="M1413 155H1554" stroke="white" stroke-opacity="0.14" stroke-linecap="round"/>
<path d="M1413 181H1554" stroke="white" stroke-opacity="0.14" stroke-linecap="round"/>
<path d="M1413 206H1554" stroke="white" stroke-opacity="0.14" stroke-linecap="round"/>
<path d="M1413 231H1554" stroke="white" stroke-opacity="0.14" stroke-linecap="round"/>
<path d="M1413 256H1554" stroke="white" stroke-opacity="0.14" stroke-linecap="round"/>
<g filter="url(#filter1_d_183_75)">
<path d="M198 351H1676" stroke="#FBFF00" stroke-width="3" stroke-linecap="round"/>
</g>
<g filter="url(#filter2_d_183_75)">
<path d="M198 399H1676" stroke="#00F9E8" stroke-width="3" stroke-linecap="round"/>
</g>
<g filter="url(#filter3_d_183_75)">
<path d="M483.5 65C483.5 64.1716 482.828 63.5 482 63.5C481.172 63.5 480.5 64.1716 480.5 65H483.5ZM482 295C477.582 295 474 298.582 474 303C474 307.418 477.582 311 482 311C486.418 311 490 307.418 490 303C490 298.582 486.418 295 482 295ZM480.5 65V303H483.5V65H480.5Z" fill="#010EFF"/>
</g>
<g filter="url(#filter4_d_183_75)">
<path d="M939 65.3691C939.001 64.5407 938.331 63.8682 937.503 63.8672C936.674 63.8661 936.001 64.5369 936 65.3653L939 65.3691ZM937.014 342.611C932.596 342.605 929.008 346.182 929 350.6C928.992 355.019 932.568 358.605 936.986 358.611C941.404 358.616 944.992 355.039 945 350.621C945.008 346.202 941.432 342.616 937.014 342.611ZM936 65.3653L935.5 350.609L938.5 350.612L939 65.3691L936 65.3653Z" fill="#FBFF00"/>
</g>
<g filter="url(#filter5_d_183_75)">
<path d="M1383.5 58.5793C1383.5 57.7509 1382.83 57.0779 1382 57.0762C1381.18 57.0744 1380.5 57.7446 1380.5 58.573L1383.5 58.5793ZM1381.02 391C1376.61 390.99 1373.01 394.564 1373 398.983C1372.99 403.401 1376.56 406.99 1380.98 407C1385.39 407.009 1388.99 403.435 1389 399.017C1389.01 394.598 1385.44 391.009 1381.02 391ZM1380.5 58.573L1379.5 398.996L1382.5 399.003L1383.5 58.5793L1380.5 58.573Z" fill="#00F9E8"/>
</g>
<rect x="420" width="125" height="65" rx="20" fill="#D9D9D9"/>
<rect x="875" width="125" height="65" rx="20" fill="#D9D9D9"/>
<rect x="1318" width="125" height="65" rx="20" fill="#D9D9D9"/>
<path d="M440.282 22.864C442.522 22.864 444.154 23.304 445.178 24.184C446.202 25.064 446.714 26.304 446.714 27.904C446.714 28.608 446.594 29.288 446.354 29.944C446.13 30.584 445.754 31.16 445.226 31.672C444.698 32.184 443.994 32.592 443.114 32.896C442.234 33.184 441.154 33.328 439.874 33.328H437.906V40H435.746V22.864H440.282ZM440.09 24.712H437.906V31.48H439.634C440.722 31.48 441.626 31.368 442.346 31.144C443.066 30.904 443.602 30.528 443.954 30.016C444.306 29.504 444.482 28.832 444.482 28C444.482 26.896 444.13 26.072 443.426 25.528C442.722 24.984 441.61 24.712 440.09 24.712ZM463.381 40H461.221V32.008H452.437V40H450.277V22.864H452.437V30.112H461.221V22.864H463.381V40ZM478.818 40L476.754 34.696H469.962L467.922 40H465.738L472.434 22.792H474.378L481.05 40H478.818ZM474.186 27.592C474.138 27.464 474.058 27.232 473.946 26.896C473.834 26.56 473.722 26.216 473.61 25.864C473.514 25.496 473.434 25.216 473.37 25.024C473.29 25.344 473.202 25.672 473.106 26.008C473.026 26.328 472.938 26.624 472.842 26.896C472.762 27.168 472.69 27.4 472.626 27.592L470.682 32.776H476.106L474.186 27.592ZM493.114 35.416C493.114 36.44 492.866 37.312 492.37 38.032C491.874 38.736 491.162 39.28 490.234 39.664C489.322 40.048 488.242 40.24 486.994 40.24C486.354 40.24 485.738 40.208 485.146 40.144C484.57 40.08 484.042 39.992 483.562 39.88C483.082 39.752 482.658 39.6 482.29 39.424V37.36C482.866 37.616 483.578 37.848 484.426 38.056C485.29 38.264 486.178 38.368 487.09 38.368C487.938 38.368 488.65 38.256 489.226 38.032C489.802 37.808 490.234 37.488 490.522 37.072C490.81 36.656 490.954 36.168 490.954 35.608C490.954 35.048 490.834 34.576 490.594 34.192C490.354 33.808 489.938 33.456 489.346 33.136C488.77 32.8 487.962 32.448 486.922 32.08C486.186 31.808 485.538 31.52 484.978 31.216C484.434 30.896 483.978 30.536 483.61 30.136C483.242 29.736 482.962 29.28 482.77 28.768C482.594 28.256 482.506 27.664 482.506 26.992C482.506 26.08 482.738 25.304 483.202 24.664C483.666 24.008 484.306 23.504 485.122 23.152C485.954 22.8 486.906 22.624 487.978 22.624C488.922 22.624 489.786 22.712 490.57 22.888C491.354 23.064 492.066 23.296 492.706 23.584L492.034 25.432C491.442 25.176 490.794 24.96 490.09 24.784C489.402 24.608 488.682 24.52 487.93 24.52C487.21 24.52 486.61 24.624 486.13 24.832C485.65 25.04 485.29 25.336 485.05 25.72C484.81 26.088 484.69 26.52 484.69 27.016C484.69 27.592 484.81 28.072 485.05 28.456C485.29 28.84 485.682 29.184 486.226 29.488C486.77 29.792 487.506 30.12 488.434 30.472C489.442 30.84 490.29 31.24 490.978 31.672C491.682 32.088 492.21 32.592 492.562 33.184C492.93 33.776 493.114 34.52 493.114 35.416ZM506.142 40H496.566V22.864H506.142V24.76H498.726V30.112H505.71V31.984H498.726V38.104H506.142V40ZM527.334 40L525.27 34.696H518.478L516.438 40H514.254L520.95 22.792H522.894L529.566 40H527.334ZM522.702 27.592C522.654 27.464 522.574 27.232 522.462 26.896C522.35 26.56 522.238 26.216 522.126 25.864C522.03 25.496 521.95 25.216 521.886 25.024C521.806 25.344 521.718 25.672 521.622 26.008C521.542 26.328 521.454 26.624 521.358 26.896C521.278 27.168 521.206 27.4 521.142 27.592L519.198 32.776H524.622L522.702 27.592Z" fill="#0F225B"/>
<path d="M48.0254 271H45.8654V255.76H40.5134V253.864H53.3534V255.76H48.0254V271ZM70.4206 262.408C70.4206 263.736 70.2526 264.944 69.9166 266.032C69.5806 267.104 69.0766 268.032 68.4046 268.816C67.7486 269.6 66.9246 270.2 65.9326 270.616C64.9566 271.032 63.8206 271.24 62.5246 271.24C61.1806 271.24 60.0126 271.032 59.0206 270.616C58.0286 270.184 57.2046 269.584 56.5486 268.816C55.8926 268.032 55.4046 267.096 55.0846 266.008C54.7646 264.92 54.6046 263.712 54.6046 262.384C54.6046 260.624 54.8926 259.088 55.4686 257.776C56.0446 256.464 56.9166 255.44 58.0846 254.704C59.2686 253.968 60.7566 253.6 62.5486 253.6C64.2606 253.6 65.7006 253.968 66.8686 254.704C68.0366 255.424 68.9166 256.448 69.5086 257.776C70.1166 259.088 70.4206 260.632 70.4206 262.408ZM56.8846 262.408C56.8846 263.848 57.0846 265.088 57.4846 266.128C57.8846 267.168 58.5006 267.968 59.3326 268.528C60.1806 269.088 61.2446 269.368 62.5246 269.368C63.8206 269.368 64.8766 269.088 65.6926 268.528C66.5246 267.968 67.1406 267.168 67.5406 266.128C67.9406 265.088 68.1406 263.848 68.1406 262.408C68.1406 260.248 67.6926 258.56 66.7966 257.344C65.9006 256.112 64.4846 255.496 62.5486 255.496C61.2526 255.496 60.1806 255.776 59.3326 256.336C58.5006 256.88 57.8846 257.672 57.4846 258.712C57.0846 259.736 56.8846 260.968 56.8846 262.408ZM78.9161 271H76.7561V255.76H71.4041V253.864H84.2441V255.76H78.9161V271ZM95.8925 271L93.8285 265.696H87.0365L84.9965 271H82.8125L89.5085 253.792H91.4525L98.1245 271H95.8925ZM91.2605 258.592C91.2125 258.464 91.1325 258.232 91.0205 257.896C90.9085 257.56 90.7965 257.216 90.6845 256.864C90.5885 256.496 90.5085 256.216 90.4445 256.024C90.3645 256.344 90.2765 256.672 90.1805 257.008C90.1005 257.328 90.0125 257.624 89.9165 257.896C89.8365 258.168 89.7645 258.4 89.7005 258.592L87.7565 263.776H93.1805L91.2605 258.592ZM100.469 271V253.864H102.629V269.08H110.117V271H100.469Z" fill="white"/>
<path d="M896.141 22.864C898.381 22.864 900.013 23.304 901.037 24.184C902.061 25.064 902.573 26.304 902.573 27.904C902.573 28.608 902.453 29.288 902.213 29.944C901.989 30.584 901.613 31.16 901.085 31.672C900.557 32.184 899.853 32.592 898.973 32.896C898.093 33.184 897.013 33.328 895.733 33.328H893.765V40H891.605V22.864H896.141ZM895.949 24.712H893.765V31.48H895.493C896.581 31.48 897.485 31.368 898.205 31.144C898.925 30.904 899.461 30.528 899.813 30.016C900.165 29.504 900.341 28.832 900.341 28C900.341 26.896 899.989 26.072 899.285 25.528C898.581 24.984 897.469 24.712 895.949 24.712ZM919.241 40H917.081V32.008H908.297V40H906.137V22.864H908.297V30.112H917.081V22.864H919.241V40ZM934.678 40L932.614 34.696H925.822L923.782 40H921.598L928.294 22.792H930.238L936.91 40H934.678ZM930.046 27.592C929.998 27.464 929.918 27.232 929.806 26.896C929.694 26.56 929.582 26.216 929.47 25.864C929.374 25.496 929.294 25.216 929.23 25.024C929.15 25.344 929.062 25.672 928.966 26.008C928.886 26.328 928.798 26.624 928.702 26.896C928.622 27.168 928.55 27.4 928.486 27.592L926.542 32.776H931.966L930.046 27.592ZM948.974 35.416C948.974 36.44 948.726 37.312 948.23 38.032C947.734 38.736 947.022 39.28 946.094 39.664C945.182 40.048 944.102 40.24 942.854 40.24C942.214 40.24 941.598 40.208 941.006 40.144C940.43 40.08 939.902 39.992 939.422 39.88C938.942 39.752 938.518 39.6 938.15 39.424V37.36C938.726 37.616 939.438 37.848 940.286 38.056C941.15 38.264 942.038 38.368 942.95 38.368C943.798 38.368 944.51 38.256 945.086 38.032C945.662 37.808 946.094 37.488 946.382 37.072C946.67 36.656 946.814 36.168 946.814 35.608C946.814 35.048 946.694 34.576 946.454 34.192C946.214 33.808 945.798 33.456 945.206 33.136C944.63 32.8 943.822 32.448 942.782 32.08C942.046 31.808 941.398 31.52 940.838 31.216C940.294 30.896 939.838 30.536 939.47 30.136C939.102 29.736 938.822 29.28 938.63 28.768C938.454 28.256 938.366 27.664 938.366 26.992C938.366 26.08 938.598 25.304 939.062 24.664C939.526 24.008 940.166 23.504 940.982 23.152C941.814 22.8 942.766 22.624 943.838 22.624C944.782 22.624 945.646 22.712 946.43 22.888C947.214 23.064 947.926 23.296 948.566 23.584L947.894 25.432C947.302 25.176 946.654 24.96 945.95 24.784C945.262 24.608 944.542 24.52 943.79 24.52C943.07 24.52 942.47 24.624 941.99 24.832C941.51 25.04 941.15 25.336 940.91 25.72C940.67 26.088 940.55 26.52 940.55 27.016C940.55 27.592 940.67 28.072 940.91 28.456C941.15 28.84 941.542 29.184 942.086 29.488C942.63 29.792 943.366 30.12 944.294 30.472C945.302 30.84 946.15 31.24 946.838 31.672C947.542 32.088 948.07 32.592 948.422 33.184C948.79 33.776 948.974 34.52 948.974 35.416ZM962.002 40H952.426V22.864H962.002V24.76H954.586V30.112H961.57V31.984H954.586V38.104H962.002V40ZM977.337 22.864C978.761 22.864 979.953 23 980.913 23.272C981.889 23.544 982.617 23.992 983.097 24.616C983.593 25.24 983.841 26.072 983.841 27.112C983.841 27.784 983.713 28.384 983.457 28.912C983.217 29.424 982.849 29.856 982.353 30.208C981.873 30.544 981.281 30.776 980.577 30.904V31.024C981.297 31.136 981.945 31.344 982.521 31.648C983.113 31.952 983.577 32.384 983.913 32.944C984.249 33.504 984.417 34.232 984.417 35.128C984.417 36.168 984.177 37.056 983.697 37.792C983.217 38.512 982.529 39.064 981.633 39.448C980.753 39.816 979.697 40 978.465 40H972.441V22.864H977.337ZM977.769 30.16C979.241 30.16 980.249 29.928 980.793 29.464C981.337 28.984 981.609 28.28 981.609 27.352C981.609 26.408 981.273 25.736 980.601 25.336C979.945 24.92 978.889 24.712 977.433 24.712H974.601V30.16H977.769ZM974.601 31.96V38.176H978.057C979.577 38.176 980.633 37.88 981.225 37.288C981.817 36.696 982.113 35.92 982.113 34.96C982.113 34.352 981.977 33.824 981.705 33.376C981.449 32.928 981.009 32.584 980.385 32.344C979.777 32.088 978.945 31.96 977.889 31.96H974.601Z" fill="#0F225B"/>
<path d="M1339.86 22.864C1342.1 22.864 1343.74 23.304 1344.76 24.184C1345.78 25.064 1346.3 26.304 1346.3 27.904C1346.3 28.608 1346.18 29.288 1345.94 29.944C1345.71 30.584 1345.34 31.16 1344.81 31.672C1344.28 32.184 1343.58 32.592 1342.7 32.896C1341.82 33.184 1340.74 33.328 1339.46 33.328H1337.49V40H1335.33V22.864H1339.86ZM1339.67 24.712H1337.49V31.48H1339.22C1340.3 31.48 1341.21 31.368 1341.93 31.144C1342.65 30.904 1343.18 30.528 1343.54 30.016C1343.89 29.504 1344.06 28.832 1344.06 28C1344.06 26.896 1343.71 26.072 1343.01 25.528C1342.3 24.984 1341.19 24.712 1339.67 24.712ZM1362.96 40H1360.8V32.008H1352.02V40H1349.86V22.864H1352.02V30.112H1360.8V22.864H1362.96V40ZM1378.4 40L1376.34 34.696H1369.54L1367.5 40H1365.32L1372.02 22.792H1373.96L1380.63 40H1378.4ZM1373.77 27.592C1373.72 27.464 1373.64 27.232 1373.53 26.896C1373.42 26.56 1373.3 26.216 1373.19 25.864C1373.1 25.496 1373.02 25.216 1372.95 25.024C1372.87 25.344 1372.78 25.672 1372.69 26.008C1372.61 26.328 1372.52 26.624 1372.42 26.896C1372.34 27.168 1372.27 27.4 1372.21 27.592L1370.26 32.776H1375.69L1373.77 27.592ZM1392.7 35.416C1392.7 36.44 1392.45 37.312 1391.95 38.032C1391.46 38.736 1390.74 39.28 1389.82 39.664C1388.9 40.048 1387.82 40.24 1386.58 40.24C1385.94 40.24 1385.32 40.208 1384.73 40.144C1384.15 40.08 1383.62 39.992 1383.14 39.88C1382.66 39.752 1382.24 39.6 1381.87 39.424V37.36C1382.45 37.616 1383.16 37.848 1384.01 38.056C1384.87 38.264 1385.76 38.368 1386.67 38.368C1387.52 38.368 1388.23 38.256 1388.81 38.032C1389.38 37.808 1389.82 37.488 1390.1 37.072C1390.39 36.656 1390.54 36.168 1390.54 35.608C1390.54 35.048 1390.42 34.576 1390.18 34.192C1389.94 33.808 1389.52 33.456 1388.93 33.136C1388.35 32.8 1387.54 32.448 1386.5 32.08C1385.77 31.808 1385.12 31.52 1384.56 31.216C1384.02 30.896 1383.56 30.536 1383.19 30.136C1382.82 29.736 1382.54 29.28 1382.35 28.768C1382.18 28.256 1382.09 27.664 1382.09 26.992C1382.09 26.08 1382.32 25.304 1382.78 24.664C1383.25 24.008 1383.89 23.504 1384.7 23.152C1385.54 22.8 1386.49 22.624 1387.56 22.624C1388.5 22.624 1389.37 22.712 1390.15 22.888C1390.94 23.064 1391.65 23.296 1392.29 23.584L1391.62 25.432C1391.02 25.176 1390.38 24.96 1389.67 24.784C1388.98 24.608 1388.26 24.52 1387.51 24.52C1386.79 24.52 1386.19 24.624 1385.71 24.832C1385.23 25.04 1384.87 25.336 1384.63 25.72C1384.39 26.088 1384.27 26.52 1384.27 27.016C1384.27 27.592 1384.39 28.072 1384.63 28.456C1384.87 28.84 1385.26 29.184 1385.81 29.488C1386.35 29.792 1387.09 30.12 1388.02 30.472C1389.02 30.84 1389.87 31.24 1390.56 31.672C1391.26 32.088 1391.79 32.592 1392.14 33.184C1392.51 33.776 1392.7 34.52 1392.7 35.416ZM1405.72 40H1396.15V22.864H1405.72V24.76H1398.31V30.112H1405.29V31.984H1398.31V38.104H1405.72V40ZM1423.51 24.52C1422.6 24.52 1421.77 24.68 1421.04 25C1420.3 25.304 1419.68 25.76 1419.16 26.368C1418.65 26.96 1418.26 27.688 1417.99 28.552C1417.72 29.4 1417.58 30.36 1417.58 31.432C1417.58 32.84 1417.8 34.064 1418.23 35.104C1418.68 36.144 1419.33 36.944 1420.2 37.504C1421.08 38.064 1422.17 38.344 1423.48 38.344C1424.24 38.344 1424.95 38.28 1425.62 38.152C1426.29 38.024 1426.95 37.864 1427.59 37.672V39.544C1426.95 39.784 1426.28 39.96 1425.6 40.072C1424.92 40.184 1424.12 40.24 1423.17 40.24C1421.43 40.24 1419.97 39.88 1418.8 39.16C1417.64 38.44 1416.76 37.416 1416.16 36.088C1415.59 34.76 1415.3 33.2 1415.3 31.408C1415.3 30.112 1415.48 28.928 1415.83 27.856C1416.2 26.784 1416.72 25.856 1417.41 25.072C1418.12 24.288 1418.98 23.688 1420 23.272C1421.03 22.84 1422.2 22.624 1423.53 22.624C1424.41 22.624 1425.26 22.712 1426.08 22.888C1426.89 23.064 1427.62 23.312 1428.26 23.632L1427.4 25.456C1426.87 25.216 1426.28 25 1425.62 24.808C1424.98 24.616 1424.28 24.52 1423.51 24.52Z" fill="#0F225B"/>
<defs>
<filter id="filter0_d_183_75" x="192.5" y="301.5" width="1489" height="11" filterUnits="userSpaceOnUse" color-interpolation-filters="sRGB">
<feFlood flood-opacity="0" result="BackgroundImageFix"/>
<feColorMatrix in="SourceAlpha" type="matrix" values="0 0 0 0 0 0 0 0 0 0 0 0 0 0 0 0 0 0 127 0" result="hardAlpha"/>
<feOffset dy="4"/>
<feGaussianBlur stdDeviation="2"/>
<feComposite in2="hardAlpha" operator="out"/>
<feColorMatrix type="matrix" values="0 0 0 0 0 0 0 0 0 0 0 0 0 0 0 0 0 0 0.25 0"/>
<feBlend mode="normal" in2="BackgroundImageFix" result="effect1_dropShadow_183_75"/>
<feBlend mode="normal" in="SourceGraphic" in2="effect1_dropShadow_183_75" result="shape"/>
</filter>
<filter id="filter1_d_183_75" x="192.5" y="349.5" width="1489" height="11" filterUnits="userSpaceOnUse" color-interpolation-filters="sRGB">
<feFlood flood-opacity="0" result="BackgroundImageFix"/>
<feColorMatrix in="SourceAlpha" type="matrix" values="0 0 0 0 0 0 0 0 0 0 0 0 0 0 0 0 0 0 127 0" result="hardAlpha"/>
<feOffset dy="4"/>
<feGaussianBlur stdDeviation="2"/>
<feComposite in2="hardAlpha" operator="out"/>
<feColorMatrix type="matrix" values="0 0 0 0 0 0 0 0 0 0 0 0 0 0 0 0 0 0 0.25 0"/>
<feBlend mode="normal" in2="BackgroundImageFix" result="effect1_dropShadow_183_75"/>
<feBlend mode="normal" in="SourceGraphic" in2="effect1_dropShadow_183_75" result="shape"/>
</filter>
<filter id="filter2_d_183_75" x="192.5" y="397.5" width="1489" height="11" filterUnits="userSpaceOnUse" color-interpolation-filters="sRGB">
<feFlood flood-opacity="0" result="BackgroundImageFix"/>
<feColorMatrix in="SourceAlpha" type="matrix" values="0 0 0 0 0 0 0 0 0 0 0 0 0 0 0 0 0 0 127 0" result="hardAlpha"/>
<feOffset dy="4"/>
<feGaussianBlur stdDeviation="2"/>
<feComposite in2="hardAlpha" operator="out"/>
<feColorMatrix type="matrix" values="0 0 0 0 0 0 0 0 0 0 0 0 0 0 0 0 0 0 0.25 0"/>
<feBlend mode="normal" in2="BackgroundImageFix" result="effect1_dropShadow_183_75"/>
<feBlend mode="normal" in="SourceGraphic" in2="effect1_dropShadow_183_75" result="shape"/>
</filter>
<filter id="filter3_d_183_75" x="470" y="63.5" width="24" height="255.5" filterUnits="userSpaceOnUse" color-interpolation-filters="sRGB">
<feFlood flood-opacity="0" result="BackgroundImageFix"/>
<feColorMatrix in="SourceAlpha" type="matrix" values="0 0 0 0 0 0 0 0 0 0 0 0 0 0 0 0 0 0 127 0" result="hardAlpha"/>
<feOffset dy="4"/>
<feGaussianBlur stdDeviation="2"/>
<feComposite in2="hardAlpha" operator="out"/>
<feColorMatrix type="matrix" values="0 0 0 0 0 0 0 0 0 0 0 0 0 0 0 0 0 0 0.25 0"/>
<feBlend mode="normal" in2="BackgroundImageFix" result="effect1_dropShadow_183_75"/>
<feBlend mode="normal" in="SourceGraphic" in2="effect1_dropShadow_183_75" result="shape"/>
</filter>
<filter id="filter4_d_183_75" x="925" y="63.8672" width="24" height="302.743" filterUnits="userSpaceOnUse" color-interpolation-filters="sRGB">
<feFlood flood-opacity="0" result="BackgroundImageFix"/>
<feColorMatrix in="SourceAlpha" type="matrix" values="0 0 0 0 0 0 0 0 0 0 0 0 0 0 0 0 0 0 127 0" result="hardAlpha"/>
<feOffset dy="4"/>
<feGaussianBlur stdDeviation="2"/>
<feComposite in2="hardAlpha" operator="out"/>
<feColorMatrix type="matrix" values="0 0 0 0 0 0 0 0 0 0 0 0 0 0 0 0 0 0 0.25 0"/>
<feBlend mode="normal" in2="BackgroundImageFix" result="effect1_dropShadow_183_75"/>
<feBlend mode="normal" in="SourceGraphic" in2="effect1_dropShadow_183_75" result="shape"/>
</filter>
<filter id="filter5_d_183_75" x="1369" y="57.0762" width="24" height="357.924" filterUnits="userSpaceOnUse" color-interpolation-filters="sRGB">
<feFlood flood-opacity="0" result="BackgroundImageFix"/>
<feColorMatrix in="SourceAlpha" type="matrix" values="0 0 0 0 0 0 0 0 0 0 0 0 0 0 0 0 0 0 127 0" result="hardAlpha"/>
<feOffset dy="4"/>
<feGaussianBlur stdDeviation="2"/>
<feComposite in2="hardAlpha" operator="out"/>
<feColorMatrix type="matrix" values="0 0 0 0 0 0 0 0 0 0 0 0 0 0 0 0 0 0 0.25 0"/>
<feBlend mode="normal" in2="BackgroundImageFix" result="effect1_dropShadow_183_75"/>
<feBlend mode="normal" in="SourceGraphic" in2="effect1_dropShadow_183_75" result="shape"/>
</filter>
</defs>
</svg>
