<svg xmlns="http://www.w3.org/2000/svg" xmlns:xlink="http://www.w3.org/1999/xlink" width="218" zoomAndPan="magnify" viewBox="0 0 163.5 151.500001" height="202" preserveAspectRatio="xMidYMid meet" version="1.0"><defs><clipPath id="7fa9b5a23c"><path d="M 0.0195312 27 L 162.234375 27 L 162.234375 150.253906 L 0.0195312 150.253906 Z M 0.0195312 27 " clip-rule="nonzero"/></clipPath><clipPath id="2cacf645a7"><path d="M 0.0195312 27 L 162.234375 27 L 162.234375 150.253906 L 0.0195312 150.253906 Z M 0.0195312 27 " clip-rule="nonzero"/></clipPath></defs><g clip-path="url(#7fa9b5a23c)"><path fill="#ffffff" d="M 136.390625 111.730469 C 150.785156 111.730469 162.496094 100.042969 162.496094 85.679688 C 162.496094 71.3125 150.785156 59.625 136.390625 59.625 C 135.585938 59.625 134.816406 59.660156 134.074219 59.738281 C 127.929688 50.074219 117.210938 44.15625 105.613281 44.15625 C 103.339844 44.15625 101.085938 44.390625 98.882812 44.855469 C 90.972656 34.132812 78.523438 27.796875 65.167969 27.796875 C 45.75 27.796875 29.011719 41.0625 24.441406 59.683594 C 10.871094 60.59375 0.105469 71.90625 0.105469 85.675781 C 0.105469 100.039062 11.820312 111.726562 26.214844 111.726562 L 30.125 111.726562 L 30.125 126.097656 C 24.855469 127.449219 20.929688 132.199219 20.929688 137.882812 C 20.929688 144.609375 26.402344 150.085938 33.132812 150.085938 C 39.867188 150.085938 45.339844 144.613281 45.339844 137.882812 C 45.339844 132.199219 41.414062 127.449219 36.144531 126.097656 L 36.144531 111.726562 L 78.289062 111.726562 L 78.289062 126.097656 C 73.023438 127.449219 69.097656 132.199219 69.097656 137.882812 C 69.097656 144.609375 74.570312 150.085938 81.300781 150.085938 C 88.03125 150.085938 93.503906 144.613281 93.503906 137.882812 C 93.503906 132.199219 89.582031 127.449219 84.3125 126.097656 L 84.3125 111.726562 L 126.457031 111.726562 L 126.457031 126.097656 C 121.1875 127.449219 117.261719 132.199219 117.261719 137.882812 C 117.261719 144.609375 122.734375 150.085938 129.46875 150.085938 C 136.199219 150.085938 141.671875 144.613281 141.671875 137.882812 C 141.671875 132.199219 137.75 127.449219 132.476562 126.097656 L 132.476562 111.726562 L 136.390625 111.726562 Z M 39.316406 137.882812 C 39.316406 141.289062 36.546875 144.066406 33.132812 144.066406 C 29.722656 144.066406 26.949219 141.292969 26.949219 137.882812 C 26.949219 134.472656 29.722656 131.699219 33.132812 131.699219 C 36.546875 131.699219 39.316406 134.472656 39.316406 137.882812 Z M 87.484375 137.882812 C 87.484375 141.289062 84.710938 144.066406 81.300781 144.066406 C 77.894531 144.066406 75.117188 141.292969 75.117188 137.882812 C 75.117188 134.472656 77.890625 131.699219 81.300781 131.699219 C 84.710938 131.703125 87.484375 134.472656 87.484375 137.882812 Z M 135.652344 137.882812 C 135.652344 141.289062 132.878906 144.066406 129.46875 144.066406 C 126.058594 144.066406 123.285156 141.292969 123.285156 137.882812 C 123.285156 134.472656 126.058594 131.699219 129.46875 131.699219 C 132.878906 131.699219 135.652344 134.472656 135.652344 137.882812 Z M 6.125 85.679688 C 6.125 75.585938 13.652344 67.238281 23.34375 65.839844 C 22.933594 69.773438 23.273438 73.273438 24.378906 76.269531 C 24.824219 77.488281 25.976562 78.238281 27.199219 78.238281 C 27.546875 78.238281 27.898438 78.179688 28.242188 78.050781 C 29.800781 77.476562 30.597656 75.742188 30.023438 74.183594 C 28.972656 71.339844 28.90625 67.679688 29.824219 63.304688 C 29.824219 63.289062 29.820312 63.277344 29.824219 63.261719 C 29.824219 63.25 29.835938 63.242188 29.835938 63.230469 C 32.949219 46.1875 47.808594 33.816406 65.164062 33.816406 C 75.910156 33.816406 85.953125 38.632812 92.75 46.828125 C 88.839844 48.488281 84.199219 51.195312 79.867188 55.660156 C 78.707031 56.851562 78.738281 58.757812 79.929688 59.917969 C 80.515625 60.488281 81.273438 60.769531 82.03125 60.769531 C 82.816406 60.769531 83.597656 60.460938 84.1875 59.859375 C 89.21875 54.675781 94.722656 52.265625 98.457031 51.15625 C 100.773438 50.5 103.179688 50.171875 105.613281 50.171875 C 114.410156 50.171875 122.578125 54.316406 127.75 61.1875 C 124.542969 62.179688 121.1875 63.554688 118.941406 65.414062 C 117.65625 66.476562 117.484375 68.375 118.539062 69.652344 C 119.136719 70.375 119.992188 70.742188 120.859375 70.742188 C 121.539062 70.742188 122.214844 70.515625 122.777344 70.054688 C 124.546875 68.589844 128.421875 67.0625 133.144531 65.960938 C 133.144531 65.960938 133.144531 65.957031 133.148438 65.957031 C 133.152344 65.957031 133.160156 65.957031 133.160156 65.957031 C 134.144531 65.742188 135.199219 65.640625 136.386719 65.640625 C 147.464844 65.640625 156.472656 74.625 156.472656 85.671875 C 156.472656 96.71875 147.464844 105.703125 136.386719 105.703125 L 26.214844 105.703125 C 15.136719 105.710938 6.125 96.722656 6.125 85.679688 Z M 6.125 85.679688 " fill-opacity="1" fill-rule="nonzero"/></g><path fill="#ffffff" d="M 5.796875 42.574219 C 5.796875 42.574219 5.800781 42.574219 5.804688 42.574219 C 7.464844 42.570312 8.808594 41.21875 8.808594 39.558594 C 8.789062 30.667969 12.230469 22.308594 18.496094 16.015625 C 24.769531 9.71875 33.113281 6.242188 42 6.222656 C 43.660156 6.222656 45.007812 4.871094 45.003906 3.207031 C 45 1.546875 43.652344 0.203125 41.992188 0.203125 C 41.992188 0.203125 41.992188 0.203125 41.988281 0.203125 C 31.492188 0.222656 21.636719 4.332031 14.230469 11.765625 C 6.828125 19.199219 2.765625 29.078125 2.785156 39.570312 C 2.789062 41.230469 4.136719 42.574219 5.796875 42.574219 Z M 5.796875 42.574219 " fill-opacity="1" fill-rule="nonzero"/><path fill="#ffffff" d="M 42.019531 13.742188 C 42.015625 13.742188 42.007812 13.742188 42.003906 13.742188 C 35.113281 13.78125 28.660156 16.472656 23.828125 21.324219 C 18.996094 26.175781 16.332031 32.640625 16.320312 39.527344 C 16.316406 41.191406 17.664062 42.539062 19.328125 42.542969 C 19.328125 42.542969 19.332031 42.542969 19.332031 42.542969 C 20.992188 42.542969 22.339844 41.195312 22.34375 39.535156 C 22.347656 34.246094 24.390625 29.285156 28.09375 25.570312 C 31.792969 21.855469 36.75 19.789062 42.035156 19.757812 C 43.699219 19.75 45.039062 18.390625 45.027344 16.730469 C 45.023438 15.078125 43.675781 13.742188 42.019531 13.742188 Z M 42.019531 13.742188 " fill-opacity="1" fill-rule="nonzero"/><path fill="#ffffff" d="M 112.71875 17.945312 C 121.53125 16.742188 130.269531 19.03125 137.347656 24.398438 C 144.425781 29.765625 148.988281 37.570312 150.195312 46.378906 C 150.402344 47.886719 151.695312 48.976562 153.175781 48.976562 C 153.308594 48.976562 153.449219 48.96875 153.585938 48.949219 C 155.234375 48.726562 156.386719 47.203125 156.160156 45.5625 C 154.730469 35.164062 149.34375 25.941406 140.984375 19.601562 C 132.628906 13.265625 122.304688 10.5625 111.902344 11.984375 C 110.253906 12.207031 109.101562 13.730469 109.328125 15.371094 C 109.554688 17.019531 111.054688 18.167969 112.71875 17.945312 Z M 112.71875 17.945312 " fill-opacity="1" fill-rule="nonzero"/><path fill="#ffffff" d="M 132.792969 30.394531 C 127.339844 26.253906 120.554688 24.488281 113.75 25.394531 C 112.101562 25.613281 110.941406 27.128906 111.164062 28.777344 C 111.382812 30.425781 112.929688 31.589844 114.546875 31.363281 C 119.792969 30.65625 124.976562 32.019531 129.15625 35.195312 C 133.339844 38.363281 136.046875 42.992188 136.78125 48.230469 C 136.992188 49.738281 138.285156 50.820312 139.761719 50.820312 C 139.898438 50.820312 140.042969 50.8125 140.183594 50.789062 C 141.832031 50.558594 142.976562 49.035156 142.746094 47.386719 C 141.78125 40.566406 138.25 34.53125 132.792969 30.394531 Z M 132.792969 30.394531 " fill-opacity="1" fill-rule="nonzero"/><g clip-path="url(#2cacf645a7)"><path fill="#ffffff" d="M 136.390625 111.730469 C 150.785156 111.730469 162.496094 100.042969 162.496094 85.679688 C 162.496094 71.3125 150.785156 59.625 136.390625 59.625 C 135.585938 59.625 134.816406 59.660156 134.074219 59.738281 C 127.929688 50.074219 117.210938 44.15625 105.613281 44.15625 C 103.339844 44.15625 101.085938 44.390625 98.882812 44.855469 C 90.972656 34.132812 78.523438 27.796875 65.167969 27.796875 C 45.75 27.796875 29.011719 41.0625 24.441406 59.683594 C 10.871094 60.59375 0.105469 71.90625 0.105469 85.675781 C 0.105469 100.039062 11.820312 111.726562 26.214844 111.726562 L 30.125 111.726562 L 30.125 126.097656 C 24.855469 127.449219 20.929688 132.199219 20.929688 137.882812 C 20.929688 144.609375 26.402344 150.085938 33.132812 150.085938 C 39.867188 150.085938 45.339844 144.613281 45.339844 137.882812 C 45.339844 132.199219 41.414062 127.449219 36.144531 126.097656 L 36.144531 111.726562 L 78.289062 111.726562 L 78.289062 126.097656 C 73.023438 127.449219 69.097656 132.199219 69.097656 137.882812 C 69.097656 144.609375 74.570312 150.085938 81.300781 150.085938 C 88.03125 150.085938 93.503906 144.613281 93.503906 137.882812 C 93.503906 132.199219 89.582031 127.449219 84.3125 126.097656 L 84.3125 111.726562 L 126.457031 111.726562 L 126.457031 126.097656 C 121.1875 127.449219 117.261719 132.199219 117.261719 137.882812 C 117.261719 144.609375 122.734375 150.085938 129.46875 150.085938 C 136.199219 150.085938 141.671875 144.613281 141.671875 137.882812 C 141.671875 132.199219 137.75 127.449219 132.476562 126.097656 L 132.476562 111.726562 L 136.390625 111.726562 Z M 39.316406 137.882812 C 39.316406 141.289062 36.546875 144.066406 33.132812 144.066406 C 29.722656 144.066406 26.949219 141.292969 26.949219 137.882812 C 26.949219 134.472656 29.722656 131.699219 33.132812 131.699219 C 36.546875 131.699219 39.316406 134.472656 39.316406 137.882812 Z M 87.484375 137.882812 C 87.484375 141.289062 84.710938 144.066406 81.300781 144.066406 C 77.894531 144.066406 75.117188 141.292969 75.117188 137.882812 C 75.117188 134.472656 77.890625 131.699219 81.300781 131.699219 C 84.710938 131.703125 87.484375 134.472656 87.484375 137.882812 Z M 135.652344 137.882812 C 135.652344 141.289062 132.878906 144.066406 129.46875 144.066406 C 126.058594 144.066406 123.285156 141.292969 123.285156 137.882812 C 123.285156 134.472656 126.058594 131.699219 129.46875 131.699219 C 132.878906 131.699219 135.652344 134.472656 135.652344 137.882812 Z M 6.125 85.679688 C 6.125 75.585938 13.652344 67.238281 23.34375 65.839844 C 22.933594 69.773438 23.273438 73.273438 24.378906 76.269531 C 24.824219 77.488281 25.976562 78.238281 27.199219 78.238281 C 27.546875 78.238281 27.898438 78.179688 28.242188 78.050781 C 29.800781 77.476562 30.597656 75.742188 30.023438 74.183594 C 28.972656 71.339844 28.90625 67.679688 29.824219 63.304688 C 29.824219 63.289062 29.820312 63.277344 29.824219 63.261719 C 29.824219 63.25 29.835938 63.242188 29.835938 63.230469 C 32.949219 46.1875 47.808594 33.816406 65.164062 33.816406 C 75.910156 33.816406 85.953125 38.632812 92.75 46.828125 C 88.839844 48.488281 84.199219 51.195312 79.867188 55.660156 C 78.707031 56.851562 78.738281 58.757812 79.929688 59.917969 C 80.515625 60.488281 81.273438 60.769531 82.03125 60.769531 C 82.816406 60.769531 83.597656 60.460938 84.1875 59.859375 C 89.21875 54.675781 94.722656 52.265625 98.457031 51.15625 C 100.773438 50.5 103.179688 50.171875 105.613281 50.171875 C 114.410156 50.171875 122.578125 54.316406 127.75 61.1875 C 124.542969 62.179688 121.1875 63.554688 118.941406 65.414062 C 117.65625 66.476562 117.484375 68.375 118.539062 69.652344 C 119.136719 70.375 119.992188 70.742188 120.859375 70.742188 C 121.539062 70.742188 122.214844 70.515625 122.777344 70.054688 C 124.546875 68.589844 128.421875 67.0625 133.144531 65.960938 C 133.144531 65.960938 133.144531 65.957031 133.148438 65.957031 C 133.152344 65.957031 133.160156 65.957031 133.160156 65.957031 C 134.144531 65.742188 135.199219 65.640625 136.386719 65.640625 C 147.464844 65.640625 156.472656 74.625 156.472656 85.671875 C 156.472656 96.71875 147.464844 105.703125 136.386719 105.703125 L 26.214844 105.703125 C 15.136719 105.710938 6.125 96.722656 6.125 85.679688 Z M 6.125 85.679688 " fill-opacity="1" fill-rule="nonzero"/></g><path fill="#ffffff" d="M 5.796875 42.574219 C 5.796875 42.574219 5.800781 42.574219 5.804688 42.574219 C 7.464844 42.570312 8.808594 41.21875 8.808594 39.558594 C 8.789062 30.667969 12.230469 22.308594 18.496094 16.015625 C 24.769531 9.71875 33.113281 6.242188 42 6.222656 C 43.660156 6.222656 45.007812 4.871094 45.003906 3.207031 C 45 1.546875 43.652344 0.203125 41.992188 0.203125 C 41.992188 0.203125 41.992188 0.203125 41.988281 0.203125 C 31.492188 0.222656 21.636719 4.332031 14.230469 11.765625 C 6.828125 19.199219 2.765625 29.078125 2.785156 39.570312 C 2.789062 41.230469 4.136719 42.574219 5.796875 42.574219 Z M 5.796875 42.574219 " fill-opacity="1" fill-rule="nonzero"/><path fill="#ffffff" d="M 42.019531 13.742188 C 42.015625 13.742188 42.007812 13.742188 42.003906 13.742188 C 35.113281 13.78125 28.660156 16.472656 23.828125 21.324219 C 18.996094 26.175781 16.332031 32.640625 16.320312 39.527344 C 16.316406 41.191406 17.664062 42.539062 19.328125 42.542969 C 19.328125 42.542969 19.332031 42.542969 19.332031 42.542969 C 20.992188 42.542969 22.339844 41.195312 22.34375 39.535156 C 22.347656 34.246094 24.390625 29.285156 28.09375 25.570312 C 31.792969 21.855469 36.75 19.789062 42.035156 19.757812 C 43.699219 19.75 45.039062 18.390625 45.027344 16.730469 C 45.023438 15.078125 43.675781 13.742188 42.019531 13.742188 Z M 42.019531 13.742188 " fill-opacity="1" fill-rule="nonzero"/><path fill="#ffffff" d="M 112.71875 17.945312 C 121.53125 16.742188 130.269531 19.03125 137.347656 24.398438 C 144.425781 29.765625 148.988281 37.570312 150.195312 46.378906 C 150.402344 47.886719 151.695312 48.976562 153.175781 48.976562 C 153.308594 48.976562 153.449219 48.96875 153.585938 48.949219 C 155.234375 48.726562 156.386719 47.203125 156.160156 45.5625 C 154.730469 35.164062 149.34375 25.941406 140.984375 19.601562 C 132.628906 13.265625 122.304688 10.5625 111.902344 11.984375 C 110.253906 12.207031 109.101562 13.730469 109.328125 15.371094 C 109.554688 17.019531 111.054688 18.167969 112.71875 17.945312 Z M 112.71875 17.945312 " fill-opacity="1" fill-rule="nonzero"/><path fill="#ffffff" d="M 132.792969 30.394531 C 127.339844 26.253906 120.554688 24.488281 113.75 25.394531 C 112.101562 25.613281 110.941406 27.128906 111.164062 28.777344 C 111.382812 30.425781 112.929688 31.589844 114.546875 31.363281 C 119.792969 30.65625 124.976562 32.019531 129.15625 35.195312 C 133.339844 38.363281 136.046875 42.992188 136.78125 48.230469 C 136.992188 49.738281 138.285156 50.820312 139.761719 50.820312 C 139.898438 50.820312 140.042969 50.8125 140.183594 50.789062 C 141.832031 50.558594 142.976562 49.035156 142.746094 47.386719 C 141.78125 40.566406 138.25 34.53125 132.792969 30.394531 Z M 132.792969 30.394531 " fill-opacity="1" fill-rule="nonzero"/></svg>
