<svg xmlns="http://www.w3.org/2000/svg" width="100%" height="100%" viewBox="0 0 400 58" fill="none">
<path d="M10 0.5H390C395.247 0.5 399.5 4.75329 399.5 10V48C399.5 53.2467 395.247 57.5 390 57.5H9.99999C4.75329 57.5 0.5 53.2467 0.5 48V10C0.5 4.75329 4.75329 0.5 10 0.5Z" fill="white" stroke="#0F225B"/>
<path d="M32.1154 29.72C32.1154 31.32 31.8154 32.66 31.2154 33.74C30.6287 34.82 29.782 35.6333 28.6754 36.18C27.5687 36.7267 26.2287 37 24.6554 37H20.6754V22.72H25.0754C26.5154 22.72 27.762 22.9867 28.8154 23.52C29.8687 24.0533 30.682 24.84 31.2554 25.88C31.8287 26.9067 32.1154 28.1867 32.1154 29.72ZM30.2154 29.78C30.2154 28.5133 30.002 27.4733 29.5754 26.66C29.162 25.8467 28.5487 25.2467 27.7354 24.86C26.9354 24.46 25.962 24.26 24.8154 24.26H22.4754V35.46H24.4154C26.3487 35.46 27.7954 34.9867 28.7554 34.04C29.7287 33.08 30.2154 31.66 30.2154 29.78ZM39.1847 26.08C40.1047 26.08 40.8914 26.28 41.5447 26.68C42.2114 27.08 42.7181 27.6467 43.0647 28.38C43.4247 29.1 43.6047 29.9467 43.6047 30.92V31.98H36.2647C36.2914 33.1933 36.5981 34.12 37.1847 34.76C37.7847 35.3867 38.6181 35.7 39.6847 35.7C40.3647 35.7 40.9647 35.64 41.4847 35.52C42.0181 35.3867 42.5647 35.2 43.1247 34.96V36.5C42.5781 36.74 42.0381 36.9133 41.5047 37.02C40.9714 37.14 40.3381 37.2 39.6047 37.2C38.5914 37.2 37.6914 36.9933 36.9047 36.58C36.1314 36.1667 35.5247 35.5533 35.0847 34.74C34.6581 33.9133 34.4447 32.9067 34.4447 31.72C34.4447 30.5467 34.6381 29.54 35.0247 28.7C35.4247 27.86 35.9781 27.2133 36.6847 26.76C37.4047 26.3067 38.2381 26.08 39.1847 26.08ZM39.1647 27.52C38.3247 27.52 37.6581 27.7933 37.1647 28.34C36.6847 28.8733 36.3981 29.62 36.3047 30.58H41.7647C41.7647 29.9667 41.6714 29.4333 41.4847 28.98C41.2981 28.5267 41.0114 28.1733 40.6247 27.92C40.2514 27.6533 39.7647 27.52 39.1647 27.52ZM48.3032 37L44.2432 26.28H46.1232L48.4032 32.6C48.5098 32.8933 48.6232 33.22 48.7432 33.58C48.8632 33.94 48.9698 34.2867 49.0632 34.62C49.1565 34.94 49.2232 35.2133 49.2632 35.44H49.3432C49.3965 35.2133 49.4698 34.9333 49.5632 34.6C49.6698 34.2667 49.7832 33.92 49.9032 33.56C50.0365 33.2 50.1498 32.88 50.2432 32.6L52.5232 26.28H54.4032L50.3232 37H48.3032ZM57.8594 26.28V37H56.0994V26.28H57.8594ZM56.9994 22.26C57.2661 22.26 57.4994 22.3533 57.6994 22.54C57.9128 22.7133 58.0194 22.9933 58.0194 23.38C58.0194 23.7533 57.9128 24.0333 57.6994 24.22C57.4994 24.4067 57.2661 24.5 56.9994 24.5C56.7061 24.5 56.4594 24.4067 56.2594 24.22C56.0594 24.0333 55.9594 23.7533 55.9594 23.38C55.9594 22.9933 56.0594 22.7133 56.2594 22.54C56.4594 22.3533 56.7061 22.26 56.9994 22.26ZM65.5557 37.2C64.609 37.2 63.7623 37.0067 63.0157 36.62C62.2823 36.2333 61.7023 35.6333 61.2757 34.82C60.8623 34.0067 60.6557 32.9667 60.6557 31.7C60.6557 30.38 60.8757 29.3067 61.3157 28.48C61.7557 27.6533 62.349 27.0467 63.0957 26.66C63.8557 26.2733 64.7157 26.08 65.6757 26.08C66.2223 26.08 66.749 26.14 67.2557 26.26C67.7623 26.3667 68.1757 26.5 68.4957 26.66L67.9557 28.12C67.6357 28 67.2623 27.8867 66.8357 27.78C66.409 27.6733 66.009 27.62 65.6357 27.62C64.9157 27.62 64.3223 27.7733 63.8557 28.08C63.389 28.3867 63.0423 28.84 62.8157 29.44C62.589 30.04 62.4757 30.7867 62.4757 31.68C62.4757 32.5333 62.589 33.26 62.8157 33.86C63.0423 34.46 63.3823 34.9133 63.8357 35.22C64.289 35.5267 64.8557 35.68 65.5357 35.68C66.1223 35.68 66.6357 35.62 67.0757 35.5C67.529 35.38 67.9423 35.2333 68.3157 35.06V36.62C67.9557 36.8067 67.5557 36.9467 67.1157 37.04C66.689 37.1467 66.169 37.2 65.5557 37.2ZM75.0051 26.08C75.9251 26.08 76.7117 26.28 77.3651 26.68C78.0317 27.08 78.5384 27.6467 78.8851 28.38C79.2451 29.1 79.4251 29.9467 79.4251 30.92V31.98H72.0851C72.1117 33.1933 72.4184 34.12 73.0051 34.76C73.6051 35.3867 74.4384 35.7 75.5051 35.7C76.1851 35.7 76.7851 35.64 77.3051 35.52C77.8384 35.3867 78.3851 35.2 78.9451 34.96V36.5C78.3984 36.74 77.8584 36.9133 77.3251 37.02C76.7917 37.14 76.1584 37.2 75.4251 37.2C74.4117 37.2 73.5117 36.9933 72.7251 36.58C71.9517 36.1667 71.3451 35.5533 70.9051 34.74C70.4784 33.9133 70.2651 32.9067 70.2651 31.72C70.2651 30.5467 70.4584 29.54 70.8451 28.7C71.2451 27.86 71.7984 27.2133 72.5051 26.76C73.2251 26.3067 74.0584 26.08 75.0051 26.08ZM74.9851 27.52C74.1451 27.52 73.4784 27.7933 72.9851 28.34C72.5051 28.8733 72.2184 29.62 72.1251 30.58H77.5851C77.5851 29.9667 77.4917 29.4333 77.3051 28.98C77.1184 28.5267 76.8317 28.1733 76.4451 27.92C76.0717 27.6533 75.5851 27.52 74.9851 27.52ZM96.0605 33.18C96.0605 34.0333 95.8539 34.76 95.4405 35.36C95.0272 35.9467 94.4339 36.4 93.6605 36.72C92.9005 37.04 92.0005 37.2 90.9605 37.2C90.4272 37.2 89.9139 37.1733 89.4205 37.12C88.9405 37.0667 88.5005 36.9933 88.1005 36.9C87.7005 36.7933 87.3472 36.6667 87.0405 36.52V34.8C87.5205 35.0133 88.1139 35.2067 88.8205 35.38C89.5405 35.5533 90.2805 35.64 91.0405 35.64C91.7472 35.64 92.3405 35.5467 92.8205 35.36C93.3005 35.1733 93.6605 34.9067 93.9005 34.56C94.1405 34.2133 94.2605 33.8067 94.2605 33.34C94.2605 32.8733 94.1605 32.48 93.9605 32.16C93.7605 31.84 93.4139 31.5467 92.9205 31.28C92.4405 31 91.7672 30.7067 90.9005 30.4C90.2872 30.1733 89.7472 29.9333 89.2805 29.68C88.8272 29.4133 88.4472 29.1133 88.1405 28.78C87.8339 28.4467 87.6005 28.0667 87.4405 27.64C87.2939 27.2133 87.2205 26.72 87.2205 26.16C87.2205 25.4 87.4139 24.7533 87.8005 24.22C88.1872 23.6733 88.7205 23.2533 89.4005 22.96C90.0939 22.6667 90.8872 22.52 91.7805 22.52C92.5672 22.52 93.2872 22.5933 93.9405 22.74C94.5939 22.8867 95.1872 23.08 95.7205 23.32L95.1605 24.86C94.6672 24.6467 94.1272 24.4667 93.5405 24.32C92.9672 24.1733 92.3672 24.1 91.7405 24.1C91.1405 24.1 90.6405 24.1867 90.2405 24.36C89.8405 24.5333 89.5405 24.78 89.3405 25.1C89.1405 25.4067 89.0405 25.7667 89.0405 26.18C89.0405 26.66 89.1405 27.06 89.3405 27.38C89.5405 27.7 89.8672 27.9867 90.3205 28.24C90.7739 28.4933 91.3872 28.7667 92.1605 29.06C93.0005 29.3667 93.7072 29.7 94.2805 30.06C94.8672 30.4067 95.3072 30.8267 95.6005 31.32C95.9072 31.8133 96.0605 32.4333 96.0605 33.18ZM102.837 26.08C103.757 26.08 104.544 26.28 105.197 26.68C105.864 27.08 106.37 27.6467 106.717 28.38C107.077 29.1 107.257 29.9467 107.257 30.92V31.98H99.9171C99.9437 33.1933 100.25 34.12 100.837 34.76C101.437 35.3867 102.27 35.7 103.337 35.7C104.017 35.7 104.617 35.64 105.137 35.52C105.67 35.3867 106.217 35.2 106.777 34.96V36.5C106.23 36.74 105.69 36.9133 105.157 37.02C104.624 37.14 103.99 37.2 103.257 37.2C102.244 37.2 101.344 36.9933 100.557 36.58C99.7837 36.1667 99.1771 35.5533 98.7371 34.74C98.3104 33.9133 98.0971 32.9067 98.0971 31.72C98.0971 30.5467 98.2904 29.54 98.6771 28.7C99.0771 27.86 99.6304 27.2133 100.337 26.76C101.057 26.3067 101.89 26.08 102.837 26.08ZM102.817 27.52C101.977 27.52 101.31 27.7933 100.817 28.34C100.337 28.8733 100.05 29.62 99.9571 30.58H105.417C105.417 29.9667 105.324 29.4333 105.137 28.98C104.95 28.5267 104.664 28.1733 104.277 27.92C103.904 27.6533 103.417 27.52 102.817 27.52ZM111.746 37H109.986V21.8H111.746V37ZM119.282 26.08C120.202 26.08 120.989 26.28 121.642 26.68C122.309 27.08 122.816 27.6467 123.162 28.38C123.522 29.1 123.702 29.9467 123.702 30.92V31.98H116.362C116.389 33.1933 116.696 34.12 117.282 34.76C117.882 35.3867 118.716 35.7 119.782 35.7C120.462 35.7 121.062 35.64 121.582 35.52C122.116 35.3867 122.662 35.2 123.222 34.96V36.5C122.676 36.74 122.136 36.9133 121.602 37.02C121.069 37.14 120.436 37.2 119.702 37.2C118.689 37.2 117.789 36.9933 117.002 36.58C116.229 36.1667 115.622 35.5533 115.182 34.74C114.756 33.9133 114.542 32.9067 114.542 31.72C114.542 30.5467 114.736 29.54 115.122 28.7C115.522 27.86 116.076 27.2133 116.782 26.76C117.502 26.3067 118.336 26.08 119.282 26.08ZM119.262 27.52C118.422 27.52 117.756 27.7933 117.262 28.34C116.782 28.8733 116.496 29.62 116.402 30.58H121.862C121.862 29.9667 121.769 29.4333 121.582 28.98C121.396 28.5267 121.109 28.1733 120.722 27.92C120.349 27.6533 119.862 27.52 119.262 27.52ZM130.731 37.2C129.785 37.2 128.938 37.0067 128.191 36.62C127.458 36.2333 126.878 35.6333 126.451 34.82C126.038 34.0067 125.831 32.9667 125.831 31.7C125.831 30.38 126.051 29.3067 126.491 28.48C126.931 27.6533 127.525 27.0467 128.271 26.66C129.031 26.2733 129.891 26.08 130.851 26.08C131.398 26.08 131.925 26.14 132.431 26.26C132.938 26.3667 133.351 26.5 133.671 26.66L133.131 28.12C132.811 28 132.438 27.8867 132.011 27.78C131.585 27.6733 131.185 27.62 130.811 27.62C130.091 27.62 129.498 27.7733 129.031 28.08C128.565 28.3867 128.218 28.84 127.991 29.44C127.765 30.04 127.651 30.7867 127.651 31.68C127.651 32.5333 127.765 33.26 127.991 33.86C128.218 34.46 128.558 34.9133 129.011 35.22C129.465 35.5267 130.031 35.68 130.711 35.68C131.298 35.68 131.811 35.62 132.251 35.5C132.705 35.38 133.118 35.2333 133.491 35.06V36.62C133.131 36.8067 132.731 36.9467 132.291 37.04C131.865 37.1467 131.345 37.2 130.731 37.2ZM139.621 35.76C139.887 35.76 140.161 35.74 140.441 35.7C140.721 35.6467 140.947 35.5933 141.121 35.54V36.88C140.934 36.9733 140.667 37.0467 140.321 37.1C139.974 37.1667 139.641 37.2 139.321 37.2C138.761 37.2 138.241 37.1067 137.761 36.92C137.294 36.72 136.914 36.38 136.621 35.9C136.327 35.42 136.181 34.7467 136.181 33.88V27.64H134.661V26.8L136.201 26.1L136.901 23.82H137.941V26.28H141.041V27.64H137.941V33.84C137.941 34.4933 138.094 34.98 138.401 35.3C138.721 35.6067 139.127 35.76 139.621 35.76ZM152.587 31.62C152.587 32.5133 152.467 33.3067 152.227 34C152.001 34.68 151.667 35.26 151.227 35.74C150.801 36.22 150.274 36.5867 149.647 36.84C149.034 37.08 148.347 37.2 147.587 37.2C146.881 37.2 146.227 37.08 145.627 36.84C145.027 36.5867 144.507 36.22 144.067 35.74C143.627 35.26 143.281 34.68 143.027 34C142.787 33.3067 142.667 32.5133 142.667 31.62C142.667 30.4333 142.867 29.4333 143.267 28.62C143.667 27.7933 144.241 27.1667 144.987 26.74C145.734 26.3 146.621 26.08 147.647 26.08C148.621 26.08 149.474 26.3 150.207 26.74C150.954 27.1667 151.534 27.7933 151.947 28.62C152.374 29.4333 152.587 30.4333 152.587 31.62ZM144.487 31.62C144.487 32.46 144.594 33.1933 144.807 33.82C145.034 34.4333 145.381 34.9067 145.847 35.24C146.314 35.5733 146.907 35.74 147.627 35.74C148.347 35.74 148.941 35.5733 149.407 35.24C149.874 34.9067 150.214 34.4333 150.427 33.82C150.654 33.1933 150.767 32.46 150.767 31.62C150.767 30.7667 150.654 30.04 150.427 29.44C150.201 28.84 149.854 28.38 149.387 28.06C148.934 27.7267 148.341 27.56 147.607 27.56C146.514 27.56 145.721 27.92 145.227 28.64C144.734 29.36 144.487 30.3533 144.487 31.62ZM160.377 26.08C160.577 26.08 160.79 26.0933 161.017 26.12C161.257 26.1333 161.463 26.16 161.637 26.2L161.417 27.82C161.243 27.78 161.05 27.7467 160.837 27.72C160.637 27.6933 160.443 27.68 160.257 27.68C159.843 27.68 159.45 27.7667 159.077 27.94C158.703 28.1133 158.37 28.36 158.077 28.68C157.783 28.9867 157.55 29.36 157.377 29.8C157.217 30.24 157.137 30.7333 157.137 31.28V37H155.377V26.28H156.817L157.017 28.24H157.097C157.323 27.84 157.597 27.48 157.917 27.16C158.237 26.8267 158.603 26.5667 159.017 26.38C159.43 26.18 159.883 26.08 160.377 26.08Z" fill="#1F1E1E"/>
<path d="M368.618 40L356.855 17.5H380.382L368.618 40Z" fill="#161414"/>
</svg>
