<svg xmlns="http://www.w3.org/2000/svg" width="100%" height="100%" viewBox="0 0 427 58" fill="none">
<path d="M10 0.5H417C422.247 0.5 426.5 4.75329 426.5 10V48C426.5 53.2467 422.247 57.5 417 57.5H10C4.75329 57.5 0.5 53.2467 0.5 48V10C0.5 4.75329 4.75329 0.5 10 0.5Z" fill="white" stroke="#0F225B"/>
<path d="M33.38 29.72C33.38 31.32 33.08 32.66 32.48 33.74C31.8933 34.82 31.0467 35.6333 29.94 36.18C28.8333 36.7267 27.4933 37 25.92 37H21.94V22.72H26.34C27.78 22.72 29.0267 22.9867 30.08 23.52C31.1333 24.0533 31.9467 24.84 32.52 25.88C33.0933 26.9067 33.38 28.1867 33.38 29.72ZM31.48 29.78C31.48 28.5133 31.2667 27.4733 30.84 26.66C30.4267 25.8467 29.8133 25.2467 29 24.86C28.2 24.46 27.2267 24.26 26.08 24.26H23.74V35.46H25.68C27.6133 35.46 29.06 34.9867 30.02 34.04C30.9933 33.08 31.48 31.66 31.48 29.78ZM40.4494 26.08C41.3694 26.08 42.156 26.28 42.8094 26.68C43.476 27.08 43.9827 27.6467 44.3294 28.38C44.6894 29.1 44.8694 29.9467 44.8694 30.92V31.98H37.5294C37.556 33.1933 37.8627 34.12 38.4494 34.76C39.0494 35.3867 39.8827 35.7 40.9494 35.7C41.6294 35.7 42.2294 35.64 42.7494 35.52C43.2827 35.3867 43.8294 35.2 44.3894 34.96V36.5C43.8427 36.74 43.3027 36.9133 42.7694 37.02C42.236 37.14 41.6027 37.2 40.8694 37.2C39.856 37.2 38.956 36.9933 38.1694 36.58C37.396 36.1667 36.7894 35.5533 36.3494 34.74C35.9227 33.9133 35.7094 32.9067 35.7094 31.72C35.7094 30.5467 35.9027 29.54 36.2894 28.7C36.6894 27.86 37.2427 27.2133 37.9494 26.76C38.6694 26.3067 39.5027 26.08 40.4494 26.08ZM40.4294 27.52C39.5894 27.52 38.9227 27.7933 38.4294 28.34C37.9494 28.8733 37.6627 29.62 37.5694 30.58H43.0294C43.0294 29.9667 42.936 29.4333 42.7494 28.98C42.5627 28.5267 42.276 28.1733 41.8894 27.92C41.516 27.6533 41.0294 27.52 40.4294 27.52ZM49.5678 37L45.5078 26.28H47.3878L49.6678 32.6C49.7745 32.8933 49.8878 33.22 50.0078 33.58C50.1278 33.94 50.2345 34.2867 50.3278 34.62C50.4211 34.94 50.4878 35.2133 50.5278 35.44H50.6078C50.6611 35.2133 50.7345 34.9333 50.8278 34.6C50.9345 34.2667 51.0478 33.92 51.1678 33.56C51.3011 33.2 51.4145 32.88 51.5078 32.6L53.7878 26.28H55.6678L51.5878 37H49.5678ZM59.1241 26.28V37H57.3641V26.28H59.1241ZM58.2641 22.26C58.5307 22.26 58.7641 22.3533 58.9641 22.54C59.1774 22.7133 59.2841 22.9933 59.2841 23.38C59.2841 23.7533 59.1774 24.0333 58.9641 24.22C58.7641 24.4067 58.5307 24.5 58.2641 24.5C57.9707 24.5 57.7241 24.4067 57.5241 24.22C57.3241 24.0333 57.2241 23.7533 57.2241 23.38C57.2241 22.9933 57.3241 22.7133 57.5241 22.54C57.7241 22.3533 57.9707 22.26 58.2641 22.26ZM66.8203 37.2C65.8736 37.2 65.027 37.0067 64.2803 36.62C63.547 36.2333 62.967 35.6333 62.5403 34.82C62.127 34.0067 61.9203 32.9667 61.9203 31.7C61.9203 30.38 62.1403 29.3067 62.5803 28.48C63.0203 27.6533 63.6136 27.0467 64.3603 26.66C65.1203 26.2733 65.9803 26.08 66.9403 26.08C67.487 26.08 68.0136 26.14 68.5203 26.26C69.027 26.3667 69.4403 26.5 69.7603 26.66L69.2203 28.12C68.9003 28 68.527 27.8867 68.1003 27.78C67.6736 27.6733 67.2736 27.62 66.9003 27.62C66.1803 27.62 65.587 27.7733 65.1203 28.08C64.6536 28.3867 64.307 28.84 64.0803 29.44C63.8536 30.04 63.7403 30.7867 63.7403 31.68C63.7403 32.5333 63.8536 33.26 64.0803 33.86C64.307 34.46 64.647 34.9133 65.1003 35.22C65.5536 35.5267 66.1203 35.68 66.8003 35.68C67.387 35.68 67.9003 35.62 68.3403 35.5C68.7936 35.38 69.207 35.2333 69.5803 35.06V36.62C69.2203 36.8067 68.8203 36.9467 68.3803 37.04C67.9536 37.1467 67.4336 37.2 66.8203 37.2ZM76.2697 26.08C77.1897 26.08 77.9764 26.28 78.6297 26.68C79.2964 27.08 79.803 27.6467 80.1497 28.38C80.5097 29.1 80.6897 29.9467 80.6897 30.92V31.98H73.3497C73.3764 33.1933 73.683 34.12 74.2697 34.76C74.8697 35.3867 75.703 35.7 76.7697 35.7C77.4497 35.7 78.0497 35.64 78.5697 35.52C79.103 35.3867 79.6497 35.2 80.2097 34.96V36.5C79.663 36.74 79.123 36.9133 78.5897 37.02C78.0564 37.14 77.423 37.2 76.6897 37.2C75.6764 37.2 74.7764 36.9933 73.9897 36.58C73.2164 36.1667 72.6097 35.5533 72.1697 34.74C71.743 33.9133 71.5297 32.9067 71.5297 31.72C71.5297 30.5467 71.723 29.54 72.1097 28.7C72.5097 27.86 73.063 27.2133 73.7697 26.76C74.4897 26.3067 75.323 26.08 76.2697 26.08ZM76.2497 27.52C75.4097 27.52 74.743 27.7933 74.2497 28.34C73.7697 28.8733 73.483 29.62 73.3897 30.58H78.8497C78.8497 29.9667 78.7564 29.4333 78.5697 28.98C78.383 28.5267 78.0964 28.1733 77.7097 27.92C77.3364 27.6533 76.8497 27.52 76.2497 27.52ZM97.3252 33.18C97.3252 34.0333 97.1185 34.76 96.7052 35.36C96.2918 35.9467 95.6985 36.4 94.9252 36.72C94.1652 37.04 93.2652 37.2 92.2252 37.2C91.6918 37.2 91.1785 37.1733 90.6852 37.12C90.2052 37.0667 89.7652 36.9933 89.3652 36.9C88.9652 36.7933 88.6118 36.6667 88.3052 36.52V34.8C88.7852 35.0133 89.3785 35.2067 90.0852 35.38C90.8052 35.5533 91.5452 35.64 92.3052 35.64C93.0118 35.64 93.6052 35.5467 94.0852 35.36C94.5652 35.1733 94.9252 34.9067 95.1652 34.56C95.4052 34.2133 95.5252 33.8067 95.5252 33.34C95.5252 32.8733 95.4252 32.48 95.2252 32.16C95.0252 31.84 94.6785 31.5467 94.1852 31.28C93.7052 31 93.0318 30.7067 92.1652 30.4C91.5518 30.1733 91.0118 29.9333 90.5452 29.68C90.0918 29.4133 89.7118 29.1133 89.4052 28.78C89.0985 28.4467 88.8652 28.0667 88.7052 27.64C88.5585 27.2133 88.4852 26.72 88.4852 26.16C88.4852 25.4 88.6785 24.7533 89.0652 24.22C89.4518 23.6733 89.9852 23.2533 90.6652 22.96C91.3585 22.6667 92.1518 22.52 93.0452 22.52C93.8318 22.52 94.5518 22.5933 95.2052 22.74C95.8585 22.8867 96.4518 23.08 96.9852 23.32L96.4252 24.86C95.9318 24.6467 95.3918 24.4667 94.8052 24.32C94.2318 24.1733 93.6318 24.1 93.0052 24.1C92.4052 24.1 91.9052 24.1867 91.5052 24.36C91.1052 24.5333 90.8052 24.78 90.6052 25.1C90.4052 25.4067 90.3052 25.7667 90.3052 26.18C90.3052 26.66 90.4052 27.06 90.6052 27.38C90.8052 27.7 91.1318 27.9867 91.5852 28.24C92.0385 28.4933 92.6518 28.7667 93.4252 29.06C94.2652 29.3667 94.9718 29.7 95.5452 30.06C96.1318 30.4067 96.5718 30.8267 96.8652 31.32C97.1718 31.8133 97.3252 32.4333 97.3252 33.18ZM104.102 26.08C105.022 26.08 105.808 26.28 106.462 26.68C107.128 27.08 107.635 27.6467 107.982 28.38C108.342 29.1 108.522 29.9467 108.522 30.92V31.98H101.182C101.208 33.1933 101.515 34.12 102.102 34.76C102.702 35.3867 103.535 35.7 104.602 35.7C105.282 35.7 105.882 35.64 106.402 35.52C106.935 35.3867 107.482 35.2 108.042 34.96V36.5C107.495 36.74 106.955 36.9133 106.422 37.02C105.888 37.14 105.255 37.2 104.522 37.2C103.508 37.2 102.608 36.9933 101.822 36.58C101.048 36.1667 100.442 35.5533 100.002 34.74C99.5751 33.9133 99.3617 32.9067 99.3617 31.72C99.3617 30.5467 99.5551 29.54 99.9417 28.7C100.342 27.86 100.895 27.2133 101.602 26.76C102.322 26.3067 103.155 26.08 104.102 26.08ZM104.082 27.52C103.242 27.52 102.575 27.7933 102.082 28.34C101.602 28.8733 101.315 29.62 101.222 30.58H106.682C106.682 29.9667 106.588 29.4333 106.402 28.98C106.215 28.5267 105.928 28.1733 105.542 27.92C105.168 27.6533 104.682 27.52 104.082 27.52ZM113.011 37H111.251V21.8H113.011V37ZM120.547 26.08C121.467 26.08 122.254 26.28 122.907 26.68C123.574 27.08 124.08 27.6467 124.427 28.38C124.787 29.1 124.967 29.9467 124.967 30.92V31.98H117.627C117.654 33.1933 117.96 34.12 118.547 34.76C119.147 35.3867 119.98 35.7 121.047 35.7C121.727 35.7 122.327 35.64 122.847 35.52C123.38 35.3867 123.927 35.2 124.487 34.96V36.5C123.94 36.74 123.4 36.9133 122.867 37.02C122.334 37.14 121.7 37.2 120.967 37.2C119.954 37.2 119.054 36.9933 118.267 36.58C117.494 36.1667 116.887 35.5533 116.447 34.74C116.02 33.9133 115.807 32.9067 115.807 31.72C115.807 30.5467 116 29.54 116.387 28.7C116.787 27.86 117.34 27.2133 118.047 26.76C118.767 26.3067 119.6 26.08 120.547 26.08ZM120.527 27.52C119.687 27.52 119.02 27.7933 118.527 28.34C118.047 28.8733 117.76 29.62 117.667 30.58H123.127C123.127 29.9667 123.034 29.4333 122.847 28.98C122.66 28.5267 122.374 28.1733 121.987 27.92C121.614 27.6533 121.127 27.52 120.527 27.52ZM131.996 37.2C131.049 37.2 130.203 37.0067 129.456 36.62C128.723 36.2333 128.143 35.6333 127.716 34.82C127.303 34.0067 127.096 32.9667 127.096 31.7C127.096 30.38 127.316 29.3067 127.756 28.48C128.196 27.6533 128.789 27.0467 129.536 26.66C130.296 26.2733 131.156 26.08 132.116 26.08C132.663 26.08 133.189 26.14 133.696 26.26C134.203 26.3667 134.616 26.5 134.936 26.66L134.396 28.12C134.076 28 133.703 27.8867 133.276 27.78C132.849 27.6733 132.449 27.62 132.076 27.62C131.356 27.62 130.763 27.7733 130.296 28.08C129.829 28.3867 129.483 28.84 129.256 29.44C129.029 30.04 128.916 30.7867 128.916 31.68C128.916 32.5333 129.029 33.26 129.256 33.86C129.483 34.46 129.823 34.9133 130.276 35.22C130.729 35.5267 131.296 35.68 131.976 35.68C132.563 35.68 133.076 35.62 133.516 35.5C133.969 35.38 134.383 35.2333 134.756 35.06V36.62C134.396 36.8067 133.996 36.9467 133.556 37.04C133.129 37.1467 132.609 37.2 131.996 37.2ZM140.885 35.76C141.152 35.76 141.425 35.74 141.705 35.7C141.985 35.6467 142.212 35.5933 142.385 35.54V36.88C142.199 36.9733 141.932 37.0467 141.585 37.1C141.239 37.1667 140.905 37.2 140.585 37.2C140.025 37.2 139.505 37.1067 139.025 36.92C138.559 36.72 138.179 36.38 137.885 35.9C137.592 35.42 137.445 34.7467 137.445 33.88V27.64H135.925V26.8L137.465 26.1L138.165 23.82H139.205V26.28H142.305V27.64H139.205V33.84C139.205 34.4933 139.359 34.98 139.665 35.3C139.985 35.6067 140.392 35.76 140.885 35.76ZM153.852 31.62C153.852 32.5133 153.732 33.3067 153.492 34C153.265 34.68 152.932 35.26 152.492 35.74C152.065 36.22 151.539 36.5867 150.912 36.84C150.299 37.08 149.612 37.2 148.852 37.2C148.145 37.2 147.492 37.08 146.892 36.84C146.292 36.5867 145.772 36.22 145.332 35.74C144.892 35.26 144.545 34.68 144.292 34C144.052 33.3067 143.932 32.5133 143.932 31.62C143.932 30.4333 144.132 29.4333 144.532 28.62C144.932 27.7933 145.505 27.1667 146.252 26.74C146.999 26.3 147.885 26.08 148.912 26.08C149.885 26.08 150.739 26.3 151.472 26.74C152.219 27.1667 152.799 27.7933 153.212 28.62C153.639 29.4333 153.852 30.4333 153.852 31.62ZM145.752 31.62C145.752 32.46 145.859 33.1933 146.072 33.82C146.299 34.4333 146.645 34.9067 147.112 35.24C147.579 35.5733 148.172 35.74 148.892 35.74C149.612 35.74 150.205 35.5733 150.672 35.24C151.139 34.9067 151.479 34.4333 151.692 33.82C151.919 33.1933 152.032 32.46 152.032 31.62C152.032 30.7667 151.919 30.04 151.692 29.44C151.465 28.84 151.119 28.38 150.652 28.06C150.199 27.7267 149.605 27.56 148.872 27.56C147.779 27.56 146.985 27.92 146.492 28.64C145.999 29.36 145.752 30.3533 145.752 31.62ZM161.641 26.08C161.841 26.08 162.055 26.0933 162.281 26.12C162.521 26.1333 162.728 26.16 162.901 26.2L162.681 27.82C162.508 27.78 162.315 27.7467 162.101 27.72C161.901 27.6933 161.708 27.68 161.521 27.68C161.108 27.68 160.715 27.7667 160.341 27.94C159.968 28.1133 159.635 28.36 159.341 28.68C159.048 28.9867 158.815 29.36 158.641 29.8C158.481 30.24 158.401 30.7333 158.401 31.28V37H156.641V26.28H158.081L158.281 28.24H158.361C158.588 27.84 158.861 27.48 159.181 27.16C159.501 26.8267 159.868 26.5667 160.281 26.38C160.695 26.18 161.148 26.08 161.641 26.08Z" fill="#1F1E1E"/>
<path d="M393.5 40L380.943 17.5H406.057L393.5 40Z" fill="#161414"/>
</svg>
