<svg xmlns="http://www.w3.org/2000/svg" width="100%" height="100%" viewBox="0 0 370 58" fill="none">
<path d="M10 0.5H360C365.247 0.5 369.5 4.75329 369.5 10V48C369.5 53.2467 365.247 57.5 360 57.5H9.99999C4.75329 57.5 0.5 53.2467 0.5 48V10C0.5 4.75329 4.75329 0.5 10 0.5Z" fill="white" stroke="#0F225B"/>
<path d="M30.7102 29.72C30.7102 31.32 30.4102 32.66 29.8102 33.74C29.2235 34.82 28.3769 35.6333 27.2702 36.18C26.1635 36.7267 24.8235 37 23.2502 37H19.2702V22.72H23.6702C25.1102 22.72 26.3569 22.9867 27.4102 23.52C28.4635 24.0533 29.2769 24.84 29.8502 25.88C30.4235 26.9067 30.7102 28.1867 30.7102 29.72ZM28.8102 29.78C28.8102 28.5133 28.5969 27.4733 28.1702 26.66C27.7569 25.8467 27.1435 25.2467 26.3302 24.86C25.5302 24.46 24.5569 24.26 23.4102 24.26H21.0702V35.46H23.0102C24.9435 35.46 26.3902 34.9867 27.3502 34.04C28.3235 33.08 28.8102 31.66 28.8102 29.78ZM37.7796 26.08C38.6996 26.08 39.4863 26.28 40.1396 26.68C40.8063 27.08 41.3129 27.6467 41.6596 28.38C42.0196 29.1 42.1996 29.9467 42.1996 30.92V31.98H34.8596C34.8863 33.1933 35.1929 34.12 35.7796 34.76C36.3796 35.3867 37.2129 35.7 38.2796 35.7C38.9596 35.7 39.5596 35.64 40.0796 35.52C40.6129 35.3867 41.1596 35.2 41.7196 34.96V36.5C41.1729 36.74 40.6329 36.9133 40.0996 37.02C39.5663 37.14 38.9329 37.2 38.1996 37.2C37.1863 37.2 36.2863 36.9933 35.4996 36.58C34.7263 36.1667 34.1196 35.5533 33.6796 34.74C33.2529 33.9133 33.0396 32.9067 33.0396 31.72C33.0396 30.5467 33.2329 29.54 33.6196 28.7C34.0196 27.86 34.5729 27.2133 35.2796 26.76C35.9996 26.3067 36.8329 26.08 37.7796 26.08ZM37.7596 27.52C36.9196 27.52 36.2529 27.7933 35.7596 28.34C35.2796 28.8733 34.9929 29.62 34.8996 30.58H40.3596C40.3596 29.9667 40.2663 29.4333 40.0796 28.98C39.8929 28.5267 39.6063 28.1733 39.2196 27.92C38.8463 27.6533 38.3596 27.52 37.7596 27.52ZM46.898 37L42.838 26.28H44.718L46.998 32.6C47.1047 32.8933 47.218 33.22 47.338 33.58C47.458 33.94 47.5647 34.2867 47.658 34.62C47.7514 34.94 47.818 35.2133 47.858 35.44H47.938C47.9914 35.2133 48.0647 34.9333 48.158 34.6C48.2647 34.2667 48.378 33.92 48.498 33.56C48.6314 33.2 48.7447 32.88 48.838 32.6L51.118 26.28H52.998L48.918 37H46.898ZM56.4543 26.28V37H54.6943V26.28H56.4543ZM55.5943 22.26C55.8609 22.26 56.0943 22.3533 56.2943 22.54C56.5076 22.7133 56.6143 22.9933 56.6143 23.38C56.6143 23.7533 56.5076 24.0333 56.2943 24.22C56.0943 24.4067 55.8609 24.5 55.5943 24.5C55.3009 24.5 55.0543 24.4067 54.8543 24.22C54.6543 24.0333 54.5543 23.7533 54.5543 23.38C54.5543 22.9933 54.6543 22.7133 54.8543 22.54C55.0543 22.3533 55.3009 22.26 55.5943 22.26ZM64.1505 37.2C63.2039 37.2 62.3572 37.0067 61.6105 36.62C60.8772 36.2333 60.2972 35.6333 59.8705 34.82C59.4572 34.0067 59.2505 32.9667 59.2505 31.7C59.2505 30.38 59.4705 29.3067 59.9105 28.48C60.3505 27.6533 60.9439 27.0467 61.6905 26.66C62.4505 26.2733 63.3105 26.08 64.2705 26.08C64.8172 26.08 65.3439 26.14 65.8505 26.26C66.3572 26.3667 66.7705 26.5 67.0905 26.66L66.5505 28.12C66.2305 28 65.8572 27.8867 65.4305 27.78C65.0039 27.6733 64.6039 27.62 64.2305 27.62C63.5105 27.62 62.9172 27.7733 62.4505 28.08C61.9839 28.3867 61.6372 28.84 61.4105 29.44C61.1839 30.04 61.0705 30.7867 61.0705 31.68C61.0705 32.5333 61.1839 33.26 61.4105 33.86C61.6372 34.46 61.9772 34.9133 62.4305 35.22C62.8839 35.5267 63.4505 35.68 64.1305 35.68C64.7172 35.68 65.2305 35.62 65.6705 35.5C66.1239 35.38 66.5372 35.2333 66.9105 35.06V36.62C66.5505 36.8067 66.1505 36.9467 65.7105 37.04C65.2839 37.1467 64.7639 37.2 64.1505 37.2ZM73.5999 26.08C74.5199 26.08 75.3066 26.28 75.9599 26.68C76.6266 27.08 77.1332 27.6467 77.4799 28.38C77.8399 29.1 78.0199 29.9467 78.0199 30.92V31.98H70.6799C70.7066 33.1933 71.0132 34.12 71.5999 34.76C72.1999 35.3867 73.0332 35.7 74.0999 35.7C74.7799 35.7 75.3799 35.64 75.8999 35.52C76.4332 35.3867 76.9799 35.2 77.5399 34.96V36.5C76.9932 36.74 76.4532 36.9133 75.9199 37.02C75.3866 37.14 74.7532 37.2 74.0199 37.2C73.0066 37.2 72.1066 36.9933 71.3199 36.58C70.5466 36.1667 69.9399 35.5533 69.4999 34.74C69.0732 33.9133 68.8599 32.9067 68.8599 31.72C68.8599 30.5467 69.0532 29.54 69.4399 28.7C69.8399 27.86 70.3932 27.2133 71.0999 26.76C71.8199 26.3067 72.6532 26.08 73.5999 26.08ZM73.5799 27.52C72.7399 27.52 72.0732 27.7933 71.5799 28.34C71.0999 28.8733 70.8132 29.62 70.7199 30.58H76.1799C76.1799 29.9667 76.0866 29.4333 75.8999 28.98C75.7132 28.5267 75.4266 28.1733 75.0399 27.92C74.6666 27.6533 74.1799 27.52 73.5799 27.52ZM94.6554 33.18C94.6554 34.0333 94.4487 34.76 94.0354 35.36C93.622 35.9467 93.0287 36.4 92.2554 36.72C91.4954 37.04 90.5954 37.2 89.5554 37.2C89.022 37.2 88.5087 37.1733 88.0154 37.12C87.5354 37.0667 87.0954 36.9933 86.6954 36.9C86.2954 36.7933 85.942 36.6667 85.6354 36.52V34.8C86.1154 35.0133 86.7087 35.2067 87.4154 35.38C88.1354 35.5533 88.8754 35.64 89.6354 35.64C90.342 35.64 90.9354 35.5467 91.4154 35.36C91.8954 35.1733 92.2554 34.9067 92.4954 34.56C92.7354 34.2133 92.8554 33.8067 92.8554 33.34C92.8554 32.8733 92.7554 32.48 92.5554 32.16C92.3554 31.84 92.0087 31.5467 91.5154 31.28C91.0354 31 90.362 30.7067 89.4954 30.4C88.882 30.1733 88.342 29.9333 87.8754 29.68C87.422 29.4133 87.042 29.1133 86.7354 28.78C86.4287 28.4467 86.1954 28.0667 86.0354 27.64C85.8887 27.2133 85.8154 26.72 85.8154 26.16C85.8154 25.4 86.0087 24.7533 86.3954 24.22C86.782 23.6733 87.3154 23.2533 87.9954 22.96C88.6887 22.6667 89.482 22.52 90.3754 22.52C91.162 22.52 91.882 22.5933 92.5354 22.74C93.1887 22.8867 93.782 23.08 94.3154 23.32L93.7554 24.86C93.262 24.6467 92.722 24.4667 92.1354 24.32C91.562 24.1733 90.962 24.1 90.3354 24.1C89.7354 24.1 89.2354 24.1867 88.8354 24.36C88.4354 24.5333 88.1354 24.78 87.9354 25.1C87.7354 25.4067 87.6354 25.7667 87.6354 26.18C87.6354 26.66 87.7354 27.06 87.9354 27.38C88.1354 27.7 88.462 27.9867 88.9154 28.24C89.3687 28.4933 89.982 28.7667 90.7554 29.06C91.5954 29.3667 92.302 29.7 92.8754 30.06C93.462 30.4067 93.902 30.8267 94.1954 31.32C94.502 31.8133 94.6554 32.4333 94.6554 33.18ZM101.432 26.08C102.352 26.08 103.139 26.28 103.792 26.68C104.459 27.08 104.965 27.6467 105.312 28.38C105.672 29.1 105.852 29.9467 105.852 30.92V31.98H98.5119C98.5386 33.1933 98.8453 34.12 99.4319 34.76C100.032 35.3867 100.865 35.7 101.932 35.7C102.612 35.7 103.212 35.64 103.732 35.52C104.265 35.3867 104.812 35.2 105.372 34.96V36.5C104.825 36.74 104.285 36.9133 103.752 37.02C103.219 37.14 102.585 37.2 101.852 37.2C100.839 37.2 99.9386 36.9933 99.1519 36.58C98.3786 36.1667 97.7719 35.5533 97.3319 34.74C96.9053 33.9133 96.6919 32.9067 96.6919 31.72C96.6919 30.5467 96.8853 29.54 97.2719 28.7C97.6719 27.86 98.2253 27.2133 98.9319 26.76C99.6519 26.3067 100.485 26.08 101.432 26.08ZM101.412 27.52C100.572 27.52 99.9053 27.7933 99.4119 28.34C98.9319 28.8733 98.6453 29.62 98.5519 30.58H104.012C104.012 29.9667 103.919 29.4333 103.732 28.98C103.545 28.5267 103.259 28.1733 102.872 27.92C102.499 27.6533 102.012 27.52 101.412 27.52ZM110.341 37H108.581V21.8H110.341V37ZM117.877 26.08C118.797 26.08 119.584 26.28 120.237 26.68C120.904 27.08 121.411 27.6467 121.757 28.38C122.117 29.1 122.297 29.9467 122.297 30.92V31.98H114.957C114.984 33.1933 115.291 34.12 115.877 34.76C116.477 35.3867 117.311 35.7 118.377 35.7C119.057 35.7 119.657 35.64 120.177 35.52C120.711 35.3867 121.257 35.2 121.817 34.96V36.5C121.271 36.74 120.731 36.9133 120.197 37.02C119.664 37.14 119.031 37.2 118.297 37.2C117.284 37.2 116.384 36.9933 115.597 36.58C114.824 36.1667 114.217 35.5533 113.777 34.74C113.351 33.9133 113.137 32.9067 113.137 31.72C113.137 30.5467 113.331 29.54 113.717 28.7C114.117 27.86 114.671 27.2133 115.377 26.76C116.097 26.3067 116.931 26.08 117.877 26.08ZM117.857 27.52C117.017 27.52 116.351 27.7933 115.857 28.34C115.377 28.8733 115.091 29.62 114.997 30.58H120.457C120.457 29.9667 120.364 29.4333 120.177 28.98C119.991 28.5267 119.704 28.1733 119.317 27.92C118.944 27.6533 118.457 27.52 117.857 27.52ZM129.326 37.2C128.38 37.2 127.533 37.0067 126.786 36.62C126.053 36.2333 125.473 35.6333 125.046 34.82C124.633 34.0067 124.426 32.9667 124.426 31.7C124.426 30.38 124.646 29.3067 125.086 28.48C125.526 27.6533 126.12 27.0467 126.866 26.66C127.626 26.2733 128.486 26.08 129.446 26.08C129.993 26.08 130.52 26.14 131.026 26.26C131.533 26.3667 131.946 26.5 132.266 26.66L131.726 28.12C131.406 28 131.033 27.8867 130.606 27.78C130.18 27.6733 129.78 27.62 129.406 27.62C128.686 27.62 128.093 27.7733 127.626 28.08C127.16 28.3867 126.813 28.84 126.586 29.44C126.36 30.04 126.246 30.7867 126.246 31.68C126.246 32.5333 126.36 33.26 126.586 33.86C126.813 34.46 127.153 34.9133 127.606 35.22C128.06 35.5267 128.626 35.68 129.306 35.68C129.893 35.68 130.406 35.62 130.846 35.5C131.3 35.38 131.713 35.2333 132.086 35.06V36.62C131.726 36.8067 131.326 36.9467 130.886 37.04C130.46 37.1467 129.94 37.2 129.326 37.2ZM138.216 35.76C138.482 35.76 138.756 35.74 139.036 35.7C139.316 35.6467 139.542 35.5933 139.716 35.54V36.88C139.529 36.9733 139.262 37.0467 138.916 37.1C138.569 37.1667 138.236 37.2 137.916 37.2C137.356 37.2 136.836 37.1067 136.356 36.92C135.889 36.72 135.509 36.38 135.216 35.9C134.922 35.42 134.776 34.7467 134.776 33.88V27.64H133.256V26.8L134.796 26.1L135.496 23.82H136.536V26.28H139.636V27.64H136.536V33.84C136.536 34.4933 136.689 34.98 136.996 35.3C137.316 35.6067 137.722 35.76 138.216 35.76ZM151.182 31.62C151.182 32.5133 151.062 33.3067 150.822 34C150.596 34.68 150.262 35.26 149.822 35.74C149.396 36.22 148.869 36.5867 148.242 36.84C147.629 37.08 146.942 37.2 146.182 37.2C145.476 37.2 144.822 37.08 144.222 36.84C143.622 36.5867 143.102 36.22 142.662 35.74C142.222 35.26 141.876 34.68 141.622 34C141.382 33.3067 141.262 32.5133 141.262 31.62C141.262 30.4333 141.462 29.4333 141.862 28.62C142.262 27.7933 142.836 27.1667 143.582 26.74C144.329 26.3 145.216 26.08 146.242 26.08C147.216 26.08 148.069 26.3 148.802 26.74C149.549 27.1667 150.129 27.7933 150.542 28.62C150.969 29.4333 151.182 30.4333 151.182 31.62ZM143.082 31.62C143.082 32.46 143.189 33.1933 143.402 33.82C143.629 34.4333 143.976 34.9067 144.442 35.24C144.909 35.5733 145.502 35.74 146.222 35.74C146.942 35.74 147.536 35.5733 148.002 35.24C148.469 34.9067 148.809 34.4333 149.022 33.82C149.249 33.1933 149.362 32.46 149.362 31.62C149.362 30.7667 149.249 30.04 149.022 29.44C148.796 28.84 148.449 28.38 147.982 28.06C147.529 27.7267 146.936 27.56 146.202 27.56C145.109 27.56 144.316 27.92 143.822 28.64C143.329 29.36 143.082 30.3533 143.082 31.62ZM158.972 26.08C159.172 26.08 159.385 26.0933 159.612 26.12C159.852 26.1333 160.058 26.16 160.232 26.2L160.012 27.82C159.838 27.78 159.645 27.7467 159.432 27.72C159.232 27.6933 159.038 27.68 158.852 27.68C158.438 27.68 158.045 27.7667 157.672 27.94C157.298 28.1133 156.965 28.36 156.672 28.68C156.378 28.9867 156.145 29.36 155.972 29.8C155.812 30.24 155.732 30.7333 155.732 31.28V37H153.972V26.28H155.412L155.612 28.24H155.692C155.918 27.84 156.192 27.48 156.512 27.16C156.832 26.8267 157.198 26.5667 157.612 26.38C158.025 26.18 158.478 26.08 158.972 26.08Z" fill="#1F1E1E"/>
<path d="M340.972 40L330.091 17.5H351.853L340.972 40Z" fill="#161414"/>
</svg>
