<svg xmlns="http://www.w3.org/2000/svg" width="448" height="37" viewBox="0 0 448 37" fill="none">
<path d="M10 0.5H438C443.247 0.5 447.5 4.75329 447.5 10V27C447.5 32.2467 443.247 36.5 438 36.5H9.99999C4.75328 36.5 0.5 32.2467 0.5 27V10C0.5 4.7533 4.7533 0.5 10 0.5Z" fill="white" stroke="#0F225B"/>
<path d="M29.1236 18.3738H34.0636V25.3738C33.2903 25.6272 32.5103 25.8138 31.7236 25.9338C30.937 26.0538 30.0436 26.1138 29.0436 26.1138C27.5636 26.1138 26.317 25.8205 25.3036 25.2338C24.2903 24.6338 23.517 23.7872 22.9836 22.6938C22.4636 21.5872 22.2036 20.2805 22.2036 18.7738C22.2036 17.2805 22.497 15.9872 23.0836 14.8938C23.6703 13.8005 24.5103 12.9538 25.6036 12.3538C26.7103 11.7405 28.0436 11.4338 29.6036 11.4338C30.4036 11.4338 31.157 11.5072 31.8636 11.6538C32.5836 11.8005 33.2503 12.0072 33.8636 12.2738L33.1836 13.8338C32.677 13.6072 32.1036 13.4138 31.4636 13.2538C30.837 13.0938 30.1836 13.0138 29.5036 13.0138C28.3703 13.0138 27.397 13.2472 26.5836 13.7138C25.7703 14.1805 25.1503 14.8472 24.7236 15.7138C24.297 16.5672 24.0836 17.5872 24.0836 18.7738C24.0836 19.9072 24.2636 20.9138 24.6236 21.7938C24.997 22.6605 25.577 23.3405 26.3636 23.8338C27.1503 24.3138 28.1836 24.5538 29.4636 24.5538C29.8903 24.5538 30.2636 24.5405 30.5836 24.5138C30.917 24.4738 31.217 24.4272 31.4836 24.3738C31.7636 24.3205 32.0236 24.2672 32.2636 24.2138V19.9738H29.1236V18.3738ZM42.2344 14.9938C42.4344 14.9938 42.6478 15.0072 42.8744 15.0338C43.1144 15.0472 43.3211 15.0738 43.4944 15.1138L43.2744 16.7338C43.1011 16.6938 42.9078 16.6605 42.6944 16.6338C42.4944 16.6072 42.3011 16.5938 42.1144 16.5938C41.7011 16.5938 41.3078 16.6805 40.9344 16.8538C40.5611 17.0272 40.2278 17.2738 39.9344 17.5938C39.6411 17.9005 39.4078 18.2738 39.2344 18.7138C39.0744 19.1538 38.9944 19.6472 38.9944 20.1938V25.9138H37.2344V15.1938H38.6744L38.8744 17.1538H38.9544C39.1811 16.7538 39.4544 16.3938 39.7744 16.0738C40.0944 15.7405 40.4611 15.4805 40.8744 15.2938C41.2878 15.0938 41.7411 14.9938 42.2344 14.9938ZM49.1655 15.0138C50.4722 15.0138 51.4389 15.3005 52.0655 15.8738C52.6922 16.4472 53.0055 17.3605 53.0055 18.6138V25.9138H51.7255L51.3855 24.3938H51.3055C50.9989 24.7805 50.6789 25.1072 50.3455 25.3738C50.0255 25.6272 49.6522 25.8138 49.2255 25.9338C48.8122 26.0538 48.3055 26.1138 47.7055 26.1138C47.0655 26.1138 46.4855 26.0005 45.9655 25.7738C45.4589 25.5472 45.0589 25.2005 44.7655 24.7338C44.4722 24.2538 44.3255 23.6538 44.3255 22.9338C44.3255 21.8672 44.7455 21.0472 45.5855 20.4738C46.4255 19.8872 47.7189 19.5672 49.4655 19.5138L51.2855 19.4538V18.8138C51.2855 17.9205 51.0922 17.3005 50.7055 16.9538C50.3189 16.6072 49.7722 16.4338 49.0655 16.4338C48.5055 16.4338 47.9722 16.5205 47.4655 16.6938C46.9589 16.8538 46.4855 17.0405 46.0455 17.2538L45.5055 15.9338C45.9722 15.6805 46.5255 15.4672 47.1655 15.2938C47.8055 15.1072 48.4722 15.0138 49.1655 15.0138ZM49.6855 20.7338C48.3522 20.7872 47.4255 21.0005 46.9055 21.3738C46.3989 21.7472 46.1455 22.2738 46.1455 22.9538C46.1455 23.5538 46.3255 23.9938 46.6855 24.2738C47.0589 24.5538 47.5322 24.6938 48.1055 24.6938C49.0122 24.6938 49.7655 24.4472 50.3655 23.9538C50.9655 23.4472 51.2655 22.6738 51.2655 21.6338V20.6738L49.6855 20.7338ZM61.4165 14.9938C62.7365 14.9938 63.7965 15.4538 64.5965 16.3738C65.4098 17.2938 65.8165 18.6805 65.8165 20.5338C65.8165 21.7472 65.6298 22.7738 65.2565 23.6138C64.8965 24.4405 64.3831 25.0672 63.7165 25.4938C63.0631 25.9072 62.2898 26.1138 61.3965 26.1138C60.8498 26.1138 60.3631 26.0405 59.9365 25.8938C59.5098 25.7472 59.1431 25.5605 58.8365 25.3338C58.5431 25.0938 58.2898 24.8338 58.0765 24.5538H57.9565C57.9831 24.7805 58.0098 25.0672 58.0365 25.4138C58.0631 25.7605 58.0765 26.0605 58.0765 26.3138V30.7138H56.3165V15.1938H57.7565L57.9965 16.6538H58.0765C58.2898 16.3472 58.5431 16.0672 58.8365 15.8138C59.1431 15.5605 59.5031 15.3605 59.9165 15.2138C60.3431 15.0672 60.8431 14.9938 61.4165 14.9938ZM61.0965 16.4738C60.3765 16.4738 59.7965 16.6138 59.3565 16.8938C58.9165 17.1605 58.5965 17.5672 58.3965 18.1138C58.1965 18.6605 58.0898 19.3538 58.0765 20.1938V20.5338C58.0765 21.4138 58.1698 22.1605 58.3565 22.7738C58.5431 23.3872 58.8565 23.8538 59.2965 24.1738C59.7498 24.4938 60.3631 24.6538 61.1365 24.6538C61.7898 24.6538 62.3231 24.4738 62.7365 24.1138C63.1631 23.7538 63.4765 23.2672 63.6765 22.6538C63.8898 22.0272 63.9965 21.3138 63.9965 20.5138C63.9965 19.2872 63.7565 18.3072 63.2765 17.5738C62.8098 16.8405 62.0831 16.4738 61.0965 16.4738ZM70.3811 15.1738C70.3811 15.4272 70.3678 15.6872 70.3411 15.9538C70.3278 16.2205 70.3078 16.4605 70.2811 16.6738H70.4011C70.6278 16.3005 70.9145 15.9938 71.2611 15.7538C71.6078 15.5138 71.9945 15.3338 72.4211 15.2138C72.8478 15.0805 73.2878 15.0138 73.7411 15.0138C74.6078 15.0138 75.3278 15.1538 75.9011 15.4338C76.4878 15.7005 76.9278 16.1205 77.2211 16.6938C77.5145 17.2672 77.6611 18.0138 77.6611 18.9338V25.9138H75.9211V19.0538C75.9211 18.1872 75.7278 17.5405 75.3411 17.1138C74.9545 16.6872 74.3478 16.4738 73.5211 16.4738C72.7211 16.4738 72.0945 16.6272 71.6411 16.9338C71.1878 17.2272 70.8611 17.6672 70.6611 18.2538C70.4745 18.8272 70.3811 19.5338 70.3811 20.3738V25.9138H68.6211V10.7138H70.3811V15.1738ZM92.9108 13.0138C92.1508 13.0138 91.4642 13.1472 90.8508 13.4138C90.2375 13.6672 89.7175 14.0472 89.2908 14.5538C88.8642 15.0472 88.5375 15.6538 88.3108 16.3738C88.0842 17.0805 87.9708 17.8805 87.9708 18.7738C87.9708 19.9472 88.1508 20.9672 88.5108 21.8338C88.8842 22.7005 89.4308 23.3672 90.1508 23.8338C90.8842 24.3005 91.7975 24.5338 92.8908 24.5338C93.5175 24.5338 94.1108 24.4805 94.6708 24.3738C95.2308 24.2672 95.7775 24.1338 96.3108 23.9738V25.5338C95.7775 25.7338 95.2242 25.8805 94.6508 25.9738C94.0908 26.0672 93.4175 26.1138 92.6308 26.1138C91.1775 26.1138 89.9642 25.8138 88.9908 25.2138C88.0175 24.6138 87.2842 23.7605 86.7908 22.6538C86.3108 21.5472 86.0708 20.2472 86.0708 18.7538C86.0708 17.6738 86.2175 16.6872 86.5108 15.7938C86.8175 14.9005 87.2575 14.1272 87.8308 13.4738C88.4175 12.8205 89.1375 12.3205 89.9908 11.9738C90.8442 11.6138 91.8242 11.4338 92.9308 11.4338C93.6642 11.4338 94.3708 11.5072 95.0508 11.6538C95.7308 11.8005 96.3375 12.0072 96.8708 12.2738L96.1508 13.7938C95.7108 13.5938 95.2175 13.4138 94.6708 13.2538C94.1375 13.0938 93.5508 13.0138 92.9108 13.0138ZM108.508 20.5338C108.508 21.4272 108.388 22.2205 108.148 22.9138C107.921 23.5938 107.588 24.1738 107.148 24.6538C106.721 25.1338 106.194 25.5005 105.568 25.7538C104.954 25.9938 104.268 26.1138 103.508 26.1138C102.801 26.1138 102.148 25.9938 101.548 25.7538C100.948 25.5005 100.428 25.1338 99.9875 24.6538C99.5475 24.1738 99.2009 23.5938 98.9475 22.9138C98.7075 22.2205 98.5875 21.4272 98.5875 20.5338C98.5875 19.3472 98.7875 18.3472 99.1875 17.5338C99.5875 16.7072 100.161 16.0805 100.908 15.6538C101.654 15.2138 102.541 14.9938 103.568 14.9938C104.541 14.9938 105.394 15.2138 106.128 15.6538C106.874 16.0805 107.454 16.7072 107.868 17.5338C108.294 18.3472 108.508 19.3472 108.508 20.5338ZM100.408 20.5338C100.408 21.3738 100.514 22.1072 100.728 22.7338C100.954 23.3472 101.301 23.8205 101.768 24.1538C102.234 24.4872 102.828 24.6538 103.548 24.6538C104.268 24.6538 104.861 24.4872 105.328 24.1538C105.794 23.8205 106.134 23.3472 106.348 22.7338C106.574 22.1072 106.688 21.3738 106.688 20.5338C106.688 19.6805 106.574 18.9538 106.348 18.3538C106.121 17.7538 105.774 17.2938 105.308 16.9738C104.854 16.6405 104.261 16.4738 103.528 16.4738C102.434 16.4738 101.641 16.8338 101.148 17.5538C100.654 18.2738 100.408 19.2672 100.408 20.5338ZM116.457 14.9938C117.737 14.9938 118.704 15.3072 119.357 15.9338C120.01 16.5472 120.337 17.5472 120.337 18.9338V25.9138H118.597V19.0538C118.597 18.1872 118.404 17.5405 118.017 17.1138C117.63 16.6872 117.024 16.4738 116.197 16.4738C115.01 16.4738 114.19 16.8072 113.737 17.4738C113.284 18.1405 113.057 19.1005 113.057 20.3538V25.9138H111.297V15.1938H112.717L112.977 16.6538H113.077C113.317 16.2805 113.61 15.9738 113.957 15.7338C114.317 15.4805 114.71 15.2938 115.137 15.1738C115.564 15.0538 116.004 14.9938 116.457 14.9938ZM127.24 24.6738C127.507 24.6738 127.78 24.6538 128.06 24.6138C128.34 24.5605 128.567 24.5072 128.74 24.4538V25.7938C128.554 25.8872 128.287 25.9605 127.94 26.0138C127.594 26.0805 127.26 26.1138 126.94 26.1138C126.38 26.1138 125.86 26.0205 125.38 25.8338C124.914 25.6338 124.534 25.2938 124.24 24.8138C123.947 24.3338 123.8 23.6605 123.8 22.7938V16.5538H122.28V15.7138L123.82 15.0138L124.52 12.7338H125.56V15.1938H128.66V16.5538H125.56V22.7538C125.56 23.4072 125.714 23.8938 126.02 24.2138C126.34 24.5205 126.747 24.6738 127.24 24.6738ZM135.027 14.9938C135.947 14.9938 136.733 15.1938 137.387 15.5938C138.053 15.9938 138.56 16.5605 138.907 17.2938C139.267 18.0138 139.447 18.8605 139.447 19.8338V20.8938H132.107C132.133 22.1072 132.44 23.0338 133.027 23.6738C133.627 24.3005 134.46 24.6138 135.527 24.6138C136.207 24.6138 136.807 24.5538 137.327 24.4338C137.86 24.3005 138.407 24.1138 138.967 23.8738V25.4138C138.42 25.6538 137.88 25.8272 137.347 25.9338C136.813 26.0538 136.18 26.1138 135.447 26.1138C134.433 26.1138 133.533 25.9072 132.747 25.4938C131.973 25.0805 131.367 24.4672 130.927 23.6538C130.5 22.8272 130.287 21.8205 130.287 20.6338C130.287 19.4605 130.48 18.4538 130.867 17.6138C131.267 16.7738 131.82 16.1272 132.527 15.6738C133.247 15.2205 134.08 14.9938 135.027 14.9938ZM135.007 16.4338C134.167 16.4338 133.5 16.7072 133.007 17.2538C132.527 17.7872 132.24 18.5338 132.147 19.4938H137.607C137.607 18.8805 137.513 18.3472 137.327 17.8938C137.14 17.4405 136.853 17.0872 136.467 16.8338C136.093 16.5672 135.607 16.4338 135.007 16.4338ZM147.336 14.9938C148.616 14.9938 149.582 15.3072 150.236 15.9338C150.889 16.5472 151.216 17.5472 151.216 18.9338V25.9138H149.476V19.0538C149.476 18.1872 149.282 17.5405 148.896 17.1138C148.509 16.6872 147.902 16.4738 147.076 16.4738C145.889 16.4738 145.069 16.8072 144.616 17.4738C144.162 18.1405 143.936 19.1005 143.936 20.3538V25.9138H142.176V15.1938H143.596L143.856 16.6538H143.956C144.196 16.2805 144.489 15.9738 144.836 15.7338C145.196 15.4805 145.589 15.2938 146.016 15.1738C146.442 15.0538 146.882 14.9938 147.336 14.9938ZM158.119 24.6738C158.386 24.6738 158.659 24.6538 158.939 24.6138C159.219 24.5605 159.446 24.5072 159.619 24.4538V25.7938C159.432 25.8872 159.166 25.9605 158.819 26.0138C158.472 26.0805 158.139 26.1138 157.819 26.1138C157.259 26.1138 156.739 26.0205 156.259 25.8338C155.792 25.6338 155.412 25.2938 155.119 24.8138C154.826 24.3338 154.679 23.6605 154.679 22.7938V16.5538H153.159V15.7138L154.699 15.0138L155.399 12.7338H156.439V15.1938H159.539V16.5538H156.439V22.7538C156.439 23.4072 156.592 23.8938 156.899 24.2138C157.219 24.5205 157.626 24.6738 158.119 24.6738Z" fill="#1F1E1E"/>
<path d="M417.5 26L409.273 12.5H425.727L417.5 26Z" fill="#161414"/>
</svg>
