<svg xmlns="http://www.w3.org/2000/svg" xmlns:xlink="http://www.w3.org/1999/xlink" width="100%" zoomAndPan="magnify" viewBox="0 0 321.75 319.499995" height="100%" preserveAspectRatio="xMidYMid meet" version="1.0"><defs><g/><clipPath id="d740ad60af"><path d="M 36.839844 34.96875 L 284.699219 34.96875 L 284.699219 282.832031 L 36.839844 282.832031 Z M 36.839844 34.96875 " clip-rule="nonzero"/></clipPath><clipPath id="4e493a5a0a"><path d="M 53.605469 51.738281 L 61.839844 51.738281 L 61.839844 60.578125 L 53.605469 60.578125 Z M 53.605469 51.738281 " clip-rule="nonzero"/></clipPath><clipPath id="c845c8e883"><path d="M 240 274 L 249 274 L 249 319 L 240 319 Z M 240 274 " clip-rule="nonzero"/></clipPath><clipPath id="db5505be8c"><path d="M 51 274 L 60 274 L 60 319 L 51 319 Z M 51 274 " clip-rule="nonzero"/></clipPath><clipPath id="be0d87e0da"><path d="M 72 274 L 81 274 L 81 319 L 72 319 Z M 72 274 " clip-rule="nonzero"/></clipPath><clipPath id="71c91e9782"><path d="M 93 274 L 102 274 L 102 319 L 93 319 Z M 93 274 " clip-rule="nonzero"/></clipPath><clipPath id="72c40d80b9"><path d="M 114 274 L 123 274 L 123 319 L 114 319 Z M 114 274 " clip-rule="nonzero"/></clipPath><clipPath id="3111ff4e55"><path d="M 135 274 L 144 274 L 144 319 L 135 319 Z M 135 274 " clip-rule="nonzero"/></clipPath><clipPath id="945f202ab9"><path d="M 156 274 L 165 274 L 165 319 L 156 319 Z M 156 274 " clip-rule="nonzero"/></clipPath><clipPath id="b540a2c873"><path d="M 177 274 L 186 274 L 186 319 L 177 319 Z M 177 274 " clip-rule="nonzero"/></clipPath><clipPath id="9147f7ddc3"><path d="M 198 274 L 207 274 L 207 319 L 198 319 Z M 198 274 " clip-rule="nonzero"/></clipPath><clipPath id="9215a49b5c"><path d="M 219 274 L 228 274 L 228 319 L 219 319 Z M 219 274 " clip-rule="nonzero"/></clipPath><clipPath id="03a9149820"><path d="M 261 274 L 269 274 L 269 319 L 261 319 Z M 261 274 " clip-rule="nonzero"/></clipPath><clipPath id="3dc7b6f32b"><path d="M 277 71 L 321.375 71 L 321.375 79 L 277 79 Z M 277 71 " clip-rule="nonzero"/></clipPath><clipPath id="5a8151b694"><path d="M 277 260 L 321.375 260 L 321.375 268 L 277 268 Z M 277 260 " clip-rule="nonzero"/></clipPath><clipPath id="e246ff4439"><path d="M 277 239 L 321.375 239 L 321.375 247 L 277 247 Z M 277 239 " clip-rule="nonzero"/></clipPath><clipPath id="e35fa1891f"><path d="M 277 218 L 321.375 218 L 321.375 226 L 277 226 Z M 277 218 " clip-rule="nonzero"/></clipPath><clipPath id="8cafa218b9"><path d="M 277 197 L 321.375 197 L 321.375 205 L 277 205 Z M 277 197 " clip-rule="nonzero"/></clipPath><clipPath id="fdfe9a6e33"><path d="M 277 176 L 321.375 176 L 321.375 184 L 277 184 Z M 277 176 " clip-rule="nonzero"/></clipPath><clipPath id="15532774ff"><path d="M 277 155 L 321.375 155 L 321.375 163 L 277 163 Z M 277 155 " clip-rule="nonzero"/></clipPath><clipPath id="98f052b070"><path d="M 277 134 L 321.375 134 L 321.375 142 L 277 142 Z M 277 134 " clip-rule="nonzero"/></clipPath><clipPath id="691782949b"><path d="M 277 113 L 321.375 113 L 321.375 121 L 277 121 Z M 277 113 " clip-rule="nonzero"/></clipPath><clipPath id="f19bbfb0b6"><path d="M 277 92 L 321.375 92 L 321.375 100 L 277 100 Z M 277 92 " clip-rule="nonzero"/></clipPath><clipPath id="a014acef54"><path d="M 277 50 L 321.375 50 L 321.375 58 L 277 58 Z M 277 50 " clip-rule="nonzero"/></clipPath><clipPath id="7faca63a18"><path d="M 0.125 71 L 44 71 L 44 79 L 0.125 79 Z M 0.125 71 " clip-rule="nonzero"/></clipPath><clipPath id="e8b61a420e"><path d="M 0.125 260 L 44 260 L 44 268 L 0.125 268 Z M 0.125 260 " clip-rule="nonzero"/></clipPath><clipPath id="b473da1398"><path d="M 0.125 239 L 44 239 L 44 247 L 0.125 247 Z M 0.125 239 " clip-rule="nonzero"/></clipPath><clipPath id="c91c6d101d"><path d="M 0.125 218 L 44 218 L 44 226 L 0.125 226 Z M 0.125 218 " clip-rule="nonzero"/></clipPath><clipPath id="84d62a39cd"><path d="M 0.125 197 L 44 197 L 44 205 L 0.125 205 Z M 0.125 197 " clip-rule="nonzero"/></clipPath><clipPath id="25e65b5a72"><path d="M 0.125 176 L 44 176 L 44 184 L 0.125 184 Z M 0.125 176 " clip-rule="nonzero"/></clipPath><clipPath id="6e74fbfbc6"><path d="M 0.125 155 L 44 155 L 44 163 L 0.125 163 Z M 0.125 155 " clip-rule="nonzero"/></clipPath><clipPath id="dfb8fce13d"><path d="M 0.125 134 L 44 134 L 44 142 L 0.125 142 Z M 0.125 134 " clip-rule="nonzero"/></clipPath><clipPath id="533014b404"><path d="M 0.125 113 L 44 113 L 44 121 L 0.125 121 Z M 0.125 113 " clip-rule="nonzero"/></clipPath><clipPath id="ce25f6df2a"><path d="M 0.125 92 L 44 92 L 44 100 L 0.125 100 Z M 0.125 92 " clip-rule="nonzero"/></clipPath><clipPath id="3b9574702a"><path d="M 0.125 50 L 44 50 L 44 58 L 0.125 58 Z M 0.125 50 " clip-rule="nonzero"/></clipPath></defs><g clip-path="url(#d740ad60af)"><path stroke-linecap="butt" transform="matrix(0.748828, 0, 0, 0.748828, 36.838253, 34.969526)" fill="none" stroke-linejoin="miter" d="M 0.00212441 -0.00103564 L 331.217584 -0.00103564 L 331.217584 331.21964 L 0.00212441 331.21964 Z M 0.00212441 -0.00103564 " stroke="#ffffff" stroke-width="20" stroke-opacity="1" stroke-miterlimit="4"/></g><g clip-path="url(#4e493a5a0a)"><path stroke-linecap="butt" transform="matrix(0.748828, 0, 0, 0.748828, 53.604152, 51.739729)" fill="none" stroke-linejoin="miter" d="M 0.00175795 -0.00193314 L 11.092004 -0.00193314 L 11.092004 11.802971 L 0.00175795 11.802971 Z M 0.00175795 -0.00193314 " stroke="#ffffff" stroke-width="20" stroke-opacity="1" stroke-miterlimit="4"/></g><g fill="#ffffff" fill-opacity="1"><g transform="translate(52.933317, 192.77638)"><g><path d="M 79.5 -62.953125 L 79.5 -61.171875 C 77.601562 -61.117188 76.179688 -60.898438 75.234375 -60.515625 C 74.285156 -60.128906 73.644531 -59.414062 73.3125 -58.375 C 72.988281 -57.34375 72.828125 -55.726562 72.828125 -53.53125 L 72.828125 -9.421875 C 72.828125 -7.285156 72.988281 -5.679688 73.3125 -4.609375 C 73.644531 -3.546875 74.285156 -2.835938 75.234375 -2.484375 C 76.179688 -2.128906 77.601562 -1.894531 79.5 -1.78125 L 79.5 0 C 77.832031 -0.113281 75.738281 -0.1875 73.21875 -0.21875 C 70.707031 -0.25 68.144531 -0.265625 65.53125 -0.265625 C 62.6875 -0.265625 60.019531 -0.25 57.53125 -0.21875 C 55.039062 -0.1875 53.023438 -0.113281 51.484375 0 L 51.484375 -1.78125 C 53.503906 -1.894531 55.03125 -2.128906 56.0625 -2.484375 C 57.101562 -2.835938 57.800781 -3.546875 58.15625 -4.609375 C 58.507812 -5.679688 58.6875 -7.285156 58.6875 -9.421875 L 58.6875 -57.53125 L 59.3125 -57.53125 L 37.265625 0.09375 L 35.828125 0.09375 L 11.828125 -57.171875 L 11.828125 -14.578125 C 11.828125 -11.316406 12.003906 -8.8125 12.359375 -7.0625 C 12.710938 -5.320312 13.5 -4.078125 14.71875 -3.328125 C 15.9375 -2.585938 17.847656 -2.070312 20.453125 -1.78125 L 20.453125 0 C 19.328125 -0.113281 17.84375 -0.1875 16 -0.21875 C 14.164062 -0.25 12.445312 -0.265625 10.84375 -0.265625 C 9.476562 -0.265625 8.082031 -0.25 6.65625 -0.21875 C 5.238281 -0.1875 4.054688 -0.113281 3.109375 0 L 3.109375 -1.78125 C 5.003906 -2.070312 6.425781 -2.570312 7.375 -3.28125 C 8.320312 -4 8.957031 -5.171875 9.28125 -6.796875 C 9.613281 -8.429688 9.78125 -10.671875 9.78125 -13.515625 L 9.78125 -53.53125 C 9.78125 -55.726562 9.613281 -57.34375 9.28125 -58.375 C 8.957031 -59.414062 8.304688 -60.128906 7.328125 -60.515625 C 6.359375 -60.898438 4.953125 -61.117188 3.109375 -61.171875 L 3.109375 -62.953125 C 4.054688 -62.898438 5.238281 -62.84375 6.65625 -62.78125 C 8.082031 -62.71875 9.476562 -62.6875 10.84375 -62.6875 C 13.394531 -62.6875 15.898438 -62.71875 18.359375 -62.78125 C 20.816406 -62.84375 22.992188 -62.898438 24.890625 -62.953125 L 43.578125 -17.875 L 41.34375 -15.828125 L 59.21875 -62.6875 C 60.226562 -62.6875 61.265625 -62.6875 62.328125 -62.6875 C 63.398438 -62.6875 64.46875 -62.6875 65.53125 -62.6875 C 68.144531 -62.6875 70.707031 -62.71875 73.21875 -62.78125 C 75.738281 -62.84375 77.832031 -62.898438 79.5 -62.953125 Z M 79.5 -62.953125 "/></g></g></g><g fill="#ffffff" fill-opacity="1"><g transform="translate(135.358553, 192.77638)"><g><path d="M 3.015625 -62.953125 C 4.503906 -62.898438 6.507812 -62.84375 9.03125 -62.78125 C 11.550781 -62.71875 14.054688 -62.6875 16.546875 -62.6875 C 19.390625 -62.6875 22.144531 -62.71875 24.8125 -62.78125 C 27.476562 -62.84375 29.375 -62.875 30.5 -62.875 C 38.738281 -62.875 44.898438 -61.242188 48.984375 -57.984375 C 53.078125 -54.722656 55.125 -50.507812 55.125 -45.34375 C 55.125 -43.21875 54.707031 -40.984375 53.875 -38.640625 C 53.050781 -36.296875 51.644531 -34.128906 49.65625 -32.140625 C 47.675781 -30.160156 44.96875 -28.546875 41.53125 -27.296875 C 38.09375 -26.054688 33.765625 -25.4375 28.546875 -25.4375 L 19.46875 -25.4375 L 19.46875 -27.203125 L 27.65625 -27.203125 C 31.15625 -27.203125 33.804688 -28.003906 35.609375 -29.609375 C 37.421875 -31.210938 38.664062 -33.316406 39.34375 -35.921875 C 40.03125 -38.535156 40.375 -41.351562 40.375 -44.375 C 40.375 -50 39.539062 -54.203125 37.875 -56.984375 C 36.21875 -59.773438 33.375 -61.171875 29.34375 -61.171875 C 27.03125 -61.171875 25.53125 -60.664062 24.84375 -59.65625 C 24.164062 -58.65625 23.828125 -56.613281 23.828125 -53.53125 L 23.828125 -9.953125 C 23.828125 -7.640625 24.0625 -5.921875 24.53125 -4.796875 C 25.007812 -3.671875 25.929688 -2.929688 27.296875 -2.578125 C 28.660156 -2.222656 30.675781 -2.015625 33.34375 -1.953125 L 33.34375 0 C 31.507812 -0.0625 29.140625 -0.117188 26.234375 -0.171875 C 23.328125 -0.234375 20.273438 -0.265625 17.078125 -0.265625 C 14.523438 -0.265625 12.03125 -0.234375 9.59375 -0.171875 C 7.164062 -0.117188 4.972656 -0.0625 3.015625 0 L 3.015625 -1.78125 C 4.921875 -1.894531 6.347656 -2.128906 7.296875 -2.484375 C 8.242188 -2.835938 8.878906 -3.546875 9.203125 -4.609375 C 9.523438 -5.679688 9.6875 -7.285156 9.6875 -9.421875 L 9.6875 -53.53125 C 9.6875 -55.726562 9.523438 -57.34375 9.203125 -58.375 C 8.878906 -59.414062 8.226562 -60.128906 7.25 -60.515625 C 6.269531 -60.898438 4.859375 -61.117188 3.015625 -61.171875 Z M 3.015625 -62.953125 "/></g></g></g><g fill="#ffffff" fill-opacity="1"><g transform="translate(192.353779, 192.77638)"><g><path d="M 50.59375 -62.953125 C 50.351562 -60.347656 50.1875 -57.828125 50.09375 -55.390625 C 50.007812 -52.960938 49.96875 -51.097656 49.96875 -49.796875 C 49.96875 -48.609375 50 -47.476562 50.0625 -46.40625 C 50.125 -45.34375 50.179688 -44.457031 50.234375 -43.75 L 48.203125 -43.75 C 47.609375 -48.070312 46.6875 -51.492188 45.4375 -54.015625 C 44.195312 -56.535156 42.582031 -58.3125 40.59375 -59.34375 C 38.601562 -60.382812 36.273438 -60.90625 33.609375 -60.90625 L 29.96875 -60.90625 C 28.25 -60.90625 26.941406 -60.753906 26.046875 -60.453125 C 25.160156 -60.160156 24.566406 -59.570312 24.265625 -58.6875 C 23.972656 -57.800781 23.828125 -56.4375 23.828125 -54.59375 L 23.828125 -8.359375 C 23.828125 -6.523438 23.972656 -5.160156 24.265625 -4.265625 C 24.566406 -3.378906 25.160156 -2.785156 26.046875 -2.484375 C 26.941406 -2.191406 28.25 -2.046875 29.96875 -2.046875 L 34.328125 -2.046875 C 36.992188 -2.046875 39.347656 -2.625 41.390625 -3.78125 C 43.429688 -4.9375 45.175781 -6.90625 46.625 -9.6875 C 48.082031 -12.476562 49.195312 -16.242188 49.96875 -20.984375 L 52.015625 -20.984375 C 51.835938 -19.085938 51.75 -16.597656 51.75 -13.515625 C 51.75 -12.148438 51.78125 -10.222656 51.84375 -7.734375 C 51.90625 -5.242188 52.082031 -2.664062 52.375 0 C 49.351562 -0.113281 45.941406 -0.1875 42.140625 -0.21875 C 38.347656 -0.25 34.972656 -0.265625 32.015625 -0.265625 C 30.523438 -0.265625 28.625 -0.265625 26.3125 -0.265625 C 24.007812 -0.265625 21.519531 -0.25 18.84375 -0.21875 C 16.175781 -0.1875 13.476562 -0.15625 10.75 -0.125 C 8.03125 -0.101562 5.453125 -0.0625 3.015625 0 L 3.015625 -1.78125 C 4.921875 -1.894531 6.347656 -2.128906 7.296875 -2.484375 C 8.242188 -2.835938 8.878906 -3.546875 9.203125 -4.609375 C 9.523438 -5.679688 9.6875 -7.285156 9.6875 -9.421875 L 9.6875 -53.53125 C 9.6875 -55.726562 9.523438 -57.34375 9.203125 -58.375 C 8.878906 -59.414062 8.226562 -60.128906 7.25 -60.515625 C 6.269531 -60.898438 4.859375 -61.117188 3.015625 -61.171875 L 3.015625 -62.953125 C 5.453125 -62.898438 8.03125 -62.859375 10.75 -62.828125 C 13.476562 -62.796875 16.175781 -62.765625 18.84375 -62.734375 C 21.519531 -62.703125 24.007812 -62.6875 26.3125 -62.6875 C 28.625 -62.6875 30.523438 -62.6875 32.015625 -62.6875 C 34.742188 -62.6875 37.835938 -62.703125 41.296875 -62.734375 C 44.765625 -62.765625 47.863281 -62.835938 50.59375 -62.953125 Z M 36.71875 -32.546875 C 36.71875 -32.546875 36.71875 -32.25 36.71875 -31.65625 C 36.71875 -31.0625 36.71875 -30.765625 36.71875 -30.765625 L 21.15625 -30.765625 C 21.15625 -30.765625 21.15625 -31.0625 21.15625 -31.65625 C 21.15625 -32.25 21.15625 -32.546875 21.15625 -32.546875 Z M 39.296875 -44.28125 C 39.066406 -40.90625 38.960938 -38.328125 38.984375 -36.546875 C 39.015625 -34.765625 39.03125 -33.132812 39.03125 -31.65625 C 39.03125 -30.175781 39.0625 -28.546875 39.125 -26.765625 C 39.1875 -24.984375 39.332031 -22.40625 39.5625 -19.03125 L 37.53125 -19.03125 C 37.226562 -21.101562 36.675781 -23.03125 35.875 -24.8125 C 35.070312 -26.59375 33.929688 -28.03125 32.453125 -29.125 C 30.972656 -30.21875 29.046875 -30.765625 26.671875 -30.765625 L 26.671875 -32.546875 C 28.453125 -32.546875 29.960938 -32.914062 31.203125 -33.65625 C 32.453125 -34.394531 33.476562 -35.375 34.28125 -36.59375 C 35.082031 -37.8125 35.71875 -39.097656 36.1875 -40.453125 C 36.664062 -41.816406 37.023438 -43.09375 37.265625 -44.28125 Z M 39.296875 -44.28125 "/></g></g></g><g fill="#ffffff" fill-opacity="1"><g transform="translate(202.714016, 229.688487)"><g><path d="M 7.375 -14.390625 C 7.5625 -14.046875 7.375 -13.71875 6.8125 -13.40625 C 6.257812 -13.101562 5.597656 -12.953125 4.828125 -12.953125 C 4.210938 -12.953125 3.59375 -13.09375 2.96875 -13.375 C 2.34375 -13.65625 1.820312 -14.117188 1.40625 -14.765625 C 1 -15.421875 0.796875 -16.304688 0.796875 -17.421875 C 0.796875 -19.273438 1.375 -20.921875 2.53125 -22.359375 C 3.6875 -23.796875 5.25 -24.925781 7.21875 -25.75 C 9.1875 -26.570312 11.40625 -26.984375 13.875 -26.984375 C 15.300781 -26.984375 16.851562 -26.867188 18.53125 -26.640625 C 20.207031 -26.421875 21.851562 -26.191406 23.46875 -25.953125 C 25.09375 -25.710938 26.554688 -25.59375 27.859375 -25.59375 C 28.734375 -25.59375 29.503906 -25.671875 30.171875 -25.828125 C 30.835938 -25.984375 31.34375 -26.265625 31.6875 -26.671875 C 31.84375 -26.910156 32.015625 -27.03125 32.203125 -27.03125 C 32.441406 -27.03125 32.640625 -26.867188 32.796875 -26.546875 C 32.960938 -26.222656 33.046875 -25.820312 33.046875 -25.34375 C 33.046875 -24.757812 32.878906 -24.132812 32.546875 -23.46875 C 32.210938 -22.8125 31.644531 -22.25 30.84375 -21.78125 C 30.050781 -21.3125 28.953125 -21.078125 27.546875 -21.078125 C 26.398438 -21.078125 25.050781 -21.226562 23.5 -21.53125 C 21.945312 -21.84375 20.34375 -22.191406 18.6875 -22.578125 C 17.039062 -22.960938 15.46875 -23.304688 13.96875 -23.609375 C 12.46875 -23.921875 11.203125 -24.078125 10.171875 -24.078125 C 8.460938 -24.078125 7.265625 -23.671875 6.578125 -22.859375 C 5.890625 -22.046875 5.546875 -21.066406 5.546875 -19.921875 C 5.546875 -18.992188 5.722656 -18.035156 6.078125 -17.046875 C 6.429688 -16.066406 6.863281 -15.179688 7.375 -14.390625 Z M 3.15625 -3.75 C 4 -3.75 4.84375 -4.148438 5.6875 -4.953125 C 6.539062 -5.765625 7.382812 -6.800781 8.21875 -8.0625 C 9.0625 -9.332031 9.894531 -10.679688 10.71875 -12.109375 C 11.539062 -13.546875 12.359375 -14.894531 13.171875 -16.15625 C 13.984375 -17.425781 14.796875 -18.460938 15.609375 -19.265625 C 16.421875 -20.078125 17.207031 -20.484375 17.96875 -20.484375 C 18.582031 -20.484375 19.101562 -20.253906 19.53125 -19.796875 C 19.957031 -19.347656 20.171875 -18.976562 20.171875 -18.6875 C 20.171875 -18.425781 20.023438 -18.304688 19.734375 -18.328125 C 19.148438 -18.328125 18.578125 -17.96875 18.015625 -17.25 C 17.453125 -16.539062 16.890625 -15.597656 16.328125 -14.421875 C 15.773438 -13.253906 15.203125 -11.96875 14.609375 -10.5625 C 14.015625 -9.15625 13.382812 -7.742188 12.71875 -6.328125 C 12.050781 -4.921875 11.332031 -3.632812 10.5625 -2.46875 C 9.789062 -1.300781 8.957031 -0.359375 8.0625 0.359375 C 7.175781 1.078125 6.191406 1.4375 5.109375 1.4375 C 4.148438 1.4375 3.347656 1.175781 2.703125 0.65625 C 2.066406 0.132812 1.585938 -0.476562 1.265625 -1.1875 C 0.953125 -1.90625 0.796875 -2.546875 0.796875 -3.109375 C 0.796875 -3.484375 0.867188 -3.789062 1.015625 -4.03125 C 1.160156 -4.269531 1.367188 -4.390625 1.640625 -4.390625 C 1.847656 -4.390625 2 -4.332031 2.09375 -4.21875 C 2.1875 -4.113281 2.304688 -4.007812 2.453125 -3.90625 C 2.597656 -3.800781 2.832031 -3.75 3.15625 -3.75 Z M 3.15625 -3.75 "/></g></g></g><g fill="#ffffff" fill-opacity="1"><g transform="translate(218.974961, 229.688487)"><g><path d="M 18.375 -10.203125 C 18.644531 -10.203125 18.894531 -10.054688 19.125 -9.765625 C 19.363281 -9.472656 19.429688 -9.15625 19.328125 -8.8125 C 18.554688 -7.851562 17.671875 -6.851562 16.671875 -5.8125 C 15.679688 -4.78125 14.597656 -3.828125 13.421875 -2.953125 C 12.253906 -2.078125 11.039062 -1.363281 9.78125 -0.8125 C 8.519531 -0.269531 7.238281 0 5.9375 0 C 4.3125 0 3.046875 -0.4375 2.140625 -1.3125 C 1.242188 -2.1875 0.796875 -3.34375 0.796875 -4.78125 C 0.796875 -5.789062 1.015625 -6.882812 1.453125 -8.0625 C 1.890625 -9.25 2.476562 -10.421875 3.21875 -11.578125 C 3.96875 -12.734375 4.820312 -13.78125 5.78125 -14.71875 C 6.738281 -15.664062 7.75 -16.425781 8.8125 -17 C 9.875 -17.570312 10.9375 -17.859375 12 -17.859375 C 13.25 -17.859375 14.25 -17.484375 15 -16.734375 C 15.757812 -15.992188 16.140625 -15.09375 16.140625 -14.03125 C 16.140625 -13.175781 15.894531 -12.332031 15.40625 -11.5 C 14.914062 -10.664062 14.257812 -9.898438 13.4375 -9.203125 C 12.613281 -8.515625 11.707031 -7.960938 10.71875 -7.546875 C 9.738281 -7.140625 8.769531 -6.9375 7.8125 -6.9375 C 7.144531 -6.9375 6.507812 -7.054688 5.90625 -7.296875 C 5.6875 -6.578125 5.578125 -5.9375 5.578125 -5.375 C 5.578125 -4.769531 5.726562 -4.289062 6.03125 -3.9375 C 6.34375 -3.59375 6.894531 -3.421875 7.6875 -3.421875 C 8.726562 -3.421875 9.835938 -3.707031 11.015625 -4.28125 C 12.203125 -4.851562 13.398438 -5.632812 14.609375 -6.625 C 15.816406 -7.625 16.96875 -8.773438 18.0625 -10.078125 C 18.132812 -10.160156 18.238281 -10.203125 18.375 -10.203125 Z M 12.640625 -15.90625 C 12.296875 -15.90625 11.84375 -15.695312 11.28125 -15.28125 C 10.71875 -14.875 10.128906 -14.320312 9.515625 -13.625 C 8.910156 -12.9375 8.328125 -12.160156 7.765625 -11.296875 C 7.210938 -10.429688 6.75 -9.550781 6.375 -8.65625 L 6.703125 -8.65625 C 7.472656 -8.65625 8.234375 -8.921875 8.984375 -9.453125 C 9.742188 -9.984375 10.425781 -10.625 11.03125 -11.375 C 11.644531 -12.132812 12.140625 -12.882812 12.515625 -13.625 C 12.890625 -14.375 13.078125 -14.960938 13.078125 -15.390625 C 13.078125 -15.734375 12.929688 -15.90625 12.640625 -15.90625 Z M 12.640625 -15.90625 "/></g></g></g><g fill="#ffffff" fill-opacity="1"><g transform="translate(233.960538, 229.688487)"><g><path d="M 18.609375 -8.8125 C 17.765625 -7.75 16.820312 -6.691406 15.78125 -5.640625 C 14.75 -4.585938 13.65625 -3.632812 12.5 -2.78125 C 11.34375 -1.9375 10.171875 -1.257812 8.984375 -0.75 C 7.804688 -0.25 6.628906 0 5.453125 0 C 3.992188 0 2.84375 -0.445312 2 -1.34375 C 1.164062 -2.25 0.75 -3.4375 0.75 -4.90625 C 0.75 -5.914062 0.972656 -7.003906 1.421875 -8.171875 C 1.878906 -9.335938 2.492188 -10.492188 3.265625 -11.640625 C 4.035156 -12.785156 4.90625 -13.828125 5.875 -14.765625 C 6.84375 -15.710938 7.863281 -16.460938 8.9375 -17.015625 C 10.019531 -17.578125 11.09375 -17.859375 12.15625 -17.859375 C 13.375 -17.859375 14.296875 -17.503906 14.921875 -16.796875 C 15.546875 -16.097656 15.859375 -15.363281 15.859375 -14.59375 C 15.859375 -14.007812 15.664062 -13.40625 15.28125 -12.78125 C 14.894531 -12.15625 14.40625 -11.617188 13.8125 -11.171875 C 13.21875 -10.734375 12.597656 -10.515625 11.953125 -10.515625 C 11.585938 -10.515625 11.265625 -10.585938 10.984375 -10.734375 C 10.703125 -10.890625 10.5625 -11.054688 10.5625 -11.234375 C 10.5625 -11.316406 10.613281 -11.410156 10.71875 -11.515625 C 10.820312 -11.597656 11.039062 -11.882812 11.375 -12.375 C 11.707031 -12.863281 12.03125 -13.398438 12.34375 -13.984375 C 12.664062 -14.578125 12.828125 -15.046875 12.828125 -15.390625 C 12.828125 -15.734375 12.671875 -15.90625 12.359375 -15.90625 C 11.984375 -15.90625 11.507812 -15.675781 10.9375 -15.21875 C 10.363281 -14.769531 9.757812 -14.171875 9.125 -13.421875 C 8.488281 -12.679688 7.890625 -11.851562 7.328125 -10.9375 C 6.773438 -10.019531 6.320312 -9.097656 5.96875 -8.171875 C 5.625 -7.242188 5.453125 -6.367188 5.453125 -5.546875 C 5.453125 -4.796875 5.613281 -4.234375 5.9375 -3.859375 C 6.257812 -3.492188 6.789062 -3.3125 7.53125 -3.3125 C 9.101562 -3.3125 10.722656 -3.953125 12.390625 -5.234375 C 14.066406 -6.523438 15.71875 -8.140625 17.34375 -10.078125 C 17.5 -10.242188 17.6875 -10.265625 17.90625 -10.140625 C 18.132812 -10.023438 18.328125 -9.847656 18.484375 -9.609375 C 18.648438 -9.367188 18.691406 -9.101562 18.609375 -8.8125 Z M 18.609375 -8.8125 "/></g></g></g><g fill="#ffffff" fill-opacity="1"><g transform="translate(248.228719, 229.688487)"><g><path d="M 23.203125 -10.203125 C 23.460938 -10.203125 23.710938 -10.054688 23.953125 -9.765625 C 24.191406 -9.472656 24.257812 -9.15625 24.15625 -8.8125 C 23.332031 -7.800781 22.445312 -6.773438 21.5 -5.734375 C 20.5625 -4.703125 19.597656 -3.753906 18.609375 -2.890625 C 17.628906 -2.023438 16.664062 -1.328125 15.71875 -0.796875 C 14.78125 -0.265625 13.910156 0 13.109375 0 C 12.421875 0 11.867188 -0.265625 11.453125 -0.796875 C 11.046875 -1.328125 10.84375 -2.019531 10.84375 -2.875 C 10.84375 -3.71875 11.035156 -4.679688 11.421875 -5.765625 C 11.804688 -6.859375 12.289062 -7.976562 12.875 -9.125 C 13.457031 -10.269531 14.066406 -11.335938 14.703125 -12.328125 C 15.347656 -13.328125 15.9375 -14.144531 16.46875 -14.78125 C 15.71875 -14.226562 14.84375 -13.472656 13.84375 -12.515625 C 12.851562 -11.554688 11.828125 -10.503906 10.765625 -9.359375 C 9.703125 -8.222656 8.691406 -7.097656 7.734375 -5.984375 C 6.773438 -4.867188 5.941406 -3.847656 5.234375 -2.921875 C 4.535156 -2.003906 4.066406 -1.3125 3.828125 -0.84375 C 3.640625 -0.28125 3.253906 0 2.671875 0 C 2.160156 0 1.671875 -0.265625 1.203125 -0.796875 C 0.742188 -1.328125 0.515625 -2.140625 0.515625 -3.234375 C 0.515625 -3.890625 0.707031 -4.769531 1.09375 -5.875 C 1.476562 -6.976562 1.992188 -8.203125 2.640625 -9.546875 C 3.296875 -10.890625 4.03125 -12.269531 4.84375 -13.6875 C 5.65625 -15.113281 6.484375 -16.492188 7.328125 -17.828125 C 8.179688 -19.171875 8.992188 -20.375 9.765625 -21.4375 C 10.535156 -22.5 11.21875 -23.34375 11.8125 -23.96875 C 12.414062 -24.59375 12.863281 -24.90625 13.15625 -24.90625 C 13.550781 -24.90625 13.941406 -24.78125 14.328125 -24.53125 C 14.710938 -24.28125 15.03125 -23.992188 15.28125 -23.671875 C 15.539062 -23.359375 15.671875 -23.066406 15.671875 -22.796875 C 15.671875 -22.640625 15.613281 -22.519531 15.5 -22.4375 C 14.625 -21.40625 13.707031 -20.203125 12.75 -18.828125 C 11.789062 -17.460938 10.867188 -16.035156 9.984375 -14.546875 C 9.097656 -13.054688 8.28125 -11.628906 7.53125 -10.265625 C 6.789062 -8.898438 6.191406 -7.695312 5.734375 -6.65625 C 6.671875 -7.769531 7.695312 -8.957031 8.8125 -10.21875 C 9.925781 -11.488281 11.035156 -12.664062 12.140625 -13.75 C 13.242188 -14.84375 14.238281 -15.734375 15.125 -16.421875 C 16.019531 -17.109375 16.691406 -17.453125 17.140625 -17.453125 C 17.828125 -17.453125 18.429688 -17.285156 18.953125 -16.953125 C 19.472656 -16.628906 19.867188 -16.242188 20.140625 -15.796875 C 20.421875 -15.359375 20.5625 -14.96875 20.5625 -14.625 C 20.5625 -14.332031 20.46875 -14.132812 20.28125 -14.03125 C 19.457031 -12.96875 18.703125 -11.820312 18.015625 -10.59375 C 17.328125 -9.375 16.78125 -8.238281 16.375 -7.1875 C 15.976562 -6.144531 15.78125 -5.332031 15.78125 -4.75 C 15.78125 -4.375 15.914062 -4.1875 16.1875 -4.1875 C 16.5 -4.1875 17 -4.4375 17.6875 -4.9375 C 18.382812 -5.445312 19.179688 -6.144531 20.078125 -7.03125 C 20.984375 -7.925781 21.914062 -8.941406 22.875 -10.078125 C 22.957031 -10.160156 23.066406 -10.203125 23.203125 -10.203125 Z M 23.203125 -10.203125 "/></g></g></g><path stroke-linecap="butt" transform="matrix(0, 0.748828, -0.748828, 0, 248.030197, 0.00133544)" fill="none" stroke-linejoin="miter" d="M -0.00178337 5.001202 L 53.519346 5.001202 " stroke="#ffffff" stroke-width="10" stroke-opacity="1" stroke-miterlimit="4"/><path stroke-linecap="butt" transform="matrix(0.00000000130695, 0.748828, -0.748828, 0.00000000130695, 59.267998, 0.00133543)" fill="none" stroke-linejoin="miter" d="M -0.00178337 5.000561 L 53.519346 5.000561 " stroke="#ffffff" stroke-width="10" stroke-opacity="1" stroke-miterlimit="4"/><path stroke-linecap="butt" transform="matrix(0, 0.748828, -0.748828, 0, 80.258687, 0.00133544)" fill="none" stroke-linejoin="miter" d="M -0.00178337 4.99856 L 53.519346 4.99856 " stroke="#ffffff" stroke-width="10" stroke-opacity="1" stroke-miterlimit="4"/><path stroke-linecap="butt" transform="matrix(0, 0.748828, -0.748828, 0, 101.249378, 0.00133544)" fill="none" stroke-linejoin="miter" d="M -0.00178337 5.001778 L 53.519346 5.001778 " stroke="#ffffff" stroke-width="10" stroke-opacity="1" stroke-miterlimit="4"/><path stroke-linecap="butt" transform="matrix(0, 0.748828, -0.748828, 0, 122.218062, 0.00133544)" fill="none" stroke-linejoin="miter" d="M -0.00178337 5.00169 L 53.519346 5.00169 " stroke="#ffffff" stroke-width="10" stroke-opacity="1" stroke-miterlimit="4"/><path stroke-linecap="butt" transform="matrix(0, 0.748828, -0.748828, 0, 143.186763, 0.00133544)" fill="none" stroke-linejoin="miter" d="M -0.00178337 5.001624 L 53.519346 5.001624 " stroke="#ffffff" stroke-width="10" stroke-opacity="1" stroke-miterlimit="4"/><path stroke-linecap="butt" transform="matrix(0, 0.748828, -0.748828, 0, 164.155439, 0.00133544)" fill="none" stroke-linejoin="miter" d="M -0.00178337 5.001526 L 53.519346 5.001526 " stroke="#ffffff" stroke-width="10" stroke-opacity="1" stroke-miterlimit="4"/><path stroke-linecap="butt" transform="matrix(0.00000000130695, 0.748828, -0.748828, 0.00000000130695, 185.124119, 0.00133543)" fill="none" stroke-linejoin="miter" d="M -0.00178337 5.001431 L 53.519346 5.001432 " stroke="#ffffff" stroke-width="10" stroke-opacity="1" stroke-miterlimit="4"/><path stroke-linecap="butt" transform="matrix(0, 0.748828, -0.748828, 0, 206.092812, 0.00133544)" fill="none" stroke-linejoin="miter" d="M -0.00178337 5.001356 L 53.519346 5.001356 " stroke="#ffffff" stroke-width="10" stroke-opacity="1" stroke-miterlimit="4"/><path stroke-linecap="butt" transform="matrix(0, 0.748828, -0.748828, 0, 227.061518, 0.00133544)" fill="none" stroke-linejoin="miter" d="M -0.00178337 5.001297 L 53.519346 5.001297 " stroke="#ffffff" stroke-width="10" stroke-opacity="1" stroke-miterlimit="4"/><path stroke-linecap="butt" transform="matrix(0, 0.748828, -0.748828, 0, 268.997383, 0.00133544)" fill="none" stroke-linejoin="miter" d="M -0.00178337 4.999114 L 53.519346 4.999114 " stroke="#ffffff" stroke-width="10" stroke-opacity="1" stroke-miterlimit="4"/><g clip-path="url(#c845c8e883)"><path stroke-linecap="butt" transform="matrix(0, 0.748828, -0.748828, 0, 248.030197, 278.217568)" fill="none" stroke-linejoin="miter" d="M 0.00157815 5.001202 L 53.517491 5.001202 " stroke="#ffffff" stroke-width="10" stroke-opacity="1" stroke-miterlimit="4"/></g><g clip-path="url(#db5505be8c)"><path stroke-linecap="butt" transform="matrix(0.00000000130695, 0.748828, -0.748828, 0.00000000130695, 59.267998, 278.217568)" fill="none" stroke-linejoin="miter" d="M 0.00157814 5.000561 L 53.517491 5.000561 " stroke="#ffffff" stroke-width="10" stroke-opacity="1" stroke-miterlimit="4"/></g><g clip-path="url(#be0d87e0da)"><path stroke-linecap="butt" transform="matrix(0, 0.748828, -0.748828, 0, 80.258687, 278.217568)" fill="none" stroke-linejoin="miter" d="M 0.00157815 4.99856 L 53.517491 4.99856 " stroke="#ffffff" stroke-width="10" stroke-opacity="1" stroke-miterlimit="4"/></g><g clip-path="url(#71c91e9782)"><path stroke-linecap="butt" transform="matrix(0, 0.748828, -0.748828, 0, 101.249378, 278.217568)" fill="none" stroke-linejoin="miter" d="M 0.00157815 5.001778 L 53.517491 5.001778 " stroke="#ffffff" stroke-width="10" stroke-opacity="1" stroke-miterlimit="4"/></g><g clip-path="url(#72c40d80b9)"><path stroke-linecap="butt" transform="matrix(0, 0.748828, -0.748828, 0, 122.218062, 278.217568)" fill="none" stroke-linejoin="miter" d="M 0.00157815 5.00169 L 53.517491 5.00169 " stroke="#ffffff" stroke-width="10" stroke-opacity="1" stroke-miterlimit="4"/></g><g clip-path="url(#3111ff4e55)"><path stroke-linecap="butt" transform="matrix(0, 0.748828, -0.748828, 0, 143.186763, 278.217568)" fill="none" stroke-linejoin="miter" d="M 0.00157815 5.001624 L 53.517491 5.001624 " stroke="#ffffff" stroke-width="10" stroke-opacity="1" stroke-miterlimit="4"/></g><g clip-path="url(#945f202ab9)"><path stroke-linecap="butt" transform="matrix(0, 0.748828, -0.748828, 0, 164.155439, 278.217568)" fill="none" stroke-linejoin="miter" d="M 0.00157815 5.001526 L 53.517491 5.001526 " stroke="#ffffff" stroke-width="10" stroke-opacity="1" stroke-miterlimit="4"/></g><g clip-path="url(#b540a2c873)"><path stroke-linecap="butt" transform="matrix(0.00000000130695, 0.748828, -0.748828, 0.00000000130695, 185.124119, 278.217568)" fill="none" stroke-linejoin="miter" d="M 0.00157814 5.001431 L 53.517491 5.001432 " stroke="#ffffff" stroke-width="10" stroke-opacity="1" stroke-miterlimit="4"/></g><g clip-path="url(#9147f7ddc3)"><path stroke-linecap="butt" transform="matrix(0, 0.748828, -0.748828, 0, 206.092812, 278.217568)" fill="none" stroke-linejoin="miter" d="M 0.00157815 5.001356 L 53.517491 5.001356 " stroke="#ffffff" stroke-width="10" stroke-opacity="1" stroke-miterlimit="4"/></g><g clip-path="url(#9215a49b5c)"><path stroke-linecap="butt" transform="matrix(0, 0.748828, -0.748828, 0, 227.061518, 278.217568)" fill="none" stroke-linejoin="miter" d="M 0.00157815 5.001297 L 53.517491 5.001297 " stroke="#ffffff" stroke-width="10" stroke-opacity="1" stroke-miterlimit="4"/></g><g clip-path="url(#03a9149820)"><path stroke-linecap="butt" transform="matrix(0, 0.748828, -0.748828, 0, 268.997383, 278.217568)" fill="none" stroke-linejoin="miter" d="M 0.00157815 4.999114 L 53.517491 4.999114 " stroke="#ffffff" stroke-width="10" stroke-opacity="1" stroke-miterlimit="4"/></g><g clip-path="url(#3dc7b6f32b)"><path stroke-linecap="butt" transform="matrix(0.748828, 0, 0, 0.748828, 280.927882, 71.33939)" fill="none" stroke-linejoin="miter" d="M 0.00241066 4.997998 L 53.518324 4.997998 " stroke="#ffffff" stroke-width="10" stroke-opacity="1" stroke-miterlimit="4"/></g><g clip-path="url(#5a8151b694)"><path stroke-linecap="butt" transform="matrix(0.748828, -0.00000000130695, 0.00000000130695, 0.748828, 280.927882, 260.101574)" fill="none" stroke-linejoin="miter" d="M 0.00241065 5.002593 L 53.518324 5.002593 " stroke="#ffffff" stroke-width="10" stroke-opacity="1" stroke-miterlimit="4"/></g><g clip-path="url(#e246ff4439)"><path stroke-linecap="butt" transform="matrix(0.748828, 0, 0, 0.748828, 280.927882, 239.110869)" fill="none" stroke-linejoin="miter" d="M 0.00241066 5.000614 L 53.518324 5.000614 " stroke="#ffffff" stroke-width="10" stroke-opacity="1" stroke-miterlimit="4"/></g><g clip-path="url(#e35fa1891f)"><path stroke-linecap="butt" transform="matrix(0.748828, 0, 0, 0.748828, 280.927882, 218.120194)" fill="none" stroke-linejoin="miter" d="M 0.00241066 4.998593 L 53.518324 4.998593 " stroke="#ffffff" stroke-width="10" stroke-opacity="1" stroke-miterlimit="4"/></g><g clip-path="url(#8cafa218b9)"><path stroke-linecap="butt" transform="matrix(0.748828, 0, 0, 0.748828, 280.927882, 197.151501)" fill="none" stroke-linejoin="miter" d="M 0.00241066 4.998518 L 53.518324 4.998518 " stroke="#ffffff" stroke-width="10" stroke-opacity="1" stroke-miterlimit="4"/></g><g clip-path="url(#fdfe9a6e33)"><path stroke-linecap="butt" transform="matrix(0.748828, 0, 0, 0.748828, 280.927882, 176.182838)" fill="none" stroke-linejoin="miter" d="M 0.00241066 4.998401 L 53.518324 4.998401 " stroke="#ffffff" stroke-width="10" stroke-opacity="1" stroke-miterlimit="4"/></g><g clip-path="url(#15532774ff)"><path stroke-linecap="butt" transform="matrix(0.748828, 0, 0, 0.748828, 280.927882, 155.21413)" fill="none" stroke-linejoin="miter" d="M 0.00241066 4.998345 L 53.518324 4.998345 " stroke="#ffffff" stroke-width="10" stroke-opacity="1" stroke-miterlimit="4"/></g><g clip-path="url(#98f052b070)"><path stroke-linecap="butt" transform="matrix(0.748828, -0.00000000130695, 0.00000000130695, 0.748828, 280.927882, 134.245454)" fill="none" stroke-linejoin="miter" d="M 0.00241065 4.998247 L 53.518324 4.998247 " stroke="#ffffff" stroke-width="10" stroke-opacity="1" stroke-miterlimit="4"/></g><g clip-path="url(#691782949b)"><path stroke-linecap="butt" transform="matrix(0.748828, 0, 0, 0.748828, 280.927882, 113.27676)" fill="none" stroke-linejoin="miter" d="M 0.00241066 4.998171 L 53.518324 4.998171 " stroke="#ffffff" stroke-width="10" stroke-opacity="1" stroke-miterlimit="4"/></g><g clip-path="url(#f19bbfb0b6)"><path stroke-linecap="butt" transform="matrix(0.748828, 0, 0, 0.748828, 280.927882, 92.308074)" fill="none" stroke-linejoin="miter" d="M 0.00241066 4.998087 L 53.518324 4.998087 " stroke="#ffffff" stroke-width="10" stroke-opacity="1" stroke-miterlimit="4"/></g><g clip-path="url(#a014acef54)"><path stroke-linecap="butt" transform="matrix(0.748828, 0, 0, 0.748828, 280.927882, 50.372206)" fill="none" stroke-linejoin="miter" d="M 0.00241066 5.001123 L 53.518324 5.001123 " stroke="#ffffff" stroke-width="10" stroke-opacity="1" stroke-miterlimit="4"/></g><g clip-path="url(#7faca63a18)"><path stroke-linecap="butt" transform="matrix(0.748828, 0, 0, 0.748828, 0.123884, 71.33939)" fill="none" stroke-linejoin="miter" d="M 0.00149034 4.997998 L 53.517404 4.997998 " stroke="#ffffff" stroke-width="10" stroke-opacity="1" stroke-miterlimit="4"/></g><g clip-path="url(#e8b61a420e)"><path stroke-linecap="butt" transform="matrix(0.748828, -0.00000000130695, 0.00000000130695, 0.748828, 0.123884, 260.101574)" fill="none" stroke-linejoin="miter" d="M 0.00149034 5.002593 L 53.517404 5.002593 " stroke="#ffffff" stroke-width="10" stroke-opacity="1" stroke-miterlimit="4"/></g><g clip-path="url(#b473da1398)"><path stroke-linecap="butt" transform="matrix(0.748828, 0, 0, 0.748828, 0.123884, 239.110869)" fill="none" stroke-linejoin="miter" d="M 0.00149034 5.000614 L 53.517404 5.000614 " stroke="#ffffff" stroke-width="10" stroke-opacity="1" stroke-miterlimit="4"/></g><g clip-path="url(#c91c6d101d)"><path stroke-linecap="butt" transform="matrix(0.748828, 0, 0, 0.748828, 0.123884, 218.120194)" fill="none" stroke-linejoin="miter" d="M 0.00149034 4.998593 L 53.517404 4.998593 " stroke="#ffffff" stroke-width="10" stroke-opacity="1" stroke-miterlimit="4"/></g><g clip-path="url(#84d62a39cd)"><path stroke-linecap="butt" transform="matrix(0.748828, 0, 0, 0.748828, 0.123884, 197.151501)" fill="none" stroke-linejoin="miter" d="M 0.00149034 4.998518 L 53.517404 4.998518 " stroke="#ffffff" stroke-width="10" stroke-opacity="1" stroke-miterlimit="4"/></g><g clip-path="url(#25e65b5a72)"><path stroke-linecap="butt" transform="matrix(0.748828, 0, 0, 0.748828, 0.123884, 176.182838)" fill="none" stroke-linejoin="miter" d="M 0.00149034 4.998401 L 53.517404 4.998401 " stroke="#ffffff" stroke-width="10" stroke-opacity="1" stroke-miterlimit="4"/></g><g clip-path="url(#6e74fbfbc6)"><path stroke-linecap="butt" transform="matrix(0.748828, 0, 0, 0.748828, 0.123884, 155.21413)" fill="none" stroke-linejoin="miter" d="M 0.00149034 4.998345 L 53.517404 4.998345 " stroke="#ffffff" stroke-width="10" stroke-opacity="1" stroke-miterlimit="4"/></g><g clip-path="url(#dfb8fce13d)"><path stroke-linecap="butt" transform="matrix(0.748828, -0.00000000130695, 0.00000000130695, 0.748828, 0.123884, 134.245454)" fill="none" stroke-linejoin="miter" d="M 0.00149034 4.998247 L 53.517404 4.998247 " stroke="#ffffff" stroke-width="10" stroke-opacity="1" stroke-miterlimit="4"/></g><g clip-path="url(#533014b404)"><path stroke-linecap="butt" transform="matrix(0.748828, 0, 0, 0.748828, 0.123884, 113.27676)" fill="none" stroke-linejoin="miter" d="M 0.00149034 4.998171 L 53.517404 4.998171 " stroke="#ffffff" stroke-width="10" stroke-opacity="1" stroke-miterlimit="4"/></g><g clip-path="url(#ce25f6df2a)"><path stroke-linecap="butt" transform="matrix(0.748828, 0, 0, 0.748828, 0.123884, 92.308074)" fill="none" stroke-linejoin="miter" d="M 0.00149034 4.998087 L 53.517404 4.998087 " stroke="#ffffff" stroke-width="10" stroke-opacity="1" stroke-miterlimit="4"/></g><g clip-path="url(#3b9574702a)"><path stroke-linecap="butt" transform="matrix(0.748828, 0, 0, 0.748828, 0.123884, 50.372206)" fill="none" stroke-linejoin="miter" d="M 0.00149034 5.001123 L 53.517404 5.001123 " stroke="#ffffff" stroke-width="10" stroke-opacity="1" stroke-miterlimit="4"/></g></svg>
