<svg xmlns="http://www.w3.org/2000/svg" width="100%" height="100%" viewBox="0 0 442 711" fill="none">
<g filter="url(#filter0_d_39_52)">
<rect x="4" width="434" height="703" rx="20" fill="white"/>
<rect x="4.5" y="0.5" width="433" height="702" rx="19.5" stroke="#0F225B"/>
</g>
<g filter="url(#filter1_d_39_52)">
<path d="M174.331 38L171.579 30.928H162.523L159.803 38H156.891L165.819 15.056H168.411L177.307 38H174.331ZM168.155 21.456C168.091 21.2853 167.984 20.976 167.835 20.528C167.685 20.08 167.536 19.6213 167.387 19.152C167.259 18.6613 167.152 18.288 167.067 18.032C166.96 18.4587 166.843 18.896 166.715 19.344C166.608 19.7707 166.491 20.1653 166.363 20.528C166.256 20.8907 166.16 21.2 166.075 21.456L163.483 28.368H170.715L168.155 21.456ZM195.386 15.152C198.373 15.152 200.549 15.7387 201.914 16.912C203.28 18.0853 203.962 19.7387 203.962 21.872C203.962 22.8107 203.802 23.7173 203.482 24.592C203.184 25.4453 202.682 26.2133 201.978 26.896C201.274 27.5787 200.336 28.1227 199.162 28.528C197.989 28.912 196.549 29.104 194.842 29.104H192.218V38H189.338V15.152H195.386ZM195.13 17.616H192.218V26.64H194.522C195.973 26.64 197.178 26.4907 198.138 26.192C199.098 25.872 199.813 25.3707 200.282 24.688C200.752 24.0053 200.986 23.1093 200.986 22C200.986 20.528 200.517 19.4293 199.578 18.704C198.64 17.9787 197.157 17.616 195.13 17.616ZM226.185 38H223.305V27.344H211.593V38H208.713V15.152H211.593V24.816H223.305V15.152H226.185V38ZM246.768 38L244.016 30.928H234.96L232.24 38H229.328L238.256 15.056H240.848L249.744 38H246.768ZM240.592 21.456C240.528 21.2853 240.421 20.976 240.272 20.528C240.123 20.08 239.973 19.6213 239.824 19.152C239.696 18.6613 239.589 18.288 239.504 18.032C239.397 18.4587 239.28 18.896 239.152 19.344C239.045 19.7707 238.928 20.1653 238.8 20.528C238.693 20.8907 238.597 21.2 238.512 21.456L235.92 28.368H243.152L240.592 21.456ZM265.83 31.888C265.83 33.2533 265.499 34.416 264.838 35.376C264.176 36.3147 263.227 37.04 261.99 37.552C260.774 38.064 259.334 38.32 257.67 38.32C256.816 38.32 255.995 38.2773 255.206 38.192C254.438 38.1067 253.734 37.9893 253.094 37.84C252.454 37.6693 251.888 37.4667 251.398 37.232V34.48C252.166 34.8213 253.115 35.1307 254.246 35.408C255.398 35.6853 256.582 35.824 257.798 35.824C258.928 35.824 259.878 35.6747 260.646 35.376C261.414 35.0773 261.99 34.6507 262.374 34.096C262.758 33.5413 262.95 32.8907 262.95 32.144C262.95 31.3973 262.79 30.768 262.47 30.256C262.15 29.744 261.595 29.2747 260.806 28.848C260.038 28.4 258.96 27.9307 257.574 27.44C256.592 27.0773 255.728 26.6933 254.982 26.288C254.256 25.8613 253.648 25.3813 253.158 24.848C252.667 24.3147 252.294 23.7067 252.038 23.024C251.803 22.3413 251.686 21.552 251.686 20.656C251.686 19.44 251.995 18.4053 252.614 17.552C253.232 16.6773 254.086 16.0053 255.174 15.536C256.283 15.0667 257.552 14.832 258.982 14.832C260.24 14.832 261.392 14.9493 262.438 15.184C263.483 15.4187 264.432 15.728 265.286 16.112L264.39 18.576C263.6 18.2347 262.736 17.9467 261.798 17.712C260.88 17.4773 259.92 17.36 258.918 17.36C257.958 17.36 257.158 17.4987 256.518 17.776C255.878 18.0533 255.398 18.448 255.078 18.96C254.758 19.4507 254.598 20.0267 254.598 20.688C254.598 21.456 254.758 22.096 255.078 22.608C255.398 23.12 255.92 23.5787 256.646 23.984C257.371 24.3893 258.352 24.8267 259.59 25.296C260.934 25.7867 262.064 26.32 262.982 26.896C263.92 27.4507 264.624 28.1227 265.094 28.912C265.584 29.7013 265.83 30.6933 265.83 31.888ZM283.2 38H270.432V15.152H283.2V17.68H273.312V24.816H282.624V27.312H273.312V35.472H283.2V38Z" fill="#0F225B"/>
</g>
<g filter="url(#filter2_d_39_52)">
<path d="M22.864 158L16.552 141.2H18.736L24.04 155.864L29.392 141.2H31.528L25.216 158H22.864ZM40.3739 158.288C38.8379 158.288 37.4859 157.928 36.3179 157.208C35.1499 156.472 34.2379 155.456 33.5819 154.16C32.9259 152.848 32.5979 151.328 32.5979 149.6C32.5979 147.888 32.9259 146.384 33.5819 145.088C34.2379 143.776 35.1499 142.752 36.3179 142.016C37.4859 141.28 38.8379 140.912 40.3739 140.912C41.9419 140.912 43.3099 141.28 44.4779 142.016C45.6459 142.752 46.5499 143.776 47.1899 145.088C47.8299 146.384 48.1499 147.888 48.1499 149.6C48.1499 151.328 47.8299 152.848 47.1899 154.16C46.5499 155.456 45.6459 156.472 44.4779 157.208C43.3099 157.928 41.9419 158.288 40.3739 158.288ZM40.3739 156.512C41.5259 156.512 42.5259 156.24 43.3739 155.696C44.2379 155.136 44.9019 154.344 45.3659 153.32C45.8459 152.28 46.0859 151.04 46.0859 149.6C46.0859 148.16 45.8459 146.928 45.3659 145.904C44.9019 144.864 44.2379 144.072 43.3739 143.528C42.5259 142.984 41.5259 142.712 40.3739 142.712C39.2379 142.712 38.2379 142.984 37.3739 143.528C36.5259 144.072 35.8619 144.864 35.3819 145.904C34.9019 146.928 34.6619 148.16 34.6619 149.6C34.6619 151.04 34.9019 152.28 35.3819 153.32C35.8619 154.344 36.5259 155.136 37.3739 155.696C38.2379 156.24 39.2379 156.512 40.3739 156.512ZM51.1761 158V141.2H53.1921V156.392H61.0161V158H51.1761ZM65.1663 158V142.856H60.1503V141.2H72.1983V142.856H67.1823V158H65.1663ZM71.7987 158L77.9907 141.2H80.1267L86.2947 158H84.1347L79.0467 143.72L73.9107 158H71.7987ZM74.6307 153.68L75.2067 152.048H82.8147L83.3907 153.68H74.6307ZM95.1027 158.288C93.5347 158.288 92.1587 157.928 90.9747 157.208C89.7907 156.472 88.8707 155.456 88.2147 154.16C87.5587 152.864 87.2307 151.352 87.2307 149.624C87.2307 147.912 87.5587 146.4 88.2147 145.088C88.8867 143.776 89.8307 142.752 91.0467 142.016C92.2787 141.28 93.7267 140.912 95.3907 140.912C97.2787 140.912 98.8547 141.368 100.119 142.28C101.383 143.176 102.191 144.432 102.543 146.048H100.215C99.9907 145.04 99.4627 144.24 98.6307 143.648C97.7987 143.056 96.7187 142.76 95.3907 142.76C94.1587 142.76 93.0787 143.04 92.1507 143.6C91.2387 144.144 90.5347 144.928 90.0387 145.952C89.5427 146.976 89.2947 148.2 89.2947 149.624C89.2947 151.048 89.5427 152.28 90.0387 153.32C90.5347 154.344 91.2227 155.128 92.1027 155.672C92.9987 156.216 94.0227 156.488 95.1747 156.488C96.9667 156.488 98.3187 155.96 99.2307 154.904C100.143 153.848 100.663 152.416 100.791 150.608H95.9427V149.024H102.855V158H101.007L100.839 155.24C100.439 155.896 99.9747 156.456 99.4467 156.92C98.9347 157.368 98.3267 157.712 97.6227 157.952C96.9187 158.176 96.0787 158.288 95.1027 158.288ZM106.184 158V141.2H116.576V142.856H108.2V148.712H115.856V150.344H108.2V156.344H116.576V158H106.184Z" fill="#0F225B"/>
</g>
<g filter="url(#filter3_d_39_52)">
<path d="M23.4298 300.52C22.5178 300.52 21.6938 300.68 20.9578 301C20.2218 301.304 19.5978 301.76 19.0858 302.368C18.5738 302.96 18.1818 303.688 17.9098 304.552C17.6378 305.4 17.5018 306.36 17.5018 307.432C17.5018 308.84 17.7178 310.064 18.1498 311.104C18.5978 312.144 19.2538 312.944 20.1178 313.504C20.9978 314.064 22.0938 314.344 23.4058 314.344C24.1578 314.344 24.8698 314.28 25.5418 314.152C26.2138 314.024 26.8698 313.864 27.5098 313.672V315.544C26.8698 315.784 26.2058 315.96 25.5178 316.072C24.8458 316.184 24.0378 316.24 23.0938 316.24C21.3498 316.24 19.8938 315.88 18.7258 315.16C17.5578 314.44 16.6778 313.416 16.0858 312.088C15.5098 310.76 15.2218 309.2 15.2218 307.408C15.2218 306.112 15.3978 304.928 15.7498 303.856C16.1178 302.784 16.6458 301.856 17.3338 301.072C18.0378 300.288 18.9018 299.688 19.9258 299.272C20.9498 298.84 22.1258 298.624 23.4538 298.624C24.3338 298.624 25.1818 298.712 25.9978 298.888C26.8138 299.064 27.5418 299.312 28.1818 299.632L27.3178 301.456C26.7898 301.216 26.1978 301 25.5418 300.808C24.9018 300.616 24.1978 300.52 23.4298 300.52ZM44.2819 309.952C44.2819 311.136 44.0419 312.208 43.5619 313.168C43.0819 314.112 42.3459 314.864 41.3539 315.424C40.3779 315.968 39.1299 316.24 37.6099 316.24C35.4819 316.24 33.8579 315.664 32.7379 314.512C31.6339 313.344 31.0819 311.808 31.0819 309.904V298.864H33.2419V309.976C33.2419 311.368 33.6099 312.448 34.3459 313.216C35.0979 313.984 36.2259 314.368 37.7299 314.368C38.7699 314.368 39.6099 314.184 40.2499 313.816C40.9059 313.432 41.3859 312.912 41.6899 312.256C41.9939 311.584 42.1459 310.816 42.1459 309.952V298.864H44.2819V309.952ZM53.5326 298.864C54.9566 298.864 56.1246 299.048 57.0366 299.416C57.9646 299.768 58.6526 300.304 59.1006 301.024C59.5486 301.744 59.7726 302.648 59.7726 303.736C59.7726 304.648 59.6046 305.408 59.2686 306.016C58.9326 306.624 58.5006 307.112 57.9726 307.48C57.4606 307.832 56.9166 308.112 56.3406 308.32L61.0446 316H58.5246L54.3726 308.92H50.9646V316H48.8046V298.864H53.5326ZM53.4126 300.736H50.9646V307.096H53.5326C54.4606 307.096 55.2206 306.976 55.8126 306.736C56.4046 306.48 56.8366 306.112 57.1086 305.632C57.3966 305.152 57.5406 304.552 57.5406 303.832C57.5406 303.08 57.3886 302.48 57.0846 302.032C56.7966 301.584 56.3486 301.256 55.7406 301.048C55.1326 300.84 54.3566 300.736 53.4126 300.736ZM68.4622 298.864C69.8863 298.864 71.0543 299.048 71.9663 299.416C72.8943 299.768 73.5823 300.304 74.0303 301.024C74.4783 301.744 74.7023 302.648 74.7023 303.736C74.7023 304.648 74.5343 305.408 74.1983 306.016C73.8623 306.624 73.4303 307.112 72.9023 307.48C72.3903 307.832 71.8463 308.112 71.2703 308.32L75.9743 316H73.4543L69.3023 308.92H65.8943V316H63.7343V298.864H68.4622ZM68.3423 300.736H65.8943V307.096H68.4622C69.3903 307.096 70.1503 306.976 70.7423 306.736C71.3343 306.48 71.7663 306.112 72.0383 305.632C72.3263 305.152 72.4703 304.552 72.4703 303.832C72.4703 303.08 72.3183 302.48 72.0143 302.032C71.7263 301.584 71.2783 301.256 70.6703 301.048C70.0623 300.84 69.2863 300.736 68.3423 300.736ZM88.2399 316H78.6639V298.864H88.2399V300.76H80.8239V306.112H87.8079V307.984H80.8239V314.104H88.2399V316ZM105.584 316H103.064L93.8959 301.768H93.7999C93.8159 302.056 93.8319 302.376 93.8479 302.728C93.8799 303.08 93.9039 303.464 93.9199 303.88C93.9359 304.28 93.9519 304.696 93.9679 305.128C93.9839 305.56 93.9919 305.992 93.9919 306.424V316H91.9999V298.864H94.4959L103.64 313.048H103.736C103.72 312.856 103.704 312.592 103.688 312.256C103.672 311.904 103.656 311.52 103.64 311.104C103.624 310.672 103.608 310.232 103.592 309.784C103.576 309.336 103.568 308.92 103.568 308.536V298.864H105.584V316ZM115.658 316H113.498V300.76H108.146V298.864H120.986V300.76H115.658V316Z" fill="#0F225B"/>
</g>
<g filter="url(#filter4_d_39_52)">
<path d="M60.8757 614.864C63.1157 614.864 64.7477 615.304 65.7717 616.184C66.7957 617.064 67.3077 618.304 67.3077 619.904C67.3077 620.608 67.1877 621.288 66.9477 621.944C66.7237 622.584 66.3477 623.16 65.8197 623.672C65.2917 624.184 64.5877 624.592 63.7077 624.896C62.8277 625.184 61.7477 625.328 60.4677 625.328H58.4997V632H56.3397V614.864H60.8757ZM60.6837 616.712H58.4997V623.48H60.2277C61.3157 623.48 62.2197 623.368 62.9397 623.144C63.6597 622.904 64.1957 622.528 64.5477 622.016C64.8997 621.504 65.0757 620.832 65.0757 620C65.0757 618.896 64.7237 618.072 64.0197 617.528C63.3157 616.984 62.2037 616.712 60.6837 616.712ZM73.031 632H70.871V614.864H80.447V616.76H73.031V622.832H79.991V624.728H73.031V632Z" fill="#0F225B"/>
</g>
<g filter="url(#filter5_d_39_52)">
<path d="M31.0515 456.864C33.2915 456.864 34.9235 457.304 35.9475 458.184C36.9715 459.064 37.4835 460.304 37.4835 461.904C37.4835 462.608 37.3635 463.288 37.1235 463.944C36.8995 464.584 36.5235 465.16 35.9955 465.672C35.4675 466.184 34.7635 466.592 33.8835 466.896C33.0035 467.184 31.9235 467.328 30.6435 467.328H28.6755V474H26.5155V456.864H31.0515ZM30.8595 458.712H28.6755V465.48H30.4035C31.4915 465.48 32.3955 465.368 33.1155 465.144C33.8355 464.904 34.3715 464.528 34.7235 464.016C35.0755 463.504 35.2515 462.832 35.2515 462C35.2515 460.896 34.8995 460.072 34.1955 459.528C33.4915 458.984 32.3795 458.712 30.8595 458.712ZM55.9988 465.408C55.9988 466.736 55.8308 467.944 55.4948 469.032C55.1588 470.104 54.6548 471.032 53.9828 471.816C53.3268 472.6 52.5028 473.2 51.5108 473.616C50.5348 474.032 49.3988 474.24 48.1028 474.24C46.7588 474.24 45.5908 474.032 44.5988 473.616C43.6068 473.184 42.7828 472.584 42.1268 471.816C41.4708 471.032 40.9828 470.096 40.6628 469.008C40.3428 467.92 40.1828 466.712 40.1828 465.384C40.1828 463.624 40.4708 462.088 41.0468 460.776C41.6228 459.464 42.4948 458.44 43.6628 457.704C44.8468 456.968 46.3348 456.6 48.1268 456.6C49.8388 456.6 51.2788 456.968 52.4468 457.704C53.6148 458.424 54.4948 459.448 55.0868 460.776C55.6948 462.088 55.9988 463.632 55.9988 465.408ZM42.4628 465.408C42.4628 466.848 42.6628 468.088 43.0628 469.128C43.4628 470.168 44.0788 470.968 44.9108 471.528C45.7588 472.088 46.8228 472.368 48.1028 472.368C49.3988 472.368 50.4548 472.088 51.2708 471.528C52.1028 470.968 52.7188 470.168 53.1188 469.128C53.5188 468.088 53.7188 466.848 53.7188 465.408C53.7188 463.248 53.2708 461.56 52.3748 460.344C51.4788 459.112 50.0628 458.496 48.1268 458.496C46.8308 458.496 45.7588 458.776 44.9108 459.336C44.0788 459.88 43.4628 460.672 43.0628 461.712C42.6628 462.736 42.4628 463.968 42.4628 465.408ZM79.2424 456.864L74.6824 474H72.4984L69.1624 462.768C69.0664 462.432 68.9704 462.088 68.8744 461.736C68.7784 461.384 68.6904 461.048 68.6104 460.728C68.5304 460.408 68.4584 460.136 68.3944 459.912C68.3464 459.672 68.3144 459.496 68.2984 459.384C68.2824 459.496 68.2504 459.672 68.2024 459.912C68.1704 460.136 68.1144 460.408 68.0344 460.728C67.9544 461.048 67.8664 461.392 67.7704 461.76C67.6904 462.112 67.5944 462.472 67.4824 462.84L64.2424 474H62.0584L57.5224 456.864H59.7784L62.4424 467.328C62.5384 467.696 62.6264 468.064 62.7064 468.432C62.7864 468.784 62.8584 469.136 62.9224 469.488C63.0024 469.824 63.0664 470.152 63.1144 470.472C63.1624 470.792 63.2104 471.104 63.2584 471.408C63.3064 471.088 63.3544 470.76 63.4024 470.424C63.4664 470.088 63.5384 469.744 63.6184 469.392C63.6984 469.024 63.7864 468.656 63.8824 468.288C63.9784 467.92 64.0744 467.56 64.1704 467.208L67.1944 456.864H69.4264L72.5704 467.28C72.6824 467.648 72.7864 468.024 72.8824 468.408C72.9784 468.776 73.0664 469.136 73.1464 469.488C73.2264 469.84 73.2904 470.184 73.3384 470.52C73.4024 470.84 73.4584 471.136 73.5064 471.408C73.5544 471.008 73.6184 470.592 73.6984 470.16C73.7784 469.712 73.8744 469.248 73.9864 468.768C74.0984 468.288 74.2184 467.8 74.3464 467.304L76.9864 456.864H79.2424ZM91.4509 474H81.8749V456.864H91.4509V458.76H84.0349V464.112H91.0189V465.984H84.0349V472.104H91.4509V474ZM99.9388 456.864C101.363 456.864 102.531 457.048 103.443 457.416C104.371 457.768 105.059 458.304 105.507 459.024C105.955 459.744 106.179 460.648 106.179 461.736C106.179 462.648 106.011 463.408 105.675 464.016C105.339 464.624 104.907 465.112 104.379 465.48C103.867 465.832 103.323 466.112 102.747 466.32L107.451 474H104.931L100.779 466.92H97.3708V474H95.2108V456.864H99.9388ZM99.8188 458.736H97.3708V465.096H99.9388C100.867 465.096 101.627 464.976 102.219 464.736C102.811 464.48 103.243 464.112 103.515 463.632C103.803 463.152 103.947 462.552 103.947 461.832C103.947 461.08 103.795 460.48 103.491 460.032C103.203 459.584 102.755 459.256 102.147 459.048C101.539 458.84 100.763 458.736 99.8188 458.736Z" fill="#0F225B"/>
</g>
<rect x="129" y="86" width="292" height="127" rx="20" fill="#0F225B"/>
<rect x="156" y="103" width="211" height="89" rx="20" fill="#F9FFD9"/>
<rect x="127" y="402" width="292" height="127" rx="20" fill="#0F225B"/>
<rect x="154" y="419" width="211" height="89" rx="20" fill="#F9FFD9"/>
<rect x="127" y="560" width="292" height="127" rx="20" fill="#0F225B"/>
<rect x="154" y="576" width="236" height="89" rx="20" fill="#F9FFD9"/>
<rect x="129" y="244" width="292" height="127" rx="20" fill="#0F225B"/>
<rect x="156" y="261" width="211" height="89" rx="20" fill="#F9FFD9"/>
<g filter="url(#filter6_d_39_52)">
<path d="M399.365 139.864L393.245 157H391.085L384.965 139.864H387.221L391.085 150.856C391.261 151.32 391.413 151.768 391.541 152.2C391.669 152.632 391.781 153.048 391.877 153.448C391.989 153.832 392.085 154.216 392.165 154.6C392.245 154.216 392.333 153.824 392.429 153.424C392.541 153.024 392.661 152.608 392.789 152.176C392.933 151.744 393.085 151.288 393.245 150.808L397.085 139.864H399.365ZM403.938 154.504V157H401.441V154.504H403.938Z" fill="white"/>
</g>
<g filter="url(#filter7_d_39_52)">
<path d="M397.576 316L395.512 310.696H388.72L386.68 316H384.496L391.192 298.792H393.136L399.808 316H397.576ZM392.944 303.592C392.896 303.464 392.816 303.232 392.704 302.896C392.592 302.56 392.48 302.216 392.368 301.864C392.272 301.496 392.192 301.216 392.128 301.024C392.048 301.344 391.96 301.672 391.864 302.008C391.784 302.328 391.696 302.624 391.6 302.896C391.52 303.168 391.448 303.4 391.384 303.592L389.44 308.776H394.864L392.944 303.592ZM404.406 313.504V316H401.91V313.504H404.406Z" fill="white"/>
</g>
<g filter="url(#filter8_d_39_52)">
<path d="M386.43 474H383.886L377.814 465.816L376.062 467.352V474H373.902V456.864H376.062V465.312C376.542 464.768 377.03 464.224 377.526 463.68C378.022 463.136 378.518 462.592 379.014 462.048L383.646 456.864H386.166L379.374 464.328L386.43 474ZM408.442 456.864L403.882 474H401.698L398.362 462.768C398.266 462.432 398.17 462.088 398.074 461.736C397.978 461.384 397.89 461.048 397.81 460.728C397.73 460.408 397.658 460.136 397.594 459.912C397.546 459.672 397.514 459.496 397.498 459.384C397.482 459.496 397.45 459.672 397.402 459.912C397.37 460.136 397.314 460.408 397.234 460.728C397.154 461.048 397.066 461.392 396.97 461.76C396.89 462.112 396.794 462.472 396.682 462.84L393.442 474H391.258L386.722 456.864H388.978L391.642 467.328C391.738 467.696 391.826 468.064 391.906 468.432C391.986 468.784 392.058 469.136 392.122 469.488C392.202 469.824 392.266 470.152 392.314 470.472C392.362 470.792 392.41 471.104 392.458 471.408C392.506 471.088 392.554 470.76 392.602 470.424C392.666 470.088 392.738 469.744 392.818 469.392C392.898 469.024 392.986 468.656 393.082 468.288C393.178 467.92 393.274 467.56 393.37 467.208L396.394 456.864H398.626L401.77 467.28C401.882 467.648 401.986 468.024 402.082 468.408C402.178 468.776 402.266 469.136 402.346 469.488C402.426 469.84 402.49 470.184 402.538 470.52C402.602 470.84 402.658 471.136 402.706 471.408C402.754 471.008 402.818 470.592 402.898 470.16C402.978 469.712 403.074 469.248 403.186 468.768C403.298 468.288 403.418 467.8 403.546 467.304L406.186 456.864H408.442ZM413.328 471.504V474H410.832V471.504H413.328Z" fill="white"/>
</g>
<line x1="71.9966" y1="57.5" x2="370.003" y2="57.5" stroke="#0F225B"/>
<defs>
<filter id="filter0_d_39_52" x="0" y="0" width="442" height="711" filterUnits="userSpaceOnUse" color-interpolation-filters="sRGB">
<feFlood flood-opacity="0" result="BackgroundImageFix"/>
<feColorMatrix in="SourceAlpha" type="matrix" values="0 0 0 0 0 0 0 0 0 0 0 0 0 0 0 0 0 0 127 0" result="hardAlpha"/>
<feOffset dy="4"/>
<feGaussianBlur stdDeviation="2"/>
<feComposite in2="hardAlpha" operator="out"/>
<feColorMatrix type="matrix" values="0 0 0 0 0 0 0 0 0 0 0 0 0 0 0 0 0 0 0.25 0"/>
<feBlend mode="normal" in2="BackgroundImageFix" result="effect1_dropShadow_39_52"/>
<feBlend mode="normal" in="SourceGraphic" in2="effect1_dropShadow_39_52" result="shape"/>
</filter>
<filter id="filter1_d_39_52" x="152.891" y="14.832" width="134.309" height="31.4879" filterUnits="userSpaceOnUse" color-interpolation-filters="sRGB">
<feFlood flood-opacity="0" result="BackgroundImageFix"/>
<feColorMatrix in="SourceAlpha" type="matrix" values="0 0 0 0 0 0 0 0 0 0 0 0 0 0 0 0 0 0 127 0" result="hardAlpha"/>
<feOffset dy="4"/>
<feGaussianBlur stdDeviation="2"/>
<feComposite in2="hardAlpha" operator="out"/>
<feColorMatrix type="matrix" values="0 0 0 0 0 0 0 0 0 0 0 0 0 0 0 0 0 0 0.25 0"/>
<feBlend mode="normal" in2="BackgroundImageFix" result="effect1_dropShadow_39_52"/>
<feBlend mode="normal" in="SourceGraphic" in2="effect1_dropShadow_39_52" result="shape"/>
</filter>
<filter id="filter2_d_39_52" x="12.552" y="140.912" width="108.024" height="25.376" filterUnits="userSpaceOnUse" color-interpolation-filters="sRGB">
<feFlood flood-opacity="0" result="BackgroundImageFix"/>
<feColorMatrix in="SourceAlpha" type="matrix" values="0 0 0 0 0 0 0 0 0 0 0 0 0 0 0 0 0 0 127 0" result="hardAlpha"/>
<feOffset dy="4"/>
<feGaussianBlur stdDeviation="2"/>
<feComposite in2="hardAlpha" operator="out"/>
<feColorMatrix type="matrix" values="0 0 0 0 0 0 0 0 0 0 0 0 0 0 0 0 0 0 0.25 0"/>
<feBlend mode="normal" in2="BackgroundImageFix" result="effect1_dropShadow_39_52"/>
<feBlend mode="normal" in="SourceGraphic" in2="effect1_dropShadow_39_52" result="shape"/>
</filter>
<filter id="filter3_d_39_52" x="11.2218" y="298.624" width="113.764" height="25.616" filterUnits="userSpaceOnUse" color-interpolation-filters="sRGB">
<feFlood flood-opacity="0" result="BackgroundImageFix"/>
<feColorMatrix in="SourceAlpha" type="matrix" values="0 0 0 0 0 0 0 0 0 0 0 0 0 0 0 0 0 0 127 0" result="hardAlpha"/>
<feOffset dy="4"/>
<feGaussianBlur stdDeviation="2"/>
<feComposite in2="hardAlpha" operator="out"/>
<feColorMatrix type="matrix" values="0 0 0 0 0 0 0 0 0 0 0 0 0 0 0 0 0 0 0.25 0"/>
<feBlend mode="normal" in2="BackgroundImageFix" result="effect1_dropShadow_39_52"/>
<feBlend mode="normal" in="SourceGraphic" in2="effect1_dropShadow_39_52" result="shape"/>
</filter>
<filter id="filter4_d_39_52" x="52.3397" y="614.864" width="32.1073" height="25.136" filterUnits="userSpaceOnUse" color-interpolation-filters="sRGB">
<feFlood flood-opacity="0" result="BackgroundImageFix"/>
<feColorMatrix in="SourceAlpha" type="matrix" values="0 0 0 0 0 0 0 0 0 0 0 0 0 0 0 0 0 0 127 0" result="hardAlpha"/>
<feOffset dy="4"/>
<feGaussianBlur stdDeviation="2"/>
<feComposite in2="hardAlpha" operator="out"/>
<feColorMatrix type="matrix" values="0 0 0 0 0 0 0 0 0 0 0 0 0 0 0 0 0 0 0.25 0"/>
<feBlend mode="normal" in2="BackgroundImageFix" result="effect1_dropShadow_39_52"/>
<feBlend mode="normal" in="SourceGraphic" in2="effect1_dropShadow_39_52" result="shape"/>
</filter>
<filter id="filter5_d_39_52" x="22.5155" y="456.6" width="88.9353" height="25.6399" filterUnits="userSpaceOnUse" color-interpolation-filters="sRGB">
<feFlood flood-opacity="0" result="BackgroundImageFix"/>
<feColorMatrix in="SourceAlpha" type="matrix" values="0 0 0 0 0 0 0 0 0 0 0 0 0 0 0 0 0 0 127 0" result="hardAlpha"/>
<feOffset dy="4"/>
<feGaussianBlur stdDeviation="2"/>
<feComposite in2="hardAlpha" operator="out"/>
<feColorMatrix type="matrix" values="0 0 0 0 0 0 0 0 0 0 0 0 0 0 0 0 0 0 0.25 0"/>
<feBlend mode="normal" in2="BackgroundImageFix" result="effect1_dropShadow_39_52"/>
<feBlend mode="normal" in="SourceGraphic" in2="effect1_dropShadow_39_52" result="shape"/>
</filter>
<filter id="filter6_d_39_52" x="380.965" y="139.864" width="26.9727" height="25.136" filterUnits="userSpaceOnUse" color-interpolation-filters="sRGB">
<feFlood flood-opacity="0" result="BackgroundImageFix"/>
<feColorMatrix in="SourceAlpha" type="matrix" values="0 0 0 0 0 0 0 0 0 0 0 0 0 0 0 0 0 0 127 0" result="hardAlpha"/>
<feOffset dy="4"/>
<feGaussianBlur stdDeviation="2"/>
<feComposite in2="hardAlpha" operator="out"/>
<feColorMatrix type="matrix" values="0 0 0 0 0 0 0 0 0 0 0 0 0 0 0 0 0 0 0.25 0"/>
<feBlend mode="normal" in2="BackgroundImageFix" result="effect1_dropShadow_39_52"/>
<feBlend mode="normal" in="SourceGraphic" in2="effect1_dropShadow_39_52" result="shape"/>
</filter>
<filter id="filter7_d_39_52" x="380.496" y="298.792" width="27.9102" height="25.208" filterUnits="userSpaceOnUse" color-interpolation-filters="sRGB">
<feFlood flood-opacity="0" result="BackgroundImageFix"/>
<feColorMatrix in="SourceAlpha" type="matrix" values="0 0 0 0 0 0 0 0 0 0 0 0 0 0 0 0 0 0 127 0" result="hardAlpha"/>
<feOffset dy="4"/>
<feGaussianBlur stdDeviation="2"/>
<feComposite in2="hardAlpha" operator="out"/>
<feColorMatrix type="matrix" values="0 0 0 0 0 0 0 0 0 0 0 0 0 0 0 0 0 0 0.25 0"/>
<feBlend mode="normal" in2="BackgroundImageFix" result="effect1_dropShadow_39_52"/>
<feBlend mode="normal" in="SourceGraphic" in2="effect1_dropShadow_39_52" result="shape"/>
</filter>
<filter id="filter8_d_39_52" x="369.902" y="456.864" width="47.4259" height="25.136" filterUnits="userSpaceOnUse" color-interpolation-filters="sRGB">
<feFlood flood-opacity="0" result="BackgroundImageFix"/>
<feColorMatrix in="SourceAlpha" type="matrix" values="0 0 0 0 0 0 0 0 0 0 0 0 0 0 0 0 0 0 127 0" result="hardAlpha"/>
<feOffset dy="4"/>
<feGaussianBlur stdDeviation="2"/>
<feComposite in2="hardAlpha" operator="out"/>
<feColorMatrix type="matrix" values="0 0 0 0 0 0 0 0 0 0 0 0 0 0 0 0 0 0 0.25 0"/>
<feBlend mode="normal" in2="BackgroundImageFix" result="effect1_dropShadow_39_52"/>
<feBlend mode="normal" in="SourceGraphic" in2="effect1_dropShadow_39_52" result="shape"/>
</filter>
</defs>
</svg>
