<svg xmlns="http://www.w3.org/2000/svg" width="100%" height="100%" viewBox="0 0 442 669" fill="none">
<g filter="url(#filter0_d_45_45)">
<rect x="4" width="434" height="661" rx="20" fill="white"/>
</g>
<g filter="url(#filter1_d_45_45)">
<path d="M169.896 21.36C168.68 21.36 167.581 21.5733 166.6 22C165.619 22.4053 164.787 23.0133 164.104 23.824C163.421 24.6133 162.899 25.584 162.536 26.736C162.173 27.8667 161.992 29.1467 161.992 30.576C161.992 32.4533 162.28 34.0853 162.856 35.472C163.453 36.8587 164.328 37.9253 165.48 38.672C166.653 39.4187 168.115 39.792 169.864 39.792C170.867 39.792 171.816 39.7067 172.712 39.536C173.608 39.3653 174.483 39.152 175.336 38.896V41.392C174.483 41.712 173.597 41.9467 172.68 42.096C171.784 42.2453 170.707 42.32 169.448 42.32C167.123 42.32 165.181 41.84 163.624 40.88C162.067 39.92 160.893 38.5547 160.104 36.784C159.336 35.0133 158.952 32.9333 158.952 30.544C158.952 28.816 159.187 27.2373 159.656 25.808C160.147 24.3787 160.851 23.1413 161.768 22.096C162.707 21.0507 163.859 20.2507 165.224 19.696C166.589 19.12 168.157 18.832 169.928 18.832C171.101 18.832 172.232 18.9493 173.32 19.184C174.408 19.4187 175.379 19.7493 176.232 20.176L175.08 22.608C174.376 22.288 173.587 22 172.712 21.744C171.859 21.488 170.92 21.36 169.896 21.36ZM195.277 19.152C198.264 19.152 200.44 19.7387 201.805 20.912C203.17 22.0853 203.853 23.7387 203.853 25.872C203.853 26.8107 203.693 27.7173 203.373 28.592C203.074 29.4453 202.573 30.2133 201.869 30.896C201.165 31.5787 200.226 32.1227 199.053 32.528C197.88 32.912 196.44 33.104 194.733 33.104H192.109V42H189.229V19.152H195.277ZM195.021 21.616H192.109V30.64H194.413C195.864 30.64 197.069 30.4907 198.029 30.192C198.989 29.872 199.704 29.3707 200.173 28.688C200.642 28.0053 200.877 27.1093 200.877 26C200.877 24.528 200.408 23.4293 199.469 22.704C198.53 21.9787 197.048 21.616 195.021 21.616ZM226.076 42H223.196V31.344H211.484V42H208.604V19.152H211.484V28.816H223.196V19.152H226.076V42ZM246.659 42L243.907 34.928H234.851L232.131 42H229.219L238.147 19.056H240.739L249.635 42H246.659ZM240.483 25.456C240.419 25.2853 240.312 24.976 240.163 24.528C240.013 24.08 239.864 23.6213 239.715 23.152C239.587 22.6613 239.48 22.288 239.395 22.032C239.288 22.4587 239.171 22.896 239.043 23.344C238.936 23.7707 238.819 24.1653 238.691 24.528C238.584 24.8907 238.488 25.2 238.403 25.456L235.811 32.368H243.043L240.483 25.456ZM265.72 35.888C265.72 37.2533 265.39 38.416 264.728 39.376C264.067 40.3147 263.118 41.04 261.88 41.552C260.664 42.064 259.224 42.32 257.56 42.32C256.707 42.32 255.886 42.2773 255.096 42.192C254.328 42.1067 253.624 41.9893 252.984 41.84C252.344 41.6693 251.779 41.4667 251.288 41.232V38.48C252.056 38.8213 253.006 39.1307 254.136 39.408C255.288 39.6853 256.472 39.824 257.688 39.824C258.819 39.824 259.768 39.6747 260.536 39.376C261.304 39.0773 261.88 38.6507 262.264 38.096C262.648 37.5413 262.84 36.8907 262.84 36.144C262.84 35.3973 262.68 34.768 262.36 34.256C262.04 33.744 261.486 33.2747 260.696 32.848C259.928 32.4 258.851 31.9307 257.464 31.44C256.483 31.0773 255.619 30.6933 254.872 30.288C254.147 29.8613 253.539 29.3813 253.048 28.848C252.558 28.3147 252.184 27.7067 251.928 27.024C251.694 26.3413 251.576 25.552 251.576 24.656C251.576 23.44 251.886 22.4053 252.504 21.552C253.123 20.6773 253.976 20.0053 255.064 19.536C256.174 19.0667 257.443 18.832 258.872 18.832C260.131 18.832 261.283 18.9493 262.328 19.184C263.374 19.4187 264.323 19.728 265.176 20.112L264.28 22.576C263.491 22.2347 262.627 21.9467 261.688 21.712C260.771 21.4773 259.811 21.36 258.808 21.36C257.848 21.36 257.048 21.4987 256.408 21.776C255.768 22.0533 255.288 22.448 254.968 22.96C254.648 23.4507 254.488 24.0267 254.488 24.688C254.488 25.456 254.648 26.096 254.968 26.608C255.288 27.12 255.811 27.5787 256.536 27.984C257.262 28.3893 258.243 28.8267 259.48 29.296C260.824 29.7867 261.955 30.32 262.872 30.896C263.811 31.4507 264.515 32.1227 264.984 32.912C265.475 33.7013 265.72 34.6933 265.72 35.888ZM283.091 42H270.323V19.152H283.091V21.68H273.203V28.816H282.515V31.312H273.203V39.472H283.091V42Z" fill="#0F225B"/>
</g>
<g filter="url(#filter2_d_45_45)">
<path d="M22.864 162L16.552 145.2H18.736L24.04 159.864L29.392 145.2H31.528L25.216 162H22.864ZM40.3739 162.288C38.8379 162.288 37.4859 161.928 36.3179 161.208C35.1499 160.472 34.2379 159.456 33.5819 158.16C32.9259 156.848 32.5979 155.328 32.5979 153.6C32.5979 151.888 32.9259 150.384 33.5819 149.088C34.2379 147.776 35.1499 146.752 36.3179 146.016C37.4859 145.28 38.8379 144.912 40.3739 144.912C41.9419 144.912 43.3099 145.28 44.4779 146.016C45.6459 146.752 46.5499 147.776 47.1899 149.088C47.8299 150.384 48.1499 151.888 48.1499 153.6C48.1499 155.328 47.8299 156.848 47.1899 158.16C46.5499 159.456 45.6459 160.472 44.4779 161.208C43.3099 161.928 41.9419 162.288 40.3739 162.288ZM40.3739 160.512C41.5259 160.512 42.5259 160.24 43.3739 159.696C44.2379 159.136 44.9019 158.344 45.3659 157.32C45.8459 156.28 46.0859 155.04 46.0859 153.6C46.0859 152.16 45.8459 150.928 45.3659 149.904C44.9019 148.864 44.2379 148.072 43.3739 147.528C42.5259 146.984 41.5259 146.712 40.3739 146.712C39.2379 146.712 38.2379 146.984 37.3739 147.528C36.5259 148.072 35.8619 148.864 35.3819 149.904C34.9019 150.928 34.6619 152.16 34.6619 153.6C34.6619 155.04 34.9019 156.28 35.3819 157.32C35.8619 158.344 36.5259 159.136 37.3739 159.696C38.2379 160.24 39.2379 160.512 40.3739 160.512ZM51.1761 162V145.2H53.1921V160.392H61.0161V162H51.1761ZM65.1663 162V146.856H60.1503V145.2H72.1983V146.856H67.1823V162H65.1663ZM71.7987 162L77.9907 145.2H80.1267L86.2947 162H84.1347L79.0467 147.72L73.9107 162H71.7987ZM74.6307 157.68L75.2067 156.048H82.8147L83.3907 157.68H74.6307ZM95.1027 162.288C93.5347 162.288 92.1587 161.928 90.9747 161.208C89.7907 160.472 88.8707 159.456 88.2147 158.16C87.5587 156.864 87.2307 155.352 87.2307 153.624C87.2307 151.912 87.5587 150.4 88.2147 149.088C88.8867 147.776 89.8307 146.752 91.0467 146.016C92.2787 145.28 93.7267 144.912 95.3907 144.912C97.2787 144.912 98.8547 145.368 100.119 146.28C101.383 147.176 102.191 148.432 102.543 150.048H100.215C99.9907 149.04 99.4627 148.24 98.6307 147.648C97.7987 147.056 96.7187 146.76 95.3907 146.76C94.1587 146.76 93.0787 147.04 92.1507 147.6C91.2387 148.144 90.5347 148.928 90.0387 149.952C89.5427 150.976 89.2947 152.2 89.2947 153.624C89.2947 155.048 89.5427 156.28 90.0387 157.32C90.5347 158.344 91.2227 159.128 92.1027 159.672C92.9987 160.216 94.0227 160.488 95.1747 160.488C96.9667 160.488 98.3187 159.96 99.2307 158.904C100.143 157.848 100.663 156.416 100.791 154.608H95.9427V153.024H102.855V162H101.007L100.839 159.24C100.439 159.896 99.9747 160.456 99.4467 160.92C98.9347 161.368 98.3267 161.712 97.6227 161.952C96.9187 162.176 96.0787 162.288 95.1027 162.288ZM106.184 162V145.2H116.576V146.856H108.2V152.712H115.856V154.344H108.2V160.344H116.576V162H106.184Z" fill="#0F225B"/>
</g>
<g filter="url(#filter3_d_45_45)">
<path d="M23.4298 288.52C22.5178 288.52 21.6938 288.68 20.9578 289C20.2218 289.304 19.5978 289.76 19.0858 290.368C18.5738 290.96 18.1818 291.688 17.9098 292.552C17.6378 293.4 17.5018 294.36 17.5018 295.432C17.5018 296.84 17.7178 298.064 18.1498 299.104C18.5978 300.144 19.2538 300.944 20.1178 301.504C20.9978 302.064 22.0938 302.344 23.4058 302.344C24.1578 302.344 24.8698 302.28 25.5418 302.152C26.2138 302.024 26.8698 301.864 27.5098 301.672V303.544C26.8698 303.784 26.2058 303.96 25.5178 304.072C24.8458 304.184 24.0378 304.24 23.0938 304.24C21.3498 304.24 19.8938 303.88 18.7258 303.16C17.5578 302.44 16.6778 301.416 16.0858 300.088C15.5098 298.76 15.2218 297.2 15.2218 295.408C15.2218 294.112 15.3978 292.928 15.7498 291.856C16.1178 290.784 16.6458 289.856 17.3338 289.072C18.0378 288.288 18.9018 287.688 19.9258 287.272C20.9498 286.84 22.1258 286.624 23.4538 286.624C24.3338 286.624 25.1818 286.712 25.9978 286.888C26.8138 287.064 27.5418 287.312 28.1818 287.632L27.3178 289.456C26.7898 289.216 26.1978 289 25.5418 288.808C24.9018 288.616 24.1978 288.52 23.4298 288.52ZM44.2819 297.952C44.2819 299.136 44.0419 300.208 43.5619 301.168C43.0819 302.112 42.3459 302.864 41.3539 303.424C40.3779 303.968 39.1299 304.24 37.6099 304.24C35.4819 304.24 33.8579 303.664 32.7379 302.512C31.6339 301.344 31.0819 299.808 31.0819 297.904V286.864H33.2419V297.976C33.2419 299.368 33.6099 300.448 34.3459 301.216C35.0979 301.984 36.2259 302.368 37.7299 302.368C38.7699 302.368 39.6099 302.184 40.2499 301.816C40.9059 301.432 41.3859 300.912 41.6899 300.256C41.9939 299.584 42.1459 298.816 42.1459 297.952V286.864H44.2819V297.952ZM53.5326 286.864C54.9566 286.864 56.1246 287.048 57.0366 287.416C57.9646 287.768 58.6526 288.304 59.1006 289.024C59.5486 289.744 59.7726 290.648 59.7726 291.736C59.7726 292.648 59.6046 293.408 59.2686 294.016C58.9326 294.624 58.5006 295.112 57.9726 295.48C57.4606 295.832 56.9166 296.112 56.3406 296.32L61.0446 304H58.5246L54.3726 296.92H50.9646V304H48.8046V286.864H53.5326ZM53.4126 288.736H50.9646V295.096H53.5326C54.4606 295.096 55.2206 294.976 55.8126 294.736C56.4046 294.48 56.8366 294.112 57.1086 293.632C57.3966 293.152 57.5406 292.552 57.5406 291.832C57.5406 291.08 57.3886 290.48 57.0846 290.032C56.7966 289.584 56.3486 289.256 55.7406 289.048C55.1326 288.84 54.3566 288.736 53.4126 288.736ZM68.4622 286.864C69.8863 286.864 71.0543 287.048 71.9663 287.416C72.8943 287.768 73.5823 288.304 74.0303 289.024C74.4783 289.744 74.7023 290.648 74.7023 291.736C74.7023 292.648 74.5343 293.408 74.1983 294.016C73.8623 294.624 73.4303 295.112 72.9023 295.48C72.3903 295.832 71.8463 296.112 71.2703 296.32L75.9743 304H73.4543L69.3023 296.92H65.8943V304H63.7343V286.864H68.4622ZM68.3423 288.736H65.8943V295.096H68.4622C69.3903 295.096 70.1503 294.976 70.7423 294.736C71.3343 294.48 71.7663 294.112 72.0383 293.632C72.3263 293.152 72.4703 292.552 72.4703 291.832C72.4703 291.08 72.3183 290.48 72.0143 290.032C71.7263 289.584 71.2783 289.256 70.6703 289.048C70.0623 288.84 69.2863 288.736 68.3423 288.736ZM88.2399 304H78.6639V286.864H88.2399V288.76H80.8239V294.112H87.8079V295.984H80.8239V302.104H88.2399V304ZM105.584 304H103.064L93.8959 289.768H93.7999C93.8159 290.056 93.8319 290.376 93.8479 290.728C93.8799 291.08 93.9039 291.464 93.9199 291.88C93.9359 292.28 93.9519 292.696 93.9679 293.128C93.9839 293.56 93.9919 293.992 93.9919 294.424V304H91.9999V286.864H94.4959L103.64 301.048H103.736C103.72 300.856 103.704 300.592 103.688 300.256C103.672 299.904 103.656 299.52 103.64 299.104C103.624 298.672 103.608 298.232 103.592 297.784C103.576 297.336 103.568 296.92 103.568 296.536V286.864H105.584V304ZM115.658 304H113.498V288.76H108.146V286.864H120.986V288.76H115.658V304Z" fill="#0F225B"/>
</g>
<g filter="url(#filter4_d_45_45)">
<path d="M58.8757 570.864C61.1157 570.864 62.7477 571.304 63.7717 572.184C64.7957 573.064 65.3077 574.304 65.3077 575.904C65.3077 576.608 65.1877 577.288 64.9477 577.944C64.7237 578.584 64.3477 579.16 63.8197 579.672C63.2917 580.184 62.5877 580.592 61.7077 580.896C60.8277 581.184 59.7477 581.328 58.4677 581.328H56.4997V588H54.3397V570.864H58.8757ZM58.6837 572.712H56.4997V579.48H58.2277C59.3157 579.48 60.2197 579.368 60.9397 579.144C61.6597 578.904 62.1957 578.528 62.5477 578.016C62.8997 577.504 63.0757 576.832 63.0757 576C63.0757 574.896 62.7237 574.072 62.0197 573.528C61.3157 572.984 60.2037 572.712 58.6837 572.712ZM71.031 588H68.871V570.864H78.447V572.76H71.031V578.832H77.991V580.728H71.031V588Z" fill="#0F225B"/>
</g>
<g filter="url(#filter5_d_45_45)">
<path d="M30.5515 428.864C32.7915 428.864 34.4235 429.304 35.4475 430.184C36.4715 431.064 36.9835 432.304 36.9835 433.904C36.9835 434.608 36.8635 435.288 36.6235 435.944C36.3995 436.584 36.0235 437.16 35.4955 437.672C34.9675 438.184 34.2635 438.592 33.3835 438.896C32.5035 439.184 31.4235 439.328 30.1435 439.328H28.1755V446H26.0155V428.864H30.5515ZM30.3595 430.712H28.1755V437.48H29.9035C30.9915 437.48 31.8955 437.368 32.6155 437.144C33.3355 436.904 33.8715 436.528 34.2235 436.016C34.5755 435.504 34.7515 434.832 34.7515 434C34.7515 432.896 34.3995 432.072 33.6955 431.528C32.9915 430.984 31.8795 430.712 30.3595 430.712ZM55.4988 437.408C55.4988 438.736 55.3308 439.944 54.9948 441.032C54.6588 442.104 54.1548 443.032 53.4828 443.816C52.8268 444.6 52.0028 445.2 51.0108 445.616C50.0348 446.032 48.8988 446.24 47.6028 446.24C46.2588 446.24 45.0908 446.032 44.0988 445.616C43.1068 445.184 42.2828 444.584 41.6268 443.816C40.9708 443.032 40.4828 442.096 40.1628 441.008C39.8428 439.92 39.6828 438.712 39.6828 437.384C39.6828 435.624 39.9708 434.088 40.5468 432.776C41.1228 431.464 41.9948 430.44 43.1628 429.704C44.3468 428.968 45.8348 428.6 47.6268 428.6C49.3388 428.6 50.7788 428.968 51.9468 429.704C53.1148 430.424 53.9948 431.448 54.5868 432.776C55.1948 434.088 55.4988 435.632 55.4988 437.408ZM41.9628 437.408C41.9628 438.848 42.1628 440.088 42.5628 441.128C42.9628 442.168 43.5788 442.968 44.4108 443.528C45.2588 444.088 46.3228 444.368 47.6028 444.368C48.8988 444.368 49.9548 444.088 50.7708 443.528C51.6028 442.968 52.2188 442.168 52.6188 441.128C53.0188 440.088 53.2188 438.848 53.2188 437.408C53.2188 435.248 52.7708 433.56 51.8748 432.344C50.9788 431.112 49.5628 430.496 47.6268 430.496C46.3308 430.496 45.2588 430.776 44.4108 431.336C43.5788 431.88 42.9628 432.672 42.5628 433.712C42.1628 434.736 41.9628 435.968 41.9628 437.408ZM78.7424 428.864L74.1824 446H71.9984L68.6624 434.768C68.5664 434.432 68.4704 434.088 68.3744 433.736C68.2784 433.384 68.1904 433.048 68.1104 432.728C68.0304 432.408 67.9584 432.136 67.8944 431.912C67.8464 431.672 67.8144 431.496 67.7984 431.384C67.7824 431.496 67.7504 431.672 67.7024 431.912C67.6704 432.136 67.6144 432.408 67.5344 432.728C67.4544 433.048 67.3664 433.392 67.2704 433.76C67.1904 434.112 67.0944 434.472 66.9824 434.84L63.7424 446H61.5584L57.0224 428.864H59.2784L61.9424 439.328C62.0384 439.696 62.1264 440.064 62.2064 440.432C62.2864 440.784 62.3584 441.136 62.4224 441.488C62.5024 441.824 62.5664 442.152 62.6144 442.472C62.6624 442.792 62.7104 443.104 62.7584 443.408C62.8064 443.088 62.8544 442.76 62.9024 442.424C62.9664 442.088 63.0384 441.744 63.1184 441.392C63.1984 441.024 63.2864 440.656 63.3824 440.288C63.4784 439.92 63.5744 439.56 63.6704 439.208L66.6944 428.864H68.9264L72.0704 439.28C72.1824 439.648 72.2864 440.024 72.3824 440.408C72.4784 440.776 72.5664 441.136 72.6464 441.488C72.7264 441.84 72.7904 442.184 72.8384 442.52C72.9024 442.84 72.9584 443.136 73.0064 443.408C73.0544 443.008 73.1184 442.592 73.1984 442.16C73.2784 441.712 73.3744 441.248 73.4864 440.768C73.5984 440.288 73.7184 439.8 73.8464 439.304L76.4864 428.864H78.7424ZM90.9509 446H81.3749V428.864H90.9509V430.76H83.5349V436.112H90.5189V437.984H83.5349V444.104H90.9509V446ZM99.4388 428.864C100.863 428.864 102.031 429.048 102.943 429.416C103.871 429.768 104.559 430.304 105.007 431.024C105.455 431.744 105.679 432.648 105.679 433.736C105.679 434.648 105.511 435.408 105.175 436.016C104.839 436.624 104.407 437.112 103.879 437.48C103.367 437.832 102.823 438.112 102.247 438.32L106.951 446H104.431L100.279 438.92H96.8708V446H94.7108V428.864H99.4388ZM99.3188 430.736H96.8708V437.096H99.4388C100.367 437.096 101.127 436.976 101.719 436.736C102.311 436.48 102.743 436.112 103.015 435.632C103.303 435.152 103.447 434.552 103.447 433.832C103.447 433.08 103.295 432.48 102.991 432.032C102.703 431.584 102.255 431.256 101.647 431.048C101.039 430.84 100.263 430.736 99.3188 430.736Z" fill="#0F225B"/>
</g>
<rect x="129" y="90" width="292" height="127" rx="20" fill="#0F225B"/>
<rect x="156" y="107" width="211" height="89" rx="20" fill="#F9FFD9"/>
<rect x="128" y="374" width="292" height="127" rx="20" fill="#0F225B"/>
<rect x="155" y="391" width="211" height="89" rx="20" fill="#F9FFD9"/>
<rect x="128" y="516" width="292" height="127" rx="20" fill="#0F225B"/>
<rect x="155" y="533" width="236" height="93" rx="20" fill="#F9FFD9"/>
<rect x="129" y="232" width="292" height="127" rx="20" fill="#0F225B"/>
<rect x="156" y="249" width="211" height="89" rx="20" fill="#F9FFD9"/>
<g filter="url(#filter6_d_45_45)">
<path d="M399.365 143.864L393.245 161H391.085L384.965 143.864H387.221L391.085 154.856C391.261 155.32 391.413 155.768 391.541 156.2C391.669 156.632 391.781 157.048 391.877 157.448C391.989 157.832 392.085 158.216 392.165 158.6C392.245 158.216 392.333 157.824 392.429 157.424C392.541 157.024 392.661 156.608 392.789 156.176C392.933 155.744 393.085 155.288 393.245 154.808L397.085 143.864H399.365ZM403.938 158.504V161H401.441V158.504H403.938Z" fill="white"/>
</g>
<g filter="url(#filter7_d_45_45)">
<path d="M397.576 304L395.512 298.696H388.72L386.68 304H384.496L391.192 286.792H393.136L399.808 304H397.576ZM392.944 291.592C392.896 291.464 392.816 291.232 392.704 290.896C392.592 290.56 392.48 290.216 392.368 289.864C392.272 289.496 392.192 289.216 392.128 289.024C392.048 289.344 391.96 289.672 391.864 290.008C391.784 290.328 391.696 290.624 391.6 290.896C391.52 291.168 391.448 291.4 391.384 291.592L389.44 296.776H394.864L392.944 291.592ZM404.406 301.504V304H401.91V301.504H404.406Z" fill="white"/>
</g>
<g filter="url(#filter8_d_45_45)">
<path d="M387.43 446H384.886L378.814 437.816L377.062 439.352V446H374.902V428.864H377.062V437.312C377.542 436.768 378.03 436.224 378.526 435.68C379.022 435.136 379.518 434.592 380.014 434.048L384.646 428.864H387.166L380.374 436.328L387.43 446ZM409.442 428.864L404.882 446H402.698L399.362 434.768C399.266 434.432 399.17 434.088 399.074 433.736C398.978 433.384 398.89 433.048 398.81 432.728C398.73 432.408 398.658 432.136 398.594 431.912C398.546 431.672 398.514 431.496 398.498 431.384C398.482 431.496 398.45 431.672 398.402 431.912C398.37 432.136 398.314 432.408 398.234 432.728C398.154 433.048 398.066 433.392 397.97 433.76C397.89 434.112 397.794 434.472 397.682 434.84L394.442 446H392.258L387.722 428.864H389.978L392.642 439.328C392.738 439.696 392.826 440.064 392.906 440.432C392.986 440.784 393.058 441.136 393.122 441.488C393.202 441.824 393.266 442.152 393.314 442.472C393.362 442.792 393.41 443.104 393.458 443.408C393.506 443.088 393.554 442.76 393.602 442.424C393.666 442.088 393.738 441.744 393.818 441.392C393.898 441.024 393.986 440.656 394.082 440.288C394.178 439.92 394.274 439.56 394.37 439.208L397.394 428.864H399.626L402.77 439.28C402.882 439.648 402.986 440.024 403.082 440.408C403.178 440.776 403.266 441.136 403.346 441.488C403.426 441.84 403.49 442.184 403.538 442.52C403.602 442.84 403.658 443.136 403.706 443.408C403.754 443.008 403.818 442.592 403.898 442.16C403.978 441.712 404.074 441.248 404.186 440.768C404.298 440.288 404.418 439.8 404.546 439.304L407.186 428.864H409.442ZM414.328 443.504V446H411.832V443.504H414.328Z" fill="white"/>
</g>
<line x1="71.9966" y1="61.5" x2="370.003" y2="61.5" stroke="#0F225B"/>
<defs>
<filter id="filter0_d_45_45" x="0" y="0" width="442" height="669" filterUnits="userSpaceOnUse" color-interpolation-filters="sRGB">
<feFlood flood-opacity="0" result="BackgroundImageFix"/>
<feColorMatrix in="SourceAlpha" type="matrix" values="0 0 0 0 0 0 0 0 0 0 0 0 0 0 0 0 0 0 127 0" result="hardAlpha"/>
<feOffset dy="4"/>
<feGaussianBlur stdDeviation="2"/>
<feComposite in2="hardAlpha" operator="out"/>
<feColorMatrix type="matrix" values="0 0 0 0 0 0 0 0 0 0 0 0 0 0 0 0 0 0 0.25 0"/>
<feBlend mode="normal" in2="BackgroundImageFix" result="effect1_dropShadow_45_45"/>
<feBlend mode="normal" in="SourceGraphic" in2="effect1_dropShadow_45_45" result="shape"/>
</filter>
<filter id="filter1_d_45_45" x="154.952" y="18.832" width="132.139" height="31.4879" filterUnits="userSpaceOnUse" color-interpolation-filters="sRGB">
<feFlood flood-opacity="0" result="BackgroundImageFix"/>
<feColorMatrix in="SourceAlpha" type="matrix" values="0 0 0 0 0 0 0 0 0 0 0 0 0 0 0 0 0 0 127 0" result="hardAlpha"/>
<feOffset dy="4"/>
<feGaussianBlur stdDeviation="2"/>
<feComposite in2="hardAlpha" operator="out"/>
<feColorMatrix type="matrix" values="0 0 0 0 0 0 0 0 0 0 0 0 0 0 0 0 0 0 0.25 0"/>
<feBlend mode="normal" in2="BackgroundImageFix" result="effect1_dropShadow_45_45"/>
<feBlend mode="normal" in="SourceGraphic" in2="effect1_dropShadow_45_45" result="shape"/>
</filter>
<filter id="filter2_d_45_45" x="12.552" y="144.912" width="108.024" height="25.376" filterUnits="userSpaceOnUse" color-interpolation-filters="sRGB">
<feFlood flood-opacity="0" result="BackgroundImageFix"/>
<feColorMatrix in="SourceAlpha" type="matrix" values="0 0 0 0 0 0 0 0 0 0 0 0 0 0 0 0 0 0 127 0" result="hardAlpha"/>
<feOffset dy="4"/>
<feGaussianBlur stdDeviation="2"/>
<feComposite in2="hardAlpha" operator="out"/>
<feColorMatrix type="matrix" values="0 0 0 0 0 0 0 0 0 0 0 0 0 0 0 0 0 0 0.25 0"/>
<feBlend mode="normal" in2="BackgroundImageFix" result="effect1_dropShadow_45_45"/>
<feBlend mode="normal" in="SourceGraphic" in2="effect1_dropShadow_45_45" result="shape"/>
</filter>
<filter id="filter3_d_45_45" x="11.2218" y="286.624" width="113.764" height="25.616" filterUnits="userSpaceOnUse" color-interpolation-filters="sRGB">
<feFlood flood-opacity="0" result="BackgroundImageFix"/>
<feColorMatrix in="SourceAlpha" type="matrix" values="0 0 0 0 0 0 0 0 0 0 0 0 0 0 0 0 0 0 127 0" result="hardAlpha"/>
<feOffset dy="4"/>
<feGaussianBlur stdDeviation="2"/>
<feComposite in2="hardAlpha" operator="out"/>
<feColorMatrix type="matrix" values="0 0 0 0 0 0 0 0 0 0 0 0 0 0 0 0 0 0 0.25 0"/>
<feBlend mode="normal" in2="BackgroundImageFix" result="effect1_dropShadow_45_45"/>
<feBlend mode="normal" in="SourceGraphic" in2="effect1_dropShadow_45_45" result="shape"/>
</filter>
<filter id="filter4_d_45_45" x="50.3397" y="570.864" width="32.1072" height="25.136" filterUnits="userSpaceOnUse" color-interpolation-filters="sRGB">
<feFlood flood-opacity="0" result="BackgroundImageFix"/>
<feColorMatrix in="SourceAlpha" type="matrix" values="0 0 0 0 0 0 0 0 0 0 0 0 0 0 0 0 0 0 127 0" result="hardAlpha"/>
<feOffset dy="4"/>
<feGaussianBlur stdDeviation="2"/>
<feComposite in2="hardAlpha" operator="out"/>
<feColorMatrix type="matrix" values="0 0 0 0 0 0 0 0 0 0 0 0 0 0 0 0 0 0 0.25 0"/>
<feBlend mode="normal" in2="BackgroundImageFix" result="effect1_dropShadow_45_45"/>
<feBlend mode="normal" in="SourceGraphic" in2="effect1_dropShadow_45_45" result="shape"/>
</filter>
<filter id="filter5_d_45_45" x="22.0155" y="428.6" width="88.9353" height="25.64" filterUnits="userSpaceOnUse" color-interpolation-filters="sRGB">
<feFlood flood-opacity="0" result="BackgroundImageFix"/>
<feColorMatrix in="SourceAlpha" type="matrix" values="0 0 0 0 0 0 0 0 0 0 0 0 0 0 0 0 0 0 127 0" result="hardAlpha"/>
<feOffset dy="4"/>
<feGaussianBlur stdDeviation="2"/>
<feComposite in2="hardAlpha" operator="out"/>
<feColorMatrix type="matrix" values="0 0 0 0 0 0 0 0 0 0 0 0 0 0 0 0 0 0 0.25 0"/>
<feBlend mode="normal" in2="BackgroundImageFix" result="effect1_dropShadow_45_45"/>
<feBlend mode="normal" in="SourceGraphic" in2="effect1_dropShadow_45_45" result="shape"/>
</filter>
<filter id="filter6_d_45_45" x="380.965" y="143.864" width="26.9727" height="25.136" filterUnits="userSpaceOnUse" color-interpolation-filters="sRGB">
<feFlood flood-opacity="0" result="BackgroundImageFix"/>
<feColorMatrix in="SourceAlpha" type="matrix" values="0 0 0 0 0 0 0 0 0 0 0 0 0 0 0 0 0 0 127 0" result="hardAlpha"/>
<feOffset dy="4"/>
<feGaussianBlur stdDeviation="2"/>
<feComposite in2="hardAlpha" operator="out"/>
<feColorMatrix type="matrix" values="0 0 0 0 0 0 0 0 0 0 0 0 0 0 0 0 0 0 0.25 0"/>
<feBlend mode="normal" in2="BackgroundImageFix" result="effect1_dropShadow_45_45"/>
<feBlend mode="normal" in="SourceGraphic" in2="effect1_dropShadow_45_45" result="shape"/>
</filter>
<filter id="filter7_d_45_45" x="380.496" y="286.792" width="27.9102" height="25.208" filterUnits="userSpaceOnUse" color-interpolation-filters="sRGB">
<feFlood flood-opacity="0" result="BackgroundImageFix"/>
<feColorMatrix in="SourceAlpha" type="matrix" values="0 0 0 0 0 0 0 0 0 0 0 0 0 0 0 0 0 0 127 0" result="hardAlpha"/>
<feOffset dy="4"/>
<feGaussianBlur stdDeviation="2"/>
<feComposite in2="hardAlpha" operator="out"/>
<feColorMatrix type="matrix" values="0 0 0 0 0 0 0 0 0 0 0 0 0 0 0 0 0 0 0.25 0"/>
<feBlend mode="normal" in2="BackgroundImageFix" result="effect1_dropShadow_45_45"/>
<feBlend mode="normal" in="SourceGraphic" in2="effect1_dropShadow_45_45" result="shape"/>
</filter>
<filter id="filter8_d_45_45" x="370.902" y="428.864" width="47.4259" height="25.136" filterUnits="userSpaceOnUse" color-interpolation-filters="sRGB">
<feFlood flood-opacity="0" result="BackgroundImageFix"/>
<feColorMatrix in="SourceAlpha" type="matrix" values="0 0 0 0 0 0 0 0 0 0 0 0 0 0 0 0 0 0 127 0" result="hardAlpha"/>
<feOffset dy="4"/>
<feGaussianBlur stdDeviation="2"/>
<feComposite in2="hardAlpha" operator="out"/>
<feColorMatrix type="matrix" values="0 0 0 0 0 0 0 0 0 0 0 0 0 0 0 0 0 0 0.25 0"/>
<feBlend mode="normal" in2="BackgroundImageFix" result="effect1_dropShadow_45_45"/>
<feBlend mode="normal" in="SourceGraphic" in2="effect1_dropShadow_45_45" result="shape"/>
</filter>
</defs>
</svg>
