<svg xmlns="http://www.w3.org/2000/svg" width="100%" height="100%" viewBox="0 0 442 759" fill="none">
<g filter="url(#filter0_d_39_52)">
<rect x="4" width="434" height="751" rx="20" fill="white"/>
<rect x="4.5" y="0.5" width="433" height="750" rx="19.5" stroke="#0F225B"/>
</g>
<g filter="url(#filter1_d_39_52)">
<path d="M174.331 48L171.579 40.928H162.523L159.803 48H156.891L165.819 25.056H168.411L177.307 48H174.331ZM168.155 31.456C168.091 31.2853 167.984 30.976 167.835 30.528C167.685 30.08 167.536 29.6213 167.387 29.152C167.259 28.6613 167.152 28.288 167.067 28.032C166.96 28.4587 166.843 28.896 166.715 29.344C166.608 29.7707 166.491 30.1653 166.363 30.528C166.256 30.8907 166.16 31.2 166.075 31.456L163.483 38.368H170.715L168.155 31.456ZM195.386 25.152C198.373 25.152 200.549 25.7387 201.914 26.912C203.28 28.0853 203.962 29.7387 203.962 31.872C203.962 32.8107 203.802 33.7173 203.482 34.592C203.184 35.4453 202.682 36.2133 201.978 36.896C201.274 37.5787 200.336 38.1227 199.162 38.528C197.989 38.912 196.549 39.104 194.842 39.104H192.218V48H189.338V25.152H195.386ZM195.13 27.616H192.218V36.64H194.522C195.973 36.64 197.178 36.4907 198.138 36.192C199.098 35.872 199.813 35.3707 200.282 34.688C200.752 34.0053 200.986 33.1093 200.986 32C200.986 30.528 200.517 29.4293 199.578 28.704C198.64 27.9787 197.157 27.616 195.13 27.616ZM226.185 48H223.305V37.344H211.593V48H208.713V25.152H211.593V34.816H223.305V25.152H226.185V48ZM246.768 48L244.016 40.928H234.96L232.24 48H229.328L238.256 25.056H240.848L249.744 48H246.768ZM240.592 31.456C240.528 31.2853 240.421 30.976 240.272 30.528C240.123 30.08 239.973 29.6213 239.824 29.152C239.696 28.6613 239.589 28.288 239.504 28.032C239.397 28.4587 239.28 28.896 239.152 29.344C239.045 29.7707 238.928 30.1653 238.8 30.528C238.693 30.8907 238.597 31.2 238.512 31.456L235.92 38.368H243.152L240.592 31.456ZM265.83 41.888C265.83 43.2533 265.499 44.416 264.838 45.376C264.176 46.3147 263.227 47.04 261.99 47.552C260.774 48.064 259.334 48.32 257.67 48.32C256.816 48.32 255.995 48.2773 255.206 48.192C254.438 48.1067 253.734 47.9893 253.094 47.84C252.454 47.6693 251.888 47.4667 251.398 47.232V44.48C252.166 44.8213 253.115 45.1307 254.246 45.408C255.398 45.6853 256.582 45.824 257.798 45.824C258.928 45.824 259.878 45.6747 260.646 45.376C261.414 45.0773 261.99 44.6507 262.374 44.096C262.758 43.5413 262.95 42.8907 262.95 42.144C262.95 41.3973 262.79 40.768 262.47 40.256C262.15 39.744 261.595 39.2747 260.806 38.848C260.038 38.4 258.96 37.9307 257.574 37.44C256.592 37.0773 255.728 36.6933 254.982 36.288C254.256 35.8613 253.648 35.3813 253.158 34.848C252.667 34.3147 252.294 33.7067 252.038 33.024C251.803 32.3413 251.686 31.552 251.686 30.656C251.686 29.44 251.995 28.4053 252.614 27.552C253.232 26.6773 254.086 26.0053 255.174 25.536C256.283 25.0667 257.552 24.832 258.982 24.832C260.24 24.832 261.392 24.9493 262.438 25.184C263.483 25.4187 264.432 25.728 265.286 26.112L264.39 28.576C263.6 28.2347 262.736 27.9467 261.798 27.712C260.88 27.4773 259.92 27.36 258.918 27.36C257.958 27.36 257.158 27.4987 256.518 27.776C255.878 28.0533 255.398 28.448 255.078 28.96C254.758 29.4507 254.598 30.0267 254.598 30.688C254.598 31.456 254.758 32.096 255.078 32.608C255.398 33.12 255.92 33.5787 256.646 33.984C257.371 34.3893 258.352 34.8267 259.59 35.296C260.934 35.7867 262.064 36.32 262.982 36.896C263.92 37.4507 264.624 38.1227 265.094 38.912C265.584 39.7013 265.83 40.6933 265.83 41.888ZM283.2 48H270.432V25.152H283.2V27.68H273.312V34.816H282.624V37.312H273.312V45.472H283.2V48Z" fill="#0F225B"/>
</g>
<g filter="url(#filter2_d_39_52)">
<path d="M22.6642 168L16.3522 151.2H18.5362L23.8402 165.864L29.1922 151.2H31.3282L25.0162 168H22.6642ZM40.6072 168.288C38.9592 168.288 37.5112 167.928 36.2632 167.208C35.0312 166.472 34.0632 165.456 33.3592 164.16C32.6712 162.848 32.3272 161.328 32.3272 159.6C32.3272 157.888 32.6712 156.384 33.3592 155.088C34.0632 153.776 35.0312 152.752 36.2632 152.016C37.5112 151.28 38.9592 150.912 40.6072 150.912C42.2712 150.912 43.7192 151.28 44.9512 152.016C46.1992 152.752 47.1672 153.776 47.8552 155.088C48.5432 156.384 48.8872 157.888 48.8872 159.6C48.8872 161.328 48.5432 162.848 47.8552 164.16C47.1672 165.456 46.1992 166.472 44.9512 167.208C43.7192 167.928 42.2712 168.288 40.6072 168.288ZM40.6072 166.512C41.8392 166.512 42.9192 166.24 43.8472 165.696C44.7912 165.136 45.5192 164.344 46.0312 163.32C46.5592 162.28 46.8232 161.04 46.8232 159.6C46.8232 158.16 46.5592 156.928 46.0312 155.904C45.5192 154.864 44.7912 154.072 43.8472 153.528C42.9192 152.984 41.8392 152.712 40.6072 152.712C39.3752 152.712 38.2872 152.984 37.3432 153.528C36.4152 154.072 35.6872 154.864 35.1592 155.904C34.6472 156.928 34.3912 158.16 34.3912 159.6C34.3912 161.04 34.6472 162.28 35.1592 163.32C35.6872 164.344 36.4152 165.136 37.3432 165.696C38.2872 166.24 39.3752 166.512 40.6072 166.512ZM51.7955 168V151.2H53.8115V166.392H61.6355V168H51.7955ZM65.669 168V152.856H60.653V151.2H72.701V152.856H67.685V168H65.669ZM72.2083 168L78.4003 151.2H80.5363L86.7043 168H84.5683L79.4563 153.72L74.3203 168H72.2083ZM75.0403 163.68L75.6163 162.048H83.2243L83.8003 163.68H75.0403ZM95.4648 168.288C93.8968 168.288 92.5208 167.928 91.3368 167.208C90.1528 166.472 89.2328 165.456 88.5768 164.16C87.9208 162.864 87.5928 161.352 87.5928 159.624C87.5928 157.912 87.9208 156.4 88.5768 155.088C89.2488 153.776 90.1928 152.752 91.4088 152.016C92.6408 151.28 94.0888 150.912 95.7528 150.912C97.6408 150.912 99.2168 151.368 100.481 152.28C101.745 153.176 102.553 154.432 102.905 156.048H100.577C100.353 155.04 99.8248 154.24 98.9928 153.648C98.1608 153.056 97.0808 152.76 95.7528 152.76C94.5208 152.76 93.4408 153.04 92.5128 153.6C91.6008 154.144 90.8968 154.928 90.4008 155.952C89.9048 156.976 89.6568 158.2 89.6568 159.624C89.6568 161.048 89.9048 162.28 90.4008 163.32C90.8968 164.344 91.5848 165.128 92.4648 165.672C93.3608 166.216 94.3848 166.488 95.5368 166.488C97.3288 166.488 98.6808 165.96 99.5928 164.904C100.505 163.848 101.025 162.416 101.153 160.608H96.3048V159.024H103.217V168H101.369L101.201 165.24C100.801 165.896 100.337 166.456 99.8088 166.92C99.2968 167.368 98.6888 167.712 97.9848 167.952C97.2808 168.176 96.4408 168.288 95.4648 168.288ZM106.405 168V151.2H116.797V152.856H108.421V158.712H116.077V160.344H108.421V166.344H116.797V168H106.405Z" fill="#0F225B"/>
</g>
<g filter="url(#filter3_d_39_52)">
<path d="M23.4298 310.52C22.5178 310.52 21.6938 310.68 20.9578 311C20.2218 311.304 19.5978 311.76 19.0858 312.368C18.5738 312.96 18.1818 313.688 17.9098 314.552C17.6378 315.4 17.5018 316.36 17.5018 317.432C17.5018 318.84 17.7178 320.064 18.1498 321.104C18.5978 322.144 19.2538 322.944 20.1178 323.504C20.9978 324.064 22.0938 324.344 23.4058 324.344C24.1578 324.344 24.8698 324.28 25.5418 324.152C26.2138 324.024 26.8698 323.864 27.5098 323.672V325.544C26.8698 325.784 26.2058 325.96 25.5178 326.072C24.8458 326.184 24.0378 326.24 23.0938 326.24C21.3498 326.24 19.8938 325.88 18.7258 325.16C17.5578 324.44 16.6778 323.416 16.0858 322.088C15.5098 320.76 15.2218 319.2 15.2218 317.408C15.2218 316.112 15.3978 314.928 15.7498 313.856C16.1178 312.784 16.6458 311.856 17.3338 311.072C18.0378 310.288 18.9018 309.688 19.9258 309.272C20.9498 308.84 22.1258 308.624 23.4538 308.624C24.3338 308.624 25.1818 308.712 25.9978 308.888C26.8138 309.064 27.5418 309.312 28.1818 309.632L27.3178 311.456C26.7898 311.216 26.1978 311 25.5418 310.808C24.9018 310.616 24.1978 310.52 23.4298 310.52ZM44.2819 319.952C44.2819 321.136 44.0419 322.208 43.5619 323.168C43.0819 324.112 42.3459 324.864 41.3539 325.424C40.3779 325.968 39.1299 326.24 37.6099 326.24C35.4819 326.24 33.8579 325.664 32.7379 324.512C31.6339 323.344 31.0819 321.808 31.0819 319.904V308.864H33.2419V319.976C33.2419 321.368 33.6099 322.448 34.3459 323.216C35.0979 323.984 36.2259 324.368 37.7299 324.368C38.7699 324.368 39.6099 324.184 40.2499 323.816C40.9059 323.432 41.3859 322.912 41.6899 322.256C41.9939 321.584 42.1459 320.816 42.1459 319.952V308.864H44.2819V319.952ZM53.5326 308.864C54.9566 308.864 56.1246 309.048 57.0366 309.416C57.9646 309.768 58.6526 310.304 59.1006 311.024C59.5486 311.744 59.7726 312.648 59.7726 313.736C59.7726 314.648 59.6046 315.408 59.2686 316.016C58.9326 316.624 58.5006 317.112 57.9726 317.48C57.4606 317.832 56.9166 318.112 56.3406 318.32L61.0446 326H58.5246L54.3726 318.92H50.9646V326H48.8046V308.864H53.5326ZM53.4126 310.736H50.9646V317.096H53.5326C54.4606 317.096 55.2206 316.976 55.8126 316.736C56.4046 316.48 56.8366 316.112 57.1086 315.632C57.3966 315.152 57.5406 314.552 57.5406 313.832C57.5406 313.08 57.3886 312.48 57.0846 312.032C56.7966 311.584 56.3486 311.256 55.7406 311.048C55.1326 310.84 54.3566 310.736 53.4126 310.736ZM68.4622 308.864C69.8863 308.864 71.0543 309.048 71.9663 309.416C72.8943 309.768 73.5823 310.304 74.0303 311.024C74.4783 311.744 74.7023 312.648 74.7023 313.736C74.7023 314.648 74.5343 315.408 74.1983 316.016C73.8623 316.624 73.4303 317.112 72.9023 317.48C72.3903 317.832 71.8463 318.112 71.2703 318.32L75.9743 326H73.4543L69.3023 318.92H65.8943V326H63.7343V308.864H68.4622ZM68.3423 310.736H65.8943V317.096H68.4622C69.3903 317.096 70.1503 316.976 70.7423 316.736C71.3343 316.48 71.7663 316.112 72.0383 315.632C72.3263 315.152 72.4703 314.552 72.4703 313.832C72.4703 313.08 72.3183 312.48 72.0143 312.032C71.7263 311.584 71.2783 311.256 70.6703 311.048C70.0623 310.84 69.2863 310.736 68.3423 310.736ZM88.2399 326H78.6639V308.864H88.2399V310.76H80.8239V316.112H87.8079V317.984H80.8239V324.104H88.2399V326ZM105.584 326H103.064L93.8959 311.768H93.7999C93.8159 312.056 93.8319 312.376 93.8479 312.728C93.8799 313.08 93.9039 313.464 93.9199 313.88C93.9359 314.28 93.9519 314.696 93.9679 315.128C93.9839 315.56 93.9919 315.992 93.9919 316.424V326H91.9999V308.864H94.4959L103.64 323.048H103.736C103.72 322.856 103.704 322.592 103.688 322.256C103.672 321.904 103.656 321.52 103.64 321.104C103.624 320.672 103.608 320.232 103.592 319.784C103.576 319.336 103.568 318.92 103.568 318.536V308.864H105.584V326ZM115.658 326H113.498V310.76H108.146V308.864H120.986V310.76H115.658V326Z" fill="#0F225B"/>
</g>
<g filter="url(#filter4_d_39_52)">
<path d="M60.8757 624.864C63.1157 624.864 64.7477 625.304 65.7717 626.184C66.7957 627.064 67.3077 628.304 67.3077 629.904C67.3077 630.608 67.1877 631.288 66.9477 631.944C66.7237 632.584 66.3477 633.16 65.8197 633.672C65.2917 634.184 64.5877 634.592 63.7077 634.896C62.8277 635.184 61.7477 635.328 60.4677 635.328H58.4997V642H56.3397V624.864H60.8757ZM60.6837 626.712H58.4997V633.48H60.2277C61.3157 633.48 62.2197 633.368 62.9397 633.144C63.6597 632.904 64.1957 632.528 64.5477 632.016C64.8997 631.504 65.0757 630.832 65.0757 630C65.0757 628.896 64.7237 628.072 64.0197 627.528C63.3157 626.984 62.2037 626.712 60.6837 626.712ZM73.031 642H70.871V624.864H80.447V626.76H73.031V632.832H79.991V634.728H73.031V642Z" fill="#0F225B"/>
</g>
<g filter="url(#filter5_d_39_52)">
<path d="M31.0515 466.864C33.2915 466.864 34.9235 467.304 35.9475 468.184C36.9715 469.064 37.4835 470.304 37.4835 471.904C37.4835 472.608 37.3635 473.288 37.1235 473.944C36.8995 474.584 36.5235 475.16 35.9955 475.672C35.4675 476.184 34.7635 476.592 33.8835 476.896C33.0035 477.184 31.9235 477.328 30.6435 477.328H28.6755V484H26.5155V466.864H31.0515ZM30.8595 468.712H28.6755V475.48H30.4035C31.4915 475.48 32.3955 475.368 33.1155 475.144C33.8355 474.904 34.3715 474.528 34.7235 474.016C35.0755 473.504 35.2515 472.832 35.2515 472C35.2515 470.896 34.8995 470.072 34.1955 469.528C33.4915 468.984 32.3795 468.712 30.8595 468.712ZM55.9988 475.408C55.9988 476.736 55.8308 477.944 55.4948 479.032C55.1588 480.104 54.6548 481.032 53.9828 481.816C53.3268 482.6 52.5028 483.2 51.5108 483.616C50.5348 484.032 49.3988 484.24 48.1028 484.24C46.7588 484.24 45.5908 484.032 44.5988 483.616C43.6068 483.184 42.7828 482.584 42.1268 481.816C41.4708 481.032 40.9828 480.096 40.6628 479.008C40.3428 477.92 40.1828 476.712 40.1828 475.384C40.1828 473.624 40.4708 472.088 41.0468 470.776C41.6228 469.464 42.4948 468.44 43.6628 467.704C44.8468 466.968 46.3348 466.6 48.1268 466.6C49.8388 466.6 51.2788 466.968 52.4468 467.704C53.6148 468.424 54.4948 469.448 55.0868 470.776C55.6948 472.088 55.9988 473.632 55.9988 475.408ZM42.4628 475.408C42.4628 476.848 42.6628 478.088 43.0628 479.128C43.4628 480.168 44.0788 480.968 44.9108 481.528C45.7588 482.088 46.8228 482.368 48.1028 482.368C49.3988 482.368 50.4548 482.088 51.2708 481.528C52.1028 480.968 52.7188 480.168 53.1188 479.128C53.5188 478.088 53.7188 476.848 53.7188 475.408C53.7188 473.248 53.2708 471.56 52.3748 470.344C51.4788 469.112 50.0628 468.496 48.1268 468.496C46.8308 468.496 45.7588 468.776 44.9108 469.336C44.0788 469.88 43.4628 470.672 43.0628 471.712C42.6628 472.736 42.4628 473.968 42.4628 475.408ZM79.2424 466.864L74.6824 484H72.4984L69.1624 472.768C69.0664 472.432 68.9704 472.088 68.8744 471.736C68.7784 471.384 68.6904 471.048 68.6104 470.728C68.5304 470.408 68.4584 470.136 68.3944 469.912C68.3464 469.672 68.3144 469.496 68.2984 469.384C68.2824 469.496 68.2504 469.672 68.2024 469.912C68.1704 470.136 68.1144 470.408 68.0344 470.728C67.9544 471.048 67.8664 471.392 67.7704 471.76C67.6904 472.112 67.5944 472.472 67.4824 472.84L64.2424 484H62.0584L57.5224 466.864H59.7784L62.4424 477.328C62.5384 477.696 62.6264 478.064 62.7064 478.432C62.7864 478.784 62.8584 479.136 62.9224 479.488C63.0024 479.824 63.0664 480.152 63.1144 480.472C63.1624 480.792 63.2104 481.104 63.2584 481.408C63.3064 481.088 63.3544 480.76 63.4024 480.424C63.4664 480.088 63.5384 479.744 63.6184 479.392C63.6984 479.024 63.7864 478.656 63.8824 478.288C63.9784 477.92 64.0744 477.56 64.1704 477.208L67.1944 466.864H69.4264L72.5704 477.28C72.6824 477.648 72.7864 478.024 72.8824 478.408C72.9784 478.776 73.0664 479.136 73.1464 479.488C73.2264 479.84 73.2904 480.184 73.3384 480.52C73.4024 480.84 73.4584 481.136 73.5064 481.408C73.5544 481.008 73.6184 480.592 73.6984 480.16C73.7784 479.712 73.8744 479.248 73.9864 478.768C74.0984 478.288 74.2184 477.8 74.3464 477.304L76.9864 466.864H79.2424ZM91.4509 484H81.8749V466.864H91.4509V468.76H84.0349V474.112H91.0189V475.984H84.0349V482.104H91.4509V484ZM99.9388 466.864C101.363 466.864 102.531 467.048 103.443 467.416C104.371 467.768 105.059 468.304 105.507 469.024C105.955 469.744 106.179 470.648 106.179 471.736C106.179 472.648 106.011 473.408 105.675 474.016C105.339 474.624 104.907 475.112 104.379 475.48C103.867 475.832 103.323 476.112 102.747 476.32L107.451 484H104.931L100.779 476.92H97.3708V484H95.2108V466.864H99.9388ZM99.8188 468.736H97.3708V475.096H99.9388C100.867 475.096 101.627 474.976 102.219 474.736C102.811 474.48 103.243 474.112 103.515 473.632C103.803 473.152 103.947 472.552 103.947 471.832C103.947 471.08 103.795 470.48 103.491 470.032C103.203 469.584 102.755 469.256 102.147 469.048C101.539 468.84 100.763 468.736 99.8188 468.736Z" fill="#0F225B"/>
</g>
<rect x="129" y="96" width="292" height="127" rx="20" fill="#0F225B"/>
<rect x="156" y="113" width="211" height="89" rx="20" fill="#F9FFD9"/>
<rect x="127" y="412" width="292" height="127" rx="20" fill="#0F225B"/>
<rect x="154" y="429" width="211" height="89" rx="20" fill="#F9FFD9"/>
<rect x="127" y="570" width="292" height="127" rx="20" fill="#0F225B"/>
<rect x="154" y="586" width="236" height="89" rx="20" fill="#F9FFD9"/>
<rect x="129" y="254" width="292" height="127" rx="20" fill="#0F225B"/>
<rect x="156" y="271" width="211" height="89" rx="20" fill="#F9FFD9"/>
<g filter="url(#filter6_d_39_52)">
<path d="M399.365 149.864L393.245 167H391.085L384.965 149.864H387.221L391.085 160.856C391.261 161.32 391.413 161.768 391.541 162.2C391.669 162.632 391.781 163.048 391.877 163.448C391.989 163.832 392.085 164.216 392.165 164.6C392.245 164.216 392.333 163.824 392.429 163.424C392.541 163.024 392.661 162.608 392.789 162.176C392.933 161.744 393.085 161.288 393.245 160.808L397.085 149.864H399.365ZM403.938 164.504V167H401.441V164.504H403.938Z" fill="white"/>
</g>
<g filter="url(#filter7_d_39_52)">
<path d="M397.576 326L395.512 320.696H388.72L386.68 326H384.496L391.192 308.792H393.136L399.808 326H397.576ZM392.944 313.592C392.896 313.464 392.816 313.232 392.704 312.896C392.592 312.56 392.48 312.216 392.368 311.864C392.272 311.496 392.192 311.216 392.128 311.024C392.048 311.344 391.96 311.672 391.864 312.008C391.784 312.328 391.696 312.624 391.6 312.896C391.52 313.168 391.448 313.4 391.384 313.592L389.44 318.776H394.864L392.944 313.592ZM404.406 323.504V326H401.91V323.504H404.406Z" fill="white"/>
</g>
<g filter="url(#filter8_d_39_52)">
<path d="M386.43 484H383.886L377.814 475.816L376.062 477.352V484H373.902V466.864H376.062V475.312C376.542 474.768 377.03 474.224 377.526 473.68C378.022 473.136 378.518 472.592 379.014 472.048L383.646 466.864H386.166L379.374 474.328L386.43 484ZM408.442 466.864L403.882 484H401.698L398.362 472.768C398.266 472.432 398.17 472.088 398.074 471.736C397.978 471.384 397.89 471.048 397.81 470.728C397.73 470.408 397.658 470.136 397.594 469.912C397.546 469.672 397.514 469.496 397.498 469.384C397.482 469.496 397.45 469.672 397.402 469.912C397.37 470.136 397.314 470.408 397.234 470.728C397.154 471.048 397.066 471.392 396.97 471.76C396.89 472.112 396.794 472.472 396.682 472.84L393.442 484H391.258L386.722 466.864H388.978L391.642 477.328C391.738 477.696 391.826 478.064 391.906 478.432C391.986 478.784 392.058 479.136 392.122 479.488C392.202 479.824 392.266 480.152 392.314 480.472C392.362 480.792 392.41 481.104 392.458 481.408C392.506 481.088 392.554 480.76 392.602 480.424C392.666 480.088 392.738 479.744 392.818 479.392C392.898 479.024 392.986 478.656 393.082 478.288C393.178 477.92 393.274 477.56 393.37 477.208L396.394 466.864H398.626L401.77 477.28C401.882 477.648 401.986 478.024 402.082 478.408C402.178 478.776 402.266 479.136 402.346 479.488C402.426 479.84 402.49 480.184 402.538 480.52C402.602 480.84 402.658 481.136 402.706 481.408C402.754 481.008 402.818 480.592 402.898 480.16C402.978 479.712 403.074 479.248 403.186 478.768C403.298 478.288 403.418 477.8 403.546 477.304L406.186 466.864H408.442ZM413.328 481.504V484H410.832V481.504H413.328Z" fill="white"/>
</g>
<line x1="71.9966" y1="67.5" x2="370.003" y2="67.5" stroke="#0F225B"/>
<defs>
<filter id="filter0_d_39_52" x="0" y="0" width="442" height="759" filterUnits="userSpaceOnUse" color-interpolation-filters="sRGB">
<feFlood flood-opacity="0" result="BackgroundImageFix"/>
<feColorMatrix in="SourceAlpha" type="matrix" values="0 0 0 0 0 0 0 0 0 0 0 0 0 0 0 0 0 0 127 0" result="hardAlpha"/>
<feOffset dy="4"/>
<feGaussianBlur stdDeviation="2"/>
<feComposite in2="hardAlpha" operator="out"/>
<feColorMatrix type="matrix" values="0 0 0 0 0 0 0 0 0 0 0 0 0 0 0 0 0 0 0.25 0"/>
<feBlend mode="normal" in2="BackgroundImageFix" result="effect1_dropShadow_39_52"/>
<feBlend mode="normal" in="SourceGraphic" in2="effect1_dropShadow_39_52" result="shape"/>
</filter>
<filter id="filter1_d_39_52" x="152.891" y="24.832" width="134.309" height="31.4879" filterUnits="userSpaceOnUse" color-interpolation-filters="sRGB">
<feFlood flood-opacity="0" result="BackgroundImageFix"/>
<feColorMatrix in="SourceAlpha" type="matrix" values="0 0 0 0 0 0 0 0 0 0 0 0 0 0 0 0 0 0 127 0" result="hardAlpha"/>
<feOffset dy="4"/>
<feGaussianBlur stdDeviation="2"/>
<feComposite in2="hardAlpha" operator="out"/>
<feColorMatrix type="matrix" values="0 0 0 0 0 0 0 0 0 0 0 0 0 0 0 0 0 0 0.25 0"/>
<feBlend mode="normal" in2="BackgroundImageFix" result="effect1_dropShadow_39_52"/>
<feBlend mode="normal" in="SourceGraphic" in2="effect1_dropShadow_39_52" result="shape"/>
</filter>
<filter id="filter2_d_39_52" x="12.552" y="150.912" width="108.024" height="25.376" filterUnits="userSpaceOnUse" color-interpolation-filters="sRGB">
<feFlood flood-opacity="0" result="BackgroundImageFix"/>
<feColorMatrix in="SourceAlpha" type="matrix" values="0 0 0 0 0 0 0 0 0 0 0 0 0 0 0 0 0 0 127 0" result="hardAlpha"/>
<feOffset dy="4"/>
<feGaussianBlur stdDeviation="2"/>
<feComposite in2="hardAlpha" operator="out"/>
<feColorMatrix type="matrix" values="0 0 0 0 0 0 0 0 0 0 0 0 0 0 0 0 0 0 0.25 0"/>
<feBlend mode="normal" in2="BackgroundImageFix" result="effect1_dropShadow_39_52"/>
<feBlend mode="normal" in="SourceGraphic" in2="effect1_dropShadow_39_52" result="shape"/>
</filter>
<filter id="filter3_d_39_52" x="11.2218" y="308.624" width="113.764" height="25.616" filterUnits="userSpaceOnUse" color-interpolation-filters="sRGB">
<feFlood flood-opacity="0" result="BackgroundImageFix"/>
<feColorMatrix in="SourceAlpha" type="matrix" values="0 0 0 0 0 0 0 0 0 0 0 0 0 0 0 0 0 0 127 0" result="hardAlpha"/>
<feOffset dy="4"/>
<feGaussianBlur stdDeviation="2"/>
<feComposite in2="hardAlpha" operator="out"/>
<feColorMatrix type="matrix" values="0 0 0 0 0 0 0 0 0 0 0 0 0 0 0 0 0 0 0.25 0"/>
<feBlend mode="normal" in2="BackgroundImageFix" result="effect1_dropShadow_39_52"/>
<feBlend mode="normal" in="SourceGraphic" in2="effect1_dropShadow_39_52" result="shape"/>
</filter>
<filter id="filter4_d_39_52" x="52.3397" y="624.864" width="32.1073" height="25.136" filterUnits="userSpaceOnUse" color-interpolation-filters="sRGB">
<feFlood flood-opacity="0" result="BackgroundImageFix"/>
<feColorMatrix in="SourceAlpha" type="matrix" values="0 0 0 0 0 0 0 0 0 0 0 0 0 0 0 0 0 0 127 0" result="hardAlpha"/>
<feOffset dy="4"/>
<feGaussianBlur stdDeviation="2"/>
<feComposite in2="hardAlpha" operator="out"/>
<feColorMatrix type="matrix" values="0 0 0 0 0 0 0 0 0 0 0 0 0 0 0 0 0 0 0.25 0"/>
<feBlend mode="normal" in2="BackgroundImageFix" result="effect1_dropShadow_39_52"/>
<feBlend mode="normal" in="SourceGraphic" in2="effect1_dropShadow_39_52" result="shape"/>
</filter>
<filter id="filter5_d_39_52" x="22.5155" y="466.6" width="88.9353" height="25.6399" filterUnits="userSpaceOnUse" color-interpolation-filters="sRGB">
<feFlood flood-opacity="0" result="BackgroundImageFix"/>
<feColorMatrix in="SourceAlpha" type="matrix" values="0 0 0 0 0 0 0 0 0 0 0 0 0 0 0 0 0 0 127 0" result="hardAlpha"/>
<feOffset dy="4"/>
<feGaussianBlur stdDeviation="2"/>
<feComposite in2="hardAlpha" operator="out"/>
<feColorMatrix type="matrix" values="0 0 0 0 0 0 0 0 0 0 0 0 0 0 0 0 0 0 0.25 0"/>
<feBlend mode="normal" in2="BackgroundImageFix" result="effect1_dropShadow_39_52"/>
<feBlend mode="normal" in="SourceGraphic" in2="effect1_dropShadow_39_52" result="shape"/>
</filter>
<filter id="filter6_d_39_52" x="380.965" y="149.864" width="26.9727" height="25.136" filterUnits="userSpaceOnUse" color-interpolation-filters="sRGB">
<feFlood flood-opacity="0" result="BackgroundImageFix"/>
<feColorMatrix in="SourceAlpha" type="matrix" values="0 0 0 0 0 0 0 0 0 0 0 0 0 0 0 0 0 0 127 0" result="hardAlpha"/>
<feOffset dy="4"/>
<feGaussianBlur stdDeviation="2"/>
<feComposite in2="hardAlpha" operator="out"/>
<feColorMatrix type="matrix" values="0 0 0 0 0 0 0 0 0 0 0 0 0 0 0 0 0 0 0.25 0"/>
<feBlend mode="normal" in2="BackgroundImageFix" result="effect1_dropShadow_39_52"/>
<feBlend mode="normal" in="SourceGraphic" in2="effect1_dropShadow_39_52" result="shape"/>
</filter>
<filter id="filter7_d_39_52" x="380.496" y="308.792" width="27.9102" height="25.208" filterUnits="userSpaceOnUse" color-interpolation-filters="sRGB">
<feFlood flood-opacity="0" result="BackgroundImageFix"/>
<feColorMatrix in="SourceAlpha" type="matrix" values="0 0 0 0 0 0 0 0 0 0 0 0 0 0 0 0 0 0 127 0" result="hardAlpha"/>
<feOffset dy="4"/>
<feGaussianBlur stdDeviation="2"/>
<feComposite in2="hardAlpha" operator="out"/>
<feColorMatrix type="matrix" values="0 0 0 0 0 0 0 0 0 0 0 0 0 0 0 0 0 0 0.25 0"/>
<feBlend mode="normal" in2="BackgroundImageFix" result="effect1_dropShadow_39_52"/>
<feBlend mode="normal" in="SourceGraphic" in2="effect1_dropShadow_39_52" result="shape"/>
</filter>
<filter id="filter8_d_39_52" x="369.902" y="466.864" width="47.4259" height="25.136" filterUnits="userSpaceOnUse" color-interpolation-filters="sRGB">
<feFlood flood-opacity="0" result="BackgroundImageFix"/>
<feColorMatrix in="SourceAlpha" type="matrix" values="0 0 0 0 0 0 0 0 0 0 0 0 0 0 0 0 0 0 127 0" result="hardAlpha"/>
<feOffset dy="4"/>
<feGaussianBlur stdDeviation="2"/>
<feComposite in2="hardAlpha" operator="out"/>
<feColorMatrix type="matrix" values="0 0 0 0 0 0 0 0 0 0 0 0 0 0 0 0 0 0 0.25 0"/>
<feBlend mode="normal" in2="BackgroundImageFix" result="effect1_dropShadow_39_52"/>
<feBlend mode="normal" in="SourceGraphic" in2="effect1_dropShadow_39_52" result="shape"/>
</filter>
</defs>
</svg>
