<svg xmlns="http://www.w3.org/2000/svg" width="100%" height="100%" viewBox="0 0 406 603" fill="none">
<path d="M0 10C0 4.47715 4.47715 0 10 0H396C401.523 0 406 4.47715 406 10V593C406 598.523 401.523 603 396 603H10C4.47715 603 0 598.523 0 593V10Z" fill="#555555"/>
<g filter="url(#filter0_d_31_63)">
<path d="M18.8972 100.864L12.7772 118H10.6172L4.49723 100.864H6.75323L10.6172 111.856C10.7932 112.32 10.9452 112.768 11.0732 113.2C11.2012 113.632 11.3132 114.048 11.4092 114.448C11.5212 114.832 11.6172 115.216 11.6972 115.6C11.7772 115.216 11.8652 114.824 11.9612 114.424C12.0732 114.024 12.1932 113.608 12.3212 113.176C12.4652 112.744 12.6172 112.288 12.7772 111.808L16.6172 100.864H18.8972ZM35.9335 109.408C35.9335 110.736 35.7655 111.944 35.4295 113.032C35.0935 114.104 34.5895 115.032 33.9175 115.816C33.2615 116.6 32.4375 117.2 31.4455 117.616C30.4695 118.032 29.3335 118.24 28.0375 118.24C26.6935 118.24 25.5255 118.032 24.5335 117.616C23.5415 117.184 22.7175 116.584 22.0615 115.816C21.4055 115.032 20.9175 114.096 20.5975 113.008C20.2775 111.92 20.1175 110.712 20.1175 109.384C20.1175 107.624 20.4055 106.088 20.9815 104.776C21.5575 103.464 22.4295 102.44 23.5975 101.704C24.7815 100.968 26.2695 100.6 28.0615 100.6C29.7735 100.6 31.2135 100.968 32.3815 101.704C33.5495 102.424 34.4295 103.448 35.0215 104.776C35.6295 106.088 35.9335 107.632 35.9335 109.408ZM22.3975 109.408C22.3975 110.848 22.5975 112.088 22.9975 113.128C23.3975 114.168 24.0135 114.968 24.8455 115.528C25.6935 116.088 26.7575 116.368 28.0375 116.368C29.3335 116.368 30.3895 116.088 31.2055 115.528C32.0375 114.968 32.6535 114.168 33.0535 113.128C33.4535 112.088 33.6535 110.848 33.6535 109.408C33.6535 107.248 33.2055 105.56 32.3095 104.344C31.4135 103.112 29.9975 102.496 28.0615 102.496C26.7655 102.496 25.6935 102.776 24.8455 103.336C24.0135 103.88 23.3975 104.672 22.9975 105.712C22.5975 106.736 22.3975 107.968 22.3975 109.408ZM39.7315 118V100.864H41.8915V116.08H49.3795V118H39.7315ZM57.2727 118H55.1127V102.76H49.7607V100.864H62.6007V102.76H57.2727V118ZM74.2491 118L72.1851 112.696H65.3931L63.3531 118H61.1691L67.8651 100.792H69.8091L76.4811 118H74.2491ZM69.6171 105.592C69.5691 105.464 69.4891 105.232 69.3771 104.896C69.2651 104.56 69.1531 104.216 69.0411 103.864C68.9451 103.496 68.8651 103.216 68.8011 103.024C68.7211 103.344 68.6331 103.672 68.5371 104.008C68.4571 104.328 68.3691 104.624 68.2731 104.896C68.1931 105.168 68.1211 105.4 68.0571 105.592L66.1131 110.776H71.5371L69.6171 105.592ZM85.7965 108.952H91.7245V117.352C90.7965 117.656 89.8605 117.88 88.9165 118.024C87.9725 118.168 86.9005 118.24 85.7005 118.24C83.9245 118.24 82.4285 117.888 81.2125 117.184C79.9965 116.464 79.0685 115.448 78.4285 114.136C77.8045 112.808 77.4925 111.24 77.4925 109.432C77.4925 107.64 77.8445 106.088 78.5485 104.776C79.2525 103.464 80.2605 102.448 81.5725 101.728C82.9005 100.992 84.5005 100.624 86.3725 100.624C87.3325 100.624 88.2365 100.712 89.0845 100.888C89.9485 101.064 90.7485 101.312 91.4845 101.632L90.6685 103.504C90.0605 103.232 89.3725 103 88.6045 102.808C87.8525 102.616 87.0685 102.52 86.2525 102.52C84.8925 102.52 83.7245 102.8 82.7485 103.36C81.7725 103.92 81.0285 104.72 80.5165 105.76C80.0045 106.784 79.7485 108.008 79.7485 109.432C79.7485 110.792 79.9645 112 80.3965 113.056C80.8445 114.096 81.5405 114.912 82.4845 115.504C83.4285 116.08 84.6685 116.368 86.2045 116.368C86.7165 116.368 87.1645 116.352 87.5485 116.32C87.9485 116.272 88.3085 116.216 88.6285 116.152C88.9645 116.088 89.2765 116.024 89.5645 115.96V110.872H85.7965V108.952ZM105.393 118H95.8174V100.864H105.393V102.76H97.9774V108.112H104.961V109.984H97.9774V116.104H105.393V118Z" fill="white"/>
</g>
<g filter="url(#filter1_d_31_63)">
<path d="M12.5266 241.52C11.6146 241.52 10.7906 241.68 10.0546 242C9.31859 242.304 8.69459 242.76 8.18259 243.368C7.67059 243.96 7.27859 244.688 7.00659 245.552C6.73459 246.4 6.59859 247.36 6.59859 248.432C6.59859 249.84 6.81459 251.064 7.24659 252.104C7.69459 253.144 8.35059 253.944 9.21459 254.504C10.0946 255.064 11.1906 255.344 12.5026 255.344C13.2546 255.344 13.9666 255.28 14.6386 255.152C15.3106 255.024 15.9666 254.864 16.6066 254.672V256.544C15.9666 256.784 15.3026 256.96 14.6146 257.072C13.9426 257.184 13.1346 257.24 12.1906 257.24C10.4466 257.24 8.99059 256.88 7.82259 256.16C6.65459 255.44 5.77459 254.416 5.18259 253.088C4.60659 251.76 4.31859 250.2 4.31859 248.408C4.31859 247.112 4.49459 245.928 4.84659 244.856C5.21459 243.784 5.74259 242.856 6.43059 242.072C7.13459 241.288 7.99859 240.688 9.02259 240.272C10.0466 239.84 11.2226 239.624 12.5506 239.624C13.4306 239.624 14.2786 239.712 15.0946 239.888C15.9106 240.064 16.6386 240.312 17.2786 240.632L16.4146 242.456C15.8866 242.216 15.2946 242 14.6386 241.808C13.9986 241.616 13.2946 241.52 12.5266 241.52ZM33.3787 250.952C33.3787 252.136 33.1387 253.208 32.6587 254.168C32.1787 255.112 31.4427 255.864 30.4507 256.424C29.4747 256.968 28.2267 257.24 26.7067 257.24C24.5787 257.24 22.9547 256.664 21.8347 255.512C20.7307 254.344 20.1787 252.808 20.1787 250.904V239.864H22.3387V250.976C22.3387 252.368 22.7067 253.448 23.4427 254.216C24.1947 254.984 25.3227 255.368 26.8267 255.368C27.8667 255.368 28.7067 255.184 29.3467 254.816C30.0027 254.432 30.4827 253.912 30.7867 253.256C31.0907 252.584 31.2427 251.816 31.2427 250.952V239.864H33.3787V250.952ZM42.6293 239.864C44.0533 239.864 45.2213 240.048 46.1333 240.416C47.0613 240.768 47.7493 241.304 48.1973 242.024C48.6453 242.744 48.8693 243.648 48.8693 244.736C48.8693 245.648 48.7013 246.408 48.3653 247.016C48.0293 247.624 47.5973 248.112 47.0693 248.48C46.5573 248.832 46.0133 249.112 45.4373 249.32L50.1413 257H47.6213L43.4693 249.92H40.0613V257H37.9013V239.864H42.6293ZM42.5093 241.736H40.0613V248.096H42.6293C43.5573 248.096 44.3173 247.976 44.9093 247.736C45.5013 247.48 45.9333 247.112 46.2053 246.632C46.4933 246.152 46.6373 245.552 46.6373 244.832C46.6373 244.08 46.4853 243.48 46.1813 243.032C45.8933 242.584 45.4453 242.256 44.8373 242.048C44.2293 241.84 43.4533 241.736 42.5093 241.736ZM57.559 239.864C58.983 239.864 60.151 240.048 61.063 240.416C61.991 240.768 62.679 241.304 63.127 242.024C63.575 242.744 63.799 243.648 63.799 244.736C63.799 245.648 63.631 246.408 63.295 247.016C62.959 247.624 62.527 248.112 61.999 248.48C61.487 248.832 60.943 249.112 60.367 249.32L65.071 257H62.551L58.399 249.92H54.991V257H52.831V239.864H57.559ZM57.439 241.736H54.991V248.096H57.559C58.487 248.096 59.247 247.976 59.839 247.736C60.431 247.48 60.863 247.112 61.135 246.632C61.423 246.152 61.567 245.552 61.567 244.832C61.567 244.08 61.415 243.48 61.111 243.032C60.823 242.584 60.375 242.256 59.767 242.048C59.159 241.84 58.383 241.736 57.439 241.736ZM77.3367 257H67.7607V239.864H77.3367V241.76H69.9207V247.112H76.9047V248.984H69.9207V255.104H77.3367V257ZM94.6807 257H92.1607L82.9927 242.768H82.8967C82.9127 243.056 82.9287 243.376 82.9447 243.728C82.9767 244.08 83.0007 244.464 83.0167 244.88C83.0327 245.28 83.0487 245.696 83.0647 246.128C83.0807 246.56 83.0887 246.992 83.0887 247.424V257H81.0967V239.864H83.5927L92.7367 254.048H92.8327C92.8167 253.856 92.8007 253.592 92.7847 253.256C92.7687 252.904 92.7527 252.52 92.7367 252.104C92.7207 251.672 92.7047 251.232 92.6887 250.784C92.6727 250.336 92.6647 249.92 92.6647 249.536V239.864H94.6807V257ZM104.755 257H102.595V241.76H97.243V239.864H110.083V241.76H104.755V257Z" fill="white"/>
</g>
<g filter="url(#filter2_d_31_63)">
<path d="M49.037 516.864C51.277 516.864 52.909 517.304 53.933 518.184C54.957 519.064 55.469 520.304 55.469 521.904C55.469 522.608 55.349 523.288 55.109 523.944C54.885 524.584 54.509 525.16 53.981 525.672C53.453 526.184 52.749 526.592 51.869 526.896C50.989 527.184 49.909 527.328 48.629 527.328H46.661V534H44.501V516.864H49.037ZM48.845 518.712H46.661V525.48H48.389C49.477 525.48 50.381 525.368 51.101 525.144C51.821 524.904 52.357 524.528 52.709 524.016C53.061 523.504 53.237 522.832 53.237 522C53.237 520.896 52.885 520.072 52.181 519.528C51.477 518.984 50.365 518.712 48.845 518.712ZM61.1922 534H59.0322V516.864H68.6082V518.76H61.1922V524.832H68.1522V526.728H61.1922V534Z" fill="white"/>
</g>
<g filter="url(#filter3_d_31_63)">
<path d="M20.7128 376.864C22.9528 376.864 24.5848 377.304 25.6088 378.184C26.6328 379.064 27.1448 380.304 27.1448 381.904C27.1448 382.608 27.0248 383.288 26.7848 383.944C26.5608 384.584 26.1848 385.16 25.6568 385.672C25.1288 386.184 24.4248 386.592 23.5448 386.896C22.6648 387.184 21.5848 387.328 20.3048 387.328H18.3368V394H16.1768V376.864H20.7128ZM20.5208 378.712H18.3368V385.48H20.0648C21.1528 385.48 22.0568 385.368 22.7768 385.144C23.4968 384.904 24.0328 384.528 24.3848 384.016C24.7368 383.504 24.9128 382.832 24.9128 382C24.9128 380.896 24.5608 380.072 23.8568 379.528C23.1528 378.984 22.0408 378.712 20.5208 378.712ZM45.66 385.408C45.66 386.736 45.492 387.944 45.156 389.032C44.82 390.104 44.316 391.032 43.644 391.816C42.988 392.6 42.164 393.2 41.172 393.616C40.196 394.032 39.06 394.24 37.764 394.24C36.42 394.24 35.252 394.032 34.26 393.616C33.268 393.184 32.444 392.584 31.788 391.816C31.132 391.032 30.644 390.096 30.324 389.008C30.004 387.92 29.844 386.712 29.844 385.384C29.844 383.624 30.132 382.088 30.708 380.776C31.284 379.464 32.156 378.44 33.324 377.704C34.508 376.968 35.996 376.6 37.788 376.6C39.5 376.6 40.94 376.968 42.108 377.704C43.276 378.424 44.156 379.448 44.748 380.776C45.356 382.088 45.66 383.632 45.66 385.408ZM32.124 385.408C32.124 386.848 32.324 388.088 32.724 389.128C33.124 390.168 33.74 390.968 34.572 391.528C35.42 392.088 36.484 392.368 37.764 392.368C39.06 392.368 40.116 392.088 40.932 391.528C41.764 390.968 42.38 390.168 42.78 389.128C43.18 388.088 43.38 386.848 43.38 385.408C43.38 383.248 42.932 381.56 42.036 380.344C41.14 379.112 39.724 378.496 37.788 378.496C36.492 378.496 35.42 378.776 34.572 379.336C33.74 379.88 33.124 380.672 32.724 381.712C32.324 382.736 32.124 383.968 32.124 385.408ZM68.9037 376.864L64.3437 394H62.1597L58.8237 382.768C58.7277 382.432 58.6317 382.088 58.5357 381.736C58.4397 381.384 58.3517 381.048 58.2717 380.728C58.1917 380.408 58.1197 380.136 58.0557 379.912C58.0077 379.672 57.9757 379.496 57.9597 379.384C57.9437 379.496 57.9117 379.672 57.8637 379.912C57.8317 380.136 57.7757 380.408 57.6957 380.728C57.6157 381.048 57.5277 381.392 57.4317 381.76C57.3517 382.112 57.2557 382.472 57.1437 382.84L53.9037 394H51.7197L47.1837 376.864H49.4397L52.1037 387.328C52.1997 387.696 52.2877 388.064 52.3677 388.432C52.4477 388.784 52.5197 389.136 52.5837 389.488C52.6637 389.824 52.7277 390.152 52.7757 390.472C52.8237 390.792 52.8717 391.104 52.9197 391.408C52.9677 391.088 53.0157 390.76 53.0637 390.424C53.1277 390.088 53.1997 389.744 53.2797 389.392C53.3597 389.024 53.4477 388.656 53.5437 388.288C53.6397 387.92 53.7357 387.56 53.8317 387.208L56.8557 376.864H59.0877L62.2317 387.28C62.3437 387.648 62.4477 388.024 62.5437 388.408C62.6397 388.776 62.7277 389.136 62.8077 389.488C62.8877 389.84 62.9517 390.184 62.9997 390.52C63.0637 390.84 63.1197 391.136 63.1677 391.408C63.2157 391.008 63.2797 390.592 63.3597 390.16C63.4397 389.712 63.5357 389.248 63.6477 388.768C63.7597 388.288 63.8797 387.8 64.0077 387.304L66.6477 376.864H68.9037ZM81.1122 394H71.5362V376.864H81.1122V378.76H73.6962V384.112H80.6802V385.984H73.6962V392.104H81.1122V394ZM89.6001 376.864C91.0241 376.864 92.1921 377.048 93.1041 377.416C94.0321 377.768 94.7201 378.304 95.1681 379.024C95.6161 379.744 95.8401 380.648 95.8401 381.736C95.8401 382.648 95.6721 383.408 95.3361 384.016C95.0001 384.624 94.5681 385.112 94.0401 385.48C93.5281 385.832 92.9841 386.112 92.4081 386.32L97.1121 394H94.5921L90.4401 386.92H87.0321V394H84.8721V376.864H89.6001ZM89.4801 378.736H87.0321V385.096H89.6001C90.5281 385.096 91.2881 384.976 91.8801 384.736C92.4721 384.48 92.9041 384.112 93.1761 383.632C93.4641 383.152 93.6081 382.552 93.6081 381.832C93.6081 381.08 93.4561 380.48 93.1521 380.032C92.8641 379.584 92.4161 379.256 91.8081 379.048C91.2001 378.84 90.4241 378.736 89.4801 378.736Z" fill="white"/>
</g>
<rect x="116.752" y="46.5699" width="273.114" height="130.497" rx="20" fill="black"/>
<rect x="141.92" y="64.0995" width="205.069" height="91.5426" rx="20" fill="#B2E5FD"/>
<g filter="url(#filter4_d_31_63)">
<path d="M369.962 102.336L363.842 119.472H361.682L355.562 102.336H357.818L361.682 113.328C361.858 113.792 362.01 114.24 362.138 114.672C362.266 115.104 362.378 115.52 362.474 115.92C362.586 116.304 362.682 116.688 362.762 117.072C362.842 116.688 362.93 116.296 363.026 115.896C363.138 115.496 363.258 115.08 363.386 114.648C363.53 114.216 363.682 113.76 363.842 113.28L367.682 102.336H369.962ZM374.534 116.976V119.472H372.038V116.976H374.534Z" fill="white"/>
</g>
<rect x="117.871" y="184" width="272.226" height="130" rx="20" fill="black"/>
<rect x="142.193" y="201" width="204.871" height="92" rx="20" fill="#B2E5FD"/>
<g filter="url(#filter5_d_31_63)">
<path d="M368.786 257L366.722 251.696H359.93L357.89 257H355.706L362.402 239.792H364.346L371.018 257H368.786ZM364.154 244.592C364.106 244.464 364.026 244.232 363.914 243.896C363.802 243.56 363.69 243.216 363.578 242.864C363.482 242.496 363.402 242.216 363.338 242.024C363.258 242.344 363.17 242.672 363.074 243.008C362.994 243.328 362.906 243.624 362.81 243.896C362.73 244.168 362.658 244.4 362.594 244.592L360.65 249.776H366.074L364.154 244.592ZM375.616 254.504V257H373.12V254.504H375.616Z" fill="white"/>
</g>
<rect x="117.871" y="323" width="272.226" height="130" rx="20" fill="black"/>
<rect x="142.193" y="340" width="204.871" height="91" rx="20" fill="#B2E5FD"/>
<g filter="url(#filter6_d_31_63)">
<path d="M361.979 399H359.435L353.363 390.816L351.611 392.352V399H349.451V381.864H351.611V390.312C352.091 389.768 352.579 389.224 353.075 388.68C353.571 388.136 354.067 387.592 354.563 387.048L359.195 381.864H361.715L354.923 389.328L361.979 399ZM383.99 381.864L379.43 399H377.246L373.91 387.768C373.814 387.432 373.718 387.088 373.622 386.736C373.526 386.384 373.438 386.048 373.358 385.728C373.278 385.408 373.206 385.136 373.142 384.912C373.094 384.672 373.062 384.496 373.046 384.384C373.03 384.496 372.998 384.672 372.95 384.912C372.918 385.136 372.862 385.408 372.782 385.728C372.702 386.048 372.614 386.392 372.518 386.76C372.438 387.112 372.342 387.472 372.23 387.84L368.99 399H366.806L362.27 381.864H364.526L367.19 392.328C367.286 392.696 367.374 393.064 367.454 393.432C367.534 393.784 367.606 394.136 367.67 394.488C367.75 394.824 367.814 395.152 367.862 395.472C367.91 395.792 367.958 396.104 368.006 396.408C368.054 396.088 368.102 395.76 368.15 395.424C368.214 395.088 368.286 394.744 368.366 394.392C368.446 394.024 368.534 393.656 368.63 393.288C368.726 392.92 368.822 392.56 368.918 392.208L371.942 381.864H374.174L377.318 392.28C377.43 392.648 377.534 393.024 377.63 393.408C377.726 393.776 377.814 394.136 377.894 394.488C377.974 394.84 378.038 395.184 378.086 395.52C378.15 395.84 378.206 396.136 378.254 396.408C378.302 396.008 378.366 395.592 378.446 395.16C378.526 394.712 378.622 394.248 378.734 393.768C378.846 393.288 378.966 392.8 379.094 392.304L381.734 381.864H383.99ZM388.876 396.504V399H386.38V396.504H388.876Z" fill="white"/>
</g>
<rect x="116.752" y="460.459" width="273.114" height="130.497" rx="20" fill="black"/>
<rect x="141.92" y="477.743" width="224.643" height="91.534" rx="20" fill="#B2E5FD"/>
<defs>
<filter id="filter0_d_31_63" x="0.497253" y="100.6" width="108.896" height="25.64" filterUnits="userSpaceOnUse" color-interpolation-filters="sRGB">
<feFlood flood-opacity="0" result="BackgroundImageFix"/>
<feColorMatrix in="SourceAlpha" type="matrix" values="0 0 0 0 0 0 0 0 0 0 0 0 0 0 0 0 0 0 127 0" result="hardAlpha"/>
<feOffset dy="4"/>
<feGaussianBlur stdDeviation="2"/>
<feComposite in2="hardAlpha" operator="out"/>
<feColorMatrix type="matrix" values="0 0 0 0 0 0 0 0 0 0 0 0 0 0 0 0 0 0 0.25 0"/>
<feBlend mode="normal" in2="BackgroundImageFix" result="effect1_dropShadow_31_63"/>
<feBlend mode="normal" in="SourceGraphic" in2="effect1_dropShadow_31_63" result="shape"/>
</filter>
<filter id="filter1_d_31_63" x="0.318604" y="239.624" width="113.764" height="25.616" filterUnits="userSpaceOnUse" color-interpolation-filters="sRGB">
<feFlood flood-opacity="0" result="BackgroundImageFix"/>
<feColorMatrix in="SourceAlpha" type="matrix" values="0 0 0 0 0 0 0 0 0 0 0 0 0 0 0 0 0 0 127 0" result="hardAlpha"/>
<feOffset dy="4"/>
<feGaussianBlur stdDeviation="2"/>
<feComposite in2="hardAlpha" operator="out"/>
<feColorMatrix type="matrix" values="0 0 0 0 0 0 0 0 0 0 0 0 0 0 0 0 0 0 0.25 0"/>
<feBlend mode="normal" in2="BackgroundImageFix" result="effect1_dropShadow_31_63"/>
<feBlend mode="normal" in="SourceGraphic" in2="effect1_dropShadow_31_63" result="shape"/>
</filter>
<filter id="filter2_d_31_63" x="40.501" y="516.864" width="32.1073" height="25.136" filterUnits="userSpaceOnUse" color-interpolation-filters="sRGB">
<feFlood flood-opacity="0" result="BackgroundImageFix"/>
<feColorMatrix in="SourceAlpha" type="matrix" values="0 0 0 0 0 0 0 0 0 0 0 0 0 0 0 0 0 0 127 0" result="hardAlpha"/>
<feOffset dy="4"/>
<feGaussianBlur stdDeviation="2"/>
<feComposite in2="hardAlpha" operator="out"/>
<feColorMatrix type="matrix" values="0 0 0 0 0 0 0 0 0 0 0 0 0 0 0 0 0 0 0.25 0"/>
<feBlend mode="normal" in2="BackgroundImageFix" result="effect1_dropShadow_31_63"/>
<feBlend mode="normal" in="SourceGraphic" in2="effect1_dropShadow_31_63" result="shape"/>
</filter>
<filter id="filter3_d_31_63" x="12.1768" y="376.6" width="88.9354" height="25.6399" filterUnits="userSpaceOnUse" color-interpolation-filters="sRGB">
<feFlood flood-opacity="0" result="BackgroundImageFix"/>
<feColorMatrix in="SourceAlpha" type="matrix" values="0 0 0 0 0 0 0 0 0 0 0 0 0 0 0 0 0 0 127 0" result="hardAlpha"/>
<feOffset dy="4"/>
<feGaussianBlur stdDeviation="2"/>
<feComposite in2="hardAlpha" operator="out"/>
<feColorMatrix type="matrix" values="0 0 0 0 0 0 0 0 0 0 0 0 0 0 0 0 0 0 0.25 0"/>
<feBlend mode="normal" in2="BackgroundImageFix" result="effect1_dropShadow_31_63"/>
<feBlend mode="normal" in="SourceGraphic" in2="effect1_dropShadow_31_63" result="shape"/>
</filter>
<filter id="filter4_d_31_63" x="351.562" y="102.336" width="26.9727" height="25.136" filterUnits="userSpaceOnUse" color-interpolation-filters="sRGB">
<feFlood flood-opacity="0" result="BackgroundImageFix"/>
<feColorMatrix in="SourceAlpha" type="matrix" values="0 0 0 0 0 0 0 0 0 0 0 0 0 0 0 0 0 0 127 0" result="hardAlpha"/>
<feOffset dy="4"/>
<feGaussianBlur stdDeviation="2"/>
<feComposite in2="hardAlpha" operator="out"/>
<feColorMatrix type="matrix" values="0 0 0 0 0 0 0 0 0 0 0 0 0 0 0 0 0 0 0.25 0"/>
<feBlend mode="normal" in2="BackgroundImageFix" result="effect1_dropShadow_31_63"/>
<feBlend mode="normal" in="SourceGraphic" in2="effect1_dropShadow_31_63" result="shape"/>
</filter>
<filter id="filter5_d_31_63" x="351.706" y="239.792" width="27.9102" height="25.208" filterUnits="userSpaceOnUse" color-interpolation-filters="sRGB">
<feFlood flood-opacity="0" result="BackgroundImageFix"/>
<feColorMatrix in="SourceAlpha" type="matrix" values="0 0 0 0 0 0 0 0 0 0 0 0 0 0 0 0 0 0 127 0" result="hardAlpha"/>
<feOffset dy="4"/>
<feGaussianBlur stdDeviation="2"/>
<feComposite in2="hardAlpha" operator="out"/>
<feColorMatrix type="matrix" values="0 0 0 0 0 0 0 0 0 0 0 0 0 0 0 0 0 0 0.25 0"/>
<feBlend mode="normal" in2="BackgroundImageFix" result="effect1_dropShadow_31_63"/>
<feBlend mode="normal" in="SourceGraphic" in2="effect1_dropShadow_31_63" result="shape"/>
</filter>
<filter id="filter6_d_31_63" x="345.451" y="381.864" width="47.426" height="25.136" filterUnits="userSpaceOnUse" color-interpolation-filters="sRGB">
<feFlood flood-opacity="0" result="BackgroundImageFix"/>
<feColorMatrix in="SourceAlpha" type="matrix" values="0 0 0 0 0 0 0 0 0 0 0 0 0 0 0 0 0 0 127 0" result="hardAlpha"/>
<feOffset dy="4"/>
<feGaussianBlur stdDeviation="2"/>
<feComposite in2="hardAlpha" operator="out"/>
<feColorMatrix type="matrix" values="0 0 0 0 0 0 0 0 0 0 0 0 0 0 0 0 0 0 0.25 0"/>
<feBlend mode="normal" in2="BackgroundImageFix" result="effect1_dropShadow_31_63"/>
<feBlend mode="normal" in="SourceGraphic" in2="effect1_dropShadow_31_63" result="shape"/>
</filter>
</defs>
</svg>
