<svg xmlns="http://www.w3.org/2000/svg" width="100%" height="100%" viewBox="0 0 469 603" fill="none">
<path d="M4 10C4 4.47715 8.47715 0 14 0H459C464.523 0 469 4.47715 469 10V593C469 598.523 464.523 603 459 603H14C8.47714 603 4 598.523 4 593V10Z" fill="#555555"/>
<g filter="url(#filter0_d_28_62)">
<path d="M35.2359 100.864L29.1159 118H26.9559L20.8359 100.864H23.0919L26.9559 111.856C27.1319 112.32 27.2839 112.768 27.4119 113.2C27.5399 113.632 27.6519 114.048 27.7479 114.448C27.8599 114.832 27.9559 115.216 28.0359 115.6C28.1159 115.216 28.2039 114.824 28.2999 114.424C28.4119 114.024 28.5319 113.608 28.6599 113.176C28.8039 112.744 28.9559 112.288 29.1159 111.808L32.9559 100.864H35.2359ZM52.2722 109.408C52.2722 110.736 52.1042 111.944 51.7682 113.032C51.4322 114.104 50.9282 115.032 50.2562 115.816C49.6002 116.6 48.7762 117.2 47.7842 117.616C46.8082 118.032 45.6722 118.24 44.3762 118.24C43.0322 118.24 41.8642 118.032 40.8722 117.616C39.8802 117.184 39.0562 116.584 38.4002 115.816C37.7442 115.032 37.2562 114.096 36.9362 113.008C36.6162 111.92 36.4562 110.712 36.4562 109.384C36.4562 107.624 36.7442 106.088 37.3202 104.776C37.8962 103.464 38.7682 102.44 39.9362 101.704C41.1202 100.968 42.6082 100.6 44.4002 100.6C46.1122 100.6 47.5522 100.968 48.7202 101.704C49.8882 102.424 50.7682 103.448 51.3602 104.776C51.9682 106.088 52.2722 107.632 52.2722 109.408ZM38.7362 109.408C38.7362 110.848 38.9362 112.088 39.3362 113.128C39.7362 114.168 40.3522 114.968 41.1842 115.528C42.0322 116.088 43.0962 116.368 44.3762 116.368C45.6722 116.368 46.7282 116.088 47.5442 115.528C48.3762 114.968 48.9922 114.168 49.3922 113.128C49.7922 112.088 49.9922 110.848 49.9922 109.408C49.9922 107.248 49.5442 105.56 48.6482 104.344C47.7522 103.112 46.3362 102.496 44.4002 102.496C43.1042 102.496 42.0322 102.776 41.1842 103.336C40.3522 103.88 39.7362 104.672 39.3362 105.712C38.9362 106.736 38.7362 107.968 38.7362 109.408ZM56.0702 118V100.864H58.2302V116.08H65.7182V118H56.0702ZM73.6114 118H71.4514V102.76H66.0994V100.864H78.9394V102.76H73.6114V118ZM90.5878 118L88.5238 112.696H81.7318L79.6918 118H77.5078L84.2038 100.792H86.1478L92.8198 118H90.5878ZM85.9558 105.592C85.9078 105.464 85.8278 105.232 85.7158 104.896C85.6038 104.56 85.4918 104.216 85.3798 103.864C85.2838 103.496 85.2038 103.216 85.1398 103.024C85.0598 103.344 84.9718 103.672 84.8758 104.008C84.7958 104.328 84.7078 104.624 84.6118 104.896C84.5318 105.168 84.4598 105.4 84.3958 105.592L82.4518 110.776H87.8758L85.9558 105.592ZM102.135 108.952H108.063V117.352C107.135 117.656 106.199 117.88 105.255 118.024C104.311 118.168 103.239 118.24 102.039 118.24C100.263 118.24 98.7672 117.888 97.5512 117.184C96.3352 116.464 95.4072 115.448 94.7672 114.136C94.1432 112.808 93.8312 111.24 93.8312 109.432C93.8312 107.64 94.1832 106.088 94.8872 104.776C95.5912 103.464 96.5992 102.448 97.9112 101.728C99.2392 100.992 100.839 100.624 102.711 100.624C103.671 100.624 104.575 100.712 105.423 100.888C106.287 101.064 107.087 101.312 107.823 101.632L107.007 103.504C106.399 103.232 105.711 103 104.943 102.808C104.191 102.616 103.407 102.52 102.591 102.52C101.231 102.52 100.063 102.8 99.0872 103.36C98.1112 103.92 97.3672 104.72 96.8552 105.76C96.3432 106.784 96.0872 108.008 96.0872 109.432C96.0872 110.792 96.3032 112 96.7352 113.056C97.1832 114.096 97.8792 114.912 98.8232 115.504C99.7672 116.08 101.007 116.368 102.543 116.368C103.055 116.368 103.503 116.352 103.887 116.32C104.287 116.272 104.647 116.216 104.967 116.152C105.303 116.088 105.615 116.024 105.903 115.96V110.872H102.135V108.952ZM121.732 118H112.156V100.864H121.732V102.76H114.316V108.112H121.3V109.984H114.316V116.104H121.732V118Z" fill="white"/>
</g>
<g filter="url(#filter1_d_28_62)">
<path d="M28.4298 241.52C27.5178 241.52 26.6938 241.68 25.9578 242C25.2218 242.304 24.5978 242.76 24.0858 243.368C23.5738 243.96 23.1818 244.688 22.9098 245.552C22.6378 246.4 22.5018 247.36 22.5018 248.432C22.5018 249.84 22.7178 251.064 23.1498 252.104C23.5978 253.144 24.2538 253.944 25.1178 254.504C25.9978 255.064 27.0938 255.344 28.4058 255.344C29.1578 255.344 29.8698 255.28 30.5418 255.152C31.2138 255.024 31.8698 254.864 32.5098 254.672V256.544C31.8698 256.784 31.2058 256.96 30.5178 257.072C29.8458 257.184 29.0378 257.24 28.0938 257.24C26.3498 257.24 24.8938 256.88 23.7258 256.16C22.5578 255.44 21.6778 254.416 21.0858 253.088C20.5098 251.76 20.2218 250.2 20.2218 248.408C20.2218 247.112 20.3978 245.928 20.7498 244.856C21.1178 243.784 21.6458 242.856 22.3338 242.072C23.0378 241.288 23.9018 240.688 24.9258 240.272C25.9498 239.84 27.1258 239.624 28.4538 239.624C29.3338 239.624 30.1818 239.712 30.9978 239.888C31.8138 240.064 32.5418 240.312 33.1818 240.632L32.3178 242.456C31.7898 242.216 31.1978 242 30.5418 241.808C29.9018 241.616 29.1978 241.52 28.4298 241.52ZM49.2819 250.952C49.2819 252.136 49.0419 253.208 48.5619 254.168C48.0819 255.112 47.3459 255.864 46.3539 256.424C45.3779 256.968 44.1299 257.24 42.6099 257.24C40.4819 257.24 38.8579 256.664 37.7379 255.512C36.6339 254.344 36.0819 252.808 36.0819 250.904V239.864H38.2419V250.976C38.2419 252.368 38.6099 253.448 39.3459 254.216C40.0979 254.984 41.2259 255.368 42.7299 255.368C43.7699 255.368 44.6099 255.184 45.2499 254.816C45.9059 254.432 46.3859 253.912 46.6899 253.256C46.9939 252.584 47.1459 251.816 47.1459 250.952V239.864H49.2819V250.952ZM58.5326 239.864C59.9566 239.864 61.1246 240.048 62.0366 240.416C62.9646 240.768 63.6526 241.304 64.1006 242.024C64.5486 242.744 64.7726 243.648 64.7726 244.736C64.7726 245.648 64.6046 246.408 64.2686 247.016C63.9326 247.624 63.5006 248.112 62.9726 248.48C62.4606 248.832 61.9166 249.112 61.3406 249.32L66.0446 257H63.5246L59.3726 249.92H55.9646V257H53.8046V239.864H58.5326ZM58.4126 241.736H55.9646V248.096H58.5326C59.4606 248.096 60.2206 247.976 60.8126 247.736C61.4046 247.48 61.8366 247.112 62.1086 246.632C62.3966 246.152 62.5406 245.552 62.5406 244.832C62.5406 244.08 62.3886 243.48 62.0846 243.032C61.7966 242.584 61.3486 242.256 60.7406 242.048C60.1326 241.84 59.3566 241.736 58.4126 241.736ZM73.4622 239.864C74.8863 239.864 76.0543 240.048 76.9663 240.416C77.8943 240.768 78.5823 241.304 79.0303 242.024C79.4783 242.744 79.7023 243.648 79.7023 244.736C79.7023 245.648 79.5343 246.408 79.1983 247.016C78.8623 247.624 78.4303 248.112 77.9023 248.48C77.3903 248.832 76.8463 249.112 76.2703 249.32L80.9743 257H78.4543L74.3023 249.92H70.8943V257H68.7343V239.864H73.4622ZM73.3423 241.736H70.8943V248.096H73.4622C74.3903 248.096 75.1503 247.976 75.7423 247.736C76.3343 247.48 76.7663 247.112 77.0383 246.632C77.3263 246.152 77.4703 245.552 77.4703 244.832C77.4703 244.08 77.3183 243.48 77.0143 243.032C76.7263 242.584 76.2783 242.256 75.6703 242.048C75.0623 241.84 74.2863 241.736 73.3423 241.736ZM93.2399 257H83.6639V239.864H93.2399V241.76H85.8239V247.112H92.8079V248.984H85.8239V255.104H93.2399V257ZM110.584 257H108.064L98.8959 242.768H98.7999C98.8159 243.056 98.8319 243.376 98.8479 243.728C98.8799 244.08 98.9039 244.464 98.9199 244.88C98.9359 245.28 98.9519 245.696 98.9679 246.128C98.9839 246.56 98.9919 246.992 98.9919 247.424V257H96.9999V239.864H99.4959L108.64 254.048H108.736C108.72 253.856 108.704 253.592 108.688 253.256C108.672 252.904 108.656 252.52 108.64 252.104C108.624 251.672 108.608 251.232 108.592 250.784C108.576 250.336 108.568 249.92 108.568 249.536V239.864H110.584V257ZM120.658 257H118.498V241.76H113.146V239.864H125.986V241.76H120.658V257Z" fill="white"/>
</g>
<g filter="url(#filter2_d_28_62)">
<path d="M66.3757 515.864C68.6157 515.864 70.2477 516.304 71.2717 517.184C72.2957 518.064 72.8077 519.304 72.8077 520.904C72.8077 521.608 72.6877 522.288 72.4477 522.944C72.2237 523.584 71.8477 524.16 71.3197 524.672C70.7917 525.184 70.0877 525.592 69.2077 525.896C68.3277 526.184 67.2477 526.328 65.9677 526.328H63.9997V533H61.8397V515.864H66.3757ZM66.1837 517.712H63.9997V524.48H65.7277C66.8157 524.48 67.7197 524.368 68.4397 524.144C69.1597 523.904 69.6957 523.528 70.0477 523.016C70.3997 522.504 70.5757 521.832 70.5757 521C70.5757 519.896 70.2237 519.072 69.5197 518.528C68.8157 517.984 67.7037 517.712 66.1837 517.712ZM78.531 533H76.371V515.864H85.947V517.76H78.531V523.832H85.491V525.728H78.531V533Z" fill="white"/>
</g>
<g filter="url(#filter3_d_28_62)">
<path d="M38.0515 375.864C40.2915 375.864 41.9235 376.304 42.9475 377.184C43.9715 378.064 44.4835 379.304 44.4835 380.904C44.4835 381.608 44.3635 382.288 44.1235 382.944C43.8995 383.584 43.5235 384.16 42.9955 384.672C42.4675 385.184 41.7635 385.592 40.8835 385.896C40.0035 386.184 38.9235 386.328 37.6435 386.328H35.6755V393H33.5155V375.864H38.0515ZM37.8595 377.712H35.6755V384.48H37.4035C38.4915 384.48 39.3955 384.368 40.1155 384.144C40.8355 383.904 41.3715 383.528 41.7235 383.016C42.0755 382.504 42.2515 381.832 42.2515 381C42.2515 379.896 41.8995 379.072 41.1955 378.528C40.4915 377.984 39.3795 377.712 37.8595 377.712ZM62.9988 384.408C62.9988 385.736 62.8308 386.944 62.4948 388.032C62.1588 389.104 61.6548 390.032 60.9828 390.816C60.3268 391.6 59.5028 392.2 58.5108 392.616C57.5348 393.032 56.3988 393.24 55.1028 393.24C53.7588 393.24 52.5908 393.032 51.5988 392.616C50.6068 392.184 49.7828 391.584 49.1268 390.816C48.4708 390.032 47.9828 389.096 47.6628 388.008C47.3428 386.92 47.1828 385.712 47.1828 384.384C47.1828 382.624 47.4708 381.088 48.0468 379.776C48.6228 378.464 49.4948 377.44 50.6628 376.704C51.8468 375.968 53.3348 375.6 55.1268 375.6C56.8388 375.6 58.2788 375.968 59.4468 376.704C60.6148 377.424 61.4948 378.448 62.0868 379.776C62.6948 381.088 62.9988 382.632 62.9988 384.408ZM49.4628 384.408C49.4628 385.848 49.6628 387.088 50.0628 388.128C50.4628 389.168 51.0788 389.968 51.9108 390.528C52.7588 391.088 53.8228 391.368 55.1028 391.368C56.3988 391.368 57.4548 391.088 58.2708 390.528C59.1028 389.968 59.7188 389.168 60.1188 388.128C60.5188 387.088 60.7188 385.848 60.7188 384.408C60.7188 382.248 60.2708 380.56 59.3748 379.344C58.4788 378.112 57.0628 377.496 55.1268 377.496C53.8308 377.496 52.7588 377.776 51.9108 378.336C51.0788 378.88 50.4628 379.672 50.0628 380.712C49.6628 381.736 49.4628 382.968 49.4628 384.408ZM86.2424 375.864L81.6824 393H79.4984L76.1624 381.768C76.0664 381.432 75.9704 381.088 75.8744 380.736C75.7784 380.384 75.6904 380.048 75.6104 379.728C75.5304 379.408 75.4584 379.136 75.3944 378.912C75.3464 378.672 75.3144 378.496 75.2984 378.384C75.2824 378.496 75.2504 378.672 75.2024 378.912C75.1704 379.136 75.1144 379.408 75.0344 379.728C74.9544 380.048 74.8664 380.392 74.7704 380.76C74.6904 381.112 74.5944 381.472 74.4824 381.84L71.2424 393H69.0584L64.5224 375.864H66.7784L69.4424 386.328C69.5384 386.696 69.6264 387.064 69.7064 387.432C69.7864 387.784 69.8584 388.136 69.9224 388.488C70.0024 388.824 70.0664 389.152 70.1144 389.472C70.1624 389.792 70.2104 390.104 70.2584 390.408C70.3064 390.088 70.3544 389.76 70.4024 389.424C70.4664 389.088 70.5384 388.744 70.6184 388.392C70.6984 388.024 70.7864 387.656 70.8824 387.288C70.9784 386.92 71.0744 386.56 71.1704 386.208L74.1944 375.864H76.4264L79.5704 386.28C79.6824 386.648 79.7864 387.024 79.8824 387.408C79.9784 387.776 80.0664 388.136 80.1464 388.488C80.2264 388.84 80.2904 389.184 80.3384 389.52C80.4024 389.84 80.4584 390.136 80.5064 390.408C80.5544 390.008 80.6184 389.592 80.6984 389.16C80.7784 388.712 80.8744 388.248 80.9864 387.768C81.0984 387.288 81.2184 386.8 81.3464 386.304L83.9864 375.864H86.2424ZM98.4509 393H88.8749V375.864H98.4509V377.76H91.0349V383.112H98.0189V384.984H91.0349V391.104H98.4509V393ZM106.939 375.864C108.363 375.864 109.531 376.048 110.443 376.416C111.371 376.768 112.059 377.304 112.507 378.024C112.955 378.744 113.179 379.648 113.179 380.736C113.179 381.648 113.011 382.408 112.675 383.016C112.339 383.624 111.907 384.112 111.379 384.48C110.867 384.832 110.323 385.112 109.747 385.32L114.451 393H111.931L107.779 385.92H104.371V393H102.211V375.864H106.939ZM106.819 377.736H104.371V384.096H106.939C107.867 384.096 108.627 383.976 109.219 383.736C109.811 383.48 110.243 383.112 110.515 382.632C110.803 382.152 110.947 381.552 110.947 380.832C110.947 380.08 110.795 379.48 110.491 379.032C110.203 378.584 109.755 378.256 109.147 378.048C108.539 377.84 107.763 377.736 106.819 377.736Z" fill="white"/>
</g>
<rect x="137.719" y="46.5699" width="312.803" height="130.497" rx="20" fill="black"/>
<rect x="166.543" y="64.0995" width="234.869" height="91.5426" rx="20" fill="#B2E5FD"/>
<g filter="url(#filter4_d_28_62)">
<path d="M427.163 102.336L421.043 119.472H418.883L412.763 102.336H415.019L418.883 113.328C419.059 113.792 419.211 114.24 419.339 114.672C419.467 115.104 419.579 115.52 419.675 115.92C419.787 116.304 419.883 116.688 419.963 117.072C420.043 116.688 420.131 116.296 420.227 115.896C420.339 115.496 420.459 115.08 420.587 114.648C420.731 114.216 420.883 113.76 421.043 113.28L424.883 102.336H427.163ZM431.736 116.976V119.472H429.24V116.976H431.736Z" fill="white"/>
</g>
<rect x="139" y="184" width="312" height="130" rx="20" fill="black"/>
<rect x="167" y="201" width="235" height="92" rx="20" fill="#B2E5FD"/>
<g filter="url(#filter5_d_28_62)">
<path d="M426.076 257L424.012 251.696H417.22L415.18 257H412.996L419.692 239.792H421.636L428.308 257H426.076ZM421.444 244.592C421.396 244.464 421.316 244.232 421.204 243.896C421.092 243.56 420.98 243.216 420.868 242.864C420.772 242.496 420.692 242.216 420.628 242.024C420.548 242.344 420.46 242.672 420.364 243.008C420.284 243.328 420.196 243.624 420.1 243.896C420.02 244.168 419.948 244.4 419.884 244.592L417.94 249.776H423.364L421.444 244.592ZM432.906 254.504V257H430.41V254.504H432.906Z" fill="white"/>
</g>
<rect x="139" y="323" width="312" height="130" rx="20" fill="black"/>
<rect x="167" y="340" width="235" height="91" rx="20" fill="#B2E5FD"/>
<g filter="url(#filter6_d_28_62)">
<path d="M419.43 399H416.886L410.814 390.816L409.062 392.352V399H406.902V381.864H409.062V390.312C409.542 389.768 410.03 389.224 410.526 388.68C411.022 388.136 411.518 387.592 412.014 387.048L416.646 381.864H419.166L412.374 389.328L419.43 399ZM441.442 381.864L436.882 399H434.698L431.362 387.768C431.266 387.432 431.17 387.088 431.074 386.736C430.978 386.384 430.89 386.048 430.81 385.728C430.73 385.408 430.658 385.136 430.594 384.912C430.546 384.672 430.514 384.496 430.498 384.384C430.482 384.496 430.45 384.672 430.402 384.912C430.37 385.136 430.314 385.408 430.234 385.728C430.154 386.048 430.066 386.392 429.97 386.76C429.89 387.112 429.794 387.472 429.682 387.84L426.442 399H424.258L419.722 381.864H421.978L424.642 392.328C424.738 392.696 424.826 393.064 424.906 393.432C424.986 393.784 425.058 394.136 425.122 394.488C425.202 394.824 425.266 395.152 425.314 395.472C425.362 395.792 425.41 396.104 425.458 396.408C425.506 396.088 425.554 395.76 425.602 395.424C425.666 395.088 425.738 394.744 425.818 394.392C425.898 394.024 425.986 393.656 426.082 393.288C426.178 392.92 426.274 392.56 426.37 392.208L429.394 381.864H431.626L434.77 392.28C434.882 392.648 434.986 393.024 435.082 393.408C435.178 393.776 435.266 394.136 435.346 394.488C435.426 394.84 435.49 395.184 435.538 395.52C435.602 395.84 435.658 396.136 435.706 396.408C435.754 396.008 435.818 395.592 435.898 395.16C435.978 394.712 436.074 394.248 436.186 393.768C436.298 393.288 436.418 392.8 436.546 392.304L439.186 381.864H441.442ZM446.328 396.504V399H443.832V396.504H446.328Z" fill="white"/>
</g>
<rect x="137.719" y="460.459" width="312.803" height="130.497" rx="20" fill="black"/>
<rect x="166.543" y="477.743" width="257.288" height="91.534" rx="20" fill="#B2E5FD"/>
<defs>
<filter id="filter0_d_28_62" x="16.8359" y="100.6" width="108.896" height="25.64" filterUnits="userSpaceOnUse" color-interpolation-filters="sRGB">
<feFlood flood-opacity="0" result="BackgroundImageFix"/>
<feColorMatrix in="SourceAlpha" type="matrix" values="0 0 0 0 0 0 0 0 0 0 0 0 0 0 0 0 0 0 127 0" result="hardAlpha"/>
<feOffset dy="4"/>
<feGaussianBlur stdDeviation="2"/>
<feComposite in2="hardAlpha" operator="out"/>
<feColorMatrix type="matrix" values="0 0 0 0 0 0 0 0 0 0 0 0 0 0 0 0 0 0 0.25 0"/>
<feBlend mode="normal" in2="BackgroundImageFix" result="effect1_dropShadow_28_62"/>
<feBlend mode="normal" in="SourceGraphic" in2="effect1_dropShadow_28_62" result="shape"/>
</filter>
<filter id="filter1_d_28_62" x="16.2218" y="239.624" width="113.764" height="25.616" filterUnits="userSpaceOnUse" color-interpolation-filters="sRGB">
<feFlood flood-opacity="0" result="BackgroundImageFix"/>
<feColorMatrix in="SourceAlpha" type="matrix" values="0 0 0 0 0 0 0 0 0 0 0 0 0 0 0 0 0 0 127 0" result="hardAlpha"/>
<feOffset dy="4"/>
<feGaussianBlur stdDeviation="2"/>
<feComposite in2="hardAlpha" operator="out"/>
<feColorMatrix type="matrix" values="0 0 0 0 0 0 0 0 0 0 0 0 0 0 0 0 0 0 0.25 0"/>
<feBlend mode="normal" in2="BackgroundImageFix" result="effect1_dropShadow_28_62"/>
<feBlend mode="normal" in="SourceGraphic" in2="effect1_dropShadow_28_62" result="shape"/>
</filter>
<filter id="filter2_d_28_62" x="57.8397" y="515.864" width="32.1072" height="25.136" filterUnits="userSpaceOnUse" color-interpolation-filters="sRGB">
<feFlood flood-opacity="0" result="BackgroundImageFix"/>
<feColorMatrix in="SourceAlpha" type="matrix" values="0 0 0 0 0 0 0 0 0 0 0 0 0 0 0 0 0 0 127 0" result="hardAlpha"/>
<feOffset dy="4"/>
<feGaussianBlur stdDeviation="2"/>
<feComposite in2="hardAlpha" operator="out"/>
<feColorMatrix type="matrix" values="0 0 0 0 0 0 0 0 0 0 0 0 0 0 0 0 0 0 0.25 0"/>
<feBlend mode="normal" in2="BackgroundImageFix" result="effect1_dropShadow_28_62"/>
<feBlend mode="normal" in="SourceGraphic" in2="effect1_dropShadow_28_62" result="shape"/>
</filter>
<filter id="filter3_d_28_62" x="29.5155" y="375.6" width="88.9353" height="25.6399" filterUnits="userSpaceOnUse" color-interpolation-filters="sRGB">
<feFlood flood-opacity="0" result="BackgroundImageFix"/>
<feColorMatrix in="SourceAlpha" type="matrix" values="0 0 0 0 0 0 0 0 0 0 0 0 0 0 0 0 0 0 127 0" result="hardAlpha"/>
<feOffset dy="4"/>
<feGaussianBlur stdDeviation="2"/>
<feComposite in2="hardAlpha" operator="out"/>
<feColorMatrix type="matrix" values="0 0 0 0 0 0 0 0 0 0 0 0 0 0 0 0 0 0 0.25 0"/>
<feBlend mode="normal" in2="BackgroundImageFix" result="effect1_dropShadow_28_62"/>
<feBlend mode="normal" in="SourceGraphic" in2="effect1_dropShadow_28_62" result="shape"/>
</filter>
<filter id="filter4_d_28_62" x="408.763" y="102.336" width="26.9727" height="25.136" filterUnits="userSpaceOnUse" color-interpolation-filters="sRGB">
<feFlood flood-opacity="0" result="BackgroundImageFix"/>
<feColorMatrix in="SourceAlpha" type="matrix" values="0 0 0 0 0 0 0 0 0 0 0 0 0 0 0 0 0 0 127 0" result="hardAlpha"/>
<feOffset dy="4"/>
<feGaussianBlur stdDeviation="2"/>
<feComposite in2="hardAlpha" operator="out"/>
<feColorMatrix type="matrix" values="0 0 0 0 0 0 0 0 0 0 0 0 0 0 0 0 0 0 0.25 0"/>
<feBlend mode="normal" in2="BackgroundImageFix" result="effect1_dropShadow_28_62"/>
<feBlend mode="normal" in="SourceGraphic" in2="effect1_dropShadow_28_62" result="shape"/>
</filter>
<filter id="filter5_d_28_62" x="408.996" y="239.792" width="27.9102" height="25.208" filterUnits="userSpaceOnUse" color-interpolation-filters="sRGB">
<feFlood flood-opacity="0" result="BackgroundImageFix"/>
<feColorMatrix in="SourceAlpha" type="matrix" values="0 0 0 0 0 0 0 0 0 0 0 0 0 0 0 0 0 0 127 0" result="hardAlpha"/>
<feOffset dy="4"/>
<feGaussianBlur stdDeviation="2"/>
<feComposite in2="hardAlpha" operator="out"/>
<feColorMatrix type="matrix" values="0 0 0 0 0 0 0 0 0 0 0 0 0 0 0 0 0 0 0.25 0"/>
<feBlend mode="normal" in2="BackgroundImageFix" result="effect1_dropShadow_28_62"/>
<feBlend mode="normal" in="SourceGraphic" in2="effect1_dropShadow_28_62" result="shape"/>
</filter>
<filter id="filter6_d_28_62" x="402.902" y="381.864" width="47.4259" height="25.136" filterUnits="userSpaceOnUse" color-interpolation-filters="sRGB">
<feFlood flood-opacity="0" result="BackgroundImageFix"/>
<feColorMatrix in="SourceAlpha" type="matrix" values="0 0 0 0 0 0 0 0 0 0 0 0 0 0 0 0 0 0 127 0" result="hardAlpha"/>
<feOffset dy="4"/>
<feGaussianBlur stdDeviation="2"/>
<feComposite in2="hardAlpha" operator="out"/>
<feColorMatrix type="matrix" values="0 0 0 0 0 0 0 0 0 0 0 0 0 0 0 0 0 0 0.25 0"/>
<feBlend mode="normal" in2="BackgroundImageFix" result="effect1_dropShadow_28_62"/>
<feBlend mode="normal" in="SourceGraphic" in2="effect1_dropShadow_28_62" result="shape"/>
</filter>
</defs>
</svg>
