<svg xmlns="http://www.w3.org/2000/svg" width="100%" height="100%" viewBox="0 0 444 671" fill="none">
<g filter="url(#filter0_d_42_2)">
<rect x="5" y="1" width="434" height="661" rx="20" fill="#FFFFFF"/>
<rect x="4.5" y="0.5" width="435" height="662" rx="20.5" stroke="#0F225B"/>
</g>
<g filter="url(#filter1_d_42_2)">
<path d="M175.331 43L172.579 35.928H163.523L160.803 43H157.891L166.819 20.056H169.411L178.307 43H175.331ZM169.155 26.456C169.091 26.2853 168.984 25.976 168.835 25.528C168.685 25.08 168.536 24.6213 168.387 24.152C168.259 23.6613 168.152 23.288 168.067 23.032C167.96 23.4587 167.843 23.896 167.715 24.344C167.608 24.7707 167.491 25.1653 167.363 25.528C167.256 25.8907 167.16 26.2 167.075 26.456L164.483 33.368H171.715L169.155 26.456ZM196.386 20.152C199.373 20.152 201.549 20.7387 202.914 21.912C204.28 23.0853 204.962 24.7387 204.962 26.872C204.962 27.8107 204.802 28.7173 204.482 29.592C204.184 30.4453 203.682 31.2133 202.978 31.896C202.274 32.5787 201.336 33.1227 200.162 33.528C198.989 33.912 197.549 34.104 195.842 34.104H193.218V43H190.338V20.152H196.386ZM196.13 22.616H193.218V31.64H195.522C196.973 31.64 198.178 31.4907 199.138 31.192C200.098 30.872 200.813 30.3707 201.282 29.688C201.752 29.0053 201.986 28.1093 201.986 27C201.986 25.528 201.517 24.4293 200.578 23.704C199.64 22.9787 198.157 22.616 196.13 22.616ZM227.185 43H224.305V32.344H212.593V43H209.713V20.152H212.593V29.816H224.305V20.152H227.185V43ZM247.768 43L245.016 35.928H235.96L233.24 43H230.328L239.256 20.056H241.848L250.744 43H247.768ZM241.592 26.456C241.528 26.2853 241.421 25.976 241.272 25.528C241.123 25.08 240.973 24.6213 240.824 24.152C240.696 23.6613 240.589 23.288 240.504 23.032C240.397 23.4587 240.28 23.896 240.152 24.344C240.045 24.7707 239.928 25.1653 239.8 25.528C239.693 25.8907 239.597 26.2 239.512 26.456L236.92 33.368H244.152L241.592 26.456ZM266.83 36.888C266.83 38.2533 266.499 39.416 265.838 40.376C265.176 41.3147 264.227 42.04 262.99 42.552C261.774 43.064 260.334 43.32 258.67 43.32C257.816 43.32 256.995 43.2773 256.206 43.192C255.438 43.1067 254.734 42.9893 254.094 42.84C253.454 42.6693 252.888 42.4667 252.398 42.232V39.48C253.166 39.8213 254.115 40.1307 255.246 40.408C256.398 40.6853 257.582 40.824 258.798 40.824C259.928 40.824 260.878 40.6747 261.646 40.376C262.414 40.0773 262.99 39.6507 263.374 39.096C263.758 38.5413 263.95 37.8907 263.95 37.144C263.95 36.3973 263.79 35.768 263.47 35.256C263.15 34.744 262.595 34.2747 261.806 33.848C261.038 33.4 259.96 32.9307 258.574 32.44C257.592 32.0773 256.728 31.6933 255.982 31.288C255.256 30.8613 254.648 30.3813 254.158 29.848C253.667 29.3147 253.294 28.7067 253.038 28.024C252.803 27.3413 252.686 26.552 252.686 25.656C252.686 24.44 252.995 23.4053 253.614 22.552C254.232 21.6773 255.086 21.0053 256.174 20.536C257.283 20.0667 258.552 19.832 259.982 19.832C261.24 19.832 262.392 19.9493 263.438 20.184C264.483 20.4187 265.432 20.728 266.286 21.112L265.39 23.576C264.6 23.2347 263.736 22.9467 262.798 22.712C261.88 22.4773 260.92 22.36 259.918 22.36C258.958 22.36 258.158 22.4987 257.518 22.776C256.878 23.0533 256.398 23.448 256.078 23.96C255.758 24.4507 255.598 25.0267 255.598 25.688C255.598 26.456 255.758 27.096 256.078 27.608C256.398 28.12 256.92 28.5787 257.646 28.984C258.371 29.3893 259.352 29.8267 260.59 30.296C261.934 30.7867 263.064 31.32 263.982 31.896C264.92 32.4507 265.624 33.1227 266.094 33.912C266.584 34.7013 266.83 35.6933 266.83 36.888ZM284.2 43H271.432V20.152H284.2V22.68H274.312V29.816H283.624V32.312H274.312V40.472H284.2V43Z" fill="#0F225B"/>
</g>
<g filter="url(#filter2_d_42_2)">
<path d="M23.864 163L17.552 146.2H19.736L25.04 160.864L30.392 146.2H32.528L26.216 163H23.864ZM41.3739 163.288C39.8379 163.288 38.4859 162.928 37.3179 162.208C36.1499 161.472 35.2379 160.456 34.5819 159.16C33.9259 157.848 33.5979 156.328 33.5979 154.6C33.5979 152.888 33.9259 151.384 34.5819 150.088C35.2379 148.776 36.1499 147.752 37.3179 147.016C38.4859 146.28 39.8379 145.912 41.3739 145.912C42.9419 145.912 44.3099 146.28 45.4779 147.016C46.6459 147.752 47.5499 148.776 48.1899 150.088C48.8299 151.384 49.1499 152.888 49.1499 154.6C49.1499 156.328 48.8299 157.848 48.1899 159.16C47.5499 160.456 46.6459 161.472 45.4779 162.208C44.3099 162.928 42.9419 163.288 41.3739 163.288ZM41.3739 161.512C42.5259 161.512 43.5259 161.24 44.3739 160.696C45.2379 160.136 45.9019 159.344 46.3659 158.32C46.8459 157.28 47.0859 156.04 47.0859 154.6C47.0859 153.16 46.8459 151.928 46.3659 150.904C45.9019 149.864 45.2379 149.072 44.3739 148.528C43.5259 147.984 42.5259 147.712 41.3739 147.712C40.2379 147.712 39.2379 147.984 38.3739 148.528C37.5259 149.072 36.8619 149.864 36.3819 150.904C35.9019 151.928 35.6619 153.16 35.6619 154.6C35.6619 156.04 35.9019 157.28 36.3819 158.32C36.8619 159.344 37.5259 160.136 38.3739 160.696C39.2379 161.24 40.2379 161.512 41.3739 161.512ZM52.1761 163V146.2H54.1921V161.392H62.0161V163H52.1761ZM66.1663 163V147.856H61.1503V146.2H73.1983V147.856H68.1823V163H66.1663ZM72.7987 163L78.9907 146.2H81.1267L87.2947 163H85.1347L80.0467 148.72L74.9107 163H72.7987ZM75.6307 158.68L76.2067 157.048H83.8147L84.3907 158.68H75.6307ZM96.1027 163.288C94.5347 163.288 93.1587 162.928 91.9747 162.208C90.7907 161.472 89.8707 160.456 89.2147 159.16C88.5587 157.864 88.2307 156.352 88.2307 154.624C88.2307 152.912 88.5587 151.4 89.2147 150.088C89.8867 148.776 90.8307 147.752 92.0467 147.016C93.2787 146.28 94.7267 145.912 96.3907 145.912C98.2787 145.912 99.8547 146.368 101.119 147.28C102.383 148.176 103.191 149.432 103.543 151.048H101.215C100.991 150.04 100.463 149.24 99.6307 148.648C98.7987 148.056 97.7187 147.76 96.3907 147.76C95.1587 147.76 94.0787 148.04 93.1507 148.6C92.2387 149.144 91.5347 149.928 91.0387 150.952C90.5427 151.976 90.2947 153.2 90.2947 154.624C90.2947 156.048 90.5427 157.28 91.0387 158.32C91.5347 159.344 92.2227 160.128 93.1027 160.672C93.9987 161.216 95.0227 161.488 96.1747 161.488C97.9667 161.488 99.3187 160.96 100.231 159.904C101.143 158.848 101.663 157.416 101.791 155.608H96.9427V154.024H103.855V163H102.007L101.839 160.24C101.439 160.896 100.975 161.456 100.447 161.92C99.9347 162.368 99.3267 162.712 98.6227 162.952C97.9187 163.176 97.0787 163.288 96.1027 163.288ZM107.184 163V146.2H117.576V147.856H109.2V153.712H116.856V155.344H109.2V161.344H117.576V163H107.184Z" fill="#0F225B"/>
</g>
<g filter="url(#filter3_d_42_2)">
<path d="M24.4298 289.52C23.5178 289.52 22.6938 289.68 21.9578 290C21.2218 290.304 20.5978 290.76 20.0858 291.368C19.5738 291.96 19.1818 292.688 18.9098 293.552C18.6378 294.4 18.5018 295.36 18.5018 296.432C18.5018 297.84 18.7178 299.064 19.1498 300.104C19.5978 301.144 20.2538 301.944 21.1178 302.504C21.9978 303.064 23.0938 303.344 24.4058 303.344C25.1578 303.344 25.8698 303.28 26.5418 303.152C27.2138 303.024 27.8698 302.864 28.5098 302.672V304.544C27.8698 304.784 27.2058 304.96 26.5178 305.072C25.8458 305.184 25.0378 305.24 24.0938 305.24C22.3498 305.24 20.8938 304.88 19.7258 304.16C18.5578 303.44 17.6778 302.416 17.0858 301.088C16.5098 299.76 16.2218 298.2 16.2218 296.408C16.2218 295.112 16.3978 293.928 16.7498 292.856C17.1178 291.784 17.6458 290.856 18.3338 290.072C19.0378 289.288 19.9018 288.688 20.9258 288.272C21.9498 287.84 23.1258 287.624 24.4538 287.624C25.3338 287.624 26.1818 287.712 26.9978 287.888C27.8138 288.064 28.5418 288.312 29.1818 288.632L28.3178 290.456C27.7898 290.216 27.1978 290 26.5418 289.808C25.9018 289.616 25.1978 289.52 24.4298 289.52ZM45.2819 298.952C45.2819 300.136 45.0419 301.208 44.5619 302.168C44.0819 303.112 43.3459 303.864 42.3539 304.424C41.3779 304.968 40.1299 305.24 38.6099 305.24C36.4819 305.24 34.8579 304.664 33.7379 303.512C32.6339 302.344 32.0819 300.808 32.0819 298.904V287.864H34.2419V298.976C34.2419 300.368 34.6099 301.448 35.3459 302.216C36.0979 302.984 37.2259 303.368 38.7299 303.368C39.7699 303.368 40.6099 303.184 41.2499 302.816C41.9059 302.432 42.3859 301.912 42.6899 301.256C42.9939 300.584 43.1459 299.816 43.1459 298.952V287.864H45.2819V298.952ZM54.5326 287.864C55.9566 287.864 57.1246 288.048 58.0366 288.416C58.9646 288.768 59.6526 289.304 60.1006 290.024C60.5486 290.744 60.7726 291.648 60.7726 292.736C60.7726 293.648 60.6046 294.408 60.2686 295.016C59.9326 295.624 59.5006 296.112 58.9726 296.48C58.4606 296.832 57.9166 297.112 57.3406 297.32L62.0446 305H59.5246L55.3726 297.92H51.9646V305H49.8046V287.864H54.5326ZM54.4126 289.736H51.9646V296.096H54.5326C55.4606 296.096 56.2206 295.976 56.8126 295.736C57.4046 295.48 57.8366 295.112 58.1086 294.632C58.3966 294.152 58.5406 293.552 58.5406 292.832C58.5406 292.08 58.3886 291.48 58.0846 291.032C57.7966 290.584 57.3486 290.256 56.7406 290.048C56.1326 289.84 55.3566 289.736 54.4126 289.736ZM69.4622 287.864C70.8863 287.864 72.0543 288.048 72.9663 288.416C73.8943 288.768 74.5823 289.304 75.0303 290.024C75.4783 290.744 75.7023 291.648 75.7023 292.736C75.7023 293.648 75.5343 294.408 75.1983 295.016C74.8623 295.624 74.4303 296.112 73.9023 296.48C73.3903 296.832 72.8463 297.112 72.2703 297.32L76.9743 305H74.4543L70.3023 297.92H66.8943V305H64.7343V287.864H69.4622ZM69.3423 289.736H66.8943V296.096H69.4622C70.3903 296.096 71.1503 295.976 71.7423 295.736C72.3343 295.48 72.7663 295.112 73.0383 294.632C73.3263 294.152 73.4703 293.552 73.4703 292.832C73.4703 292.08 73.3183 291.48 73.0143 291.032C72.7263 290.584 72.2783 290.256 71.6703 290.048C71.0623 289.84 70.2863 289.736 69.3423 289.736ZM89.2399 305H79.6639V287.864H89.2399V289.76H81.8239V295.112H88.8079V296.984H81.8239V303.104H89.2399V305ZM106.584 305H104.064L94.8959 290.768H94.7999C94.8159 291.056 94.8319 291.376 94.8479 291.728C94.8799 292.08 94.9039 292.464 94.9199 292.88C94.9359 293.28 94.9519 293.696 94.9679 294.128C94.9839 294.56 94.9919 294.992 94.9919 295.424V305H92.9999V287.864H95.4959L104.64 302.048H104.736C104.72 301.856 104.704 301.592 104.688 301.256C104.672 300.904 104.656 300.52 104.64 300.104C104.624 299.672 104.608 299.232 104.592 298.784C104.576 298.336 104.568 297.92 104.568 297.536V287.864H106.584V305ZM116.658 305H114.498V289.76H109.146V287.864H121.986V289.76H116.658V305Z" fill="#0F225B"/>
</g>
<g filter="url(#filter4_d_42_2)">
<path d="M59.8757 571.864C62.1157 571.864 63.7477 572.304 64.7717 573.184C65.7957 574.064 66.3077 575.304 66.3077 576.904C66.3077 577.608 66.1877 578.288 65.9477 578.944C65.7237 579.584 65.3477 580.16 64.8197 580.672C64.2917 581.184 63.5877 581.592 62.7077 581.896C61.8277 582.184 60.7477 582.328 59.4677 582.328H57.4997V589H55.3397V571.864H59.8757ZM59.6837 573.712H57.4997V580.48H59.2277C60.3157 580.48 61.2197 580.368 61.9397 580.144C62.6597 579.904 63.1957 579.528 63.5477 579.016C63.8997 578.504 64.0757 577.832 64.0757 577C64.0757 575.896 63.7237 575.072 63.0197 574.528C62.3157 573.984 61.2037 573.712 59.6837 573.712ZM72.031 589H69.871V571.864H79.447V573.76H72.031V579.832H78.991V581.728H72.031V589Z" fill="#0F225B"/>
</g>
<g filter="url(#filter5_d_42_2)">
<path d="M31.5515 429.864C33.7915 429.864 35.4235 430.304 36.4475 431.184C37.4715 432.064 37.9835 433.304 37.9835 434.904C37.9835 435.608 37.8635 436.288 37.6235 436.944C37.3995 437.584 37.0235 438.16 36.4955 438.672C35.9675 439.184 35.2635 439.592 34.3835 439.896C33.5035 440.184 32.4235 440.328 31.1435 440.328H29.1755V447H27.0155V429.864H31.5515ZM31.3595 431.712H29.1755V438.48H30.9035C31.9915 438.48 32.8955 438.368 33.6155 438.144C34.3355 437.904 34.8715 437.528 35.2235 437.016C35.5755 436.504 35.7515 435.832 35.7515 435C35.7515 433.896 35.3995 433.072 34.6955 432.528C33.9915 431.984 32.8795 431.712 31.3595 431.712ZM56.4988 438.408C56.4988 439.736 56.3308 440.944 55.9948 442.032C55.6588 443.104 55.1548 444.032 54.4828 444.816C53.8268 445.6 53.0028 446.2 52.0108 446.616C51.0348 447.032 49.8988 447.24 48.6028 447.24C47.2588 447.24 46.0908 447.032 45.0988 446.616C44.1068 446.184 43.2828 445.584 42.6268 444.816C41.9708 444.032 41.4828 443.096 41.1628 442.008C40.8428 440.92 40.6828 439.712 40.6828 438.384C40.6828 436.624 40.9708 435.088 41.5468 433.776C42.1228 432.464 42.9948 431.44 44.1628 430.704C45.3468 429.968 46.8348 429.6 48.6268 429.6C50.3388 429.6 51.7788 429.968 52.9468 430.704C54.1148 431.424 54.9948 432.448 55.5868 433.776C56.1948 435.088 56.4988 436.632 56.4988 438.408ZM42.9628 438.408C42.9628 439.848 43.1628 441.088 43.5628 442.128C43.9628 443.168 44.5788 443.968 45.4108 444.528C46.2588 445.088 47.3228 445.368 48.6028 445.368C49.8988 445.368 50.9548 445.088 51.7708 444.528C52.6028 443.968 53.2188 443.168 53.6188 442.128C54.0188 441.088 54.2188 439.848 54.2188 438.408C54.2188 436.248 53.7708 434.56 52.8748 433.344C51.9788 432.112 50.5628 431.496 48.6268 431.496C47.3308 431.496 46.2588 431.776 45.4108 432.336C44.5788 432.88 43.9628 433.672 43.5628 434.712C43.1628 435.736 42.9628 436.968 42.9628 438.408ZM79.7424 429.864L75.1824 447H72.9984L69.6624 435.768C69.5664 435.432 69.4704 435.088 69.3744 434.736C69.2784 434.384 69.1904 434.048 69.1104 433.728C69.0304 433.408 68.9584 433.136 68.8944 432.912C68.8464 432.672 68.8144 432.496 68.7984 432.384C68.7824 432.496 68.7504 432.672 68.7024 432.912C68.6704 433.136 68.6144 433.408 68.5344 433.728C68.4544 434.048 68.3664 434.392 68.2704 434.76C68.1904 435.112 68.0944 435.472 67.9824 435.84L64.7424 447H62.5584L58.0224 429.864H60.2784L62.9424 440.328C63.0384 440.696 63.1264 441.064 63.2064 441.432C63.2864 441.784 63.3584 442.136 63.4224 442.488C63.5024 442.824 63.5664 443.152 63.6144 443.472C63.6624 443.792 63.7104 444.104 63.7584 444.408C63.8064 444.088 63.8544 443.76 63.9024 443.424C63.9664 443.088 64.0384 442.744 64.1184 442.392C64.1984 442.024 64.2864 441.656 64.3824 441.288C64.4784 440.92 64.5744 440.56 64.6704 440.208L67.6944 429.864H69.9264L73.0704 440.28C73.1824 440.648 73.2864 441.024 73.3824 441.408C73.4784 441.776 73.5664 442.136 73.6464 442.488C73.7264 442.84 73.7904 443.184 73.8384 443.52C73.9024 443.84 73.9584 444.136 74.0064 444.408C74.0544 444.008 74.1184 443.592 74.1984 443.16C74.2784 442.712 74.3744 442.248 74.4864 441.768C74.5984 441.288 74.7184 440.8 74.8464 440.304L77.4864 429.864H79.7424ZM91.9509 447H82.3749V429.864H91.9509V431.76H84.5349V437.112H91.5189V438.984H84.5349V445.104H91.9509V447ZM100.439 429.864C101.863 429.864 103.031 430.048 103.943 430.416C104.871 430.768 105.559 431.304 106.007 432.024C106.455 432.744 106.679 433.648 106.679 434.736C106.679 435.648 106.511 436.408 106.175 437.016C105.839 437.624 105.407 438.112 104.879 438.48C104.367 438.832 103.823 439.112 103.247 439.32L107.951 447H105.431L101.279 439.92H97.8708V447H95.7108V429.864H100.439ZM100.319 431.736H97.8708V438.096H100.439C101.367 438.096 102.127 437.976 102.719 437.736C103.311 437.48 103.743 437.112 104.015 436.632C104.303 436.152 104.447 435.552 104.447 434.832C104.447 434.08 104.295 433.48 103.991 433.032C103.703 432.584 103.255 432.256 102.647 432.048C102.039 431.84 101.263 431.736 100.319 431.736Z" fill="#0F225B"/>
</g>
<rect x="130" y="91" width="292" height="127" rx="20" fill="#0F225B"/>
<rect x="157" y="108" width="211" height="89" rx="20" fill="#F9FFD9"/>
<rect x="129" y="375" width="292" height="127" rx="20" fill="#0F225B"/>
<rect x="156" y="392" width="211" height="89" rx="20" fill="#F9FFD9"/>
<rect x="129" y="517" width="292" height="127" rx="20" fill="#0F225B"/>
<rect x="156" y="533" width="236" height="89" rx="20" fill="#F9FFD9"/>
<rect x="130" y="233" width="292" height="127" rx="20" fill="#0F225B"/>
<rect x="157" y="250" width="211" height="89" rx="20" fill="#F9FFD9"/>
<g filter="url(#filter6_d_42_2)">
<path d="M400.365 144.864L394.245 162H392.085L385.965 144.864H388.221L392.085 155.856C392.261 156.32 392.413 156.768 392.541 157.2C392.669 157.632 392.781 158.048 392.877 158.448C392.989 158.832 393.085 159.216 393.165 159.6C393.245 159.216 393.333 158.824 393.429 158.424C393.541 158.024 393.661 157.608 393.789 157.176C393.933 156.744 394.085 156.288 394.245 155.808L398.085 144.864H400.365ZM404.938 159.504V162H402.441V159.504H404.938Z" fill="white"/>
</g>
<g filter="url(#filter7_d_42_2)">
<path d="M398.576 305L396.512 299.696H389.72L387.68 305H385.496L392.192 287.792H394.136L400.808 305H398.576ZM393.944 292.592C393.896 292.464 393.816 292.232 393.704 291.896C393.592 291.56 393.48 291.216 393.368 290.864C393.272 290.496 393.192 290.216 393.128 290.024C393.048 290.344 392.96 290.672 392.864 291.008C392.784 291.328 392.696 291.624 392.6 291.896C392.52 292.168 392.448 292.4 392.384 292.592L390.44 297.776H395.864L393.944 292.592ZM405.406 302.504V305H402.91V302.504H405.406Z" fill="white"/>
</g>
<g filter="url(#filter8_d_42_2)">
<path d="M388.43 447H385.886L379.814 438.816L378.062 440.352V447H375.902V429.864H378.062V438.312C378.542 437.768 379.03 437.224 379.526 436.68C380.022 436.136 380.518 435.592 381.014 435.048L385.646 429.864H388.166L381.374 437.328L388.43 447ZM410.442 429.864L405.882 447H403.698L400.362 435.768C400.266 435.432 400.17 435.088 400.074 434.736C399.978 434.384 399.89 434.048 399.81 433.728C399.73 433.408 399.658 433.136 399.594 432.912C399.546 432.672 399.514 432.496 399.498 432.384C399.482 432.496 399.45 432.672 399.402 432.912C399.37 433.136 399.314 433.408 399.234 433.728C399.154 434.048 399.066 434.392 398.97 434.76C398.89 435.112 398.794 435.472 398.682 435.84L395.442 447H393.258L388.722 429.864H390.978L393.642 440.328C393.738 440.696 393.826 441.064 393.906 441.432C393.986 441.784 394.058 442.136 394.122 442.488C394.202 442.824 394.266 443.152 394.314 443.472C394.362 443.792 394.41 444.104 394.458 444.408C394.506 444.088 394.554 443.76 394.602 443.424C394.666 443.088 394.738 442.744 394.818 442.392C394.898 442.024 394.986 441.656 395.082 441.288C395.178 440.92 395.274 440.56 395.37 440.208L398.394 429.864H400.626L403.77 440.28C403.882 440.648 403.986 441.024 404.082 441.408C404.178 441.776 404.266 442.136 404.346 442.488C404.426 442.84 404.49 443.184 404.538 443.52C404.602 443.84 404.658 444.136 404.706 444.408C404.754 444.008 404.818 443.592 404.898 443.16C404.978 442.712 405.074 442.248 405.186 441.768C405.298 441.288 405.418 440.8 405.546 440.304L408.186 429.864H410.442ZM415.328 444.504V447H412.832V444.504H415.328Z" fill="white"/>
</g>
<line x1="72.9966" y1="62.5" x2="371.003" y2="62.5" stroke="#0F225B"/>
<defs>
<filter id="filter0_d_42_2" x="0" y="0" width="444" height="671" filterUnits="userSpaceOnUse" color-interpolation-filters="sRGB">
<feFlood flood-opacity="0" result="BackgroundImageFix"/>
<feColorMatrix in="SourceAlpha" type="matrix" values="0 0 0 0 0 0 0 0 0 0 0 0 0 0 0 0 0 0 127 0" result="hardAlpha"/>
<feOffset dy="4"/>
<feGaussianBlur stdDeviation="2"/>
<feComposite in2="hardAlpha" operator="out"/>
<feColorMatrix type="matrix" values="0 0 0 0 0 0 0 0 0 0 0 0 0 0 0 0 0 0 0.25 0"/>
<feBlend mode="normal" in2="BackgroundImageFix" result="effect1_dropShadow_42_2"/>
<feBlend mode="normal" in="SourceGraphic" in2="effect1_dropShadow_42_2" result="shape"/>
</filter>
<filter id="filter1_d_42_2" x="153.891" y="19.832" width="134.309" height="31.4879" filterUnits="userSpaceOnUse" color-interpolation-filters="sRGB">
<feFlood flood-opacity="0" result="BackgroundImageFix"/>
<feColorMatrix in="SourceAlpha" type="matrix" values="0 0 0 0 0 0 0 0 0 0 0 0 0 0 0 0 0 0 127 0" result="hardAlpha"/>
<feOffset dy="4"/>
<feGaussianBlur stdDeviation="2"/>
<feComposite in2="hardAlpha" operator="out"/>
<feColorMatrix type="matrix" values="0 0 0 0 0 0 0 0 0 0 0 0 0 0 0 0 0 0 0.25 0"/>
<feBlend mode="normal" in2="BackgroundImageFix" result="effect1_dropShadow_42_2"/>
<feBlend mode="normal" in="SourceGraphic" in2="effect1_dropShadow_42_2" result="shape"/>
</filter>
<filter id="filter2_d_42_2" x="13.552" y="145.912" width="108.024" height="25.376" filterUnits="userSpaceOnUse" color-interpolation-filters="sRGB">
<feFlood flood-opacity="0" result="BackgroundImageFix"/>
<feColorMatrix in="SourceAlpha" type="matrix" values="0 0 0 0 0 0 0 0 0 0 0 0 0 0 0 0 0 0 127 0" result="hardAlpha"/>
<feOffset dy="4"/>
<feGaussianBlur stdDeviation="2"/>
<feComposite in2="hardAlpha" operator="out"/>
<feColorMatrix type="matrix" values="0 0 0 0 0 0 0 0 0 0 0 0 0 0 0 0 0 0 0.25 0"/>
<feBlend mode="normal" in2="BackgroundImageFix" result="effect1_dropShadow_42_2"/>
<feBlend mode="normal" in="SourceGraphic" in2="effect1_dropShadow_42_2" result="shape"/>
</filter>
<filter id="filter3_d_42_2" x="12.2218" y="287.624" width="113.764" height="25.616" filterUnits="userSpaceOnUse" color-interpolation-filters="sRGB">
<feFlood flood-opacity="0" result="BackgroundImageFix"/>
<feColorMatrix in="SourceAlpha" type="matrix" values="0 0 0 0 0 0 0 0 0 0 0 0 0 0 0 0 0 0 127 0" result="hardAlpha"/>
<feOffset dy="4"/>
<feGaussianBlur stdDeviation="2"/>
<feComposite in2="hardAlpha" operator="out"/>
<feColorMatrix type="matrix" values="0 0 0 0 0 0 0 0 0 0 0 0 0 0 0 0 0 0 0.25 0"/>
<feBlend mode="normal" in2="BackgroundImageFix" result="effect1_dropShadow_42_2"/>
<feBlend mode="normal" in="SourceGraphic" in2="effect1_dropShadow_42_2" result="shape"/>
</filter>
<filter id="filter4_d_42_2" x="51.3397" y="571.864" width="32.1073" height="25.136" filterUnits="userSpaceOnUse" color-interpolation-filters="sRGB">
<feFlood flood-opacity="0" result="BackgroundImageFix"/>
<feColorMatrix in="SourceAlpha" type="matrix" values="0 0 0 0 0 0 0 0 0 0 0 0 0 0 0 0 0 0 127 0" result="hardAlpha"/>
<feOffset dy="4"/>
<feGaussianBlur stdDeviation="2"/>
<feComposite in2="hardAlpha" operator="out"/>
<feColorMatrix type="matrix" values="0 0 0 0 0 0 0 0 0 0 0 0 0 0 0 0 0 0 0.25 0"/>
<feBlend mode="normal" in2="BackgroundImageFix" result="effect1_dropShadow_42_2"/>
<feBlend mode="normal" in="SourceGraphic" in2="effect1_dropShadow_42_2" result="shape"/>
</filter>
<filter id="filter5_d_42_2" x="23.0155" y="429.6" width="88.9353" height="25.6399" filterUnits="userSpaceOnUse" color-interpolation-filters="sRGB">
<feFlood flood-opacity="0" result="BackgroundImageFix"/>
<feColorMatrix in="SourceAlpha" type="matrix" values="0 0 0 0 0 0 0 0 0 0 0 0 0 0 0 0 0 0 127 0" result="hardAlpha"/>
<feOffset dy="4"/>
<feGaussianBlur stdDeviation="2"/>
<feComposite in2="hardAlpha" operator="out"/>
<feColorMatrix type="matrix" values="0 0 0 0 0 0 0 0 0 0 0 0 0 0 0 0 0 0 0.25 0"/>
<feBlend mode="normal" in2="BackgroundImageFix" result="effect1_dropShadow_42_2"/>
<feBlend mode="normal" in="SourceGraphic" in2="effect1_dropShadow_42_2" result="shape"/>
</filter>
<filter id="filter6_d_42_2" x="381.965" y="144.864" width="26.9727" height="25.136" filterUnits="userSpaceOnUse" color-interpolation-filters="sRGB">
<feFlood flood-opacity="0" result="BackgroundImageFix"/>
<feColorMatrix in="SourceAlpha" type="matrix" values="0 0 0 0 0 0 0 0 0 0 0 0 0 0 0 0 0 0 127 0" result="hardAlpha"/>
<feOffset dy="4"/>
<feGaussianBlur stdDeviation="2"/>
<feComposite in2="hardAlpha" operator="out"/>
<feColorMatrix type="matrix" values="0 0 0 0 0 0 0 0 0 0 0 0 0 0 0 0 0 0 0.25 0"/>
<feBlend mode="normal" in2="BackgroundImageFix" result="effect1_dropShadow_42_2"/>
<feBlend mode="normal" in="SourceGraphic" in2="effect1_dropShadow_42_2" result="shape"/>
</filter>
<filter id="filter7_d_42_2" x="381.496" y="287.792" width="27.9102" height="25.208" filterUnits="userSpaceOnUse" color-interpolation-filters="sRGB">
<feFlood flood-opacity="0" result="BackgroundImageFix"/>
<feColorMatrix in="SourceAlpha" type="matrix" values="0 0 0 0 0 0 0 0 0 0 0 0 0 0 0 0 0 0 127 0" result="hardAlpha"/>
<feOffset dy="4"/>
<feGaussianBlur stdDeviation="2"/>
<feComposite in2="hardAlpha" operator="out"/>
<feColorMatrix type="matrix" values="0 0 0 0 0 0 0 0 0 0 0 0 0 0 0 0 0 0 0.25 0"/>
<feBlend mode="normal" in2="BackgroundImageFix" result="effect1_dropShadow_42_2"/>
<feBlend mode="normal" in="SourceGraphic" in2="effect1_dropShadow_42_2" result="shape"/>
</filter>
<filter id="filter8_d_42_2" x="371.902" y="429.864" width="47.4259" height="25.136" filterUnits="userSpaceOnUse" color-interpolation-filters="sRGB">
<feFlood flood-opacity="0" result="BackgroundImageFix"/>
<feColorMatrix in="SourceAlpha" type="matrix" values="0 0 0 0 0 0 0 0 0 0 0 0 0 0 0 0 0 0 127 0" result="hardAlpha"/>
<feOffset dy="4"/>
<feGaussianBlur stdDeviation="2"/>
<feComposite in2="hardAlpha" operator="out"/>
<feColorMatrix type="matrix" values="0 0 0 0 0 0 0 0 0 0 0 0 0 0 0 0 0 0 0.25 0"/>
<feBlend mode="normal" in2="BackgroundImageFix" result="effect1_dropShadow_42_2"/>
<feBlend mode="normal" in="SourceGraphic" in2="effect1_dropShadow_42_2" result="shape"/>
</filter>
</defs>
</svg>
