<svg xmlns="http://www.w3.org/2000/svg" width="100%" height="100%" viewBox="0 0 434 603" fill="none">
<path d="M0 10C0 4.47715 4.47715 0 10 0H424C429.523 0 434 4.47715 434 10V593C434 598.523 429.523 603 424 603H10C4.47716 603 0 598.523 0 593V10Z" fill="#555555"/>
<g filter="url(#filter0_d_31_63)">
<path d="M22.7359 100.864L16.6159 118H14.4559L8.33594 100.864H10.5919L14.4559 111.856C14.6319 112.32 14.7839 112.768 14.9119 113.2C15.0399 113.632 15.1519 114.048 15.2479 114.448C15.3599 114.832 15.4559 115.216 15.5359 115.6C15.6159 115.216 15.7039 114.824 15.7999 114.424C15.9119 114.024 16.0319 113.608 16.1599 113.176C16.3039 112.744 16.4559 112.288 16.6159 111.808L20.4559 100.864H22.7359ZM39.7722 109.408C39.7722 110.736 39.6042 111.944 39.2682 113.032C38.9322 114.104 38.4282 115.032 37.7562 115.816C37.1002 116.6 36.2762 117.2 35.2842 117.616C34.3082 118.032 33.1722 118.24 31.8762 118.24C30.5322 118.24 29.3642 118.032 28.3722 117.616C27.3802 117.184 26.5562 116.584 25.9002 115.816C25.2442 115.032 24.7562 114.096 24.4362 113.008C24.1162 111.92 23.9562 110.712 23.9562 109.384C23.9562 107.624 24.2442 106.088 24.8202 104.776C25.3962 103.464 26.2682 102.44 27.4362 101.704C28.6202 100.968 30.1082 100.6 31.9002 100.6C33.6122 100.6 35.0522 100.968 36.2202 101.704C37.3882 102.424 38.2682 103.448 38.8602 104.776C39.4682 106.088 39.7722 107.632 39.7722 109.408ZM26.2362 109.408C26.2362 110.848 26.4362 112.088 26.8362 113.128C27.2362 114.168 27.8522 114.968 28.6842 115.528C29.5322 116.088 30.5962 116.368 31.8762 116.368C33.1722 116.368 34.2282 116.088 35.0442 115.528C35.8762 114.968 36.4922 114.168 36.8922 113.128C37.2922 112.088 37.4922 110.848 37.4922 109.408C37.4922 107.248 37.0442 105.56 36.1482 104.344C35.2522 103.112 33.8362 102.496 31.9002 102.496C30.6042 102.496 29.5322 102.776 28.6842 103.336C27.8522 103.88 27.2362 104.672 26.8362 105.712C26.4362 106.736 26.2362 107.968 26.2362 109.408ZM43.5702 118V100.864H45.7302V116.08H53.2182V118H43.5702ZM61.1114 118H58.9514V102.76H53.5994V100.864H66.4394V102.76H61.1114V118ZM78.0878 118L76.0238 112.696H69.2318L67.1918 118H65.0078L71.7038 100.792H73.6478L80.3198 118H78.0878ZM73.4558 105.592C73.4078 105.464 73.3278 105.232 73.2158 104.896C73.1038 104.56 72.9918 104.216 72.8798 103.864C72.7838 103.496 72.7038 103.216 72.6398 103.024C72.5598 103.344 72.4718 103.672 72.3758 104.008C72.2958 104.328 72.2078 104.624 72.1118 104.896C72.0318 105.168 71.9598 105.4 71.8958 105.592L69.9518 110.776H75.3758L73.4558 105.592ZM89.6352 108.952H95.5632V117.352C94.6352 117.656 93.6992 117.88 92.7552 118.024C91.8112 118.168 90.7392 118.24 89.5392 118.24C87.7632 118.24 86.2672 117.888 85.0512 117.184C83.8352 116.464 82.9072 115.448 82.2672 114.136C81.6432 112.808 81.3312 111.24 81.3312 109.432C81.3312 107.64 81.6832 106.088 82.3872 104.776C83.0912 103.464 84.0992 102.448 85.4112 101.728C86.7392 100.992 88.3392 100.624 90.2112 100.624C91.1712 100.624 92.0752 100.712 92.9232 100.888C93.7872 101.064 94.5872 101.312 95.3232 101.632L94.5072 103.504C93.8992 103.232 93.2112 103 92.4432 102.808C91.6912 102.616 90.9072 102.52 90.0912 102.52C88.7312 102.52 87.5632 102.8 86.5872 103.36C85.6112 103.92 84.8672 104.72 84.3552 105.76C83.8432 106.784 83.5872 108.008 83.5872 109.432C83.5872 110.792 83.8032 112 84.2352 113.056C84.6832 114.096 85.3792 114.912 86.3232 115.504C87.2672 116.08 88.5072 116.368 90.0432 116.368C90.5552 116.368 91.0032 116.352 91.3872 116.32C91.7872 116.272 92.1472 116.216 92.4672 116.152C92.8032 116.088 93.1152 116.024 93.4032 115.96V110.872H89.6352V108.952ZM109.232 118H99.6561V100.864H109.232V102.76H101.816V108.112H108.8V109.984H101.816V116.104H109.232V118Z" fill="white"/>
</g>
<g filter="url(#filter1_d_31_63)">
<path d="M16.4298 241.52C15.5178 241.52 14.6938 241.68 13.9578 242C13.2218 242.304 12.5978 242.76 12.0858 243.368C11.5738 243.96 11.1818 244.688 10.9098 245.552C10.6378 246.4 10.5018 247.36 10.5018 248.432C10.5018 249.84 10.7178 251.064 11.1498 252.104C11.5978 253.144 12.2538 253.944 13.1178 254.504C13.9978 255.064 15.0938 255.344 16.4058 255.344C17.1578 255.344 17.8698 255.28 18.5418 255.152C19.2138 255.024 19.8698 254.864 20.5098 254.672V256.544C19.8698 256.784 19.2058 256.96 18.5178 257.072C17.8458 257.184 17.0378 257.24 16.0938 257.24C14.3498 257.24 12.8938 256.88 11.7258 256.16C10.5578 255.44 9.67781 254.416 9.08581 253.088C8.50981 251.76 8.22181 250.2 8.22181 248.408C8.22181 247.112 8.39781 245.928 8.74981 244.856C9.11781 243.784 9.64581 242.856 10.3338 242.072C11.0378 241.288 11.9018 240.688 12.9258 240.272C13.9498 239.84 15.1258 239.624 16.4538 239.624C17.3338 239.624 18.1818 239.712 18.9978 239.888C19.8138 240.064 20.5418 240.312 21.1818 240.632L20.3178 242.456C19.7898 242.216 19.1978 242 18.5418 241.808C17.9018 241.616 17.1978 241.52 16.4298 241.52ZM37.2819 250.952C37.2819 252.136 37.0419 253.208 36.5619 254.168C36.0819 255.112 35.3459 255.864 34.3539 256.424C33.3779 256.968 32.1299 257.24 30.6099 257.24C28.4819 257.24 26.8579 256.664 25.7379 255.512C24.6339 254.344 24.0819 252.808 24.0819 250.904V239.864H26.2419V250.976C26.2419 252.368 26.6099 253.448 27.3459 254.216C28.0979 254.984 29.2259 255.368 30.7299 255.368C31.7699 255.368 32.6099 255.184 33.2499 254.816C33.9059 254.432 34.3859 253.912 34.6899 253.256C34.9939 252.584 35.1459 251.816 35.1459 250.952V239.864H37.2819V250.952ZM46.5326 239.864C47.9566 239.864 49.1246 240.048 50.0366 240.416C50.9646 240.768 51.6526 241.304 52.1006 242.024C52.5486 242.744 52.7726 243.648 52.7726 244.736C52.7726 245.648 52.6046 246.408 52.2686 247.016C51.9326 247.624 51.5006 248.112 50.9726 248.48C50.4606 248.832 49.9166 249.112 49.3406 249.32L54.0446 257H51.5246L47.3726 249.92H43.9646V257H41.8046V239.864H46.5326ZM46.4126 241.736H43.9646V248.096H46.5326C47.4606 248.096 48.2206 247.976 48.8126 247.736C49.4046 247.48 49.8366 247.112 50.1086 246.632C50.3966 246.152 50.5406 245.552 50.5406 244.832C50.5406 244.08 50.3886 243.48 50.0846 243.032C49.7966 242.584 49.3486 242.256 48.7406 242.048C48.1326 241.84 47.3566 241.736 46.4126 241.736ZM61.4622 239.864C62.8863 239.864 64.0543 240.048 64.9663 240.416C65.8943 240.768 66.5823 241.304 67.0303 242.024C67.4783 242.744 67.7023 243.648 67.7023 244.736C67.7023 245.648 67.5343 246.408 67.1983 247.016C66.8623 247.624 66.4303 248.112 65.9023 248.48C65.3903 248.832 64.8463 249.112 64.2703 249.32L68.9743 257H66.4543L62.3023 249.92H58.8943V257H56.7343V239.864H61.4622ZM61.3423 241.736H58.8943V248.096H61.4622C62.3903 248.096 63.1503 247.976 63.7423 247.736C64.3343 247.48 64.7663 247.112 65.0383 246.632C65.3263 246.152 65.4703 245.552 65.4703 244.832C65.4703 244.08 65.3183 243.48 65.0143 243.032C64.7263 242.584 64.2783 242.256 63.6703 242.048C63.0623 241.84 62.2863 241.736 61.3423 241.736ZM81.2399 257H71.6639V239.864H81.2399V241.76H73.8239V247.112H80.8079V248.984H73.8239V255.104H81.2399V257ZM98.5839 257H96.0639L86.8959 242.768H86.7999C86.8159 243.056 86.8319 243.376 86.8479 243.728C86.8799 244.08 86.9039 244.464 86.9199 244.88C86.9359 245.28 86.9519 245.696 86.9679 246.128C86.9839 246.56 86.9919 246.992 86.9919 247.424V257H84.9999V239.864H87.4959L96.6399 254.048H96.7359C96.7199 253.856 96.7039 253.592 96.6879 253.256C96.6719 252.904 96.6559 252.52 96.6399 252.104C96.6239 251.672 96.6079 251.232 96.5919 250.784C96.5759 250.336 96.5679 249.92 96.5679 249.536V239.864H98.5839V257ZM108.658 257H106.498V241.76H101.146V239.864H113.986V241.76H108.658V257Z" fill="white"/>
</g>
<g filter="url(#filter2_d_31_63)">
<path d="M52.8757 516.864C55.1157 516.864 56.7477 517.304 57.7717 518.184C58.7957 519.064 59.3077 520.304 59.3077 521.904C59.3077 522.608 59.1877 523.288 58.9477 523.944C58.7237 524.584 58.3477 525.16 57.8197 525.672C57.2917 526.184 56.5877 526.592 55.7077 526.896C54.8277 527.184 53.7477 527.328 52.4677 527.328H50.4997V534H48.3397V516.864H52.8757ZM52.6837 518.712H50.4997V525.48H52.2277C53.3157 525.48 54.2197 525.368 54.9397 525.144C55.6597 524.904 56.1957 524.528 56.5477 524.016C56.8997 523.504 57.0757 522.832 57.0757 522C57.0757 520.896 56.7237 520.072 56.0197 519.528C55.3157 518.984 54.2037 518.712 52.6837 518.712ZM65.031 534H62.871V516.864H72.447V518.76H65.031V524.832H71.991V526.728H65.031V534Z" fill="white"/>
</g>
<g filter="url(#filter3_d_31_63)">
<path d="M24.5515 376.864C26.7915 376.864 28.4235 377.304 29.4475 378.184C30.4715 379.064 30.9835 380.304 30.9835 381.904C30.9835 382.608 30.8635 383.288 30.6235 383.944C30.3995 384.584 30.0235 385.16 29.4955 385.672C28.9675 386.184 28.2635 386.592 27.3835 386.896C26.5035 387.184 25.4235 387.328 24.1435 387.328H22.1755V394H20.0155V376.864H24.5515ZM24.3595 378.712H22.1755V385.48H23.9035C24.9915 385.48 25.8955 385.368 26.6155 385.144C27.3355 384.904 27.8715 384.528 28.2235 384.016C28.5755 383.504 28.7515 382.832 28.7515 382C28.7515 380.896 28.3995 380.072 27.6955 379.528C26.9915 378.984 25.8795 378.712 24.3595 378.712ZM49.4988 385.408C49.4988 386.736 49.3308 387.944 48.9948 389.032C48.6588 390.104 48.1548 391.032 47.4828 391.816C46.8268 392.6 46.0028 393.2 45.0108 393.616C44.0348 394.032 42.8988 394.24 41.6028 394.24C40.2588 394.24 39.0908 394.032 38.0988 393.616C37.1068 393.184 36.2828 392.584 35.6268 391.816C34.9708 391.032 34.4828 390.096 34.1628 389.008C33.8428 387.92 33.6828 386.712 33.6828 385.384C33.6828 383.624 33.9708 382.088 34.5468 380.776C35.1228 379.464 35.9948 378.44 37.1628 377.704C38.3468 376.968 39.8348 376.6 41.6268 376.6C43.3388 376.6 44.7788 376.968 45.9468 377.704C47.1148 378.424 47.9948 379.448 48.5868 380.776C49.1948 382.088 49.4988 383.632 49.4988 385.408ZM35.9628 385.408C35.9628 386.848 36.1628 388.088 36.5628 389.128C36.9628 390.168 37.5788 390.968 38.4108 391.528C39.2588 392.088 40.3228 392.368 41.6028 392.368C42.8988 392.368 43.9548 392.088 44.7708 391.528C45.6028 390.968 46.2188 390.168 46.6188 389.128C47.0188 388.088 47.2188 386.848 47.2188 385.408C47.2188 383.248 46.7708 381.56 45.8748 380.344C44.9788 379.112 43.5628 378.496 41.6268 378.496C40.3308 378.496 39.2588 378.776 38.4108 379.336C37.5788 379.88 36.9628 380.672 36.5628 381.712C36.1628 382.736 35.9628 383.968 35.9628 385.408ZM72.7424 376.864L68.1824 394H65.9984L62.6624 382.768C62.5664 382.432 62.4704 382.088 62.3744 381.736C62.2784 381.384 62.1904 381.048 62.1104 380.728C62.0304 380.408 61.9584 380.136 61.8944 379.912C61.8464 379.672 61.8144 379.496 61.7984 379.384C61.7824 379.496 61.7504 379.672 61.7024 379.912C61.6704 380.136 61.6144 380.408 61.5344 380.728C61.4544 381.048 61.3664 381.392 61.2704 381.76C61.1904 382.112 61.0944 382.472 60.9824 382.84L57.7424 394H55.5584L51.0224 376.864H53.2784L55.9424 387.328C56.0384 387.696 56.1264 388.064 56.2064 388.432C56.2864 388.784 56.3584 389.136 56.4224 389.488C56.5024 389.824 56.5664 390.152 56.6144 390.472C56.6624 390.792 56.7104 391.104 56.7584 391.408C56.8064 391.088 56.8544 390.76 56.9024 390.424C56.9664 390.088 57.0384 389.744 57.1184 389.392C57.1984 389.024 57.2864 388.656 57.3824 388.288C57.4784 387.92 57.5744 387.56 57.6704 387.208L60.6944 376.864H62.9264L66.0704 387.28C66.1824 387.648 66.2864 388.024 66.3824 388.408C66.4784 388.776 66.5664 389.136 66.6464 389.488C66.7264 389.84 66.7904 390.184 66.8384 390.52C66.9024 390.84 66.9584 391.136 67.0064 391.408C67.0544 391.008 67.1184 390.592 67.1984 390.16C67.2784 389.712 67.3744 389.248 67.4864 388.768C67.5984 388.288 67.7184 387.8 67.8464 387.304L70.4864 376.864H72.7424ZM84.9509 394H75.3749V376.864H84.9509V378.76H77.5349V384.112H84.5189V385.984H77.5349V392.104H84.9509V394ZM93.4388 376.864C94.8628 376.864 96.0308 377.048 96.9428 377.416C97.8708 377.768 98.5588 378.304 99.0068 379.024C99.4548 379.744 99.6788 380.648 99.6788 381.736C99.6788 382.648 99.5108 383.408 99.1748 384.016C98.8388 384.624 98.4068 385.112 97.8788 385.48C97.3668 385.832 96.8228 386.112 96.2468 386.32L100.951 394H98.4308L94.2788 386.92H90.8708V394H88.7108V376.864H93.4388ZM93.3188 378.736H90.8708V385.096H93.4388C94.3668 385.096 95.1268 384.976 95.7188 384.736C96.3108 384.48 96.7428 384.112 97.0148 383.632C97.3028 383.152 97.4468 382.552 97.4468 381.832C97.4468 381.08 97.2948 380.48 96.9908 380.032C96.7028 379.584 96.2548 379.256 95.6468 379.048C95.0388 378.84 94.2628 378.736 93.3188 378.736Z" fill="white"/>
</g>
<rect x="124.804" y="46.5699" width="291.949" height="130.497" rx="20" fill="black"/>
<rect x="151.707" y="64.0995" width="219.211" height="91.5426" rx="20" fill="#B2E5FD"/>
<g filter="url(#filter4_d_31_63)">
<path d="M395.21 102.336L389.09 119.472H386.93L380.81 102.336H383.066L386.93 113.328C387.106 113.792 387.258 114.24 387.386 114.672C387.514 115.104 387.626 115.52 387.722 115.92C387.834 116.304 387.93 116.688 388.01 117.072C388.09 116.688 388.178 116.296 388.274 115.896C388.386 115.496 388.506 115.08 388.634 114.648C388.778 114.216 388.93 113.76 389.09 113.28L392.93 102.336H395.21ZM399.783 116.976V119.472H397.286V116.976H399.783Z" fill="white"/>
</g>
<rect x="126" y="184" width="291" height="130" rx="20" fill="black"/>
<rect x="152" y="201" width="219" height="92" rx="20" fill="#B2E5FD"/>
<g filter="url(#filter5_d_31_63)">
<path d="M394.076 257L392.012 251.696H385.22L383.18 257H380.996L387.692 239.792H389.636L396.308 257H394.076ZM389.444 244.592C389.396 244.464 389.316 244.232 389.204 243.896C389.092 243.56 388.98 243.216 388.868 242.864C388.772 242.496 388.692 242.216 388.628 242.024C388.548 242.344 388.46 242.672 388.364 243.008C388.284 243.328 388.196 243.624 388.1 243.896C388.02 244.168 387.948 244.4 387.884 244.592L385.94 249.776H391.364L389.444 244.592ZM400.906 254.504V257H398.41V254.504H400.906Z" fill="white"/>
</g>
<rect x="126" y="323" width="291" height="130" rx="20" fill="black"/>
<rect x="152" y="340" width="219" height="91" rx="20" fill="#B2E5FD"/>
<g filter="url(#filter6_d_31_63)">
<path d="M387.43 399H384.886L378.814 390.816L377.062 392.352V399H374.902V381.864H377.062V390.312C377.542 389.768 378.03 389.224 378.526 388.68C379.022 388.136 379.518 387.592 380.014 387.048L384.646 381.864H387.166L380.374 389.328L387.43 399ZM409.442 381.864L404.882 399H402.698L399.362 387.768C399.266 387.432 399.17 387.088 399.074 386.736C398.978 386.384 398.89 386.048 398.81 385.728C398.73 385.408 398.658 385.136 398.594 384.912C398.546 384.672 398.514 384.496 398.498 384.384C398.482 384.496 398.45 384.672 398.402 384.912C398.37 385.136 398.314 385.408 398.234 385.728C398.154 386.048 398.066 386.392 397.97 386.76C397.89 387.112 397.794 387.472 397.682 387.84L394.442 399H392.258L387.722 381.864H389.978L392.642 392.328C392.738 392.696 392.826 393.064 392.906 393.432C392.986 393.784 393.058 394.136 393.122 394.488C393.202 394.824 393.266 395.152 393.314 395.472C393.362 395.792 393.41 396.104 393.458 396.408C393.506 396.088 393.554 395.76 393.602 395.424C393.666 395.088 393.738 394.744 393.818 394.392C393.898 394.024 393.986 393.656 394.082 393.288C394.178 392.92 394.274 392.56 394.37 392.208L397.394 381.864H399.626L402.77 392.28C402.882 392.648 402.986 393.024 403.082 393.408C403.178 393.776 403.266 394.136 403.346 394.488C403.426 394.84 403.49 395.184 403.538 395.52C403.602 395.84 403.658 396.136 403.706 396.408C403.754 396.008 403.818 395.592 403.898 395.16C403.978 394.712 404.074 394.248 404.186 393.768C404.298 393.288 404.418 392.8 404.546 392.304L407.186 381.864H409.442ZM414.328 396.504V399H411.832V396.504H414.328Z" fill="white"/>
</g>
<rect x="124.804" y="460.459" width="291.949" height="130.497" rx="20" fill="black"/>
<rect x="151.707" y="477.743" width="240.136" height="91.534" rx="20" fill="#B2E5FD"/>
<defs>
<filter id="filter0_d_31_63" x="4.33594" y="100.6" width="108.896" height="25.64" filterUnits="userSpaceOnUse" color-interpolation-filters="sRGB">
<feFlood flood-opacity="0" result="BackgroundImageFix"/>
<feColorMatrix in="SourceAlpha" type="matrix" values="0 0 0 0 0 0 0 0 0 0 0 0 0 0 0 0 0 0 127 0" result="hardAlpha"/>
<feOffset dy="4"/>
<feGaussianBlur stdDeviation="2"/>
<feComposite in2="hardAlpha" operator="out"/>
<feColorMatrix type="matrix" values="0 0 0 0 0 0 0 0 0 0 0 0 0 0 0 0 0 0 0.25 0"/>
<feBlend mode="normal" in2="BackgroundImageFix" result="effect1_dropShadow_31_63"/>
<feBlend mode="normal" in="SourceGraphic" in2="effect1_dropShadow_31_63" result="shape"/>
</filter>
<filter id="filter1_d_31_63" x="4.2218" y="239.624" width="113.764" height="25.616" filterUnits="userSpaceOnUse" color-interpolation-filters="sRGB">
<feFlood flood-opacity="0" result="BackgroundImageFix"/>
<feColorMatrix in="SourceAlpha" type="matrix" values="0 0 0 0 0 0 0 0 0 0 0 0 0 0 0 0 0 0 127 0" result="hardAlpha"/>
<feOffset dy="4"/>
<feGaussianBlur stdDeviation="2"/>
<feComposite in2="hardAlpha" operator="out"/>
<feColorMatrix type="matrix" values="0 0 0 0 0 0 0 0 0 0 0 0 0 0 0 0 0 0 0.25 0"/>
<feBlend mode="normal" in2="BackgroundImageFix" result="effect1_dropShadow_31_63"/>
<feBlend mode="normal" in="SourceGraphic" in2="effect1_dropShadow_31_63" result="shape"/>
</filter>
<filter id="filter2_d_31_63" x="44.3397" y="516.864" width="32.1072" height="25.136" filterUnits="userSpaceOnUse" color-interpolation-filters="sRGB">
<feFlood flood-opacity="0" result="BackgroundImageFix"/>
<feColorMatrix in="SourceAlpha" type="matrix" values="0 0 0 0 0 0 0 0 0 0 0 0 0 0 0 0 0 0 127 0" result="hardAlpha"/>
<feOffset dy="4"/>
<feGaussianBlur stdDeviation="2"/>
<feComposite in2="hardAlpha" operator="out"/>
<feColorMatrix type="matrix" values="0 0 0 0 0 0 0 0 0 0 0 0 0 0 0 0 0 0 0.25 0"/>
<feBlend mode="normal" in2="BackgroundImageFix" result="effect1_dropShadow_31_63"/>
<feBlend mode="normal" in="SourceGraphic" in2="effect1_dropShadow_31_63" result="shape"/>
</filter>
<filter id="filter3_d_31_63" x="16.0155" y="376.6" width="88.9353" height="25.6399" filterUnits="userSpaceOnUse" color-interpolation-filters="sRGB">
<feFlood flood-opacity="0" result="BackgroundImageFix"/>
<feColorMatrix in="SourceAlpha" type="matrix" values="0 0 0 0 0 0 0 0 0 0 0 0 0 0 0 0 0 0 127 0" result="hardAlpha"/>
<feOffset dy="4"/>
<feGaussianBlur stdDeviation="2"/>
<feComposite in2="hardAlpha" operator="out"/>
<feColorMatrix type="matrix" values="0 0 0 0 0 0 0 0 0 0 0 0 0 0 0 0 0 0 0.25 0"/>
<feBlend mode="normal" in2="BackgroundImageFix" result="effect1_dropShadow_31_63"/>
<feBlend mode="normal" in="SourceGraphic" in2="effect1_dropShadow_31_63" result="shape"/>
</filter>
<filter id="filter4_d_31_63" x="376.81" y="102.336" width="26.9727" height="25.136" filterUnits="userSpaceOnUse" color-interpolation-filters="sRGB">
<feFlood flood-opacity="0" result="BackgroundImageFix"/>
<feColorMatrix in="SourceAlpha" type="matrix" values="0 0 0 0 0 0 0 0 0 0 0 0 0 0 0 0 0 0 127 0" result="hardAlpha"/>
<feOffset dy="4"/>
<feGaussianBlur stdDeviation="2"/>
<feComposite in2="hardAlpha" operator="out"/>
<feColorMatrix type="matrix" values="0 0 0 0 0 0 0 0 0 0 0 0 0 0 0 0 0 0 0.25 0"/>
<feBlend mode="normal" in2="BackgroundImageFix" result="effect1_dropShadow_31_63"/>
<feBlend mode="normal" in="SourceGraphic" in2="effect1_dropShadow_31_63" result="shape"/>
</filter>
<filter id="filter5_d_31_63" x="376.996" y="239.792" width="27.9102" height="25.208" filterUnits="userSpaceOnUse" color-interpolation-filters="sRGB">
<feFlood flood-opacity="0" result="BackgroundImageFix"/>
<feColorMatrix in="SourceAlpha" type="matrix" values="0 0 0 0 0 0 0 0 0 0 0 0 0 0 0 0 0 0 127 0" result="hardAlpha"/>
<feOffset dy="4"/>
<feGaussianBlur stdDeviation="2"/>
<feComposite in2="hardAlpha" operator="out"/>
<feColorMatrix type="matrix" values="0 0 0 0 0 0 0 0 0 0 0 0 0 0 0 0 0 0 0.25 0"/>
<feBlend mode="normal" in2="BackgroundImageFix" result="effect1_dropShadow_31_63"/>
<feBlend mode="normal" in="SourceGraphic" in2="effect1_dropShadow_31_63" result="shape"/>
</filter>
<filter id="filter6_d_31_63" x="370.902" y="381.864" width="47.4259" height="25.136" filterUnits="userSpaceOnUse" color-interpolation-filters="sRGB">
<feFlood flood-opacity="0" result="BackgroundImageFix"/>
<feColorMatrix in="SourceAlpha" type="matrix" values="0 0 0 0 0 0 0 0 0 0 0 0 0 0 0 0 0 0 127 0" result="hardAlpha"/>
<feOffset dy="4"/>
<feGaussianBlur stdDeviation="2"/>
<feComposite in2="hardAlpha" operator="out"/>
<feColorMatrix type="matrix" values="0 0 0 0 0 0 0 0 0 0 0 0 0 0 0 0 0 0 0.25 0"/>
<feBlend mode="normal" in2="BackgroundImageFix" result="effect1_dropShadow_31_63"/>
<feBlend mode="normal" in="SourceGraphic" in2="effect1_dropShadow_31_63" result="shape"/>
</filter>
</defs>
</svg>
