<svg xmlns="http://www.w3.org/2000/svg" width="100%" height="100%" viewBox="0 0 36 330" fill="none">
<path d="M35.272 9.728C35.272 14.208 34.392 17.472 32.632 19.52C30.872 21.568 28.392 22.592 25.192 22.592C23.784 22.592 22.424 22.352 21.112 21.872C19.832 21.424 18.68 20.672 17.656 19.616C16.632 18.56 15.816 17.152 15.208 15.392C14.632 13.632 14.344 11.472 14.344 8.912V4.976H1V0.656H35.272V9.728ZM31.576 9.344V4.976H18.04V8.432C18.04 10.608 18.264 12.416 18.712 13.856C19.192 15.296 19.944 16.368 20.968 17.072C21.992 17.776 23.336 18.128 25 18.128C27.208 18.128 28.856 17.424 29.944 16.016C31.032 14.608 31.576 12.384 31.576 9.344ZM18.184 59.6225C15.528 59.6225 13.112 59.2865 10.936 58.6145C8.792 57.9425 6.936 56.9345 5.368 55.5905C3.8 54.2785 2.6 52.6305 1.768 50.6465C0.936 48.6945 0.52 46.4225 0.52 43.8305C0.52 41.1425 0.936 38.8065 1.768 36.8225C2.632 34.8385 3.832 33.1905 5.368 31.8785C6.936 30.5665 8.808 29.5905 10.984 28.9505C13.16 28.3105 15.576 27.9905 18.232 27.9905C21.752 27.9905 24.824 28.5665 27.448 29.7185C30.072 30.8705 32.12 32.6145 33.592 34.9505C35.064 37.3185 35.8 40.2945 35.8 43.8785C35.8 47.3025 35.064 50.1825 33.592 52.5185C32.152 54.8545 30.104 56.6145 27.448 57.7985C24.824 59.0145 21.736 59.6225 18.184 59.6225ZM18.184 32.5505C15.304 32.5505 12.824 32.9505 10.744 33.7505C8.664 34.5505 7.064 35.7825 5.944 37.4465C4.824 39.1425 4.264 41.2705 4.264 43.8305C4.264 46.4225 4.824 48.5345 5.944 50.1665C7.064 51.8305 8.664 53.0625 10.744 53.8625C12.824 54.6625 15.304 55.0625 18.184 55.0625C22.504 55.0625 25.88 54.1665 28.312 52.3745C30.776 50.5825 32.008 47.7505 32.008 43.8785C32.008 41.2865 31.448 39.1425 30.328 37.4465C29.24 35.7825 27.656 34.5505 25.576 33.7505C23.528 32.9505 21.064 32.5505 18.184 32.5505ZM35.272 106.11L1 96.9898V92.6218L23.464 85.9498C24.136 85.7578 24.824 85.5658 25.528 85.3738C26.232 85.1818 26.904 85.0058 27.544 84.8458C28.184 84.6858 28.728 84.5418 29.176 84.4138C29.656 84.3178 30.008 84.2538 30.232 84.2218C30.008 84.1898 29.656 84.1258 29.176 84.0298C28.728 83.9658 28.184 83.8538 27.544 83.6938C26.904 83.5338 26.216 83.3578 25.48 83.1658C24.776 83.0058 24.056 82.8138 23.32 82.5898L1 76.1098V71.7418L35.272 62.6698V67.1818L14.344 72.5098C13.608 72.7018 12.872 72.8778 12.136 73.0378C11.432 73.1978 10.728 73.3418 10.024 73.4698C9.352 73.6298 8.696 73.7578 8.056 73.8538C7.416 73.9498 6.792 74.0458 6.184 74.1418C6.824 74.2378 7.48 74.3338 8.152 74.4297C8.824 74.5578 9.512 74.7018 10.216 74.8618C10.952 75.0218 11.688 75.1978 12.424 75.3898C13.16 75.5818 13.88 75.7738 14.584 75.9658L35.272 82.0138V86.4778L14.44 92.7658C13.704 92.9898 12.952 93.1978 12.184 93.3898C11.448 93.5818 10.728 93.7578 10.024 93.9178C9.32 94.0778 8.632 94.2058 7.96 94.3018C7.32 94.4298 6.728 94.5418 6.184 94.6378C6.984 94.7338 7.816 94.8618 8.68 95.0218C9.576 95.1818 10.504 95.3738 11.464 95.5978C12.424 95.8218 13.4 96.0618 14.392 96.3178L35.272 101.598V106.11ZM1 130.527V111.375H35.272V130.527H31.48V115.695H20.776V129.663H17.032V115.695H4.792V130.527H1ZM35.272 147.503C35.272 150.351 34.904 152.687 34.168 154.511C33.464 156.367 32.392 157.743 30.952 158.639C29.512 159.535 27.704 159.983 25.528 159.983C23.704 159.983 22.184 159.647 20.968 158.975C19.752 158.303 18.776 157.439 18.04 156.383C17.336 155.359 16.776 154.271 16.36 153.119L1 162.527V157.487L15.16 149.183V142.367H1V138.047H35.272V147.503ZM31.528 147.263V142.367H18.808V147.503C18.808 149.359 19.048 150.879 19.528 152.063C20.04 153.247 20.776 154.111 21.736 154.655C22.696 155.231 23.896 155.519 25.336 155.519C26.84 155.519 28.04 155.215 28.936 154.607C29.832 154.031 30.488 153.135 30.904 151.919C31.32 150.703 31.528 149.151 31.528 147.263ZM1 196.385L31.048 185.105V184.913C30.408 184.977 29.592 185.025 28.6 185.057C27.608 185.121 26.52 185.169 25.336 185.201C24.184 185.233 23 185.249 21.784 185.249H1V181.265H35.272V187.649L7.192 198.209V198.401L35.272 209.153V215.489H1V211.217H22.072C23.192 211.217 24.296 211.233 25.384 211.265C26.504 211.297 27.544 211.345 28.504 211.409C29.496 211.473 30.328 211.521 31 211.553V211.361L1 199.937V196.385ZM1 243.964V224.812H35.272V243.964H31.48V229.132H20.776V243.1H17.032V229.132H4.792V243.964H1ZM1 262.332V258.012H31.48V247.308H35.272V272.988H31.48V262.332H1ZM1 297.308V278.156H35.272V297.308H31.48V282.476H20.776V296.444H17.032V282.476H4.792V297.308H1ZM35.272 314.284C35.272 317.132 34.904 319.468 34.168 321.292C33.464 323.148 32.392 324.524 30.952 325.42C29.512 326.316 27.704 326.764 25.528 326.764C23.704 326.764 22.184 326.428 20.968 325.756C19.752 325.084 18.776 324.22 18.04 323.164C17.336 322.14 16.776 321.052 16.36 319.9L1 329.308V324.268L15.16 315.964V309.148H1V304.828H35.272V314.284ZM31.528 314.044V309.148H18.808V314.284C18.808 316.14 19.048 317.66 19.528 318.844C20.04 320.028 20.776 320.892 21.736 321.436C22.696 322.012 23.896 322.3 25.336 322.3C26.84 322.3 28.04 321.996 28.936 321.388C29.832 320.812 30.488 319.916 30.904 318.7C31.32 317.484 31.528 315.932 31.528 314.044Z" fill="white"/>
</svg>
